solid OpenSCAD_Model
  facet normal -1 0 0
    outer loop
      vertex 12.5 -2.5 -10
      vertex 12.5 2.5 0
      vertex 12.5 2.5 -10
    endloop
  endfacet
  facet normal -1 -0 0
    outer loop
      vertex 12.5 2.5 0
      vertex 12.5 -2.5 -10
      vertex 12.5 -2.5 0
    endloop
  endfacet
  facet normal 0 0 -1
    outer loop
      vertex 7.5 -2.5 0
      vertex 12.5 2.5 0
      vertex 12.5 -2.5 0
    endloop
  endfacet
  facet normal -0 0 -1
    outer loop
      vertex 12.5 2.5 0
      vertex 7.5 -2.5 0
      vertex 7.5 2.5 0
    endloop
  endfacet
  facet normal 1 -0 0
    outer loop
      vertex 7.5 -2.5 0
      vertex 7.5 2.5 -10
      vertex 7.5 2.5 0
    endloop
  endfacet
  facet normal 1 0 0
    outer loop
      vertex 7.5 2.5 -10
      vertex 7.5 -2.5 0
      vertex 7.5 -2.5 -10
    endloop
  endfacet
  facet normal 0 -1 0
    outer loop
      vertex 7.5 2.5 -10
      vertex 12.5 2.5 0
      vertex 7.5 2.5 0
    endloop
  endfacet
  facet normal 0 -1 -0
    outer loop
      vertex 12.5 2.5 0
      vertex 7.5 2.5 -10
      vertex 12.5 2.5 -10
    endloop
  endfacet
  facet normal 0 1 -0
    outer loop
      vertex 12.5 -2.5 -10
      vertex 7.5 -2.5 0
      vertex 12.5 -2.5 0
    endloop
  endfacet
  facet normal 0 1 0
    outer loop
      vertex 7.5 -2.5 0
      vertex 12.5 -2.5 -10
      vertex 7.5 -2.5 -10
    endloop
  endfacet
  facet normal 0 0 -1
    outer loop
      vertex -2.5 7.5 0
      vertex 2.5 12.5 0
      vertex 2.5 7.5 0
    endloop
  endfacet
  facet normal -0 0 -1
    outer loop
      vertex 2.5 12.5 0
      vertex -2.5 7.5 0
      vertex -2.5 12.5 0
    endloop
  endfacet
  facet normal 0 1 -0
    outer loop
      vertex 2.5 7.5 -10
      vertex -2.5 7.5 0
      vertex 2.5 7.5 0
    endloop
  endfacet
  facet normal 0 1 0
    outer loop
      vertex -2.5 7.5 0
      vertex 2.5 7.5 -10
      vertex -2.5 7.5 -10
    endloop
  endfacet
  facet normal 1 -0 0
    outer loop
      vertex -2.5 7.5 0
      vertex -2.5 12.5 -10
      vertex -2.5 12.5 0
    endloop
  endfacet
  facet normal 1 0 0
    outer loop
      vertex -2.5 12.5 -10
      vertex -2.5 7.5 0
      vertex -2.5 7.5 -10
    endloop
  endfacet
  facet normal -1 0 0
    outer loop
      vertex 2.5 7.5 -10
      vertex 2.5 12.5 0
      vertex 2.5 12.5 -10
    endloop
  endfacet
  facet normal -1 -0 0
    outer loop
      vertex 2.5 12.5 0
      vertex 2.5 7.5 -10
      vertex 2.5 7.5 0
    endloop
  endfacet
  facet normal 0 -1 0
    outer loop
      vertex -2.5 12.5 -10
      vertex 2.5 12.5 0
      vertex -2.5 12.5 0
    endloop
  endfacet
  facet normal 0 -1 -0
    outer loop
      vertex 2.5 12.5 0
      vertex -2.5 12.5 -10
      vertex 2.5 12.5 -10
    endloop
  endfacet
  facet normal 0 0 -1
    outer loop
      vertex -12.5 -2.5 0
      vertex -7.5 2.5 0
      vertex -7.5 -2.5 0
    endloop
  endfacet
  facet normal -0 0 -1
    outer loop
      vertex -7.5 2.5 0
      vertex -12.5 -2.5 0
      vertex -12.5 2.5 0
    endloop
  endfacet
  facet normal -1 0 0
    outer loop
      vertex -7.5 -2.5 -10
      vertex -7.5 2.5 0
      vertex -7.5 2.5 -10
    endloop
  endfacet
  facet normal -1 -0 0
    outer loop
      vertex -7.5 2.5 0
      vertex -7.5 -2.5 -10
      vertex -7.5 -2.5 0
    endloop
  endfacet
  facet normal 0 -1 0
    outer loop
      vertex -12.5 2.5 -10
      vertex -7.5 2.5 0
      vertex -12.5 2.5 0
    endloop
  endfacet
  facet normal 0 -1 -0
    outer loop
      vertex -7.5 2.5 0
      vertex -12.5 2.5 -10
      vertex -7.5 2.5 -10
    endloop
  endfacet
  facet normal 0 1 -0
    outer loop
      vertex -7.5 -2.5 -10
      vertex -12.5 -2.5 0
      vertex -7.5 -2.5 0
    endloop
  endfacet
  facet normal 0 1 0
    outer loop
      vertex -12.5 -2.5 0
      vertex -7.5 -2.5 -10
      vertex -12.5 -2.5 -10
    endloop
  endfacet
  facet normal 1 -0 0
    outer loop
      vertex -12.5 -2.5 0
      vertex -12.5 2.5 -10
      vertex -12.5 2.5 0
    endloop
  endfacet
  facet normal 1 0 0
    outer loop
      vertex -12.5 2.5 -10
      vertex -12.5 -2.5 0
      vertex -12.5 -2.5 -10
    endloop
  endfacet
  facet normal 0 1 -0
    outer loop
      vertex 2.5 -12.5 -10
      vertex -2.5 -12.5 0
      vertex 2.5 -12.5 0
    endloop
  endfacet
  facet normal 0 1 0
    outer loop
      vertex -2.5 -12.5 0
      vertex 2.5 -12.5 -10
      vertex -2.5 -12.5 -10
    endloop
  endfacet
  facet normal 0 0 -1
    outer loop
      vertex -2.5 -12.5 0
      vertex 2.5 -7.5 0
      vertex 2.5 -12.5 0
    endloop
  endfacet
  facet normal -0 0 -1
    outer loop
      vertex 2.5 -7.5 0
      vertex -2.5 -12.5 0
      vertex -2.5 -7.5 0
    endloop
  endfacet
  facet normal 0 -1 0
    outer loop
      vertex -2.5 -7.5 -10
      vertex 2.5 -7.5 0
      vertex -2.5 -7.5 0
    endloop
  endfacet
  facet normal 0 -1 -0
    outer loop
      vertex 2.5 -7.5 0
      vertex -2.5 -7.5 -10
      vertex 2.5 -7.5 -10
    endloop
  endfacet
  facet normal -1 0 0
    outer loop
      vertex 2.5 -12.5 -10
      vertex 2.5 -7.5 0
      vertex 2.5 -7.5 -10
    endloop
  endfacet
  facet normal -1 -0 0
    outer loop
      vertex 2.5 -7.5 0
      vertex 2.5 -12.5 -10
      vertex 2.5 -12.5 0
    endloop
  endfacet
  facet normal 1 -0 0
    outer loop
      vertex -2.5 -12.5 0
      vertex -2.5 -7.5 -10
      vertex -2.5 -7.5 0
    endloop
  endfacet
  facet normal 1 0 0
    outer loop
      vertex -2.5 -7.5 -10
      vertex -2.5 -12.5 0
      vertex -2.5 -12.5 -10
    endloop
  endfacet
  facet normal 1 -0 0
    outer loop
      vertex 8.5 -2.5 10
      vertex 8.5 2.5 6
      vertex 8.5 2.5 10
    endloop
  endfacet
  facet normal 1 0 0
    outer loop
      vertex 8.5 2.5 6
      vertex 8.5 -2.5 10
      vertex 8.5 -2.5 6
    endloop
  endfacet
  facet normal -1 0 0
    outer loop
      vertex 3.5 -2.5 6
      vertex 3.5 2.5 10
      vertex 3.5 2.5 6
    endloop
  endfacet
  facet normal -1 -0 0
    outer loop
      vertex 3.5 2.5 10
      vertex 3.5 -2.5 6
      vertex 3.5 -2.5 10
    endloop
  endfacet
  facet normal 0 1 -0
    outer loop
      vertex 8.5 2.5 6
      vertex 3.5 2.5 10
      vertex 8.5 2.5 10
    endloop
  endfacet
  facet normal 0 1 0
    outer loop
      vertex 3.5 2.5 10
      vertex 8.5 2.5 6
      vertex 3.5 2.5 6
    endloop
  endfacet
  facet normal 0 -1 0
    outer loop
      vertex 3.5 -2.5 6
      vertex 8.5 -2.5 10
      vertex 3.5 -2.5 10
    endloop
  endfacet
  facet normal 0 -1 -0
    outer loop
      vertex 8.5 -2.5 10
      vertex 3.5 -2.5 6
      vertex 8.5 -2.5 6
    endloop
  endfacet
  facet normal 0 1 -0
    outer loop
      vertex 2.5 8.5 6
      vertex -2.5 8.5 10
      vertex 2.5 8.5 10
    endloop
  endfacet
  facet normal 0 1 0
    outer loop
      vertex -2.5 8.5 10
      vertex 2.5 8.5 6
      vertex -2.5 8.5 6
    endloop
  endfacet
  facet normal 0 -1 0
    outer loop
      vertex -2.5 3.5 6
      vertex 2.5 3.5 10
      vertex -2.5 3.5 10
    endloop
  endfacet
  facet normal 0 -1 -0
    outer loop
      vertex 2.5 3.5 10
      vertex -2.5 3.5 6
      vertex 2.5 3.5 6
    endloop
  endfacet
  facet normal -1 0 0
    outer loop
      vertex -2.5 3.5 6
      vertex -2.5 8.5 10
      vertex -2.5 8.5 6
    endloop
  endfacet
  facet normal -1 -0 0
    outer loop
      vertex -2.5 8.5 10
      vertex -2.5 3.5 6
      vertex -2.5 3.5 10
    endloop
  endfacet
  facet normal 1 -0 0
    outer loop
      vertex 2.5 3.5 10
      vertex 2.5 8.5 6
      vertex 2.5 8.5 10
    endloop
  endfacet
  facet normal 1 0 0
    outer loop
      vertex 2.5 8.5 6
      vertex 2.5 3.5 10
      vertex 2.5 3.5 6
    endloop
  endfacet
  facet normal -1 0 0
    outer loop
      vertex -8.5 -2.5 6
      vertex -8.5 2.5 10
      vertex -8.5 2.5 6
    endloop
  endfacet
  facet normal -1 -0 0
    outer loop
      vertex -8.5 2.5 10
      vertex -8.5 -2.5 6
      vertex -8.5 -2.5 10
    endloop
  endfacet
  facet normal 1 -0 0
    outer loop
      vertex -3.5 -2.5 10
      vertex -3.5 2.5 6
      vertex -3.5 2.5 10
    endloop
  endfacet
  facet normal 1 0 0
    outer loop
      vertex -3.5 2.5 6
      vertex -3.5 -2.5 10
      vertex -3.5 -2.5 6
    endloop
  endfacet
  facet normal 0 -1 0
    outer loop
      vertex -8.5 -2.5 6
      vertex -3.5 -2.5 10
      vertex -8.5 -2.5 10
    endloop
  endfacet
  facet normal 0 -1 -0
    outer loop
      vertex -3.5 -2.5 10
      vertex -8.5 -2.5 6
      vertex -3.5 -2.5 6
    endloop
  endfacet
  facet normal 0 1 -0
    outer loop
      vertex -3.5 2.5 6
      vertex -8.5 2.5 10
      vertex -3.5 2.5 10
    endloop
  endfacet
  facet normal 0 1 0
    outer loop
      vertex -8.5 2.5 10
      vertex -3.5 2.5 6
      vertex -8.5 2.5 6
    endloop
  endfacet
  facet normal 0 -1 0
    outer loop
      vertex -2.5 -8.5 6
      vertex 2.5 -8.5 10
      vertex -2.5 -8.5 10
    endloop
  endfacet
  facet normal 0 -1 -0
    outer loop
      vertex 2.5 -8.5 10
      vertex -2.5 -8.5 6
      vertex 2.5 -8.5 6
    endloop
  endfacet
  facet normal 0 1 -0
    outer loop
      vertex 2.5 -3.5 6
      vertex -2.5 -3.5 10
      vertex 2.5 -3.5 10
    endloop
  endfacet
  facet normal 0 1 0
    outer loop
      vertex -2.5 -3.5 10
      vertex 2.5 -3.5 6
      vertex -2.5 -3.5 6
    endloop
  endfacet
  facet normal -1 0 0
    outer loop
      vertex -2.5 -8.5 6
      vertex -2.5 -3.5 10
      vertex -2.5 -3.5 6
    endloop
  endfacet
  facet normal -1 -0 0
    outer loop
      vertex -2.5 -3.5 10
      vertex -2.5 -8.5 6
      vertex -2.5 -8.5 10
    endloop
  endfacet
  facet normal 1 -0 0
    outer loop
      vertex 2.5 -8.5 10
      vertex 2.5 -3.5 6
      vertex 2.5 -3.5 10
    endloop
  endfacet
  facet normal 1 0 0
    outer loop
      vertex 2.5 -3.5 6
      vertex 2.5 -8.5 10
      vertex 2.5 -8.5 6
    endloop
  endfacet
  facet normal -0.951059 -0.309008 0
    outer loop
      vertex 10.7596 2.28703 6
      vertex 10.049 4.4741 10
      vertex 10.049 4.4741 6
    endloop
  endfacet
  facet normal -0.951059 -0.309008 0
    outer loop
      vertex 10.049 4.4741 10
      vertex 10.7596 2.28703 6
      vertex 10.7596 2.28703 10
    endloop
  endfacet
  facet normal -0.994521 -0.104539 0
    outer loop
      vertex 11 0 6
      vertex 10.7596 2.28703 10
      vertex 10.7596 2.28703 6
    endloop
  endfacet
  facet normal -0.994521 -0.104539 0
    outer loop
      vertex 10.7596 2.28703 10
      vertex 11 0 6
      vertex 11 0 10
    endloop
  endfacet
  facet normal -0.951059 0.309008 0
    outer loop
      vertex 10.049 -4.4741 6
      vertex 10.7596 -2.28703 10
      vertex 10.7596 -2.28703 6
    endloop
  endfacet
  facet normal -0.951059 0.309008 0
    outer loop
      vertex 10.7596 -2.28703 10
      vertex 10.049 -4.4741 6
      vertex 10.049 -4.4741 10
    endloop
  endfacet
  facet normal 0.587786 0.809017 -0
    outer loop
      vertex -5.5 -9.52628 6
      vertex -7.36044 -8.17459 10
      vertex -5.5 -9.52628 10
    endloop
  endfacet
  facet normal 0.587786 0.809017 0
    outer loop
      vertex -7.36044 -8.17459 10
      vertex -5.5 -9.52628 6
      vertex -7.36044 -8.17459 6
    endloop
  endfacet
  facet normal -0.207903 0.978149 0
    outer loop
      vertex 3.39919 -10.4616 6
      vertex 1.14981 -10.9397 10
      vertex 3.39919 -10.4616 10
    endloop
  endfacet
  facet normal -0.207903 0.978149 0
    outer loop
      vertex 1.14981 -10.9397 10
      vertex 3.39919 -10.4616 6
      vertex 1.14981 -10.9397 6
    endloop
  endfacet
  facet normal 0.866027 0.499998 0
    outer loop
      vertex -8.89919 -6.46564 10
      vertex -10.049 -4.4741 6
      vertex -10.049 -4.4741 10
    endloop
  endfacet
  facet normal 0.866027 0.499998 0
    outer loop
      vertex -10.049 -4.4741 6
      vertex -8.89919 -6.46564 10
      vertex -8.89919 -6.46564 6
    endloop
  endfacet
  facet normal -0.207903 -0.978149 0
    outer loop
      vertex 1.14981 10.9397 6
      vertex 3.39919 10.4616 10
      vertex 1.14981 10.9397 10
    endloop
  endfacet
  facet normal -0.207903 -0.978149 -0
    outer loop
      vertex 3.39919 10.4616 10
      vertex 1.14981 10.9397 6
      vertex 3.39919 10.4616 6
    endloop
  endfacet
  facet normal 0.207903 0.978149 -0
    outer loop
      vertex -1.14981 -10.9397 6
      vertex -3.39919 -10.4616 10
      vertex -1.14981 -10.9397 10
    endloop
  endfacet
  facet normal 0.207903 0.978149 0
    outer loop
      vertex -3.39919 -10.4616 10
      vertex -1.14981 -10.9397 6
      vertex -3.39919 -10.4616 6
    endloop
  endfacet
  facet normal -0.587786 -0.809017 0
    outer loop
      vertex 5.5 9.52628 6
      vertex 7.36044 8.17459 10
      vertex 5.5 9.52628 10
    endloop
  endfacet
  facet normal -0.587786 -0.809017 -0
    outer loop
      vertex 7.36044 8.17459 10
      vertex 5.5 9.52628 6
      vertex 7.36044 8.17459 6
    endloop
  endfacet
  facet normal -0.406729 -0.913549 0
    outer loop
      vertex 3.39919 10.4616 6
      vertex 5.5 9.52628 10
      vertex 3.39919 10.4616 10
    endloop
  endfacet
  facet normal -0.406729 -0.913549 -0
    outer loop
      vertex 5.5 9.52628 10
      vertex 3.39919 10.4616 6
      vertex 5.5 9.52628 6
    endloop
  endfacet
  facet normal 0.951059 -0.309008 0
    outer loop
      vertex -10.7596 2.28703 10
      vertex -10.049 4.4741 6
      vertex -10.049 4.4741 10
    endloop
  endfacet
  facet normal 0.951059 -0.309008 0
    outer loop
      vertex -10.049 4.4741 6
      vertex -10.7596 2.28703 10
      vertex -10.7596 2.28703 6
    endloop
  endfacet
  facet normal 0.406729 0.913549 -0
    outer loop
      vertex -3.39919 -10.4616 6
      vertex -5.5 -9.52628 10
      vertex -3.39919 -10.4616 10
    endloop
  endfacet
  facet normal 0.406729 0.913549 0
    outer loop
      vertex -5.5 -9.52628 10
      vertex -3.39919 -10.4616 6
      vertex -5.5 -9.52628 6
    endloop
  endfacet
  facet normal 0.866027 -0.499998 0
    outer loop
      vertex -10.049 4.4741 10
      vertex -8.89919 6.46564 6
      vertex -8.89919 6.46564 10
    endloop
  endfacet
  facet normal 0.866027 -0.499998 0
    outer loop
      vertex -8.89919 6.46564 6
      vertex -10.049 4.4741 10
      vertex -10.049 4.4741 6
    endloop
  endfacet
  facet normal -0.587786 0.809017 0
    outer loop
      vertex 7.36044 -8.17459 6
      vertex 5.5 -9.52628 10
      vertex 7.36044 -8.17459 10
    endloop
  endfacet
  facet normal -0.587786 0.809017 0
    outer loop
      vertex 5.5 -9.52628 10
      vertex 7.36044 -8.17459 6
      vertex 5.5 -9.52628 6
    endloop
  endfacet
  facet normal 0.207903 -0.978149 0
    outer loop
      vertex -3.39919 10.4616 6
      vertex -1.14981 10.9397 10
      vertex -3.39919 10.4616 10
    endloop
  endfacet
  facet normal 0.207903 -0.978149 0
    outer loop
      vertex -1.14981 10.9397 10
      vertex -3.39919 10.4616 6
      vertex -1.14981 10.9397 6
    endloop
  endfacet
  facet normal -0.994521 0.104539 0
    outer loop
      vertex 10.7596 -2.28703 6
      vertex 11 0 10
      vertex 11 0 6
    endloop
  endfacet
  facet normal -0.994521 0.104539 0
    outer loop
      vertex 11 0 10
      vertex 10.7596 -2.28703 6
      vertex 10.7596 -2.28703 10
    endloop
  endfacet
  facet normal 0.743144 -0.669132 0
    outer loop
      vertex -8.89919 6.46564 10
      vertex -7.36044 8.17459 6
      vertex -7.36044 8.17459 10
    endloop
  endfacet
  facet normal 0.743144 -0.669132 0
    outer loop
      vertex -7.36044 8.17459 6
      vertex -8.89919 6.46564 10
      vertex -8.89919 6.46564 6
    endloop
  endfacet
  facet normal 0 -1 0
    outer loop
      vertex -1.14981 10.9397 6
      vertex 1.14981 10.9397 10
      vertex -1.14981 10.9397 10
    endloop
  endfacet
  facet normal 0 -1 -0
    outer loop
      vertex 1.14981 10.9397 10
      vertex -1.14981 10.9397 6
      vertex 1.14981 10.9397 6
    endloop
  endfacet
  facet normal -0.866027 0.499998 0
    outer loop
      vertex 8.89919 -6.46564 6
      vertex 10.049 -4.4741 10
      vertex 10.049 -4.4741 6
    endloop
  endfacet
  facet normal -0.866027 0.499998 0
    outer loop
      vertex 10.049 -4.4741 10
      vertex 8.89919 -6.46564 6
      vertex 8.89919 -6.46564 10
    endloop
  endfacet
  facet normal 0.587786 -0.809017 0
    outer loop
      vertex -7.36044 8.17459 6
      vertex -5.5 9.52628 10
      vertex -7.36044 8.17459 10
    endloop
  endfacet
  facet normal 0.587786 -0.809017 0
    outer loop
      vertex -5.5 9.52628 10
      vertex -7.36044 8.17459 6
      vertex -5.5 9.52628 6
    endloop
  endfacet
  facet normal -0.406729 0.913549 0
    outer loop
      vertex 5.5 -9.52628 6
      vertex 3.39919 -10.4616 10
      vertex 5.5 -9.52628 10
    endloop
  endfacet
  facet normal -0.406729 0.913549 0
    outer loop
      vertex 3.39919 -10.4616 10
      vertex 5.5 -9.52628 6
      vertex 3.39919 -10.4616 6
    endloop
  endfacet
  facet normal 0.406729 -0.913549 0
    outer loop
      vertex -5.5 9.52628 6
      vertex -3.39919 10.4616 10
      vertex -5.5 9.52628 10
    endloop
  endfacet
  facet normal 0.406729 -0.913549 0
    outer loop
      vertex -3.39919 10.4616 10
      vertex -5.5 9.52628 6
      vertex -3.39919 10.4616 6
    endloop
  endfacet
  facet normal -0.743144 0.669132 0
    outer loop
      vertex 7.36044 -8.17459 6
      vertex 8.89919 -6.46564 10
      vertex 8.89919 -6.46564 6
    endloop
  endfacet
  facet normal -0.743144 0.669132 0
    outer loop
      vertex 8.89919 -6.46564 10
      vertex 7.36044 -8.17459 6
      vertex 7.36044 -8.17459 10
    endloop
  endfacet
  facet normal -0.743144 -0.669132 0
    outer loop
      vertex 8.89919 6.46564 6
      vertex 7.36044 8.17459 10
      vertex 7.36044 8.17459 6
    endloop
  endfacet
  facet normal -0.743144 -0.669132 0
    outer loop
      vertex 7.36044 8.17459 10
      vertex 8.89919 6.46564 6
      vertex 8.89919 6.46564 10
    endloop
  endfacet
  facet normal 0.994521 -0.104539 0
    outer loop
      vertex -11 0 10
      vertex -10.7596 2.28703 6
      vertex -10.7596 2.28703 10
    endloop
  endfacet
  facet normal 0.994521 -0.104539 0
    outer loop
      vertex -10.7596 2.28703 6
      vertex -11 0 10
      vertex -11 0 6
    endloop
  endfacet
  facet normal -0.866027 -0.499998 0
    outer loop
      vertex 10.049 4.4741 6
      vertex 8.89919 6.46564 10
      vertex 8.89919 6.46564 6
    endloop
  endfacet
  facet normal -0.866027 -0.499998 0
    outer loop
      vertex 8.89919 6.46564 10
      vertex 10.049 4.4741 6
      vertex 10.049 4.4741 10
    endloop
  endfacet
  facet normal 0 0 1
    outer loop
      vertex 11 0 10
      vertex 15 0 10
      vertex 14.6722 3.11868 10
    endloop
  endfacet
  facet normal 0 0 1
    outer loop
      vertex 10.7596 2.28703 10
      vertex 14.6722 3.11868 10
      vertex 13.7032 6.10105 10
    endloop
  endfacet
  facet normal 0 0 1
    outer loop
      vertex 15 0 10
      vertex 11 0 10
      vertex 14.6722 -3.11868 10
    endloop
  endfacet
  facet normal 0 0 1
    outer loop
      vertex 10.049 4.4741 10
      vertex 13.7032 6.10105 10
      vertex 12.1353 8.81678 10
    endloop
  endfacet
  facet normal -0 0 1
    outer loop
      vertex 10.7596 -2.28703 10
      vertex 14.6722 -3.11868 10
      vertex 11 0 10
    endloop
  endfacet
  facet normal 0 0 1
    outer loop
      vertex 14.6722 -3.11868 10
      vertex 10.7596 -2.28703 10
      vertex 13.7032 -6.10105 10
    endloop
  endfacet
  facet normal 0 0 1
    outer loop
      vertex 14.6722 3.11868 10
      vertex 10.7596 2.28703 10
      vertex 11 0 10
    endloop
  endfacet
  facet normal 0 0 1
    outer loop
      vertex 13.7032 6.10105 10
      vertex 10.049 4.4741 10
      vertex 10.7596 2.28703 10
    endloop
  endfacet
  facet normal 0 0 1
    outer loop
      vertex 8.89919 6.46564 10
      vertex 12.1353 8.81678 10
      vertex 10.037 11.1472 10
    endloop
  endfacet
  facet normal 0 0 1
    outer loop
      vertex 12.1353 8.81678 10
      vertex 8.89919 6.46564 10
      vertex 10.049 4.4741 10
    endloop
  endfacet
  facet normal 0 0 1
    outer loop
      vertex 7.36044 8.17459 10
      vertex 10.037 11.1472 10
      vertex 7.5 12.9904 10
    endloop
  endfacet
  facet normal 0 0 1
    outer loop
      vertex 10.037 11.1472 10
      vertex 7.36044 8.17459 10
      vertex 8.89919 6.46564 10
    endloop
  endfacet
  facet normal 0 0 1
    outer loop
      vertex 7.5 12.9904 10
      vertex 5.5 9.52628 10
      vertex 7.36044 8.17459 10
    endloop
  endfacet
  facet normal 0 0 1
    outer loop
      vertex 4.63525 14.2658 10
      vertex 5.5 9.52628 10
      vertex 7.5 12.9904 10
    endloop
  endfacet
  facet normal 0 0 1
    outer loop
      vertex 4.63525 14.2658 10
      vertex 3.39919 10.4616 10
      vertex 5.5 9.52628 10
    endloop
  endfacet
  facet normal 0 0 1
    outer loop
      vertex 1.56793 14.9178 10
      vertex 3.39919 10.4616 10
      vertex 4.63525 14.2658 10
    endloop
  endfacet
  facet normal 0 0 1
    outer loop
      vertex 1.56793 14.9178 10
      vertex 1.14981 10.9397 10
      vertex 3.39919 10.4616 10
    endloop
  endfacet
  facet normal 0 0 1
    outer loop
      vertex 1.56793 14.9178 10
      vertex -1.14981 10.9397 10
      vertex 1.14981 10.9397 10
    endloop
  endfacet
  facet normal -0 0 1
    outer loop
      vertex -1.56793 14.9178 10
      vertex -1.14981 10.9397 10
      vertex 1.56793 14.9178 10
    endloop
  endfacet
  facet normal 0 0 1
    outer loop
      vertex -1.56793 14.9178 10
      vertex -3.39919 10.4616 10
      vertex -1.14981 10.9397 10
    endloop
  endfacet
  facet normal -0 0 1
    outer loop
      vertex -4.63525 14.2658 10
      vertex -3.39919 10.4616 10
      vertex -1.56793 14.9178 10
    endloop
  endfacet
  facet normal 0 0 1
    outer loop
      vertex -4.63525 14.2658 10
      vertex -5.5 9.52628 10
      vertex -3.39919 10.4616 10
    endloop
  endfacet
  facet normal -0 0 1
    outer loop
      vertex -7.5 12.9904 10
      vertex -5.5 9.52628 10
      vertex -4.63525 14.2658 10
    endloop
  endfacet
  facet normal 0 0 1
    outer loop
      vertex -5.5 9.52628 10
      vertex -7.5 12.9904 10
      vertex -7.36044 8.17459 10
    endloop
  endfacet
  facet normal -0 0 1
    outer loop
      vertex -10.037 11.1472 10
      vertex -7.36044 8.17459 10
      vertex -7.5 12.9904 10
    endloop
  endfacet
  facet normal 0 0 1
    outer loop
      vertex -7.36044 8.17459 10
      vertex -10.037 11.1472 10
      vertex -8.89919 6.46564 10
    endloop
  endfacet
  facet normal -0 0 1
    outer loop
      vertex -12.1353 8.81678 10
      vertex -8.89919 6.46564 10
      vertex -10.037 11.1472 10
    endloop
  endfacet
  facet normal 0 0 1
    outer loop
      vertex -8.89919 6.46564 10
      vertex -12.1353 8.81678 10
      vertex -10.049 4.4741 10
    endloop
  endfacet
  facet normal -0 0 1
    outer loop
      vertex -13.7032 6.10105 10
      vertex -10.049 4.4741 10
      vertex -12.1353 8.81678 10
    endloop
  endfacet
  facet normal 0 0 1
    outer loop
      vertex -10.049 4.4741 10
      vertex -13.7032 6.10105 10
      vertex -10.7596 2.28703 10
    endloop
  endfacet
  facet normal -0 0 1
    outer loop
      vertex 10.049 -4.4741 10
      vertex 13.7032 -6.10105 10
      vertex 10.7596 -2.28703 10
    endloop
  endfacet
  facet normal 0 0 1
    outer loop
      vertex 13.7032 -6.10105 10
      vertex 10.049 -4.4741 10
      vertex 12.1353 -8.81678 10
    endloop
  endfacet
  facet normal -0 0 1
    outer loop
      vertex 8.89919 -6.46564 10
      vertex 12.1353 -8.81678 10
      vertex 10.049 -4.4741 10
    endloop
  endfacet
  facet normal 0 0 1
    outer loop
      vertex 12.1353 -8.81678 10
      vertex 8.89919 -6.46564 10
      vertex 10.037 -11.1472 10
    endloop
  endfacet
  facet normal -0 0 1
    outer loop
      vertex 7.36044 -8.17459 10
      vertex 10.037 -11.1472 10
      vertex 8.89919 -6.46564 10
    endloop
  endfacet
  facet normal 0 0 1
    outer loop
      vertex 10.037 -11.1472 10
      vertex 7.36044 -8.17459 10
      vertex 7.5 -12.9904 10
    endloop
  endfacet
  facet normal -0 0 1
    outer loop
      vertex 5.5 -9.52628 10
      vertex 7.5 -12.9904 10
      vertex 7.36044 -8.17459 10
    endloop
  endfacet
  facet normal 0 0 1
    outer loop
      vertex 5.5 -9.52628 10
      vertex 4.63525 -14.2658 10
      vertex 7.5 -12.9904 10
    endloop
  endfacet
  facet normal -0 0 1
    outer loop
      vertex 3.39919 -10.4616 10
      vertex 4.63525 -14.2658 10
      vertex 5.5 -9.52628 10
    endloop
  endfacet
  facet normal 0 0 1
    outer loop
      vertex 3.39919 -10.4616 10
      vertex 1.56793 -14.9178 10
      vertex 4.63525 -14.2658 10
    endloop
  endfacet
  facet normal -0 0 1
    outer loop
      vertex 1.14981 -10.9397 10
      vertex 1.56793 -14.9178 10
      vertex 3.39919 -10.4616 10
    endloop
  endfacet
  facet normal -0 0 1
    outer loop
      vertex -1.14981 -10.9397 10
      vertex 1.56793 -14.9178 10
      vertex 1.14981 -10.9397 10
    endloop
  endfacet
  facet normal 0 0 1
    outer loop
      vertex -1.14981 -10.9397 10
      vertex -1.56793 -14.9178 10
      vertex 1.56793 -14.9178 10
    endloop
  endfacet
  facet normal 0 0 1
    outer loop
      vertex -3.39919 -10.4616 10
      vertex -1.56793 -14.9178 10
      vertex -1.14981 -10.9397 10
    endloop
  endfacet
  facet normal 0 0 1
    outer loop
      vertex -3.39919 -10.4616 10
      vertex -4.63525 -14.2658 10
      vertex -1.56793 -14.9178 10
    endloop
  endfacet
  facet normal 0 0 1
    outer loop
      vertex -5.5 -9.52628 10
      vertex -4.63525 -14.2658 10
      vertex -3.39919 -10.4616 10
    endloop
  endfacet
  facet normal 0 0 1
    outer loop
      vertex -7.5 -12.9904 10
      vertex -5.5 -9.52628 10
      vertex -7.36044 -8.17459 10
    endloop
  endfacet
  facet normal 0 0 1
    outer loop
      vertex -5.5 -9.52628 10
      vertex -7.5 -12.9904 10
      vertex -4.63525 -14.2658 10
    endloop
  endfacet
  facet normal 0 0 1
    outer loop
      vertex -10.037 -11.1472 10
      vertex -7.36044 -8.17459 10
      vertex -8.89919 -6.46564 10
    endloop
  endfacet
  facet normal 0 0 1
    outer loop
      vertex -7.36044 -8.17459 10
      vertex -10.037 -11.1472 10
      vertex -7.5 -12.9904 10
    endloop
  endfacet
  facet normal 0 0 1
    outer loop
      vertex -12.1353 -8.81678 10
      vertex -8.89919 -6.46564 10
      vertex -10.049 -4.4741 10
    endloop
  endfacet
  facet normal 0 0 1
    outer loop
      vertex -13.7032 -6.10105 10
      vertex -10.049 -4.4741 10
      vertex -10.7596 -2.28703 10
    endloop
  endfacet
  facet normal 0 0 1
    outer loop
      vertex -14.6722 -3.11868 10
      vertex -10.7596 -2.28703 10
      vertex -11 0 10
    endloop
  endfacet
  facet normal -0 0 1
    outer loop
      vertex -14.6722 3.11868 10
      vertex -10.7596 2.28703 10
      vertex -13.7032 6.10105 10
    endloop
  endfacet
  facet normal 0 0 1
    outer loop
      vertex -8.89919 -6.46564 10
      vertex -12.1353 -8.81678 10
      vertex -10.037 -11.1472 10
    endloop
  endfacet
  facet normal 0 0 1
    outer loop
      vertex -10.7596 2.28703 10
      vertex -14.6722 3.11868 10
      vertex -11 0 10
    endloop
  endfacet
  facet normal 0 0 1
    outer loop
      vertex -10.049 -4.4741 10
      vertex -13.7032 -6.10105 10
      vertex -12.1353 -8.81678 10
    endloop
  endfacet
  facet normal 0 0 1
    outer loop
      vertex -15 0 10
      vertex -11 0 10
      vertex -14.6722 3.11868 10
    endloop
  endfacet
  facet normal 0 0 1
    outer loop
      vertex -10.7596 -2.28703 10
      vertex -14.6722 -3.11868 10
      vertex -13.7032 -6.10105 10
    endloop
  endfacet
  facet normal 0 0 1
    outer loop
      vertex -11 0 10
      vertex -15 0 10
      vertex -14.6722 -3.11868 10
    endloop
  endfacet
  facet normal -0 0 1
    outer loop
      vertex -8.5 2.5 10
      vertex -3.5 -2.5 10
      vertex -3.5 2.5 10
    endloop
  endfacet
  facet normal 0 0 1
    outer loop
      vertex -3.5 -2.5 10
      vertex -8.5 2.5 10
      vertex -8.5 -2.5 10
    endloop
  endfacet
  facet normal -0 0 1
    outer loop
      vertex -2.5 8.5 10
      vertex 2.5 3.5 10
      vertex 2.5 8.5 10
    endloop
  endfacet
  facet normal 0 0 1
    outer loop
      vertex 2.5 3.5 10
      vertex -2.5 8.5 10
      vertex -2.5 3.5 10
    endloop
  endfacet
  facet normal -0 0 1
    outer loop
      vertex -2.5 -3.5 10
      vertex 2.5 -8.5 10
      vertex 2.5 -3.5 10
    endloop
  endfacet
  facet normal 0 0 1
    outer loop
      vertex 2.5 -8.5 10
      vertex -2.5 -3.5 10
      vertex -2.5 -8.5 10
    endloop
  endfacet
  facet normal -0 0 1
    outer loop
      vertex 3.5 2.5 10
      vertex 8.5 -2.5 10
      vertex 8.5 2.5 10
    endloop
  endfacet
  facet normal 0 0 1
    outer loop
      vertex 8.5 -2.5 10
      vertex 3.5 2.5 10
      vertex 3.5 -2.5 10
    endloop
  endfacet
  facet normal 0 1 -0
    outer loop
      vertex 1.14981 -10.9397 6
      vertex -1.14981 -10.9397 10
      vertex 1.14981 -10.9397 10
    endloop
  endfacet
  facet normal 0 1 0
    outer loop
      vertex -1.14981 -10.9397 10
      vertex 1.14981 -10.9397 6
      vertex -1.14981 -10.9397 6
    endloop
  endfacet
  facet normal 0.951059 0.309008 0
    outer loop
      vertex -10.049 -4.4741 10
      vertex -10.7596 -2.28703 6
      vertex -10.7596 -2.28703 10
    endloop
  endfacet
  facet normal 0.951059 0.309008 0
    outer loop
      vertex -10.7596 -2.28703 6
      vertex -10.049 -4.4741 10
      vertex -10.049 -4.4741 6
    endloop
  endfacet
  facet normal 0.743144 0.669132 0
    outer loop
      vertex -7.36044 -8.17459 10
      vertex -8.89919 -6.46564 6
      vertex -8.89919 -6.46564 10
    endloop
  endfacet
  facet normal 0.743144 0.669132 0
    outer loop
      vertex -8.89919 -6.46564 6
      vertex -7.36044 -8.17459 10
      vertex -7.36044 -8.17459 6
    endloop
  endfacet
  facet normal 0 0 1
    outer loop
      vertex -2.5 -3.5 6
      vertex -7.36044 -8.17459 6
      vertex -2.5 -8.5 6
    endloop
  endfacet
  facet normal 0 0 1
    outer loop
      vertex -2.5 -8.5 6
      vertex -5.5 -9.52628 6
      vertex -3.39919 -10.4616 6
    endloop
  endfacet
  facet normal 0 0 1
    outer loop
      vertex -2.5 -8.5 6
      vertex -7.36044 -8.17459 6
      vertex -5.5 -9.52628 6
    endloop
  endfacet
  facet normal 0 0 1
    outer loop
      vertex -8.89919 -6.46564 6
      vertex -3.5 -2.5 6
      vertex -8.5 -2.5 6
    endloop
  endfacet
  facet normal 0 0 1
    outer loop
      vertex -3.5 -2.5 6
      vertex -8.89919 -6.46564 6
      vertex -7.36044 -8.17459 6
    endloop
  endfacet
  facet normal 0 0 1
    outer loop
      vertex -10.7596 2.28703 6
      vertex -8.5 2.5 6
      vertex -10.049 4.4741 6
    endloop
  endfacet
  facet normal 0 0 1
    outer loop
      vertex -11 0 6
      vertex -8.5 2.5 6
      vertex -10.7596 2.28703 6
    endloop
  endfacet
  facet normal 0 0 1
    outer loop
      vertex -8.5 -2.5 6
      vertex -10.049 -4.4741 6
      vertex -8.89919 -6.46564 6
    endloop
  endfacet
  facet normal 0 0 1
    outer loop
      vertex -8.5 2.5 6
      vertex -11 0 6
      vertex -8.5 -2.5 6
    endloop
  endfacet
  facet normal 0 0 1
    outer loop
      vertex -8.5 -2.5 6
      vertex -10.7596 -2.28703 6
      vertex -10.049 -4.4741 6
    endloop
  endfacet
  facet normal 0 0 1
    outer loop
      vertex -8.5 -2.5 6
      vertex -11 0 6
      vertex -10.7596 -2.28703 6
    endloop
  endfacet
  facet normal -0 0 1
    outer loop
      vertex -2.5 3.5 6
      vertex 2.5 -3.5 6
      vertex 2.5 3.5 6
    endloop
  endfacet
  facet normal 0 0 1
    outer loop
      vertex 2.5 -3.5 6
      vertex -2.5 3.5 6
      vertex -2.5 -3.5 6
    endloop
  endfacet
  facet normal 0 0 1
    outer loop
      vertex 2.5 -3.5 6
      vertex 3.5 -2.5 6
      vertex 2.5 3.5 6
    endloop
  endfacet
  facet normal 0 0 1
    outer loop
      vertex 2.5 -8.5 6
      vertex 3.5 -2.5 6
      vertex 2.5 -3.5 6
    endloop
  endfacet
  facet normal 0 0 1
    outer loop
      vertex 3.5 -2.5 6
      vertex 2.5 -8.5 6
      vertex 3.39919 -10.4616 6
    endloop
  endfacet
  facet normal 0 0 1
    outer loop
      vertex 2.5 -8.5 6
      vertex 1.14981 -10.9397 6
      vertex 3.39919 -10.4616 6
    endloop
  endfacet
  facet normal 0 0 1
    outer loop
      vertex 2.5 -8.5 6
      vertex -1.14981 -10.9397 6
      vertex 1.14981 -10.9397 6
    endloop
  endfacet
  facet normal -0 0 1
    outer loop
      vertex -2.5 -8.5 6
      vertex -1.14981 -10.9397 6
      vertex 2.5 -8.5 6
    endloop
  endfacet
  facet normal 0 0 1
    outer loop
      vertex -2.5 -8.5 6
      vertex -3.39919 -10.4616 6
      vertex -1.14981 -10.9397 6
    endloop
  endfacet
  facet normal 0 0 1
    outer loop
      vertex -7.36044 -8.17459 6
      vertex -2.5 -3.5 6
      vertex -3.5 -2.5 6
    endloop
  endfacet
  facet normal -0 0 1
    outer loop
      vertex -3.5 -2.5 6
      vertex -2.5 -3.5 6
      vertex -3.5 2.5 6
    endloop
  endfacet
  facet normal -0 0 1
    outer loop
      vertex -5.5 9.52628 6
      vertex -3.5 2.5 6
      vertex -3.39919 10.4616 6
    endloop
  endfacet
  facet normal -0 0 1
    outer loop
      vertex -7.36044 8.17459 6
      vertex -3.5 2.5 6
      vertex -5.5 9.52628 6
    endloop
  endfacet
  facet normal -0 0 1
    outer loop
      vertex -8.89919 6.46564 6
      vertex -3.5 2.5 6
      vertex -7.36044 8.17459 6
    endloop
  endfacet
  facet normal -0 0 1
    outer loop
      vertex -10.049 4.4741 6
      vertex -8.5 2.5 6
      vertex -8.89919 6.46564 6
    endloop
  endfacet
  facet normal 0 0 1
    outer loop
      vertex -3.5 2.5 6
      vertex -8.89919 6.46564 6
      vertex -8.5 2.5 6
    endloop
  endfacet
  facet normal 0 0 1
    outer loop
      vertex 8.5 2.5 6
      vertex 11 0 6
      vertex 10.7596 2.28703 6
    endloop
  endfacet
  facet normal -0 0 1
    outer loop
      vertex 8.5 2.5 6
      vertex 10.7596 2.28703 6
      vertex 10.049 4.4741 6
    endloop
  endfacet
  facet normal 0 0 1
    outer loop
      vertex 8.5 -2.5 6
      vertex 11 0 6
      vertex 8.5 2.5 6
    endloop
  endfacet
  facet normal 0 0 1
    outer loop
      vertex 8.5 2.5 6
      vertex 10.049 4.4741 6
      vertex 8.89919 6.46564 6
    endloop
  endfacet
  facet normal 0 0 1
    outer loop
      vertex 11 0 6
      vertex 8.5 -2.5 6
      vertex 10.7596 -2.28703 6
    endloop
  endfacet
  facet normal 0 0 1
    outer loop
      vertex 10.7596 -2.28703 6
      vertex 8.5 -2.5 6
      vertex 10.049 -4.4741 6
    endloop
  endfacet
  facet normal 0 0 1
    outer loop
      vertex 3.5 2.5 6
      vertex 8.89919 6.46564 6
      vertex 7.36044 8.17459 6
    endloop
  endfacet
  facet normal -0 0 1
    outer loop
      vertex 2.5 8.5 6
      vertex 7.36044 8.17459 6
      vertex 5.5 9.52628 6
    endloop
  endfacet
  facet normal 0 0 1
    outer loop
      vertex 8.89919 6.46564 6
      vertex 3.5 2.5 6
      vertex 8.5 2.5 6
    endloop
  endfacet
  facet normal 0 0 1
    outer loop
      vertex 2.5 3.5 6
      vertex 7.36044 8.17459 6
      vertex 2.5 8.5 6
    endloop
  endfacet
  facet normal 0 0 1
    outer loop
      vertex 2.5 8.5 6
      vertex 5.5 9.52628 6
      vertex 3.39919 10.4616 6
    endloop
  endfacet
  facet normal 0 0 1
    outer loop
      vertex 10.049 -4.4741 6
      vertex 8.5 -2.5 6
      vertex 8.89919 -6.46564 6
    endloop
  endfacet
  facet normal -0 0 1
    outer loop
      vertex 3.5 -2.5 6
      vertex 8.89919 -6.46564 6
      vertex 8.5 -2.5 6
    endloop
  endfacet
  facet normal 0 0 1
    outer loop
      vertex 8.89919 -6.46564 6
      vertex 3.5 -2.5 6
      vertex 7.36044 -8.17459 6
    endloop
  endfacet
  facet normal 0 0 1
    outer loop
      vertex 7.36044 -8.17459 6
      vertex 3.5 -2.5 6
      vertex 5.5 -9.52628 6
    endloop
  endfacet
  facet normal 0 0 1
    outer loop
      vertex 3.5 -2.5 6
      vertex 3.39919 -10.4616 6
      vertex 5.5 -9.52628 6
    endloop
  endfacet
  facet normal 0 0 1
    outer loop
      vertex 7.36044 8.17459 6
      vertex 2.5 3.5 6
      vertex 3.5 2.5 6
    endloop
  endfacet
  facet normal 0 0 1
    outer loop
      vertex 3.5 2.5 6
      vertex 2.5 3.5 6
      vertex 3.5 -2.5 6
    endloop
  endfacet
  facet normal 0 0 1
    outer loop
      vertex 1.14981 10.9397 6
      vertex 2.5 8.5 6
      vertex 3.39919 10.4616 6
    endloop
  endfacet
  facet normal -0 0 1
    outer loop
      vertex -1.14981 10.9397 6
      vertex 2.5 8.5 6
      vertex 1.14981 10.9397 6
    endloop
  endfacet
  facet normal 0 0 1
    outer loop
      vertex -1.14981 10.9397 6
      vertex -2.5 8.5 6
      vertex 2.5 8.5 6
    endloop
  endfacet
  facet normal 0 0 1
    outer loop
      vertex -3.5 2.5 6
      vertex -2.5 8.5 6
      vertex -3.39919 10.4616 6
    endloop
  endfacet
  facet normal 0 0 1
    outer loop
      vertex -2.5 8.5 6
      vertex -3.5 2.5 6
      vertex -2.5 3.5 6
    endloop
  endfacet
  facet normal 0 0 1
    outer loop
      vertex -2.5 3.5 6
      vertex -3.5 2.5 6
      vertex -2.5 -3.5 6
    endloop
  endfacet
  facet normal -0 0 1
    outer loop
      vertex -3.39919 10.4616 6
      vertex -2.5 8.5 6
      vertex -1.14981 10.9397 6
    endloop
  endfacet
  facet normal 0.994521 0.104539 0
    outer loop
      vertex -10.7596 -2.28703 10
      vertex -11 0 6
      vertex -11 0 10
    endloop
  endfacet
  facet normal 0.994521 0.104539 0
    outer loop
      vertex -11 0 6
      vertex -10.7596 -2.28703 10
      vertex -10.7596 -2.28703 6
    endloop
  endfacet
  facet normal 0.951059 0.309008 0
    outer loop
      vertex 14.6722 3.11868 10
      vertex 13.7032 6.10105 -10
      vertex 13.7032 6.10105 10
    endloop
  endfacet
  facet normal 0.951059 0.309008 0
    outer loop
      vertex 13.7032 6.10105 -10
      vertex 14.6722 3.11868 10
      vertex 14.6722 3.11868 -10
    endloop
  endfacet
  facet normal 0.994521 0.104533 0
    outer loop
      vertex 15 0 10
      vertex 14.6722 3.11868 -10
      vertex 14.6722 3.11868 10
    endloop
  endfacet
  facet normal 0.994521 0.104533 0
    outer loop
      vertex 14.6722 3.11868 -10
      vertex 15 0 10
      vertex 15 0 -10
    endloop
  endfacet
  facet normal 0.866029 0.499993 0
    outer loop
      vertex 13.7032 6.10105 10
      vertex 12.1353 8.81678 -10
      vertex 12.1353 8.81678 10
    endloop
  endfacet
  facet normal 0.866029 0.499993 0
    outer loop
      vertex 12.1353 8.81678 -10
      vertex 13.7032 6.10105 10
      vertex 13.7032 6.10105 -10
    endloop
  endfacet
  facet normal 0.587777 0.809023 -0
    outer loop
      vertex 10.037 11.1472 -10
      vertex 7.5 12.9904 10
      vertex 10.037 11.1472 10
    endloop
  endfacet
  facet normal 0.587777 0.809023 0
    outer loop
      vertex 7.5 12.9904 10
      vertex 10.037 11.1472 -10
      vertex 7.5 12.9904 -10
    endloop
  endfacet
  facet normal 0.951059 -0.309008 0
    outer loop
      vertex 13.7032 -6.10105 10
      vertex 14.6722 -3.11868 -10
      vertex 14.6722 -3.11868 10
    endloop
  endfacet
  facet normal 0.951059 -0.309008 0
    outer loop
      vertex 14.6722 -3.11868 -10
      vertex 13.7032 -6.10105 10
      vertex 13.7032 -6.10105 -10
    endloop
  endfacet
  facet normal 0.994521 -0.104533 0
    outer loop
      vertex 14.6722 -3.11868 10
      vertex 15 0 -10
      vertex 15 0 10
    endloop
  endfacet
  facet normal 0.994521 -0.104533 0
    outer loop
      vertex 15 0 -10
      vertex 14.6722 -3.11868 10
      vertex 14.6722 -3.11868 -10
    endloop
  endfacet
  facet normal 0.743148 0.669127 0
    outer loop
      vertex 12.1353 8.81678 10
      vertex 10.037 11.1472 -10
      vertex 10.037 11.1472 10
    endloop
  endfacet
  facet normal 0.743148 0.669127 0
    outer loop
      vertex 10.037 11.1472 -10
      vertex 12.1353 8.81678 10
      vertex 12.1353 8.81678 -10
    endloop
  endfacet
  facet normal -0.951059 -0.309008 0
    outer loop
      vertex -13.7032 -6.10105 -10
      vertex -14.6722 -3.11868 10
      vertex -14.6722 -3.11868 -10
    endloop
  endfacet
  facet normal -0.951059 -0.309008 0
    outer loop
      vertex -14.6722 -3.11868 10
      vertex -13.7032 -6.10105 -10
      vertex -13.7032 -6.10105 10
    endloop
  endfacet
  facet normal -0.743148 0.669127 0
    outer loop
      vertex -12.1353 8.81678 -10
      vertex -10.037 11.1472 10
      vertex -10.037 11.1472 -10
    endloop
  endfacet
  facet normal -0.743148 0.669127 0
    outer loop
      vertex -10.037 11.1472 10
      vertex -12.1353 8.81678 -10
      vertex -12.1353 8.81678 10
    endloop
  endfacet
  facet normal -0.951059 0.309008 0
    outer loop
      vertex -14.6722 3.11868 -10
      vertex -13.7032 6.10105 10
      vertex -13.7032 6.10105 -10
    endloop
  endfacet
  facet normal -0.951059 0.309008 0
    outer loop
      vertex -13.7032 6.10105 10
      vertex -14.6722 3.11868 -10
      vertex -14.6722 3.11868 10
    endloop
  endfacet
  facet normal 0.587777 -0.809023 0
    outer loop
      vertex 7.5 -12.9904 -10
      vertex 10.037 -11.1472 10
      vertex 7.5 -12.9904 10
    endloop
  endfacet
  facet normal 0.587777 -0.809023 0
    outer loop
      vertex 10.037 -11.1472 10
      vertex 7.5 -12.9904 -10
      vertex 10.037 -11.1472 -10
    endloop
  endfacet
  facet normal -0.587777 0.809023 0
    outer loop
      vertex -7.5 12.9904 -10
      vertex -10.037 11.1472 10
      vertex -7.5 12.9904 10
    endloop
  endfacet
  facet normal -0.587777 0.809023 0
    outer loop
      vertex -10.037 11.1472 10
      vertex -7.5 12.9904 -10
      vertex -10.037 11.1472 -10
    endloop
  endfacet
  facet normal -0.866029 0.499993 0
    outer loop
      vertex -13.7032 6.10105 -10
      vertex -12.1353 8.81678 10
      vertex -12.1353 8.81678 -10
    endloop
  endfacet
  facet normal -0.866029 0.499993 0
    outer loop
      vertex -12.1353 8.81678 10
      vertex -13.7032 6.10105 -10
      vertex -13.7032 6.10105 10
    endloop
  endfacet
  facet normal 0.866029 -0.499993 0
    outer loop
      vertex 12.1353 -8.81678 10
      vertex 13.7032 -6.10105 -10
      vertex 13.7032 -6.10105 10
    endloop
  endfacet
  facet normal 0.866029 -0.499993 0
    outer loop
      vertex 13.7032 -6.10105 -10
      vertex 12.1353 -8.81678 10
      vertex 12.1353 -8.81678 -10
    endloop
  endfacet
  facet normal 0 1 -0
    outer loop
      vertex 1.56793 14.9178 -10
      vertex -1.56793 14.9178 10
      vertex 1.56793 14.9178 10
    endloop
  endfacet
  facet normal 0 1 0
    outer loop
      vertex -1.56793 14.9178 10
      vertex 1.56793 14.9178 -10
      vertex -1.56793 14.9178 -10
    endloop
  endfacet
  facet normal -0.406718 0.913554 0
    outer loop
      vertex -4.63525 14.2658 -10
      vertex -7.5 12.9904 10
      vertex -4.63525 14.2658 10
    endloop
  endfacet
  facet normal -0.406718 0.913554 0
    outer loop
      vertex -7.5 12.9904 10
      vertex -4.63525 14.2658 -10
      vertex -7.5 12.9904 -10
    endloop
  endfacet
  facet normal -0.207918 -0.978146 0
    outer loop
      vertex -4.63525 -14.2658 -10
      vertex -1.56793 -14.9178 10
      vertex -4.63525 -14.2658 10
    endloop
  endfacet
  facet normal -0.207918 -0.978146 -0
    outer loop
      vertex -1.56793 -14.9178 10
      vertex -4.63525 -14.2658 -10
      vertex -1.56793 -14.9178 -10
    endloop
  endfacet
  facet normal 0 -1 0
    outer loop
      vertex -1.56793 -14.9178 -10
      vertex 1.56793 -14.9178 10
      vertex -1.56793 -14.9178 10
    endloop
  endfacet
  facet normal 0 -1 -0
    outer loop
      vertex 1.56793 -14.9178 10
      vertex -1.56793 -14.9178 -10
      vertex 1.56793 -14.9178 -10
    endloop
  endfacet
  facet normal -0.207918 0.978146 0
    outer loop
      vertex -1.56793 14.9178 -10
      vertex -4.63525 14.2658 10
      vertex -1.56793 14.9178 10
    endloop
  endfacet
  facet normal -0.207918 0.978146 0
    outer loop
      vertex -4.63525 14.2658 10
      vertex -1.56793 14.9178 -10
      vertex -4.63525 14.2658 -10
    endloop
  endfacet
  facet normal 0.207918 -0.978146 0
    outer loop
      vertex 1.56793 -14.9178 -10
      vertex 4.63525 -14.2658 10
      vertex 1.56793 -14.9178 10
    endloop
  endfacet
  facet normal 0.207918 -0.978146 0
    outer loop
      vertex 4.63525 -14.2658 10
      vertex 1.56793 -14.9178 -10
      vertex 4.63525 -14.2658 -10
    endloop
  endfacet
  facet normal 0.743148 -0.669127 0
    outer loop
      vertex 10.037 -11.1472 10
      vertex 12.1353 -8.81678 -10
      vertex 12.1353 -8.81678 10
    endloop
  endfacet
  facet normal 0.743148 -0.669127 0
    outer loop
      vertex 12.1353 -8.81678 -10
      vertex 10.037 -11.1472 10
      vertex 10.037 -11.1472 -10
    endloop
  endfacet
  facet normal 0.406718 -0.913554 0
    outer loop
      vertex 4.63525 -14.2658 -10
      vertex 7.5 -12.9904 10
      vertex 4.63525 -14.2658 10
    endloop
  endfacet
  facet normal 0.406718 -0.913554 0
    outer loop
      vertex 7.5 -12.9904 10
      vertex 4.63525 -14.2658 -10
      vertex 7.5 -12.9904 -10
    endloop
  endfacet
  facet normal -0.587777 -0.809023 0
    outer loop
      vertex -10.037 -11.1472 -10
      vertex -7.5 -12.9904 10
      vertex -10.037 -11.1472 10
    endloop
  endfacet
  facet normal -0.587777 -0.809023 -0
    outer loop
      vertex -7.5 -12.9904 10
      vertex -10.037 -11.1472 -10
      vertex -7.5 -12.9904 -10
    endloop
  endfacet
  facet normal -0.994521 0.104533 0
    outer loop
      vertex -15 0 -10
      vertex -14.6722 3.11868 10
      vertex -14.6722 3.11868 -10
    endloop
  endfacet
  facet normal -0.994521 0.104533 0
    outer loop
      vertex -14.6722 3.11868 10
      vertex -15 0 -10
      vertex -15 0 10
    endloop
  endfacet
  facet normal 0.207918 0.978146 -0
    outer loop
      vertex 4.63525 14.2658 -10
      vertex 1.56793 14.9178 10
      vertex 4.63525 14.2658 10
    endloop
  endfacet
  facet normal 0.207918 0.978146 0
    outer loop
      vertex 1.56793 14.9178 10
      vertex 4.63525 14.2658 -10
      vertex 1.56793 14.9178 -10
    endloop
  endfacet
  facet normal -0.866029 -0.499993 0
    outer loop
      vertex -12.1353 -8.81678 -10
      vertex -13.7032 -6.10105 10
      vertex -13.7032 -6.10105 -10
    endloop
  endfacet
  facet normal -0.866029 -0.499993 0
    outer loop
      vertex -13.7032 -6.10105 10
      vertex -12.1353 -8.81678 -10
      vertex -12.1353 -8.81678 10
    endloop
  endfacet
  facet normal 0.406718 0.913554 -0
    outer loop
      vertex 7.5 12.9904 -10
      vertex 4.63525 14.2658 10
      vertex 7.5 12.9904 10
    endloop
  endfacet
  facet normal 0.406718 0.913554 0
    outer loop
      vertex 4.63525 14.2658 10
      vertex 7.5 12.9904 -10
      vertex 4.63525 14.2658 -10
    endloop
  endfacet
  facet normal -0.994521 -0.104533 0
    outer loop
      vertex -14.6722 -3.11868 -10
      vertex -15 0 10
      vertex -15 0 -10
    endloop
  endfacet
  facet normal -0.994521 -0.104533 0
    outer loop
      vertex -15 0 10
      vertex -14.6722 -3.11868 -10
      vertex -14.6722 -3.11868 10
    endloop
  endfacet
  facet normal -0.743148 -0.669127 0
    outer loop
      vertex -10.037 -11.1472 -10
      vertex -12.1353 -8.81678 10
      vertex -12.1353 -8.81678 -10
    endloop
  endfacet
  facet normal -0.743148 -0.669127 0
    outer loop
      vertex -12.1353 -8.81678 10
      vertex -10.037 -11.1472 -10
      vertex -10.037 -11.1472 10
    endloop
  endfacet
  facet normal -0 0 -1
    outer loop
      vertex -2.5 -7.5 -10
      vertex -10.037 -11.1472 -10
      vertex -7.5 -2.5 -10
    endloop
  endfacet
  facet normal 0 0 -1
    outer loop
      vertex -12.1353 -8.81678 -10
      vertex -7.5 -2.5 -10
      vertex -10.037 -11.1472 -10
    endloop
  endfacet
  facet normal 0 0 -1
    outer loop
      vertex -13.7032 -6.10105 -10
      vertex -7.5 -2.5 -10
      vertex -12.1353 -8.81678 -10
    endloop
  endfacet
  facet normal 0 0 -1
    outer loop
      vertex -14.6722 -3.11868 -10
      vertex -12.5 -2.5 -10
      vertex -13.7032 -6.10105 -10
    endloop
  endfacet
  facet normal -0 0 -1
    outer loop
      vertex -7.5 -2.5 -10
      vertex -13.7032 -6.10105 -10
      vertex -12.5 -2.5 -10
    endloop
  endfacet
  facet normal 0 0 -1
    outer loop
      vertex 1.91342 4.6194 -10
      vertex 2.5 7.5 -10
      vertex 3.53553 3.53553 -10
    endloop
  endfacet
  facet normal 0 0 -1
    outer loop
      vertex 0 5 -10
      vertex 2.5 7.5 -10
      vertex 1.91342 4.6194 -10
    endloop
  endfacet
  facet normal 0 0 -1
    outer loop
      vertex -2.5 7.5 -10
      vertex 0 5 -10
      vertex -1.91342 4.6194 -10
    endloop
  endfacet
  facet normal 0 0 -1
    outer loop
      vertex 0 5 -10
      vertex -2.5 7.5 -10
      vertex 2.5 7.5 -10
    endloop
  endfacet
  facet normal 0 0 -1
    outer loop
      vertex -7.5 2.5 -10
      vertex -2.5 7.5 -10
      vertex -3.53553 3.53553 -10
    endloop
  endfacet
  facet normal 0 0 -1
    outer loop
      vertex -3.53553 3.53553 -10
      vertex -2.5 7.5 -10
      vertex -1.91342 4.6194 -10
    endloop
  endfacet
  facet normal 0 0 -1
    outer loop
      vertex 12.5 -2.5 -10
      vertex 15 0 -10
      vertex 14.6722 -3.11868 -10
    endloop
  endfacet
  facet normal 0 0 -1
    outer loop
      vertex 12.5 -2.5 -10
      vertex 14.6722 -3.11868 -10
      vertex 13.7032 -6.10105 -10
    endloop
  endfacet
  facet normal 0 0 -1
    outer loop
      vertex 12.5 2.5 -10
      vertex 15 0 -10
      vertex 12.5 -2.5 -10
    endloop
  endfacet
  facet normal 0 0 -1
    outer loop
      vertex 15 0 -10
      vertex 12.5 2.5 -10
      vertex 14.6722 3.11868 -10
    endloop
  endfacet
  facet normal 0 0 -1
    outer loop
      vertex 7.5 -2.5 -10
      vertex 13.7032 -6.10105 -10
      vertex 12.1353 -8.81678 -10
    endloop
  endfacet
  facet normal 0 0 -1
    outer loop
      vertex 7.5 -2.5 -10
      vertex 12.1353 -8.81678 -10
      vertex 10.037 -11.1472 -10
    endloop
  endfacet
  facet normal 0 0 -1
    outer loop
      vertex 2.5 -7.5 -10
      vertex 10.037 -11.1472 -10
      vertex 7.5 -12.9904 -10
    endloop
  endfacet
  facet normal 0 0 -1
    outer loop
      vertex 13.7032 -6.10105 -10
      vertex 7.5 -2.5 -10
      vertex 12.5 -2.5 -10
    endloop
  endfacet
  facet normal 0 0 -1
    outer loop
      vertex 10.037 -11.1472 -10
      vertex 2.5 -7.5 -10
      vertex 7.5 -2.5 -10
    endloop
  endfacet
  facet normal 0 -0 -1
    outer loop
      vertex 5 0 -10
      vertex 7.5 -2.5 -10
      vertex 4.6194 -1.91342 -10
    endloop
  endfacet
  facet normal 0 0 -1
    outer loop
      vertex 4.6194 1.91342 -10
      vertex 7.5 2.5 -10
      vertex 5 0 -10
    endloop
  endfacet
  facet normal 0 0 -1
    outer loop
      vertex 2.5 -12.5 -10
      vertex 7.5 -12.9904 -10
      vertex 4.63525 -14.2658 -10
    endloop
  endfacet
  facet normal 0 0 -1
    outer loop
      vertex 7.5 -2.5 -10
      vertex 5 0 -10
      vertex 7.5 2.5 -10
    endloop
  endfacet
  facet normal 0 0 -1
    outer loop
      vertex 7.5 -2.5 -10
      vertex 2.5 -7.5 -10
      vertex 3.53553 -3.53553 -10
    endloop
  endfacet
  facet normal 0 0 -1
    outer loop
      vertex 7.5 -12.9904 -10
      vertex 2.5 -12.5 -10
      vertex 2.5 -7.5 -10
    endloop
  endfacet
  facet normal 0 0 -1
    outer loop
      vertex 1.56793 -14.9178 -10
      vertex 2.5 -12.5 -10
      vertex 4.63525 -14.2658 -10
    endloop
  endfacet
  facet normal 0 0 -1
    outer loop
      vertex -1.56793 -14.9178 -10
      vertex 2.5 -12.5 -10
      vertex 1.56793 -14.9178 -10
    endloop
  endfacet
  facet normal 0 0 -1
    outer loop
      vertex -1.56793 -14.9178 -10
      vertex -2.5 -12.5 -10
      vertex 2.5 -12.5 -10
    endloop
  endfacet
  facet normal 0 0 -1
    outer loop
      vertex -7.5 -12.9904 -10
      vertex -2.5 -7.5 -10
      vertex -2.5 -12.5 -10
    endloop
  endfacet
  facet normal 0 0 -1
    outer loop
      vertex -10.037 -11.1472 -10
      vertex -2.5 -7.5 -10
      vertex -7.5 -12.9904 -10
    endloop
  endfacet
  facet normal 0 0 -1
    outer loop
      vertex -4.63525 -14.2658 -10
      vertex -2.5 -12.5 -10
      vertex -1.56793 -14.9178 -10
    endloop
  endfacet
  facet normal 0 0 -1
    outer loop
      vertex -7.5 -12.9904 -10
      vertex -2.5 -12.5 -10
      vertex -4.63525 -14.2658 -10
    endloop
  endfacet
  facet normal 0 0 -1
    outer loop
      vertex -2.5 -7.5 -10
      vertex -7.5 -2.5 -10
      vertex -3.53553 -3.53553 -10
    endloop
  endfacet
  facet normal 0 0 -1
    outer loop
      vertex -3.53553 -3.53553 -10
      vertex -7.5 -2.5 -10
      vertex -4.6194 -1.91342 -10
    endloop
  endfacet
  facet normal -0 0 -1
    outer loop
      vertex 14.6722 3.11868 -10
      vertex 12.5 2.5 -10
      vertex 13.7032 6.10105 -10
    endloop
  endfacet
  facet normal 0 0 -1
    outer loop
      vertex 7.5 2.5 -10
      vertex 13.7032 6.10105 -10
      vertex 12.5 2.5 -10
    endloop
  endfacet
  facet normal -0 0 -1
    outer loop
      vertex 13.7032 6.10105 -10
      vertex 7.5 2.5 -10
      vertex 12.1353 8.81678 -10
    endloop
  endfacet
  facet normal -0 0 -1
    outer loop
      vertex 12.1353 8.81678 -10
      vertex 7.5 2.5 -10
      vertex 10.037 11.1472 -10
    endloop
  endfacet
  facet normal -0 0 -1
    outer loop
      vertex 10.037 11.1472 -10
      vertex 7.5 2.5 -10
      vertex 7.5 12.9904 -10
    endloop
  endfacet
  facet normal 0 0 -1
    outer loop
      vertex 3.53553 3.53553 -10
      vertex 7.5 2.5 -10
      vertex 4.6194 1.91342 -10
    endloop
  endfacet
  facet normal 0 0 -1
    outer loop
      vertex 2.5 7.5 -10
      vertex 7.5 2.5 -10
      vertex 3.53553 3.53553 -10
    endloop
  endfacet
  facet normal 0 0 -1
    outer loop
      vertex 7.5 2.5 -10
      vertex 2.5 7.5 -10
      vertex 7.5 12.9904 -10
    endloop
  endfacet
  facet normal 0 0 -1
    outer loop
      vertex 2.5 12.5 -10
      vertex 7.5 12.9904 -10
      vertex 2.5 7.5 -10
    endloop
  endfacet
  facet normal -0 0 -1
    outer loop
      vertex 7.5 12.9904 -10
      vertex 2.5 12.5 -10
      vertex 4.63525 14.2658 -10
    endloop
  endfacet
  facet normal 0 0 -1
    outer loop
      vertex 2.5 12.5 -10
      vertex 1.56793 14.9178 -10
      vertex 4.63525 14.2658 -10
    endloop
  endfacet
  facet normal 0 0 -1
    outer loop
      vertex 2.5 12.5 -10
      vertex -1.56793 14.9178 -10
      vertex 1.56793 14.9178 -10
    endloop
  endfacet
  facet normal 0 0 -1
    outer loop
      vertex -2.5 12.5 -10
      vertex -1.56793 14.9178 -10
      vertex 2.5 12.5 -10
    endloop
  endfacet
  facet normal 0 0 -1
    outer loop
      vertex -7.5 2.5 -10
      vertex -3.53553 3.53553 -10
      vertex -4.6194 1.91342 -10
    endloop
  endfacet
  facet normal 0 0 -1
    outer loop
      vertex -2.5 12.5 -10
      vertex -4.63525 14.2658 -10
      vertex -1.56793 14.9178 -10
    endloop
  endfacet
  facet normal -0 0 -1
    outer loop
      vertex -2.5 7.5 -10
      vertex -7.5 2.5 -10
      vertex -10.037 11.1472 -10
    endloop
  endfacet
  facet normal 0 0 -1
    outer loop
      vertex -7.5 2.5 -10
      vertex -4.6194 1.91342 -10
      vertex -5 0 -10
    endloop
  endfacet
  facet normal -0 0 -1
    outer loop
      vertex -4.6194 -1.91342 -10
      vertex -7.5 -2.5 -10
      vertex -5 0 -10
    endloop
  endfacet
  facet normal 0 0 -1
    outer loop
      vertex -7.5 2.5 -10
      vertex -5 0 -10
      vertex -7.5 -2.5 -10
    endloop
  endfacet
  facet normal 0 0 -1
    outer loop
      vertex -2.5 7.5 -10
      vertex -7.5 12.9904 -10
      vertex -2.5 12.5 -10
    endloop
  endfacet
  facet normal 0 0 -1
    outer loop
      vertex -2.5 12.5 -10
      vertex -7.5 12.9904 -10
      vertex -4.63525 14.2658 -10
    endloop
  endfacet
  facet normal 0 0 -1
    outer loop
      vertex -2.5 7.5 -10
      vertex -10.037 11.1472 -10
      vertex -7.5 12.9904 -10
    endloop
  endfacet
  facet normal 0 0 -1
    outer loop
      vertex -7.5 2.5 -10
      vertex -12.1353 8.81678 -10
      vertex -10.037 11.1472 -10
    endloop
  endfacet
  facet normal 0 0 -1
    outer loop
      vertex -13.7032 6.10105 -10
      vertex -7.5 2.5 -10
      vertex -12.5 2.5 -10
    endloop
  endfacet
  facet normal 0 0 -1
    outer loop
      vertex -15 0 -10
      vertex -12.5 -2.5 -10
      vertex -14.6722 -3.11868 -10
    endloop
  endfacet
  facet normal 0 0 -1
    outer loop
      vertex -7.5 2.5 -10
      vertex -13.7032 6.10105 -10
      vertex -12.1353 8.81678 -10
    endloop
  endfacet
  facet normal 0 0 -1
    outer loop
      vertex -12.5 -2.5 -10
      vertex -15 0 -10
      vertex -12.5 2.5 -10
    endloop
  endfacet
  facet normal 0 0 -1
    outer loop
      vertex -12.5 2.5 -10
      vertex -14.6722 3.11868 -10
      vertex -13.7032 6.10105 -10
    endloop
  endfacet
  facet normal -0 0 -1
    outer loop
      vertex -12.5 2.5 -10
      vertex -15 0 -10
      vertex -14.6722 3.11868 -10
    endloop
  endfacet
  facet normal -0 0 -1
    outer loop
      vertex 7.5 -2.5 -10
      vertex 3.53553 -3.53553 -10
      vertex 4.6194 -1.91342 -10
    endloop
  endfacet
  facet normal 0 0 -1
    outer loop
      vertex 2.5 -7.5 -10
      vertex 1.91342 -4.6194 -10
      vertex 3.53553 -3.53553 -10
    endloop
  endfacet
  facet normal 0 0 -1
    outer loop
      vertex 2.5 -7.5 -10
      vertex 0 -5 -10
      vertex 1.91342 -4.6194 -10
    endloop
  endfacet
  facet normal 0 0 -1
    outer loop
      vertex -2.5 -7.5 -10
      vertex 0 -5 -10
      vertex 2.5 -7.5 -10
    endloop
  endfacet
  facet normal -0 0 -1
    outer loop
      vertex 0 -5 -10
      vertex -2.5 -7.5 -10
      vertex -1.91342 -4.6194 -10
    endloop
  endfacet
  facet normal -0 0 -1
    outer loop
      vertex -1.91342 -4.6194 -10
      vertex -2.5 -7.5 -10
      vertex -3.53553 -3.53553 -10
    endloop
  endfacet
  facet normal -0.406718 -0.913554 0
    outer loop
      vertex -7.5 -12.9904 -10
      vertex -4.63525 -14.2658 10
      vertex -7.5 -12.9904 10
    endloop
  endfacet
  facet normal -0.406718 -0.913554 -0
    outer loop
      vertex -4.63525 -14.2658 10
      vertex -7.5 -12.9904 -10
      vertex -4.63525 -14.2658 -10
    endloop
  endfacet
  facet normal 0.555574 -0.831467 0
    outer loop
      vertex -3.53553 3.53553 -10
      vertex -1.91342 4.6194 5
      vertex -3.53553 3.53553 5
    endloop
  endfacet
  facet normal 0.555574 -0.831467 0
    outer loop
      vertex -1.91342 4.6194 5
      vertex -3.53553 3.53553 -10
      vertex -1.91342 4.6194 -10
    endloop
  endfacet
  facet normal -0.831467 -0.555574 0
    outer loop
      vertex 4.6194 1.91342 -10
      vertex 3.53553 3.53553 5
      vertex 3.53553 3.53553 -10
    endloop
  endfacet
  facet normal -0.831467 -0.555574 0
    outer loop
      vertex 3.53553 3.53553 5
      vertex 4.6194 1.91342 -10
      vertex 4.6194 1.91342 5
    endloop
  endfacet
  facet normal -0.980786 -0.195089 0
    outer loop
      vertex 5 0 -10
      vertex 4.6194 1.91342 5
      vertex 4.6194 1.91342 -10
    endloop
  endfacet
  facet normal -0.980786 -0.195089 0
    outer loop
      vertex 4.6194 1.91342 5
      vertex 5 0 -10
      vertex 5 0 5
    endloop
  endfacet
  facet normal 0.831467 -0.555574 0
    outer loop
      vertex -4.6194 1.91342 5
      vertex -3.53553 3.53553 -10
      vertex -3.53553 3.53553 5
    endloop
  endfacet
  facet normal 0.831467 -0.555574 0
    outer loop
      vertex -3.53553 3.53553 -10
      vertex -4.6194 1.91342 5
      vertex -4.6194 1.91342 -10
    endloop
  endfacet
  facet normal 0.195089 0.980786 -0
    outer loop
      vertex 0 -5 -10
      vertex -1.91342 -4.6194 5
      vertex 0 -5 5
    endloop
  endfacet
  facet normal 0.195089 0.980786 0
    outer loop
      vertex -1.91342 -4.6194 5
      vertex 0 -5 -10
      vertex -1.91342 -4.6194 -10
    endloop
  endfacet
  facet normal -0.195089 0.980786 0
    outer loop
      vertex 1.91342 -4.6194 -10
      vertex 0 -5 5
      vertex 1.91342 -4.6194 5
    endloop
  endfacet
  facet normal -0.195089 0.980786 0
    outer loop
      vertex 0 -5 5
      vertex 1.91342 -4.6194 -10
      vertex 0 -5 -10
    endloop
  endfacet
  facet normal -0.555574 0.831467 0
    outer loop
      vertex 3.53553 -3.53553 -10
      vertex 1.91342 -4.6194 5
      vertex 3.53553 -3.53553 5
    endloop
  endfacet
  facet normal -0.555574 0.831467 0
    outer loop
      vertex 1.91342 -4.6194 5
      vertex 3.53553 -3.53553 -10
      vertex 1.91342 -4.6194 -10
    endloop
  endfacet
  facet normal -0.831467 0.555574 0
    outer loop
      vertex 3.53553 -3.53553 -10
      vertex 4.6194 -1.91342 5
      vertex 4.6194 -1.91342 -10
    endloop
  endfacet
  facet normal -0.831467 0.555574 0
    outer loop
      vertex 4.6194 -1.91342 5
      vertex 3.53553 -3.53553 -10
      vertex 3.53553 -3.53553 5
    endloop
  endfacet
  facet normal 0.980786 -0.195089 0
    outer loop
      vertex -5 0 5
      vertex -4.6194 1.91342 -10
      vertex -4.6194 1.91342 5
    endloop
  endfacet
  facet normal 0.980786 -0.195089 0
    outer loop
      vertex -4.6194 1.91342 -10
      vertex -5 0 5
      vertex -5 0 -10
    endloop
  endfacet
  facet normal -0.980786 0.195089 0
    outer loop
      vertex 4.6194 -1.91342 -10
      vertex 5 0 5
      vertex 5 0 -10
    endloop
  endfacet
  facet normal -0.980786 0.195089 0
    outer loop
      vertex 5 0 5
      vertex 4.6194 -1.91342 -10
      vertex 4.6194 -1.91342 5
    endloop
  endfacet
  facet normal 0.195089 -0.980786 0
    outer loop
      vertex -1.91342 4.6194 -10
      vertex 0 5 5
      vertex -1.91342 4.6194 5
    endloop
  endfacet
  facet normal 0.195089 -0.980786 0
    outer loop
      vertex 0 5 5
      vertex -1.91342 4.6194 -10
      vertex 0 5 -10
    endloop
  endfacet
  facet normal -0.195089 -0.980786 0
    outer loop
      vertex 0 5 -10
      vertex 1.91342 4.6194 5
      vertex 0 5 5
    endloop
  endfacet
  facet normal -0.195089 -0.980786 -0
    outer loop
      vertex 1.91342 4.6194 5
      vertex 0 5 -10
      vertex 1.91342 4.6194 -10
    endloop
  endfacet
  facet normal -0.555574 -0.831467 0
    outer loop
      vertex 1.91342 4.6194 -10
      vertex 3.53553 3.53553 5
      vertex 1.91342 4.6194 5
    endloop
  endfacet
  facet normal -0.555574 -0.831467 -0
    outer loop
      vertex 3.53553 3.53553 5
      vertex 1.91342 4.6194 -10
      vertex 3.53553 3.53553 -10
    endloop
  endfacet
  facet normal 0.831467 0.555574 0
    outer loop
      vertex -3.53553 -3.53553 5
      vertex -4.6194 -1.91342 -10
      vertex -4.6194 -1.91342 5
    endloop
  endfacet
  facet normal 0.831467 0.555574 0
    outer loop
      vertex -4.6194 -1.91342 -10
      vertex -3.53553 -3.53553 5
      vertex -3.53553 -3.53553 -10
    endloop
  endfacet
  facet normal 0 0 -1
    outer loop
      vertex 4.6194 -1.91342 5
      vertex 4.6194 1.91342 5
      vertex 5 0 5
    endloop
  endfacet
  facet normal 0 0 -1
    outer loop
      vertex 3.53553 -3.53553 5
      vertex 4.6194 1.91342 5
      vertex 4.6194 -1.91342 5
    endloop
  endfacet
  facet normal 0 0 -1
    outer loop
      vertex 3.53553 -3.53553 5
      vertex 3.53553 3.53553 5
      vertex 4.6194 1.91342 5
    endloop
  endfacet
  facet normal 0 0 -1
    outer loop
      vertex 1.91342 -4.6194 5
      vertex 3.53553 3.53553 5
      vertex 3.53553 -3.53553 5
    endloop
  endfacet
  facet normal 0 0 -1
    outer loop
      vertex 1.91342 -4.6194 5
      vertex 1.91342 4.6194 5
      vertex 3.53553 3.53553 5
    endloop
  endfacet
  facet normal 0 0 -1
    outer loop
      vertex 0 -5 5
      vertex 1.91342 4.6194 5
      vertex 1.91342 -4.6194 5
    endloop
  endfacet
  facet normal 0 0 -1
    outer loop
      vertex 0 -5 5
      vertex 0 5 5
      vertex 1.91342 4.6194 5
    endloop
  endfacet
  facet normal 0 0 -1
    outer loop
      vertex -1.91342 -4.6194 5
      vertex 0 5 5
      vertex 0 -5 5
    endloop
  endfacet
  facet normal 0 0 -1
    outer loop
      vertex -1.91342 -4.6194 5
      vertex -1.91342 4.6194 5
      vertex 0 5 5
    endloop
  endfacet
  facet normal 0 0 -1
    outer loop
      vertex -3.53553 -3.53553 5
      vertex -1.91342 4.6194 5
      vertex -1.91342 -4.6194 5
    endloop
  endfacet
  facet normal 0 0 -1
    outer loop
      vertex -3.53553 -3.53553 5
      vertex -3.53553 3.53553 5
      vertex -1.91342 4.6194 5
    endloop
  endfacet
  facet normal 0 0 -1
    outer loop
      vertex -4.6194 -1.91342 5
      vertex -3.53553 3.53553 5
      vertex -3.53553 -3.53553 5
    endloop
  endfacet
  facet normal 0 0 -1
    outer loop
      vertex -4.6194 -1.91342 5
      vertex -4.6194 1.91342 5
      vertex -3.53553 3.53553 5
    endloop
  endfacet
  facet normal 0 -0 -1
    outer loop
      vertex -4.6194 1.91342 5
      vertex -4.6194 -1.91342 5
      vertex -5 0 5
    endloop
  endfacet
  facet normal 0.980786 0.195089 0
    outer loop
      vertex -4.6194 -1.91342 5
      vertex -5 0 -10
      vertex -5 0 5
    endloop
  endfacet
  facet normal 0.980786 0.195089 0
    outer loop
      vertex -5 0 -10
      vertex -4.6194 -1.91342 5
      vertex -4.6194 -1.91342 -10
    endloop
  endfacet
  facet normal 0.555574 0.831467 -0
    outer loop
      vertex -1.91342 -4.6194 -10
      vertex -3.53553 -3.53553 5
      vertex -1.91342 -4.6194 5
    endloop
  endfacet
  facet normal 0.555574 0.831467 0
    outer loop
      vertex -3.53553 -3.53553 5
      vertex -1.91342 -4.6194 -10
      vertex -3.53553 -3.53553 -10
    endloop
  endfacet
endsolid OpenSCAD_Model
