solid OpenSCAD_Model
  facet normal 1 -0 0
    outer loop
      vertex 100 0 50
      vertex 100 100 0
      vertex 100 100 50
    endloop
  endfacet
  facet normal 1 0 0
    outer loop
      vertex 100 100 0
      vertex 100 0 50
      vertex 100 0 0
    endloop
  endfacet
  facet normal -0 0 1
    outer loop
      vertex 0 100 50
      vertex 100 0 50
      vertex 100 100 50
    endloop
  endfacet
  facet normal 0 0 1
    outer loop
      vertex 100 0 50
      vertex 0 100 50
      vertex 0 0 50
    endloop
  endfacet
  facet normal 0 0 -1
    outer loop
      vertex 0 0 0
      vertex 100 100 0
      vertex 100 0 0
    endloop
  endfacet
  facet normal -0 0 -1
    outer loop
      vertex 100 100 0
      vertex 0 0 0
      vertex 0 100 0
    endloop
  endfacet
  facet normal -1 0 0
    outer loop
      vertex 0 0 0
      vertex 0 100 50
      vertex 0 100 0
    endloop
  endfacet
  facet normal -1 -0 0
    outer loop
      vertex 0 100 50
      vertex 0 0 0
      vertex 0 0 50
    endloop
  endfacet
  facet normal 0 1 -0
    outer loop
      vertex 100 100 0
      vertex 0 100 50
      vertex 100 100 50
    endloop
  endfacet
  facet normal 0 1 0
    outer loop
      vertex 0 100 50
      vertex 100 100 0
      vertex 0 100 0
    endloop
  endfacet
  facet normal 0 -1 0
    outer loop
      vertex 0 0 0
      vertex 100 0 50
      vertex 0 0 50
    endloop
  endfacet
  facet normal 0 -1 -0
    outer loop
      vertex 100 0 50
      vertex 0 0 0
      vertex 100 0 0
    endloop
  endfacet
endsolid OpenSCAD_Model
