solid OpenSCAD_Model
  facet normal 1 -0 0
    outer loop
      vertex 25 -25 5
      vertex 25 25 0
      vertex 25 25 5
    endloop
  endfacet
  facet normal 1 0 0
    outer loop
      vertex 25 25 0
      vertex 25 -25 5
      vertex 25 -25 0
    endloop
  endfacet
  facet normal 0 0 1
    outer loop
      vertex 25 25 5
      vertex 2 0 5
      vertex 25 -25 5
    endloop
  endfacet
  facet normal 0 0 1
    outer loop
      vertex 25 25 5
      vertex 1.24698 1.56366 5
      vertex 2 0 5
    endloop
  endfacet
  facet normal 0 0 1
    outer loop
      vertex 25 25 5
      vertex -0.445042 1.94986 5
      vertex 1.24698 1.56366 5
    endloop
  endfacet
  facet normal -0 0 1
    outer loop
      vertex -25 25 5
      vertex -0.445042 1.94986 5
      vertex 25 25 5
    endloop
  endfacet
  facet normal 0 0 1
    outer loop
      vertex -1.80194 0.867767 5
      vertex -25 25 5
      vertex -1.80194 -0.867767 5
    endloop
  endfacet
  facet normal 0 0 1
    outer loop
      vertex -0.445042 1.94986 5
      vertex -25 25 5
      vertex -1.80194 0.867767 5
    endloop
  endfacet
  facet normal -0 0 1
    outer loop
      vertex 1.24698 -1.56366 5
      vertex 25 -25 5
      vertex 2 0 5
    endloop
  endfacet
  facet normal -0 0 1
    outer loop
      vertex -0.445042 -1.94986 5
      vertex 25 -25 5
      vertex 1.24698 -1.56366 5
    endloop
  endfacet
  facet normal 0 0 1
    outer loop
      vertex -25 -25 5
      vertex -0.445042 -1.94986 5
      vertex -1.80194 -0.867767 5
    endloop
  endfacet
  facet normal 0 0 1
    outer loop
      vertex -0.445042 -1.94986 5
      vertex -25 -25 5
      vertex 25 -25 5
    endloop
  endfacet
  facet normal 0 0 1
    outer loop
      vertex -25 -25 5
      vertex -1.80194 -0.867767 5
      vertex -25 25 5
    endloop
  endfacet
  facet normal 0 0 -1
    outer loop
      vertex 25 -25 0
      vertex 2 0 0
      vertex 25 25 0
    endloop
  endfacet
  facet normal 0 0 -1
    outer loop
      vertex 25 -25 0
      vertex 1.24698 -1.56366 0
      vertex 2 0 0
    endloop
  endfacet
  facet normal 0 0 -1
    outer loop
      vertex 25 -25 0
      vertex -0.445042 -1.94986 0
      vertex 1.24698 -1.56366 0
    endloop
  endfacet
  facet normal 0 0 -1
    outer loop
      vertex -25 -25 0
      vertex -0.445042 -1.94986 0
      vertex 25 -25 0
    endloop
  endfacet
  facet normal -0 0 -1
    outer loop
      vertex -1.80194 -0.867767 0
      vertex -25 -25 0
      vertex -1.80194 0.867767 0
    endloop
  endfacet
  facet normal -0 0 -1
    outer loop
      vertex -0.445042 -1.94986 0
      vertex -25 -25 0
      vertex -1.80194 -0.867767 0
    endloop
  endfacet
  facet normal 0 0 -1
    outer loop
      vertex 1.24698 1.56366 0
      vertex 25 25 0
      vertex 2 0 0
    endloop
  endfacet
  facet normal 0 0 -1
    outer loop
      vertex -0.445042 1.94986 0
      vertex 25 25 0
      vertex 1.24698 1.56366 0
    endloop
  endfacet
  facet normal 0 0 -1
    outer loop
      vertex -25 25 0
      vertex -0.445042 1.94986 0
      vertex -1.80194 0.867767 0
    endloop
  endfacet
  facet normal 0 0 -1
    outer loop
      vertex -0.445042 1.94986 0
      vertex -25 25 0
      vertex 25 25 0
    endloop
  endfacet
  facet normal 0 0 -1
    outer loop
      vertex -25 25 0
      vertex -1.80194 0.867767 0
      vertex -25 -25 0
    endloop
  endfacet
  facet normal -1 0 0
    outer loop
      vertex -25 -25 0
      vertex -25 25 5
      vertex -25 25 0
    endloop
  endfacet
  facet normal -1 -0 0
    outer loop
      vertex -25 25 5
      vertex -25 -25 0
      vertex -25 -25 5
    endloop
  endfacet
  facet normal 0 1 -0
    outer loop
      vertex 25 25 0
      vertex -25 25 5
      vertex 25 25 5
    endloop
  endfacet
  facet normal 0 1 0
    outer loop
      vertex -25 25 5
      vertex 25 25 0
      vertex -25 25 0
    endloop
  endfacet
  facet normal 0 -1 0
    outer loop
      vertex -25 -25 0
      vertex 25 -25 5
      vertex -25 -25 5
    endloop
  endfacet
  facet normal 0 -1 -0
    outer loop
      vertex 25 -25 5
      vertex -25 -25 0
      vertex 25 -25 0
    endloop
  endfacet
  facet normal -0.222525 -0.974927 0
    outer loop
      vertex -0.445042 1.94986 0
      vertex 1.24698 1.56366 5
      vertex -0.445042 1.94986 5
    endloop
  endfacet
  facet normal -0.222525 -0.974927 -0
    outer loop
      vertex 1.24698 1.56366 5
      vertex -0.445042 1.94986 0
      vertex 1.24698 1.56366 0
    endloop
  endfacet
  facet normal -0.900969 -0.433884 0
    outer loop
      vertex 2 0 0
      vertex 1.24698 1.56366 5
      vertex 1.24698 1.56366 0
    endloop
  endfacet
  facet normal -0.900969 -0.433884 0
    outer loop
      vertex 1.24698 1.56366 5
      vertex 2 0 0
      vertex 2 0 5
    endloop
  endfacet
  facet normal -0.900969 0.433884 0
    outer loop
      vertex 1.24698 -1.56366 0
      vertex 2 0 5
      vertex 2 0 0
    endloop
  endfacet
  facet normal -0.900969 0.433884 0
    outer loop
      vertex 2 0 5
      vertex 1.24698 -1.56366 0
      vertex 1.24698 -1.56366 5
    endloop
  endfacet
  facet normal 0.623491 0.781831 -0
    outer loop
      vertex -0.445042 -1.94986 0
      vertex -1.80194 -0.867767 5
      vertex -0.445042 -1.94986 5
    endloop
  endfacet
  facet normal 0.623491 0.781831 0
    outer loop
      vertex -1.80194 -0.867767 5
      vertex -0.445042 -1.94986 0
      vertex -1.80194 -0.867767 0
    endloop
  endfacet
  facet normal -0.222525 0.974927 0
    outer loop
      vertex 1.24698 -1.56366 0
      vertex -0.445042 -1.94986 5
      vertex 1.24698 -1.56366 5
    endloop
  endfacet
  facet normal -0.222525 0.974927 0
    outer loop
      vertex -0.445042 -1.94986 5
      vertex 1.24698 -1.56366 0
      vertex -0.445042 -1.94986 0
    endloop
  endfacet
  facet normal 1 -0 0
    outer loop
      vertex -1.80194 -0.867767 5
      vertex -1.80194 0.867767 0
      vertex -1.80194 0.867767 5
    endloop
  endfacet
  facet normal 1 0 0
    outer loop
      vertex -1.80194 0.867767 0
      vertex -1.80194 -0.867767 5
      vertex -1.80194 -0.867767 0
    endloop
  endfacet
  facet normal 0.623491 -0.781831 0
    outer loop
      vertex -1.80194 0.867767 0
      vertex -0.445042 1.94986 5
      vertex -1.80194 0.867767 5
    endloop
  endfacet
  facet normal 0.623491 -0.781831 0
    outer loop
      vertex -0.445042 1.94986 5
      vertex -1.80194 0.867767 0
      vertex -0.445042 1.94986 0
    endloop
  endfacet
endsolid OpenSCAD_Model
