solid OpenSCAD_Model
  facet normal -0.555574 0.831467 0
    outer loop
      vertex -1.91342 4.6194 -10
      vertex -3.53553 3.53553 6
      vertex -1.91342 4.6194 6
    endloop
  endfacet
  facet normal -0.555574 0.831467 0
    outer loop
      vertex -3.53553 3.53553 6
      vertex -1.91342 4.6194 -10
      vertex -3.53553 3.53553 -10
    endloop
  endfacet
  facet normal 0.831467 0.555574 0
    outer loop
      vertex 4.6194 1.91342 6
      vertex 3.53553 3.53553 -10
      vertex 3.53553 3.53553 6
    endloop
  endfacet
  facet normal 0.831467 0.555574 0
    outer loop
      vertex 3.53553 3.53553 -10
      vertex 4.6194 1.91342 6
      vertex 4.6194 1.91342 -10
    endloop
  endfacet
  facet normal 0.980786 0.195089 0
    outer loop
      vertex 5 0 6
      vertex 4.6194 1.91342 -10
      vertex 4.6194 1.91342 6
    endloop
  endfacet
  facet normal 0.980786 0.195089 0
    outer loop
      vertex 4.6194 1.91342 -10
      vertex 5 0 6
      vertex 5 0 -10
    endloop
  endfacet
  facet normal -0.831467 0.555574 0
    outer loop
      vertex -4.6194 1.91342 -10
      vertex -3.53553 3.53553 6
      vertex -3.53553 3.53553 -10
    endloop
  endfacet
  facet normal -0.831467 0.555574 0
    outer loop
      vertex -3.53553 3.53553 6
      vertex -4.6194 1.91342 -10
      vertex -4.6194 1.91342 6
    endloop
  endfacet
  facet normal -0.195089 -0.980786 0
    outer loop
      vertex -1.91342 -4.6194 -10
      vertex 0 -5 6
      vertex -1.91342 -4.6194 6
    endloop
  endfacet
  facet normal -0.195089 -0.980786 -0
    outer loop
      vertex 0 -5 6
      vertex -1.91342 -4.6194 -10
      vertex 0 -5 -10
    endloop
  endfacet
  facet normal 0.195089 -0.980786 0
    outer loop
      vertex 0 -5 -10
      vertex 1.91342 -4.6194 6
      vertex 0 -5 6
    endloop
  endfacet
  facet normal 0.195089 -0.980786 0
    outer loop
      vertex 1.91342 -4.6194 6
      vertex 0 -5 -10
      vertex 1.91342 -4.6194 -10
    endloop
  endfacet
  facet normal 0.555574 -0.831467 0
    outer loop
      vertex 1.91342 -4.6194 -10
      vertex 3.53553 -3.53553 6
      vertex 1.91342 -4.6194 6
    endloop
  endfacet
  facet normal 0.555574 -0.831467 0
    outer loop
      vertex 3.53553 -3.53553 6
      vertex 1.91342 -4.6194 -10
      vertex 3.53553 -3.53553 -10
    endloop
  endfacet
  facet normal 0.831467 -0.555574 0
    outer loop
      vertex 3.53553 -3.53553 6
      vertex 4.6194 -1.91342 -10
      vertex 4.6194 -1.91342 6
    endloop
  endfacet
  facet normal 0.831467 -0.555574 0
    outer loop
      vertex 4.6194 -1.91342 -10
      vertex 3.53553 -3.53553 6
      vertex 3.53553 -3.53553 -10
    endloop
  endfacet
  facet normal -0.980786 0.195089 0
    outer loop
      vertex -5 0 -10
      vertex -4.6194 1.91342 6
      vertex -4.6194 1.91342 -10
    endloop
  endfacet
  facet normal -0.980786 0.195089 0
    outer loop
      vertex -4.6194 1.91342 6
      vertex -5 0 -10
      vertex -5 0 6
    endloop
  endfacet
  facet normal 0.980786 -0.195089 0
    outer loop
      vertex 4.6194 -1.91342 6
      vertex 5 0 -10
      vertex 5 0 6
    endloop
  endfacet
  facet normal 0.980786 -0.195089 0
    outer loop
      vertex 5 0 -10
      vertex 4.6194 -1.91342 6
      vertex 4.6194 -1.91342 -10
    endloop
  endfacet
  facet normal 0 0 -1
    outer loop
      vertex 4.6194 -1.91342 -10
      vertex 4.6194 1.91342 -10
      vertex 5 0 -10
    endloop
  endfacet
  facet normal 0 0 -1
    outer loop
      vertex 3.53553 -3.53553 -10
      vertex 4.6194 1.91342 -10
      vertex 4.6194 -1.91342 -10
    endloop
  endfacet
  facet normal 0 0 -1
    outer loop
      vertex 3.53553 -3.53553 -10
      vertex 3.53553 3.53553 -10
      vertex 4.6194 1.91342 -10
    endloop
  endfacet
  facet normal 0 0 -1
    outer loop
      vertex 1.91342 -4.6194 -10
      vertex 3.53553 3.53553 -10
      vertex 3.53553 -3.53553 -10
    endloop
  endfacet
  facet normal 0 0 -1
    outer loop
      vertex 1.91342 -4.6194 -10
      vertex 1.91342 4.6194 -10
      vertex 3.53553 3.53553 -10
    endloop
  endfacet
  facet normal 0 0 -1
    outer loop
      vertex 0 -5 -10
      vertex 1.91342 4.6194 -10
      vertex 1.91342 -4.6194 -10
    endloop
  endfacet
  facet normal 0 0 -1
    outer loop
      vertex 0 -5 -10
      vertex 0 5 -10
      vertex 1.91342 4.6194 -10
    endloop
  endfacet
  facet normal 0 0 -1
    outer loop
      vertex -1.91342 -4.6194 -10
      vertex 0 5 -10
      vertex 0 -5 -10
    endloop
  endfacet
  facet normal 0 0 -1
    outer loop
      vertex -1.91342 -4.6194 -10
      vertex -1.91342 4.6194 -10
      vertex 0 5 -10
    endloop
  endfacet
  facet normal 0 0 -1
    outer loop
      vertex -3.53553 -3.53553 -10
      vertex -1.91342 4.6194 -10
      vertex -1.91342 -4.6194 -10
    endloop
  endfacet
  facet normal 0 0 -1
    outer loop
      vertex -3.53553 -3.53553 -10
      vertex -3.53553 3.53553 -10
      vertex -1.91342 4.6194 -10
    endloop
  endfacet
  facet normal 0 0 -1
    outer loop
      vertex -4.6194 -1.91342 -10
      vertex -3.53553 3.53553 -10
      vertex -3.53553 -3.53553 -10
    endloop
  endfacet
  facet normal 0 0 -1
    outer loop
      vertex -4.6194 -1.91342 -10
      vertex -4.6194 1.91342 -10
      vertex -3.53553 3.53553 -10
    endloop
  endfacet
  facet normal 0 -0 -1
    outer loop
      vertex -4.6194 1.91342 -10
      vertex -4.6194 -1.91342 -10
      vertex -5 0 -10
    endloop
  endfacet
  facet normal -0.195089 0.980786 0
    outer loop
      vertex 0 5 -10
      vertex -1.91342 4.6194 6
      vertex 0 5 6
    endloop
  endfacet
  facet normal -0.195089 0.980786 0
    outer loop
      vertex -1.91342 4.6194 6
      vertex 0 5 -10
      vertex -1.91342 4.6194 -10
    endloop
  endfacet
  facet normal 0.195089 0.980786 -0
    outer loop
      vertex 1.91342 4.6194 -10
      vertex 0 5 6
      vertex 1.91342 4.6194 6
    endloop
  endfacet
  facet normal 0.195089 0.980786 0
    outer loop
      vertex 0 5 6
      vertex 1.91342 4.6194 -10
      vertex 0 5 -10
    endloop
  endfacet
  facet normal 0.555574 0.831467 -0
    outer loop
      vertex 3.53553 3.53553 -10
      vertex 1.91342 4.6194 6
      vertex 3.53553 3.53553 6
    endloop
  endfacet
  facet normal 0.555574 0.831467 0
    outer loop
      vertex 1.91342 4.6194 6
      vertex 3.53553 3.53553 -10
      vertex 1.91342 4.6194 -10
    endloop
  endfacet
  facet normal -0.831467 -0.555574 0
    outer loop
      vertex -3.53553 -3.53553 -10
      vertex -4.6194 -1.91342 6
      vertex -4.6194 -1.91342 -10
    endloop
  endfacet
  facet normal -0.831467 -0.555574 0
    outer loop
      vertex -4.6194 -1.91342 6
      vertex -3.53553 -3.53553 -10
      vertex -3.53553 -3.53553 6
    endloop
  endfacet
  facet normal 0 0 1
    outer loop
      vertex -7.24444 1.94114 10
      vertex -10 5 10
      vertex -7.5 0 10
    endloop
  endfacet
  facet normal 0 0 1
    outer loop
      vertex -6.49519 3.75 10
      vertex -10 5 10
      vertex -7.24444 1.94114 10
    endloop
  endfacet
  facet normal -0 0 1
    outer loop
      vertex -10 5 10
      vertex -6.49519 3.75 10
      vertex -5.53603 5 10
    endloop
  endfacet
  facet normal -0 0 1
    outer loop
      vertex 3.75 -6.49519 10
      vertex 5 -10 10
      vertex 5 -5.53603 10
    endloop
  endfacet
  facet normal -0 0 1
    outer loop
      vertex 1.94114 -7.24444 10
      vertex 5 -10 10
      vertex 3.75 -6.49519 10
    endloop
  endfacet
  facet normal -0 0 1
    outer loop
      vertex 0 -7.5 10
      vertex 5 -10 10
      vertex 1.94114 -7.24444 10
    endloop
  endfacet
  facet normal 0 0 1
    outer loop
      vertex -1.94114 -7.24444 10
      vertex 5 -10 10
      vertex 0 -7.5 10
    endloop
  endfacet
  facet normal 0 0 1
    outer loop
      vertex -10 5 10
      vertex -7.24444 -1.94114 10
      vertex -7.5 0 10
    endloop
  endfacet
  facet normal 0 0 1
    outer loop
      vertex -1.94114 -7.24444 10
      vertex -10 -10 10
      vertex 5 -10 10
    endloop
  endfacet
  facet normal 0 0 1
    outer loop
      vertex -3.75 -6.49519 10
      vertex -10 -10 10
      vertex -1.94114 -7.24444 10
    endloop
  endfacet
  facet normal 0 0 1
    outer loop
      vertex -5.3033 -5.3033 10
      vertex -10 -10 10
      vertex -3.75 -6.49519 10
    endloop
  endfacet
  facet normal 0 0 1
    outer loop
      vertex -6.49519 -3.75 10
      vertex -10 -10 10
      vertex -5.3033 -5.3033 10
    endloop
  endfacet
  facet normal 0 0 1
    outer loop
      vertex -7.24444 -1.94114 10
      vertex -10 -10 10
      vertex -6.49519 -3.75 10
    endloop
  endfacet
  facet normal 0 0 1
    outer loop
      vertex -10 -10 10
      vertex -7.24444 -1.94114 10
      vertex -10 5 10
    endloop
  endfacet
  facet normal -0.980786 -0.195089 0
    outer loop
      vertex -4.6194 -1.91342 -10
      vertex -5 0 6
      vertex -5 0 -10
    endloop
  endfacet
  facet normal -0.980786 -0.195089 0
    outer loop
      vertex -5 0 6
      vertex -4.6194 -1.91342 -10
      vertex -4.6194 -1.91342 6
    endloop
  endfacet
  facet normal -0.555574 -0.831467 0
    outer loop
      vertex -3.53553 -3.53553 -10
      vertex -1.91342 -4.6194 6
      vertex -3.53553 -3.53553 6
    endloop
  endfacet
  facet normal -0.555574 -0.831467 -0
    outer loop
      vertex -1.91342 -4.6194 6
      vertex -3.53553 -3.53553 -10
      vertex -1.91342 -4.6194 -10
    endloop
  endfacet
  facet normal 0.92388 0.382682 0
    outer loop
      vertex 7.24444 1.94114 11
      vertex 6.49519 3.75 9
      vertex 6.49519 3.75 11
    endloop
  endfacet
  facet normal 0.92388 0.382682 0
    outer loop
      vertex 6.49519 3.75 9
      vertex 7.24444 1.94114 11
      vertex 7.24444 1.94114 9
    endloop
  endfacet
  facet normal 0.991445 0.130528 0
    outer loop
      vertex 7.5 0 11
      vertex 7.24444 1.94114 9
      vertex 7.24444 1.94114 11
    endloop
  endfacet
  facet normal 0.991445 0.130528 0
    outer loop
      vertex 7.24444 1.94114 9
      vertex 7.5 0 11
      vertex 7.5 0 9
    endloop
  endfacet
  facet normal 0.793353 0.608762 0
    outer loop
      vertex 6.49519 3.75 11
      vertex 5.3033 5.3033 9
      vertex 5.3033 5.3033 11
    endloop
  endfacet
  facet normal 0.793353 0.608762 0
    outer loop
      vertex 5.3033 5.3033 9
      vertex 6.49519 3.75 11
      vertex 6.49519 3.75 9
    endloop
  endfacet
  facet normal -0.793354 0.608761 0
    outer loop
      vertex -5.53603 5 10
      vertex -5.3033 5.3033 9
      vertex -5.53603 5 9
    endloop
  endfacet
  facet normal -0.793354 0.608761 0
    outer loop
      vertex -5.3033 5.3033 9
      vertex -5.53603 5 10
      vertex -5.3033 5.3033 11
    endloop
  endfacet
  facet normal -0.793353 0.608762 0
    outer loop
      vertex -6.49519 3.75 11
      vertex -5.53603 5 10
      vertex -6.49519 3.75 10
    endloop
  endfacet
  facet normal -0.793353 0.608762 -3.71828e-07
    outer loop
      vertex -5.53603 5 10
      vertex -6.49519 3.75 11
      vertex -5.3033 5.3033 11
    endloop
  endfacet
  facet normal -0.608762 0.793353 0
    outer loop
      vertex -3.75 6.49519 9
      vertex -5.3033 5.3033 11
      vertex -3.75 6.49519 11
    endloop
  endfacet
  facet normal -0.608762 0.793353 0
    outer loop
      vertex -5.3033 5.3033 11
      vertex -3.75 6.49519 9
      vertex -5.3033 5.3033 9
    endloop
  endfacet
  facet normal 0.382682 -0.92388 0
    outer loop
      vertex 1.94114 -7.24444 10
      vertex 3.75 -6.49519 11
      vertex 1.94114 -7.24444 11
    endloop
  endfacet
  facet normal 0.382682 -0.92388 0
    outer loop
      vertex 3.75 -6.49519 11
      vertex 1.94114 -7.24444 10
      vertex 3.75 -6.49519 10
    endloop
  endfacet
  facet normal -0.92388 0.382682 0
    outer loop
      vertex -7.24444 1.94114 10
      vertex -6.49519 3.75 11
      vertex -6.49519 3.75 10
    endloop
  endfacet
  facet normal -0.92388 0.382682 0
    outer loop
      vertex -6.49519 3.75 11
      vertex -7.24444 1.94114 10
      vertex -7.24444 1.94114 11
    endloop
  endfacet
  facet normal 0.608762 0.793353 -0
    outer loop
      vertex 5.3033 5.3033 9
      vertex 3.75 6.49519 11
      vertex 5.3033 5.3033 11
    endloop
  endfacet
  facet normal 0.608762 0.793353 0
    outer loop
      vertex 3.75 6.49519 11
      vertex 5.3033 5.3033 9
      vertex 3.75 6.49519 9
    endloop
  endfacet
  facet normal 0.130528 0.991445 -0
    outer loop
      vertex 1.94114 7.24444 9
      vertex 0 7.5 11
      vertex 1.94114 7.24444 11
    endloop
  endfacet
  facet normal 0.130528 0.991445 0
    outer loop
      vertex 0 7.5 11
      vertex 1.94114 7.24444 9
      vertex 0 7.5 9
    endloop
  endfacet
  facet normal -0.382682 -0.92388 0
    outer loop
      vertex -3.75 -6.49519 10
      vertex -1.94114 -7.24444 11
      vertex -3.75 -6.49519 11
    endloop
  endfacet
  facet normal -0.382682 -0.92388 -0
    outer loop
      vertex -1.94114 -7.24444 11
      vertex -3.75 -6.49519 10
      vertex -1.94114 -7.24444 10
    endloop
  endfacet
  facet normal 0.130528 -0.991445 0
    outer loop
      vertex 0 -7.5 10
      vertex 1.94114 -7.24444 11
      vertex 0 -7.5 11
    endloop
  endfacet
  facet normal 0.130528 -0.991445 0
    outer loop
      vertex 1.94114 -7.24444 11
      vertex 0 -7.5 10
      vertex 1.94114 -7.24444 10
    endloop
  endfacet
  facet normal 0 0 1
    outer loop
      vertex 1.5 0 11
      vertex 7.5 0 11
      vertex 7.24444 1.94114 11
    endloop
  endfacet
  facet normal 0 0 1
    outer loop
      vertex 1.5 0 11
      vertex 7.24444 1.94114 11
      vertex 6.49519 3.75 11
    endloop
  endfacet
  facet normal 0 0 1
    outer loop
      vertex 7.5 0 11
      vertex 1.5 0 11
      vertex 7.24444 -1.94114 11
    endloop
  endfacet
  facet normal 0 0 1
    outer loop
      vertex 0.463525 1.42658 11
      vertex 6.49519 3.75 11
      vertex 5.3033 5.3033 11
    endloop
  endfacet
  facet normal 0 0 1
    outer loop
      vertex 7.24444 -1.94114 11
      vertex 1.5 0 11
      vertex 6.49519 -3.75 11
    endloop
  endfacet
  facet normal 0 0 1
    outer loop
      vertex 0.463525 1.42658 11
      vertex 5.3033 5.3033 11
      vertex 3.75 6.49519 11
    endloop
  endfacet
  facet normal -0 0 1
    outer loop
      vertex 0.463525 -1.42658 11
      vertex 6.49519 -3.75 11
      vertex 1.5 0 11
    endloop
  endfacet
  facet normal 0 0 1
    outer loop
      vertex 0.463525 1.42658 11
      vertex 3.75 6.49519 11
      vertex 1.94114 7.24444 11
    endloop
  endfacet
  facet normal 0 0 1
    outer loop
      vertex 6.49519 -3.75 11
      vertex 0.463525 -1.42658 11
      vertex 5.3033 -5.3033 11
    endloop
  endfacet
  facet normal 0 0 1
    outer loop
      vertex 5.3033 -5.3033 11
      vertex 0.463525 -1.42658 11
      vertex 3.75 -6.49519 11
    endloop
  endfacet
  facet normal 0 0 1
    outer loop
      vertex 6.49519 3.75 11
      vertex 0.463525 1.42658 11
      vertex 1.5 0 11
    endloop
  endfacet
  facet normal 0 0 1
    outer loop
      vertex 0 7.5 11
      vertex 0.463525 1.42658 11
      vertex 1.94114 7.24444 11
    endloop
  endfacet
  facet normal -0 0 1
    outer loop
      vertex -1.94114 7.24444 11
      vertex 0.463525 1.42658 11
      vertex 0 7.5 11
    endloop
  endfacet
  facet normal -0 0 1
    outer loop
      vertex -3.75 6.49519 11
      vertex -1.21352 0.881678 11
      vertex -1.94114 7.24444 11
    endloop
  endfacet
  facet normal 0 0 1
    outer loop
      vertex 0.463525 1.42658 11
      vertex -1.94114 7.24444 11
      vertex -1.21352 0.881678 11
    endloop
  endfacet
  facet normal 0 0 1
    outer loop
      vertex 3.75 -6.49519 11
      vertex 0.463525 -1.42658 11
      vertex 1.94114 -7.24444 11
    endloop
  endfacet
  facet normal 0 0 1
    outer loop
      vertex 0.463525 -1.42658 11
      vertex 0 -7.5 11
      vertex 1.94114 -7.24444 11
    endloop
  endfacet
  facet normal 0 0 1
    outer loop
      vertex -1.94114 -7.24444 11
      vertex 0.463525 -1.42658 11
      vertex -1.21352 -0.881678 11
    endloop
  endfacet
  facet normal 0 0 1
    outer loop
      vertex 0.463525 -1.42658 11
      vertex -1.94114 -7.24444 11
      vertex 0 -7.5 11
    endloop
  endfacet
  facet normal -0 0 1
    outer loop
      vertex -5.3033 5.3033 11
      vertex -1.21352 0.881678 11
      vertex -3.75 6.49519 11
    endloop
  endfacet
  facet normal -0 0 1
    outer loop
      vertex -6.49519 3.75 11
      vertex -1.21352 0.881678 11
      vertex -5.3033 5.3033 11
    endloop
  endfacet
  facet normal 0 0 1
    outer loop
      vertex -1.21352 -0.881678 11
      vertex -3.75 -6.49519 11
      vertex -1.94114 -7.24444 11
    endloop
  endfacet
  facet normal -0 0 1
    outer loop
      vertex -7.24444 1.94114 11
      vertex -1.21352 0.881678 11
      vertex -6.49519 3.75 11
    endloop
  endfacet
  facet normal 0 0 1
    outer loop
      vertex -1.21352 -0.881678 11
      vertex -5.3033 -5.3033 11
      vertex -3.75 -6.49519 11
    endloop
  endfacet
  facet normal 0 0 1
    outer loop
      vertex -7.5 0 11
      vertex -1.21352 0.881678 11
      vertex -7.24444 1.94114 11
    endloop
  endfacet
  facet normal 0 0 1
    outer loop
      vertex -1.21352 -0.881678 11
      vertex -6.49519 -3.75 11
      vertex -5.3033 -5.3033 11
    endloop
  endfacet
  facet normal 0 0 1
    outer loop
      vertex -1.21352 0.881678 11
      vertex -7.5 0 11
      vertex -1.21352 -0.881678 11
    endloop
  endfacet
  facet normal 0 0 1
    outer loop
      vertex -1.21352 -0.881678 11
      vertex -7.24444 -1.94114 11
      vertex -6.49519 -3.75 11
    endloop
  endfacet
  facet normal 0 0 1
    outer loop
      vertex -1.21352 -0.881678 11
      vertex -7.5 0 11
      vertex -7.24444 -1.94114 11
    endloop
  endfacet
  facet normal 0.793353 -0.608762 0
    outer loop
      vertex 5.3033 -5.3033 11
      vertex 6.49519 -3.75 9
      vertex 6.49519 -3.75 11
    endloop
  endfacet
  facet normal 0.793353 -0.608762 0
    outer loop
      vertex 6.49519 -3.75 9
      vertex 5.3033 -5.3033 11
      vertex 5.3033 -5.3033 9
    endloop
  endfacet
  facet normal 0.608762 -0.793353 0
    outer loop
      vertex 5 -5.53603 10
      vertex 3.75 -6.49519 11
      vertex 3.75 -6.49519 10
    endloop
  endfacet
  facet normal 0.608762 -0.793353 -3.71828e-07
    outer loop
      vertex 3.75 -6.49519 11
      vertex 5 -5.53603 10
      vertex 5.3033 -5.3033 11
    endloop
  endfacet
  facet normal 0.608761 -0.793354 0
    outer loop
      vertex 5.3033 -5.3033 9
      vertex 5 -5.53603 10
      vertex 5 -5.53603 9
    endloop
  endfacet
  facet normal 0.608761 -0.793354 0
    outer loop
      vertex 5 -5.53603 10
      vertex 5.3033 -5.3033 9
      vertex 5.3033 -5.3033 11
    endloop
  endfacet
  facet normal -0.793353 -0.608762 0
    outer loop
      vertex -5.3033 -5.3033 10
      vertex -6.49519 -3.75 11
      vertex -6.49519 -3.75 10
    endloop
  endfacet
  facet normal -0.793353 -0.608762 0
    outer loop
      vertex -6.49519 -3.75 11
      vertex -5.3033 -5.3033 10
      vertex -5.3033 -5.3033 11
    endloop
  endfacet
  facet normal 0.991445 -0.130528 0
    outer loop
      vertex 7.24444 -1.94114 11
      vertex 7.5 0 9
      vertex 7.5 0 11
    endloop
  endfacet
  facet normal 0.991445 -0.130528 0
    outer loop
      vertex 7.5 0 9
      vertex 7.24444 -1.94114 11
      vertex 7.24444 -1.94114 9
    endloop
  endfacet
  facet normal -0.991445 0.130528 0
    outer loop
      vertex -7.5 0 10
      vertex -7.24444 1.94114 11
      vertex -7.24444 1.94114 10
    endloop
  endfacet
  facet normal -0.991445 0.130528 0
    outer loop
      vertex -7.24444 1.94114 11
      vertex -7.5 0 10
      vertex -7.5 0 11
    endloop
  endfacet
  facet normal -0.130528 0.991445 0
    outer loop
      vertex 0 7.5 9
      vertex -1.94114 7.24444 11
      vertex 0 7.5 11
    endloop
  endfacet
  facet normal -0.130528 0.991445 0
    outer loop
      vertex -1.94114 7.24444 11
      vertex 0 7.5 9
      vertex -1.94114 7.24444 9
    endloop
  endfacet
  facet normal 0.92388 -0.382682 0
    outer loop
      vertex 6.49519 -3.75 11
      vertex 7.24444 -1.94114 9
      vertex 7.24444 -1.94114 11
    endloop
  endfacet
  facet normal 0.92388 -0.382682 0
    outer loop
      vertex 7.24444 -1.94114 9
      vertex 6.49519 -3.75 11
      vertex 6.49519 -3.75 9
    endloop
  endfacet
  facet normal -0.382682 0.92388 0
    outer loop
      vertex -1.94114 7.24444 9
      vertex -3.75 6.49519 11
      vertex -1.94114 7.24444 11
    endloop
  endfacet
  facet normal -0.382682 0.92388 0
    outer loop
      vertex -3.75 6.49519 11
      vertex -1.94114 7.24444 9
      vertex -3.75 6.49519 9
    endloop
  endfacet
  facet normal 0.382682 0.92388 -0
    outer loop
      vertex 3.75 6.49519 9
      vertex 1.94114 7.24444 11
      vertex 3.75 6.49519 11
    endloop
  endfacet
  facet normal 0.382682 0.92388 0
    outer loop
      vertex 1.94114 7.24444 11
      vertex 3.75 6.49519 9
      vertex 1.94114 7.24444 9
    endloop
  endfacet
  facet normal -0.130528 -0.991445 0
    outer loop
      vertex -1.94114 -7.24444 10
      vertex 0 -7.5 11
      vertex -1.94114 -7.24444 11
    endloop
  endfacet
  facet normal -0.130528 -0.991445 -0
    outer loop
      vertex 0 -7.5 11
      vertex -1.94114 -7.24444 10
      vertex 0 -7.5 10
    endloop
  endfacet
  facet normal -0.92388 -0.382682 0
    outer loop
      vertex -6.49519 -3.75 10
      vertex -7.24444 -1.94114 11
      vertex -7.24444 -1.94114 10
    endloop
  endfacet
  facet normal -0.92388 -0.382682 0
    outer loop
      vertex -7.24444 -1.94114 11
      vertex -6.49519 -3.75 10
      vertex -6.49519 -3.75 11
    endloop
  endfacet
  facet normal -0.991445 -0.130528 0
    outer loop
      vertex -7.24444 -1.94114 10
      vertex -7.5 0 11
      vertex -7.5 0 10
    endloop
  endfacet
  facet normal -0.991445 -0.130528 0
    outer loop
      vertex -7.5 0 11
      vertex -7.24444 -1.94114 10
      vertex -7.24444 -1.94114 11
    endloop
  endfacet
  facet normal -0.608762 -0.793353 0
    outer loop
      vertex -5.3033 -5.3033 10
      vertex -3.75 -6.49519 11
      vertex -5.3033 -5.3033 11
    endloop
  endfacet
  facet normal -0.608762 -0.793353 -0
    outer loop
      vertex -3.75 -6.49519 11
      vertex -5.3033 -5.3033 10
      vertex -3.75 -6.49519 10
    endloop
  endfacet
  facet normal 0 0 -1
    outer loop
      vertex 5 5 9
      vertex 7.5 0 9
      vertex 7.24444 -1.94114 9
    endloop
  endfacet
  facet normal 0 0 -1
    outer loop
      vertex 5 5 9
      vertex 7.24444 -1.94114 9
      vertex 6.49519 -3.75 9
    endloop
  endfacet
  facet normal 0 0 -1
    outer loop
      vertex 7.5 0 9
      vertex 5 5 9
      vertex 7.24444 1.94114 9
    endloop
  endfacet
  facet normal 0 0 -1
    outer loop
      vertex 5 -5.53603 9
      vertex 6.49519 -3.75 9
      vertex 5.3033 -5.3033 9
    endloop
  endfacet
  facet normal 0 0 -1
    outer loop
      vertex 7.24444 1.94114 9
      vertex 5 5 9
      vertex 6.49519 3.75 9
    endloop
  endfacet
  facet normal -0 0 -1
    outer loop
      vertex 6.49519 -3.75 9
      vertex 5 -5.53603 9
      vertex 5 5 9
    endloop
  endfacet
  facet normal 0 0 -1
    outer loop
      vertex 6.49519 3.75 9
      vertex 5 5 9
      vertex 5.3033 5.3033 9
    endloop
  endfacet
  facet normal 0 0 -1
    outer loop
      vertex 5 5 9
      vertex 3.75 6.49519 9
      vertex 5.3033 5.3033 9
    endloop
  endfacet
  facet normal 0 0 -1
    outer loop
      vertex 5 5 9
      vertex 1.94114 7.24444 9
      vertex 3.75 6.49519 9
    endloop
  endfacet
  facet normal 0 0 -1
    outer loop
      vertex 5 5 9
      vertex 0 7.5 9
      vertex 1.94114 7.24444 9
    endloop
  endfacet
  facet normal 0 0 -1
    outer loop
      vertex 5 5 9
      vertex -1.94114 7.24444 9
      vertex 0 7.5 9
    endloop
  endfacet
  facet normal 0 0 -1
    outer loop
      vertex 5 5 9
      vertex -3.75 6.49519 9
      vertex -1.94114 7.24444 9
    endloop
  endfacet
  facet normal 0 0 -1
    outer loop
      vertex -5.53603 5 9
      vertex -3.75 6.49519 9
      vertex 5 5 9
    endloop
  endfacet
  facet normal 0 0 -1
    outer loop
      vertex -3.75 6.49519 9
      vertex -5.53603 5 9
      vertex -5.3033 5.3033 9
    endloop
  endfacet
  facet normal 1 0 0
    outer loop
      vertex 5 -5.53603 10
      vertex 5 -10 10
      vertex 5 -5.53603 9
    endloop
  endfacet
  facet normal 1 0 0
    outer loop
      vertex 5 5 9
      vertex 5 0 6
      vertex 5 5 6
    endloop
  endfacet
  facet normal 1 -0 0
    outer loop
      vertex 5 -5.53603 9
      vertex 5 0 6
      vertex 5 5 9
    endloop
  endfacet
  facet normal 1 0 0
    outer loop
      vertex 5 -10 6
      vertex 5 -5.53603 9
      vertex 5 -10 10
    endloop
  endfacet
  facet normal 1 0 0
    outer loop
      vertex 5 -5.53603 9
      vertex 5 -10 6
      vertex 5 0 6
    endloop
  endfacet
  facet normal 0 0 -1
    outer loop
      vertex 4.6194 1.91342 6
      vertex 5 5 6
      vertex 5 0 6
    endloop
  endfacet
  facet normal 0 0 -1
    outer loop
      vertex 3.53553 3.53553 6
      vertex 5 5 6
      vertex 4.6194 1.91342 6
    endloop
  endfacet
  facet normal 0 0 -1
    outer loop
      vertex 1.91342 4.6194 6
      vertex 5 5 6
      vertex 3.53553 3.53553 6
    endloop
  endfacet
  facet normal -0 0 -1
    outer loop
      vertex 5 5 6
      vertex 1.91342 4.6194 6
      vertex 0 5 6
    endloop
  endfacet
  facet normal 0 0 -1
    outer loop
      vertex 5 -10 6
      vertex 4.6194 -1.91342 6
      vertex 5 0 6
    endloop
  endfacet
  facet normal 0 0 -1
    outer loop
      vertex 5 -10 6
      vertex 3.53553 -3.53553 6
      vertex 4.6194 -1.91342 6
    endloop
  endfacet
  facet normal 0 0 -1
    outer loop
      vertex 5 -10 6
      vertex 1.91342 -4.6194 6
      vertex 3.53553 -3.53553 6
    endloop
  endfacet
  facet normal 0 0 -1
    outer loop
      vertex 5 -10 6
      vertex 0 -5 6
      vertex 1.91342 -4.6194 6
    endloop
  endfacet
  facet normal 0 0 -1
    outer loop
      vertex 5 -10 6
      vertex -1.91342 -4.6194 6
      vertex 0 -5 6
    endloop
  endfacet
  facet normal 0 0 -1
    outer loop
      vertex -10 -10 6
      vertex -1.91342 -4.6194 6
      vertex 5 -10 6
    endloop
  endfacet
  facet normal -0 0 -1
    outer loop
      vertex -4.6194 -1.91342 6
      vertex -10 -10 6
      vertex -5 0 6
    endloop
  endfacet
  facet normal -0 0 -1
    outer loop
      vertex -3.53553 -3.53553 6
      vertex -10 -10 6
      vertex -4.6194 -1.91342 6
    endloop
  endfacet
  facet normal -0 0 -1
    outer loop
      vertex -1.91342 -4.6194 6
      vertex -10 -10 6
      vertex -3.53553 -3.53553 6
    endloop
  endfacet
  facet normal 0 0 -1
    outer loop
      vertex -10 5 6
      vertex -5 0 6
      vertex -10 -10 6
    endloop
  endfacet
  facet normal 0 0 -1
    outer loop
      vertex -1.91342 4.6194 6
      vertex -10 5 6
      vertex 0 5 6
    endloop
  endfacet
  facet normal 0 0 -1
    outer loop
      vertex -3.53553 3.53553 6
      vertex -10 5 6
      vertex -1.91342 4.6194 6
    endloop
  endfacet
  facet normal 0 0 -1
    outer loop
      vertex -4.6194 1.91342 6
      vertex -10 5 6
      vertex -3.53553 3.53553 6
    endloop
  endfacet
  facet normal 0 0 -1
    outer loop
      vertex -5 0 6
      vertex -10 5 6
      vertex -4.6194 1.91342 6
    endloop
  endfacet
  facet normal -1 0 0
    outer loop
      vertex -10 -10 6
      vertex -10 5 10
      vertex -10 5 6
    endloop
  endfacet
  facet normal -1 -0 0
    outer loop
      vertex -10 5 10
      vertex -10 -10 6
      vertex -10 -10 10
    endloop
  endfacet
  facet normal 0 1 0
    outer loop
      vertex 0 5 6
      vertex 5 5 9
      vertex 5 5 6
    endloop
  endfacet
  facet normal 0 1 -0
    outer loop
      vertex -5.53603 5 9
      vertex -10 5 10
      vertex -5.53603 5 10
    endloop
  endfacet
  facet normal 0 1 0
    outer loop
      vertex 5 5 9
      vertex 0 5 6
      vertex -5.53603 5 9
    endloop
  endfacet
  facet normal 0 1 0
    outer loop
      vertex -10 5 6
      vertex -5.53603 5 9
      vertex 0 5 6
    endloop
  endfacet
  facet normal 0 1 0
    outer loop
      vertex -5.53603 5 9
      vertex -10 5 6
      vertex -10 5 10
    endloop
  endfacet
  facet normal 0 -1 0
    outer loop
      vertex -10 -10 6
      vertex 5 -10 10
      vertex -10 -10 10
    endloop
  endfacet
  facet normal 0 -1 -0
    outer loop
      vertex 5 -10 10
      vertex -10 -10 6
      vertex 5 -10 6
    endloop
  endfacet
  facet normal 0.309015 0.951057 -0
    outer loop
      vertex 0.463525 -1.42658 -5
      vertex -1.21352 -0.881678 11
      vertex 0.463525 -1.42658 11
    endloop
  endfacet
  facet normal 0.309015 0.951057 0
    outer loop
      vertex -1.21352 -0.881678 11
      vertex 0.463525 -1.42658 -5
      vertex -1.21352 -0.881678 -5
    endloop
  endfacet
  facet normal 0.309015 -0.951057 0
    outer loop
      vertex -1.21352 0.881678 -5
      vertex 0.463525 1.42658 11
      vertex -1.21352 0.881678 11
    endloop
  endfacet
  facet normal 0.309015 -0.951057 0
    outer loop
      vertex 0.463525 1.42658 11
      vertex -1.21352 0.881678 -5
      vertex 0.463525 1.42658 -5
    endloop
  endfacet
  facet normal -0.809016 -0.587787 0
    outer loop
      vertex 1.5 0 -5
      vertex 0.463525 1.42658 11
      vertex 0.463525 1.42658 -5
    endloop
  endfacet
  facet normal -0.809016 -0.587787 0
    outer loop
      vertex 0.463525 1.42658 11
      vertex 1.5 0 -5
      vertex 1.5 0 11
    endloop
  endfacet
  facet normal 1 -0 0
    outer loop
      vertex -1.21352 -0.881678 11
      vertex -1.21352 0.881678 -5
      vertex -1.21352 0.881678 11
    endloop
  endfacet
  facet normal 1 0 0
    outer loop
      vertex -1.21352 0.881678 -5
      vertex -1.21352 -0.881678 11
      vertex -1.21352 -0.881678 -5
    endloop
  endfacet
  facet normal -0.809016 0.587787 0
    outer loop
      vertex 0.463525 -1.42658 -5
      vertex 1.5 0 11
      vertex 1.5 0 -5
    endloop
  endfacet
  facet normal -0.809016 0.587787 0
    outer loop
      vertex 1.5 0 11
      vertex 0.463525 -1.42658 -5
      vertex 0.463525 -1.42658 11
    endloop
  endfacet
  facet normal 0 0 1
    outer loop
      vertex 0.463525 1.42658 -5
      vertex 0.463525 -1.42658 -5
      vertex 1.5 0 -5
    endloop
  endfacet
  facet normal -0 0 1
    outer loop
      vertex -1.21352 0.881678 -5
      vertex 0.463525 -1.42658 -5
      vertex 0.463525 1.42658 -5
    endloop
  endfacet
  facet normal 0 0 1
    outer loop
      vertex 0.463525 -1.42658 -5
      vertex -1.21352 0.881678 -5
      vertex -1.21352 -0.881678 -5
    endloop
  endfacet
endsolid OpenSCAD_Model
