solid OpenSCAD_Model
  facet normal 0.894427 0.447214 0
    outer loop
      vertex 6 -2 2
      vertex 4 2 0
      vertex 4 2 2
    endloop
  endfacet
  facet normal 0.894427 0.447214 0
    outer loop
      vertex 4 2 0
      vertex 6 -2 2
      vertex 6 -2 0
    endloop
  endfacet
  facet normal -1 0 0
    outer loop
      vertex -5 -3.59999 0
      vertex -5 0 2
      vertex -5 0 0
    endloop
  endfacet
  facet normal -1 -0 0
    outer loop
      vertex -5 0 2
      vertex -5 -3.59999 0
      vertex -5 -3.59999 2
    endloop
  endfacet
  facet normal 0.549176 -0.835707 0
    outer loop
      vertex 2.5 -4.29999 0
      vertex 6 -2 2
      vertex 2.5 -4.29999 2
    endloop
  endfacet
  facet normal 0.549176 -0.835707 0
    outer loop
      vertex 6 -2 2
      vertex 2.5 -4.29999 0
      vertex 6 -2 0
    endloop
  endfacet
  facet normal 0.0747899 -0.997199 0
    outer loop
      vertex -1.5 -4.59999 0
      vertex 2.5 -4.29999 2
      vertex -1.5 -4.59999 2
    endloop
  endfacet
  facet normal 0.0747899 -0.997199 0
    outer loop
      vertex 2.5 -4.29999 2
      vertex -1.5 -4.59999 0
      vertex 2.5 -4.29999 0
    endloop
  endfacet
  facet normal -0.274721 -0.961524 0
    outer loop
      vertex -5 -3.59999 0
      vertex -1.5 -4.59999 2
      vertex -5 -3.59999 2
    endloop
  endfacet
  facet normal -0.274721 -0.961524 -0
    outer loop
      vertex -1.5 -4.59999 2
      vertex -5 -3.59999 0
      vertex -1.5 -4.59999 0
    endloop
  endfacet
  facet normal 0 0 1
    outer loop
      vertex 4 2 2
      vertex 2.5 -4.29999 2
      vertex 6 -2 2
    endloop
  endfacet
  facet normal 0 0 1
    outer loop
      vertex 4 2 2
      vertex -1.5 -4.59999 2
      vertex 2.5 -4.29999 2
    endloop
  endfacet
  facet normal 0 0 1
    outer loop
      vertex -3 3.39999 2
      vertex -1.5 -4.59999 2
      vertex 4 2 2
    endloop
  endfacet
  facet normal -0 0 1
    outer loop
      vertex -5 0 2
      vertex -1.5 -4.59999 2
      vertex -3 3.39999 2
    endloop
  endfacet
  facet normal 0 0 1
    outer loop
      vertex -1.5 -4.59999 2
      vertex -5 0 2
      vertex -5 -3.59999 2
    endloop
  endfacet
  facet normal 0 0 -1
    outer loop
      vertex 2.5 -4.29999 0
      vertex 4 2 0
      vertex 6 -2 0
    endloop
  endfacet
  facet normal 0 0 -1
    outer loop
      vertex -1.5 -4.59999 0
      vertex 4 2 0
      vertex 2.5 -4.29999 0
    endloop
  endfacet
  facet normal 0 0 -1
    outer loop
      vertex -1.5 -4.59999 0
      vertex -3 3.39999 0
      vertex 4 2 0
    endloop
  endfacet
  facet normal 0 0 -1
    outer loop
      vertex -5 0 0
      vertex -1.5 -4.59999 0
      vertex -5 -3.59999 0
    endloop
  endfacet
  facet normal 0 0 -1
    outer loop
      vertex -1.5 -4.59999 0
      vertex -5 0 0
      vertex -3 3.39999 0
    endloop
  endfacet
  facet normal -0.861934 0.507021 0
    outer loop
      vertex -5 0 0
      vertex -3 3.39999 2
      vertex -3 3.39999 0
    endloop
  endfacet
  facet normal -0.861934 0.507021 0
    outer loop
      vertex -3 3.39999 2
      vertex -5 0 0
      vertex -5 0 2
    endloop
  endfacet
  facet normal 0.196115 0.980581 -0
    outer loop
      vertex 4 2 0
      vertex -3 3.39999 2
      vertex 4 2 2
    endloop
  endfacet
  facet normal 0.196115 0.980581 0
    outer loop
      vertex -3 3.39999 2
      vertex 4 2 0
      vertex -3 3.39999 0
    endloop
  endfacet
endsolid OpenSCAD_Model
