solid OpenSCAD_Model
  facet normal 1 -0 0
    outer loop
      vertex 30 -30 2.5
      vertex 30 25 -2.5
      vertex 30 25 2.5
    endloop
  endfacet
  facet normal 1 0 0
    outer loop
      vertex 30 25 -2.5
      vertex 30 -30 2.5
      vertex 30 -30 -2.5
    endloop
  endfacet
  facet normal 1 0 0
    outer loop
      vertex 30 25 2.5
      vertex 30 30 18.5
      vertex 30 25 18.5
    endloop
  endfacet
  facet normal 1 0 0
    outer loop
      vertex 30 30 18.5
      vertex 30 25 2.5
      vertex 30 30 -15
    endloop
  endfacet
  facet normal 1 -0 0
    outer loop
      vertex 30 25 -2.5
      vertex 30 30 -15
      vertex 30 25 2.5
    endloop
  endfacet
  facet normal 1 0 0
    outer loop
      vertex 30 30 -15
      vertex 30 25 -2.5
      vertex 30 25 -15
    endloop
  endfacet
  facet normal 1 -0 0
    outer loop
      vertex 30 25 25
      vertex 30 30 21.5
      vertex 30 30 25
    endloop
  endfacet
  facet normal 1 0 0
    outer loop
      vertex 30 30 21.5
      vertex 30 25 25
      vertex 30 25 21.5
    endloop
  endfacet
  facet normal -0 0 1
    outer loop
      vertex -20.9271 17.1468 2.5
      vertex -9.78148 2.07912 2.5
      vertex -19.0729 17.1468 2.5
    endloop
  endfacet
  facet normal 0 0 1
    outer loop
      vertex -10 0 2.5
      vertex -17.5729 -18.2366 2.5
      vertex -17 -20 2.5
    endloop
  endfacet
  facet normal 0 0 1
    outer loop
      vertex -9.78148 2.07912 2.5
      vertex -20.9271 17.1468 2.5
      vertex -10 0 2.5
    endloop
  endfacet
  facet normal 0 0 1
    outer loop
      vertex -10 0 2.5
      vertex -19.0729 -17.1468 2.5
      vertex -17.5729 -18.2366 2.5
    endloop
  endfacet
  facet normal 0 0 1
    outer loop
      vertex -20.9271 -17.1468 2.5
      vertex -10 0 2.5
      vertex -20.9271 17.1468 2.5
    endloop
  endfacet
  facet normal 0 0 1
    outer loop
      vertex -10 0 2.5
      vertex -20.9271 -17.1468 2.5
      vertex -19.0729 -17.1468 2.5
    endloop
  endfacet
  facet normal 0 0 1
    outer loop
      vertex -22.4271 18.2366 2.5
      vertex -20.9271 -17.1468 2.5
      vertex -20.9271 17.1468 2.5
    endloop
  endfacet
  facet normal 0 0 1
    outer loop
      vertex -22.4271 18.2366 2.5
      vertex -22.4271 -18.2366 2.5
      vertex -20.9271 -17.1468 2.5
    endloop
  endfacet
  facet normal 0 0 1
    outer loop
      vertex -30 25 2.5
      vertex -22.4271 18.2366 2.5
      vertex -23 20 2.5
    endloop
  endfacet
  facet normal 0 0 1
    outer loop
      vertex -22.4271 18.2366 2.5
      vertex -30 25 2.5
      vertex -22.4271 -18.2366 2.5
    endloop
  endfacet
  facet normal 0 0 1
    outer loop
      vertex 22.4271 -18.2366 2.5
      vertex 30 25 2.5
      vertex 22.4271 18.2366 2.5
    endloop
  endfacet
  facet normal 0 0 1
    outer loop
      vertex 30 25 2.5
      vertex 22.4271 -18.2366 2.5
      vertex 23 -20 2.5
    endloop
  endfacet
  facet normal -0 0 1
    outer loop
      vertex 20.9271 17.1468 2.5
      vertex 22.4271 -18.2366 2.5
      vertex 22.4271 18.2366 2.5
    endloop
  endfacet
  facet normal 0 0 1
    outer loop
      vertex 20.9271 17.1468 2.5
      vertex 20.9271 -17.1468 2.5
      vertex 22.4271 -18.2366 2.5
    endloop
  endfacet
  facet normal 0 0 1
    outer loop
      vertex 9.78148 2.07912 2.5
      vertex 20.9271 17.1468 2.5
      vertex 19.0729 17.1468 2.5
    endloop
  endfacet
  facet normal 0 0 1
    outer loop
      vertex 20.9271 17.1468 2.5
      vertex 10 0 2.5
      vertex 20.9271 -17.1468 2.5
    endloop
  endfacet
  facet normal 0 0 1
    outer loop
      vertex 8.09017 5.87785 2.5
      vertex 19.0729 17.1468 2.5
      vertex 17.5729 18.2366 2.5
    endloop
  endfacet
  facet normal -0 0 1
    outer loop
      vertex 9.78148 -2.07912 2.5
      vertex 20.9271 -17.1468 2.5
      vertex 10 0 2.5
    endloop
  endfacet
  facet normal 0 0 1
    outer loop
      vertex 5 8.66025 2.5
      vertex 17.5729 18.2366 2.5
      vertex 17 20 2.5
    endloop
  endfacet
  facet normal 0 0 1
    outer loop
      vertex 20.9271 -17.1468 2.5
      vertex 9.78148 -2.07912 2.5
      vertex 19.0729 -17.1468 2.5
    endloop
  endfacet
  facet normal 0 0 1
    outer loop
      vertex 22.4271 18.2366 2.5
      vertex 30 25 2.5
      vertex 23 20 2.5
    endloop
  endfacet
  facet normal 0 0 1
    outer loop
      vertex 30 25 2.5
      vertex 22.4271 21.7634 2.5
      vertex 23 20 2.5
    endloop
  endfacet
  facet normal 0 0 1
    outer loop
      vertex 30 25 2.5
      vertex 20.9271 22.8532 2.5
      vertex 22.4271 21.7634 2.5
    endloop
  endfacet
  facet normal 0 0 1
    outer loop
      vertex 30 25 2.5
      vertex 19.0729 22.8532 2.5
      vertex 20.9271 22.8532 2.5
    endloop
  endfacet
  facet normal -0 0 1
    outer loop
      vertex 9.13545 -4.06737 2.5
      vertex 19.0729 -17.1468 2.5
      vertex 9.78148 -2.07912 2.5
    endloop
  endfacet
  facet normal 0 0 1
    outer loop
      vertex 1.04528 9.94522 2.5
      vertex 17 20 2.5
      vertex 17.5729 21.7634 2.5
    endloop
  endfacet
  facet normal 0 0 1
    outer loop
      vertex 20.9271 17.1468 2.5
      vertex 9.78148 2.07912 2.5
      vertex 10 0 2.5
    endloop
  endfacet
  facet normal 0 0 1
    outer loop
      vertex 19.0729 17.1468 2.5
      vertex 9.13545 4.06737 2.5
      vertex 9.78148 2.07912 2.5
    endloop
  endfacet
  facet normal 0 0 1
    outer loop
      vertex 19.0729 17.1468 2.5
      vertex 8.09017 5.87785 2.5
      vertex 9.13545 4.06737 2.5
    endloop
  endfacet
  facet normal 0 0 1
    outer loop
      vertex 17.5729 18.2366 2.5
      vertex 6.69131 7.43145 2.5
      vertex 8.09017 5.87785 2.5
    endloop
  endfacet
  facet normal 0 0 1
    outer loop
      vertex 17.5729 18.2366 2.5
      vertex 5 8.66025 2.5
      vertex 6.69131 7.43145 2.5
    endloop
  endfacet
  facet normal 0 0 1
    outer loop
      vertex 17 20 2.5
      vertex 3.09017 9.51056 2.5
      vertex 5 8.66025 2.5
    endloop
  endfacet
  facet normal 0 0 1
    outer loop
      vertex 17 20 2.5
      vertex 1.04528 9.94522 2.5
      vertex 3.09017 9.51056 2.5
    endloop
  endfacet
  facet normal 0 0 1
    outer loop
      vertex -17.5729 21.7634 2.5
      vertex 17.5729 21.7634 2.5
      vertex 19.0729 22.8532 2.5
    endloop
  endfacet
  facet normal 0 0 1
    outer loop
      vertex 17.5729 21.7634 2.5
      vertex -17.5729 21.7634 2.5
      vertex 1.04528 9.94522 2.5
    endloop
  endfacet
  facet normal 0 0 1
    outer loop
      vertex 1.04528 9.94522 2.5
      vertex -17.5729 21.7634 2.5
      vertex -1.04528 9.94522 2.5
    endloop
  endfacet
  facet normal -0 -0 1
    outer loop
      vertex -17 20 2.5
      vertex -1.04528 9.94522 2.5
      vertex -17.5729 21.7634 2.5
    endloop
  endfacet
  facet normal 0 0 1
    outer loop
      vertex -8.09017 5.87785 2.5
      vertex -19.0729 17.1468 2.5
      vertex -9.13545 4.06737 2.5
    endloop
  endfacet
  facet normal -0 0 1
    outer loop
      vertex -19.0729 17.1468 2.5
      vertex -8.09017 5.87785 2.5
      vertex -17.5729 18.2366 2.5
    endloop
  endfacet
  facet normal 0 0 1
    outer loop
      vertex -6.69131 7.43145 2.5
      vertex -17.5729 18.2366 2.5
      vertex -8.09017 5.87785 2.5
    endloop
  endfacet
  facet normal 0 0 1
    outer loop
      vertex -5 8.66025 2.5
      vertex -17.5729 18.2366 2.5
      vertex -6.69131 7.43145 2.5
    endloop
  endfacet
  facet normal -0 0 1
    outer loop
      vertex -17.5729 18.2366 2.5
      vertex -5 8.66025 2.5
      vertex -17 20 2.5
    endloop
  endfacet
  facet normal 0 0 1
    outer loop
      vertex -3.09017 9.51056 2.5
      vertex -17 20 2.5
      vertex -5 8.66025 2.5
    endloop
  endfacet
  facet normal 0 0 1
    outer loop
      vertex -19.0729 22.8532 2.5
      vertex 19.0729 22.8532 2.5
      vertex 30 25 2.5
    endloop
  endfacet
  facet normal 0 0 1
    outer loop
      vertex -1.04528 9.94522 2.5
      vertex -17 20 2.5
      vertex -3.09017 9.51056 2.5
    endloop
  endfacet
  facet normal 0 0 1
    outer loop
      vertex 19.0729 22.8532 2.5
      vertex -19.0729 22.8532 2.5
      vertex -17.5729 21.7634 2.5
    endloop
  endfacet
  facet normal -0 0 1
    outer loop
      vertex -30 25 2.5
      vertex -19.0729 22.8532 2.5
      vertex 30 25 2.5
    endloop
  endfacet
  facet normal 0 0 1
    outer loop
      vertex -30 -30 2.5
      vertex -22.4271 -18.2366 2.5
      vertex -30 25 2.5
    endloop
  endfacet
  facet normal 0 0 1
    outer loop
      vertex -22.4271 21.7634 2.5
      vertex -30 25 2.5
      vertex -23 20 2.5
    endloop
  endfacet
  facet normal 0 0 1
    outer loop
      vertex -20.9271 22.8532 2.5
      vertex -30 25 2.5
      vertex -22.4271 21.7634 2.5
    endloop
  endfacet
  facet normal 0 0 1
    outer loop
      vertex -19.0729 22.8532 2.5
      vertex -30 25 2.5
      vertex -20.9271 22.8532 2.5
    endloop
  endfacet
  facet normal 0 0 1
    outer loop
      vertex 30 25 2.5
      vertex 23 -20 2.5
      vertex 30 -30 2.5
    endloop
  endfacet
  facet normal -0 0 1
    outer loop
      vertex 22.4271 -21.7634 2.5
      vertex 30 -30 2.5
      vertex 23 -20 2.5
    endloop
  endfacet
  facet normal -0 0 1
    outer loop
      vertex 20.9271 -22.8532 2.5
      vertex 30 -30 2.5
      vertex 22.4271 -21.7634 2.5
    endloop
  endfacet
  facet normal -0 0 1
    outer loop
      vertex 19.0729 -22.8532 2.5
      vertex 30 -30 2.5
      vertex 20.9271 -22.8532 2.5
    endloop
  endfacet
  facet normal -0 0 1
    outer loop
      vertex 8.09017 -5.87785 2.5
      vertex 19.0729 -17.1468 2.5
      vertex 9.13545 -4.06737 2.5
    endloop
  endfacet
  facet normal 0 0 1
    outer loop
      vertex 19.0729 -17.1468 2.5
      vertex 8.09017 -5.87785 2.5
      vertex 17.5729 -18.2366 2.5
    endloop
  endfacet
  facet normal -0 0 1
    outer loop
      vertex 6.69131 -7.43145 2.5
      vertex 17.5729 -18.2366 2.5
      vertex 8.09017 -5.87785 2.5
    endloop
  endfacet
  facet normal -0 0 1
    outer loop
      vertex 5 -8.66025 2.5
      vertex 17.5729 -18.2366 2.5
      vertex 6.69131 -7.43145 2.5
    endloop
  endfacet
  facet normal 0 0 1
    outer loop
      vertex 17.5729 -18.2366 2.5
      vertex 5 -8.66025 2.5
      vertex 17 -20 2.5
    endloop
  endfacet
  facet normal -0 0 1
    outer loop
      vertex 3.09017 -9.51056 2.5
      vertex 17 -20 2.5
      vertex 5 -8.66025 2.5
    endloop
  endfacet
  facet normal -0 0 1
    outer loop
      vertex 1.04528 -9.94522 2.5
      vertex 17 -20 2.5
      vertex 3.09017 -9.51056 2.5
    endloop
  endfacet
  facet normal 0 0 1
    outer loop
      vertex 17 -20 2.5
      vertex 1.04528 -9.94522 2.5
      vertex 17.5729 -21.7634 2.5
    endloop
  endfacet
  facet normal 0 0 1
    outer loop
      vertex -17.5729 -21.7634 2.5
      vertex 17.5729 -21.7634 2.5
      vertex 1.04528 -9.94522 2.5
    endloop
  endfacet
  facet normal 0 0 1
    outer loop
      vertex -17.5729 -21.7634 2.5
      vertex 1.04528 -9.94522 2.5
      vertex -1.04528 -9.94522 2.5
    endloop
  endfacet
  facet normal 0 0 1
    outer loop
      vertex 17.5729 -21.7634 2.5
      vertex -17.5729 -21.7634 2.5
      vertex 19.0729 -22.8532 2.5
    endloop
  endfacet
  facet normal 0 0 1
    outer loop
      vertex -17 -20 2.5
      vertex -1.04528 -9.94522 2.5
      vertex -3.09017 -9.51056 2.5
    endloop
  endfacet
  facet normal 0 0 1
    outer loop
      vertex -17 -20 2.5
      vertex -3.09017 -9.51056 2.5
      vertex -5 -8.66025 2.5
    endloop
  endfacet
  facet normal 0 0 1
    outer loop
      vertex -9.13545 4.06737 2.5
      vertex -19.0729 17.1468 2.5
      vertex -9.78148 2.07912 2.5
    endloop
  endfacet
  facet normal 0 0 1
    outer loop
      vertex -10 0 2.5
      vertex -17 -20 2.5
      vertex -9.78148 -2.07912 2.5
    endloop
  endfacet
  facet normal 0 0 1
    outer loop
      vertex -9.78148 -2.07912 2.5
      vertex -17 -20 2.5
      vertex -9.13545 -4.06737 2.5
    endloop
  endfacet
  facet normal 0 0 1
    outer loop
      vertex -17 -20 2.5
      vertex -8.09017 -5.87785 2.5
      vertex -9.13545 -4.06737 2.5
    endloop
  endfacet
  facet normal 0 0 1
    outer loop
      vertex -17 -20 2.5
      vertex -6.69131 -7.43145 2.5
      vertex -8.09017 -5.87785 2.5
    endloop
  endfacet
  facet normal 0 0 1
    outer loop
      vertex -17 -20 2.5
      vertex -5 -8.66025 2.5
      vertex -6.69131 -7.43145 2.5
    endloop
  endfacet
  facet normal 0 0 1
    outer loop
      vertex -1.04528 -9.94522 2.5
      vertex -17 -20 2.5
      vertex -17.5729 -21.7634 2.5
    endloop
  endfacet
  facet normal 0 0 1
    outer loop
      vertex -19.0729 -22.8532 2.5
      vertex 19.0729 -22.8532 2.5
      vertex -17.5729 -21.7634 2.5
    endloop
  endfacet
  facet normal 0 0 1
    outer loop
      vertex 19.0729 -22.8532 2.5
      vertex -19.0729 -22.8532 2.5
      vertex 30 -30 2.5
    endloop
  endfacet
  facet normal 0 0 1
    outer loop
      vertex -30 -30 2.5
      vertex -19.0729 -22.8532 2.5
      vertex -20.9271 -22.8532 2.5
    endloop
  endfacet
  facet normal 0 0 1
    outer loop
      vertex -19.0729 -22.8532 2.5
      vertex -30 -30 2.5
      vertex 30 -30 2.5
    endloop
  endfacet
  facet normal 0 0 1
    outer loop
      vertex -22.4271 -21.7634 2.5
      vertex -30 -30 2.5
      vertex -20.9271 -22.8532 2.5
    endloop
  endfacet
  facet normal 0 0 1
    outer loop
      vertex -23 -20 2.5
      vertex -30 -30 2.5
      vertex -22.4271 -21.7634 2.5
    endloop
  endfacet
  facet normal 0 0 1
    outer loop
      vertex -22.4271 -18.2366 2.5
      vertex -30 -30 2.5
      vertex -23 -20 2.5
    endloop
  endfacet
  facet normal 0 0 -1
    outer loop
      vertex -20.9271 -17.1468 -2.5
      vertex -9.78148 -2.07912 -2.5
      vertex -19.0729 -17.1468 -2.5
    endloop
  endfacet
  facet normal 0 0 -1
    outer loop
      vertex -10 0 -2.5
      vertex -17.5729 18.2366 -2.5
      vertex -17 20 -2.5
    endloop
  endfacet
  facet normal -0 0 -1
    outer loop
      vertex -9.78148 -2.07912 -2.5
      vertex -20.9271 -17.1468 -2.5
      vertex -10 0 -2.5
    endloop
  endfacet
  facet normal 0 0 -1
    outer loop
      vertex -10 0 -2.5
      vertex -19.0729 17.1468 -2.5
      vertex -17.5729 18.2366 -2.5
    endloop
  endfacet
  facet normal 0 0 -1
    outer loop
      vertex -20.9271 17.1468 -2.5
      vertex -10 0 -2.5
      vertex -20.9271 -17.1468 -2.5
    endloop
  endfacet
  facet normal 0 0 -1
    outer loop
      vertex -10 0 -2.5
      vertex -20.9271 17.1468 -2.5
      vertex -19.0729 17.1468 -2.5
    endloop
  endfacet
  facet normal 0 0 -1
    outer loop
      vertex -22.4271 -18.2366 -2.5
      vertex -20.9271 17.1468 -2.5
      vertex -20.9271 -17.1468 -2.5
    endloop
  endfacet
  facet normal 0 0 -1
    outer loop
      vertex -22.4271 -18.2366 -2.5
      vertex -22.4271 18.2366 -2.5
      vertex -20.9271 17.1468 -2.5
    endloop
  endfacet
  facet normal 0 0 -1
    outer loop
      vertex -30 -30 -2.5
      vertex -22.4271 -18.2366 -2.5
      vertex -23 -20 -2.5
    endloop
  endfacet
  facet normal 0 0 -1
    outer loop
      vertex -22.4271 -18.2366 -2.5
      vertex -30 25 -2.5
      vertex -22.4271 18.2366 -2.5
    endloop
  endfacet
  facet normal 0 0 -1
    outer loop
      vertex 22.4271 18.2366 -2.5
      vertex 30 25 -2.5
      vertex 22.4271 -18.2366 -2.5
    endloop
  endfacet
  facet normal 0 0 -1
    outer loop
      vertex 30 25 -2.5
      vertex 22.4271 18.2366 -2.5
      vertex 23 20 -2.5
    endloop
  endfacet
  facet normal 0 0 -1
    outer loop
      vertex 20.9271 -17.1468 -2.5
      vertex 22.4271 18.2366 -2.5
      vertex 22.4271 -18.2366 -2.5
    endloop
  endfacet
  facet normal 0 0 -1
    outer loop
      vertex 20.9271 -17.1468 -2.5
      vertex 20.9271 17.1468 -2.5
      vertex 22.4271 18.2366 -2.5
    endloop
  endfacet
  facet normal 0 0 -1
    outer loop
      vertex 9.78148 -2.07912 -2.5
      vertex 20.9271 -17.1468 -2.5
      vertex 19.0729 -17.1468 -2.5
    endloop
  endfacet
  facet normal 0 0 -1
    outer loop
      vertex 20.9271 -17.1468 -2.5
      vertex 10 0 -2.5
      vertex 20.9271 17.1468 -2.5
    endloop
  endfacet
  facet normal 0 0 -1
    outer loop
      vertex 8.09017 -5.87785 -2.5
      vertex 19.0729 -17.1468 -2.5
      vertex 17.5729 -18.2366 -2.5
    endloop
  endfacet
  facet normal 0 0 -1
    outer loop
      vertex 9.78148 2.07912 -2.5
      vertex 20.9271 17.1468 -2.5
      vertex 10 0 -2.5
    endloop
  endfacet
  facet normal 0 0 -1
    outer loop
      vertex 5 -8.66025 -2.5
      vertex 17.5729 -18.2366 -2.5
      vertex 17 -20 -2.5
    endloop
  endfacet
  facet normal -0 0 -1
    outer loop
      vertex 20.9271 17.1468 -2.5
      vertex 9.78148 2.07912 -2.5
      vertex 19.0729 17.1468 -2.5
    endloop
  endfacet
  facet normal 0 0 -1
    outer loop
      vertex 22.4271 -18.2366 -2.5
      vertex 30 -30 -2.5
      vertex 23 -20 -2.5
    endloop
  endfacet
  facet normal 0 0 -1
    outer loop
      vertex 30 -30 -2.5
      vertex 22.4271 -21.7634 -2.5
      vertex 23 -20 -2.5
    endloop
  endfacet
  facet normal 0 0 -1
    outer loop
      vertex 30 -30 -2.5
      vertex 20.9271 -22.8532 -2.5
      vertex 22.4271 -21.7634 -2.5
    endloop
  endfacet
  facet normal 0 0 -1
    outer loop
      vertex 30 -30 -2.5
      vertex 19.0729 -22.8532 -2.5
      vertex 20.9271 -22.8532 -2.5
    endloop
  endfacet
  facet normal 0 0 -1
    outer loop
      vertex 9.13545 4.06737 -2.5
      vertex 19.0729 17.1468 -2.5
      vertex 9.78148 2.07912 -2.5
    endloop
  endfacet
  facet normal 0 0 -1
    outer loop
      vertex 1.04528 -9.94522 -2.5
      vertex 17 -20 -2.5
      vertex 17.5729 -21.7634 -2.5
    endloop
  endfacet
  facet normal 0 0 -1
    outer loop
      vertex 20.9271 -17.1468 -2.5
      vertex 9.78148 -2.07912 -2.5
      vertex 10 0 -2.5
    endloop
  endfacet
  facet normal 0 0 -1
    outer loop
      vertex 19.0729 -17.1468 -2.5
      vertex 9.13545 -4.06737 -2.5
      vertex 9.78148 -2.07912 -2.5
    endloop
  endfacet
  facet normal 0 0 -1
    outer loop
      vertex 19.0729 -17.1468 -2.5
      vertex 8.09017 -5.87785 -2.5
      vertex 9.13545 -4.06737 -2.5
    endloop
  endfacet
  facet normal 0 0 -1
    outer loop
      vertex 17.5729 -18.2366 -2.5
      vertex 6.69131 -7.43145 -2.5
      vertex 8.09017 -5.87785 -2.5
    endloop
  endfacet
  facet normal 0 0 -1
    outer loop
      vertex 17.5729 -18.2366 -2.5
      vertex 5 -8.66025 -2.5
      vertex 6.69131 -7.43145 -2.5
    endloop
  endfacet
  facet normal 0 0 -1
    outer loop
      vertex 17 -20 -2.5
      vertex 3.09017 -9.51056 -2.5
      vertex 5 -8.66025 -2.5
    endloop
  endfacet
  facet normal 0 0 -1
    outer loop
      vertex 17 -20 -2.5
      vertex 1.04528 -9.94522 -2.5
      vertex 3.09017 -9.51056 -2.5
    endloop
  endfacet
  facet normal 0 0 -1
    outer loop
      vertex -17.5729 -21.7634 -2.5
      vertex 17.5729 -21.7634 -2.5
      vertex 19.0729 -22.8532 -2.5
    endloop
  endfacet
  facet normal 0 0 -1
    outer loop
      vertex 17.5729 -21.7634 -2.5
      vertex -17.5729 -21.7634 -2.5
      vertex 1.04528 -9.94522 -2.5
    endloop
  endfacet
  facet normal 0 0 -1
    outer loop
      vertex -19.0729 -22.8532 -2.5
      vertex 19.0729 -22.8532 -2.5
      vertex 30 -30 -2.5
    endloop
  endfacet
  facet normal -0 0 -1
    outer loop
      vertex 1.04528 -9.94522 -2.5
      vertex -17.5729 -21.7634 -2.5
      vertex -1.04528 -9.94522 -2.5
    endloop
  endfacet
  facet normal 0 -0 -1
    outer loop
      vertex -17 -20 -2.5
      vertex -1.04528 -9.94522 -2.5
      vertex -17.5729 -21.7634 -2.5
    endloop
  endfacet
  facet normal -0 0 -1
    outer loop
      vertex -8.09017 -5.87785 -2.5
      vertex -19.0729 -17.1468 -2.5
      vertex -9.13545 -4.06737 -2.5
    endloop
  endfacet
  facet normal 0 0 -1
    outer loop
      vertex -19.0729 -17.1468 -2.5
      vertex -8.09017 -5.87785 -2.5
      vertex -17.5729 -18.2366 -2.5
    endloop
  endfacet
  facet normal -0 0 -1
    outer loop
      vertex -6.69131 -7.43145 -2.5
      vertex -17.5729 -18.2366 -2.5
      vertex -8.09017 -5.87785 -2.5
    endloop
  endfacet
  facet normal -0 0 -1
    outer loop
      vertex -5 -8.66025 -2.5
      vertex -17.5729 -18.2366 -2.5
      vertex -6.69131 -7.43145 -2.5
    endloop
  endfacet
  facet normal 0 0 -1
    outer loop
      vertex -17.5729 -18.2366 -2.5
      vertex -5 -8.66025 -2.5
      vertex -17 -20 -2.5
    endloop
  endfacet
  facet normal -0 0 -1
    outer loop
      vertex -1.04528 -9.94522 -2.5
      vertex -17 -20 -2.5
      vertex -3.09017 -9.51056 -2.5
    endloop
  endfacet
  facet normal -0 0 -1
    outer loop
      vertex -3.09017 -9.51056 -2.5
      vertex -17 -20 -2.5
      vertex -5 -8.66025 -2.5
    endloop
  endfacet
  facet normal 0 0 -1
    outer loop
      vertex 19.0729 -22.8532 -2.5
      vertex -19.0729 -22.8532 -2.5
      vertex -17.5729 -21.7634 -2.5
    endloop
  endfacet
  facet normal 0 0 -1
    outer loop
      vertex -30 -30 -2.5
      vertex -19.0729 -22.8532 -2.5
      vertex 30 -30 -2.5
    endloop
  endfacet
  facet normal -0 0 -1
    outer loop
      vertex -22.4271 -18.2366 -2.5
      vertex -30 -30 -2.5
      vertex -30 25 -2.5
    endloop
  endfacet
  facet normal -0 0 -1
    outer loop
      vertex -22.4271 -21.7634 -2.5
      vertex -30 -30 -2.5
      vertex -23 -20 -2.5
    endloop
  endfacet
  facet normal -0 0 -1
    outer loop
      vertex -20.9271 -22.8532 -2.5
      vertex -30 -30 -2.5
      vertex -22.4271 -21.7634 -2.5
    endloop
  endfacet
  facet normal -0 0 -1
    outer loop
      vertex -19.0729 -22.8532 -2.5
      vertex -30 -30 -2.5
      vertex -20.9271 -22.8532 -2.5
    endloop
  endfacet
  facet normal 0 0 -1
    outer loop
      vertex 30 -30 -2.5
      vertex 22.4271 -18.2366 -2.5
      vertex 30 25 -2.5
    endloop
  endfacet
  facet normal 0 0 -1
    outer loop
      vertex 22.4271 21.7634 -2.5
      vertex 30 25 -2.5
      vertex 23 20 -2.5
    endloop
  endfacet
  facet normal 0 0 -1
    outer loop
      vertex 20.9271 22.8532 -2.5
      vertex 30 25 -2.5
      vertex 22.4271 21.7634 -2.5
    endloop
  endfacet
  facet normal 0 0 -1
    outer loop
      vertex 19.0729 22.8532 -2.5
      vertex 30 25 -2.5
      vertex 20.9271 22.8532 -2.5
    endloop
  endfacet
  facet normal 0 0 -1
    outer loop
      vertex 8.09017 5.87785 -2.5
      vertex 19.0729 17.1468 -2.5
      vertex 9.13545 4.06737 -2.5
    endloop
  endfacet
  facet normal -0 0 -1
    outer loop
      vertex 19.0729 17.1468 -2.5
      vertex 8.09017 5.87785 -2.5
      vertex 17.5729 18.2366 -2.5
    endloop
  endfacet
  facet normal 0 0 -1
    outer loop
      vertex 6.69131 7.43145 -2.5
      vertex 17.5729 18.2366 -2.5
      vertex 8.09017 5.87785 -2.5
    endloop
  endfacet
  facet normal 0 0 -1
    outer loop
      vertex 5 8.66025 -2.5
      vertex 17.5729 18.2366 -2.5
      vertex 6.69131 7.43145 -2.5
    endloop
  endfacet
  facet normal -0 0 -1
    outer loop
      vertex 17.5729 18.2366 -2.5
      vertex 5 8.66025 -2.5
      vertex 17 20 -2.5
    endloop
  endfacet
  facet normal 0 0 -1
    outer loop
      vertex 3.09017 9.51056 -2.5
      vertex 17 20 -2.5
      vertex 5 8.66025 -2.5
    endloop
  endfacet
  facet normal 0 0 -1
    outer loop
      vertex 1.04528 9.94522 -2.5
      vertex 17 20 -2.5
      vertex 3.09017 9.51056 -2.5
    endloop
  endfacet
  facet normal -0 0 -1
    outer loop
      vertex 17 20 -2.5
      vertex 1.04528 9.94522 -2.5
      vertex 17.5729 21.7634 -2.5
    endloop
  endfacet
  facet normal 0 0 -1
    outer loop
      vertex -17.5729 21.7634 -2.5
      vertex 17.5729 21.7634 -2.5
      vertex 1.04528 9.94522 -2.5
    endloop
  endfacet
  facet normal 0 0 -1
    outer loop
      vertex -17.5729 21.7634 -2.5
      vertex 1.04528 9.94522 -2.5
      vertex -1.04528 9.94522 -2.5
    endloop
  endfacet
  facet normal 0 0 -1
    outer loop
      vertex -17 20 -2.5
      vertex -1.04528 9.94522 -2.5
      vertex -3.09017 9.51056 -2.5
    endloop
  endfacet
  facet normal 0 0 -1
    outer loop
      vertex -17 20 -2.5
      vertex -3.09017 9.51056 -2.5
      vertex -5 8.66025 -2.5
    endloop
  endfacet
  facet normal -0 0 -1
    outer loop
      vertex -9.13545 -4.06737 -2.5
      vertex -19.0729 -17.1468 -2.5
      vertex -9.78148 -2.07912 -2.5
    endloop
  endfacet
  facet normal 0 0 -1
    outer loop
      vertex -10 0 -2.5
      vertex -17 20 -2.5
      vertex -9.78148 2.07912 -2.5
    endloop
  endfacet
  facet normal 0 0 -1
    outer loop
      vertex -9.78148 2.07912 -2.5
      vertex -17 20 -2.5
      vertex -9.13545 4.06737 -2.5
    endloop
  endfacet
  facet normal 0 0 -1
    outer loop
      vertex -17 20 -2.5
      vertex -8.09017 5.87785 -2.5
      vertex -9.13545 4.06737 -2.5
    endloop
  endfacet
  facet normal 0 0 -1
    outer loop
      vertex -17 20 -2.5
      vertex -6.69131 7.43145 -2.5
      vertex -8.09017 5.87785 -2.5
    endloop
  endfacet
  facet normal 0 0 -1
    outer loop
      vertex -17 20 -2.5
      vertex -5 8.66025 -2.5
      vertex -6.69131 7.43145 -2.5
    endloop
  endfacet
  facet normal 0 0 -1
    outer loop
      vertex -1.04528 9.94522 -2.5
      vertex -17 20 -2.5
      vertex -17.5729 21.7634 -2.5
    endloop
  endfacet
  facet normal 0 0 -1
    outer loop
      vertex 17.5729 21.7634 -2.5
      vertex -17.5729 21.7634 -2.5
      vertex 19.0729 22.8532 -2.5
    endloop
  endfacet
  facet normal 0 0 -1
    outer loop
      vertex -19.0729 22.8532 -2.5
      vertex 19.0729 22.8532 -2.5
      vertex -17.5729 21.7634 -2.5
    endloop
  endfacet
  facet normal 0 0 -1
    outer loop
      vertex 19.0729 22.8532 -2.5
      vertex -19.0729 22.8532 -2.5
      vertex 30 25 -2.5
    endloop
  endfacet
  facet normal 0 0 -1
    outer loop
      vertex -30 25 -2.5
      vertex -19.0729 22.8532 -2.5
      vertex -20.9271 22.8532 -2.5
    endloop
  endfacet
  facet normal 0 0 -1
    outer loop
      vertex -19.0729 22.8532 -2.5
      vertex -30 25 -2.5
      vertex 30 25 -2.5
    endloop
  endfacet
  facet normal 0 0 -1
    outer loop
      vertex -22.4271 21.7634 -2.5
      vertex -30 25 -2.5
      vertex -20.9271 22.8532 -2.5
    endloop
  endfacet
  facet normal 0 0 -1
    outer loop
      vertex -23 20 -2.5
      vertex -30 25 -2.5
      vertex -22.4271 21.7634 -2.5
    endloop
  endfacet
  facet normal 0 0 -1
    outer loop
      vertex -22.4271 18.2366 -2.5
      vertex -30 25 -2.5
      vertex -23 20 -2.5
    endloop
  endfacet
  facet normal -1 0 0
    outer loop
      vertex -30 -30 -2.5
      vertex -30 25 2.5
      vertex -30 25 -2.5
    endloop
  endfacet
  facet normal -1 -0 0
    outer loop
      vertex -30 25 2.5
      vertex -30 -30 -2.5
      vertex -30 -30 2.5
    endloop
  endfacet
  facet normal -1 0 0
    outer loop
      vertex -30 25 -2.5
      vertex -30 30 -15
      vertex -30 25 -15
    endloop
  endfacet
  facet normal -1 0 0
    outer loop
      vertex -30 25 2.5
      vertex -30 30 -15
      vertex -30 25 -2.5
    endloop
  endfacet
  facet normal -1 0 0
    outer loop
      vertex -30 30 -15
      vertex -30 25 2.5
      vertex -30 30 18.5
    endloop
  endfacet
  facet normal -1 -0 0
    outer loop
      vertex -30 30 18.5
      vertex -30 25 2.5
      vertex -30 25 18.5
    endloop
  endfacet
  facet normal -1 0 0
    outer loop
      vertex -30 25 21.5
      vertex -30 30 25
      vertex -30 30 21.5
    endloop
  endfacet
  facet normal -1 -0 0
    outer loop
      vertex -30 30 25
      vertex -30 25 21.5
      vertex -30 25 25
    endloop
  endfacet
  facet normal 0 1 -0
    outer loop
      vertex 30 30 -15
      vertex 5 30 18.5
      vertex 30 30 18.5
    endloop
  endfacet
  facet normal 0 1 0
    outer loop
      vertex 5 30 18.5
      vertex 30 30 -15
      vertex -5 30 18.5
    endloop
  endfacet
  facet normal 0 1 0
    outer loop
      vertex -30 30 -15
      vertex -5 30 18.5
      vertex 30 30 -15
    endloop
  endfacet
  facet normal 0 1 0
    outer loop
      vertex -5 30 18.5
      vertex -30 30 -15
      vertex -30 30 18.5
    endloop
  endfacet
  facet normal 0 1 -0
    outer loop
      vertex 5 30 18.5
      vertex -5 30 21.5
      vertex 5 30 21.5
    endloop
  endfacet
  facet normal 0 1 0
    outer loop
      vertex -5 30 21.5
      vertex 5 30 18.5
      vertex -5 30 18.5
    endloop
  endfacet
  facet normal 0 1 0
    outer loop
      vertex 5 30 21.5
      vertex 30 30 25
      vertex 30 30 21.5
    endloop
  endfacet
  facet normal 0 1 0
    outer loop
      vertex 30 30 25
      vertex 5 30 21.5
      vertex -30 30 25
    endloop
  endfacet
  facet normal 0 1 -0
    outer loop
      vertex -5 30 21.5
      vertex -30 30 25
      vertex 5 30 21.5
    endloop
  endfacet
  facet normal 0 1 0
    outer loop
      vertex -30 30 25
      vertex -5 30 21.5
      vertex -30 30 21.5
    endloop
  endfacet
  facet normal 0 -1 0
    outer loop
      vertex -30 -30 -2.5
      vertex 30 -30 2.5
      vertex -30 -30 2.5
    endloop
  endfacet
  facet normal 0 -1 -0
    outer loop
      vertex 30 -30 2.5
      vertex -30 -30 -2.5
      vertex 30 -30 -2.5
    endloop
  endfacet
  facet normal -0 0 1
    outer loop
      vertex -30 30 25
      vertex 30 25 25
      vertex 30 30 25
    endloop
  endfacet
  facet normal 0 0 1
    outer loop
      vertex 30 25 25
      vertex -30 30 25
      vertex -30 25 25
    endloop
  endfacet
  facet normal 0 0 -1
    outer loop
      vertex -30 25 -15
      vertex 30 30 -15
      vertex 30 25 -15
    endloop
  endfacet
  facet normal -0 0 -1
    outer loop
      vertex 30 30 -15
      vertex -30 25 -15
      vertex -30 30 -15
    endloop
  endfacet
  facet normal 0 -1 0
    outer loop
      vertex -30 25 2.5
      vertex -5 25 18.5
      vertex -30 25 18.5
    endloop
  endfacet
  facet normal 0 -1 -0
    outer loop
      vertex -5 25 18.5
      vertex -30 25 2.5
      vertex 5 25 18.5
    endloop
  endfacet
  facet normal 0 -1 0
    outer loop
      vertex 30 25 2.5
      vertex 5 25 18.5
      vertex -30 25 2.5
    endloop
  endfacet
  facet normal 0 -1 0
    outer loop
      vertex 5 25 18.5
      vertex 30 25 2.5
      vertex 30 25 18.5
    endloop
  endfacet
  facet normal 0 -1 0
    outer loop
      vertex -5 25 18.5
      vertex 5 25 21.5
      vertex -5 25 21.5
    endloop
  endfacet
  facet normal 0 -1 -0
    outer loop
      vertex 5 25 21.5
      vertex -5 25 18.5
      vertex 5 25 18.5
    endloop
  endfacet
  facet normal 0 -1 0
    outer loop
      vertex -5 25 21.5
      vertex -30 25 25
      vertex -30 25 21.5
    endloop
  endfacet
  facet normal 0 -1 0
    outer loop
      vertex -30 25 25
      vertex -5 25 21.5
      vertex 30 25 25
    endloop
  endfacet
  facet normal 0 -1 0
    outer loop
      vertex 5 25 21.5
      vertex 30 25 25
      vertex -5 25 21.5
    endloop
  endfacet
  facet normal 0 -1 -0
    outer loop
      vertex 30 25 25
      vertex 5 25 21.5
      vertex 30 25 21.5
    endloop
  endfacet
  facet normal 0 -1 0
    outer loop
      vertex -30 25 -15
      vertex 30 25 -2.5
      vertex -30 25 -2.5
    endloop
  endfacet
  facet normal 0 -1 -0
    outer loop
      vertex 30 25 -2.5
      vertex -30 25 -15
      vertex 30 25 -15
    endloop
  endfacet
  facet normal 0 1 -0
    outer loop
      vertex -19.0729 -22.8532 -2.5
      vertex -20.9271 -22.8532 2.5
      vertex -19.0729 -22.8532 2.5
    endloop
  endfacet
  facet normal 0 1 0
    outer loop
      vertex -20.9271 -22.8532 2.5
      vertex -19.0729 -22.8532 -2.5
      vertex -20.9271 -22.8532 -2.5
    endloop
  endfacet
  facet normal 0.951067 0.308986 0
    outer loop
      vertex -22.4271 -21.7634 2.5
      vertex -23 -20 -2.5
      vertex -23 -20 2.5
    endloop
  endfacet
  facet normal 0.951067 0.308986 0
    outer loop
      vertex -23 -20 -2.5
      vertex -22.4271 -21.7634 2.5
      vertex -22.4271 -21.7634 -2.5
    endloop
  endfacet
  facet normal -0.58778 -0.809021 0
    outer loop
      vertex -19.0729 -17.1468 -2.5
      vertex -17.5729 -18.2366 2.5
      vertex -19.0729 -17.1468 2.5
    endloop
  endfacet
  facet normal -0.58778 -0.809021 -0
    outer loop
      vertex -17.5729 -18.2366 2.5
      vertex -19.0729 -17.1468 -2.5
      vertex -17.5729 -18.2366 -2.5
    endloop
  endfacet
  facet normal -0.951067 -0.308986 0
    outer loop
      vertex -17 -20 -2.5
      vertex -17.5729 -18.2366 2.5
      vertex -17.5729 -18.2366 -2.5
    endloop
  endfacet
  facet normal -0.951067 -0.308986 0
    outer loop
      vertex -17.5729 -18.2366 2.5
      vertex -17 -20 -2.5
      vertex -17 -20 2.5
    endloop
  endfacet
  facet normal 0 -1 0
    outer loop
      vertex -20.9271 -17.1468 -2.5
      vertex -19.0729 -17.1468 2.5
      vertex -20.9271 -17.1468 2.5
    endloop
  endfacet
  facet normal 0 -1 -0
    outer loop
      vertex -19.0729 -17.1468 2.5
      vertex -20.9271 -17.1468 -2.5
      vertex -19.0729 -17.1468 -2.5
    endloop
  endfacet
  facet normal 0.58778 -0.809021 0
    outer loop
      vertex -22.4271 -18.2366 -2.5
      vertex -20.9271 -17.1468 2.5
      vertex -22.4271 -18.2366 2.5
    endloop
  endfacet
  facet normal 0.58778 -0.809021 0
    outer loop
      vertex -20.9271 -17.1468 2.5
      vertex -22.4271 -18.2366 -2.5
      vertex -20.9271 -17.1468 -2.5
    endloop
  endfacet
  facet normal -0.951067 0.308986 0
    outer loop
      vertex -17.5729 -21.7634 -2.5
      vertex -17 -20 2.5
      vertex -17 -20 -2.5
    endloop
  endfacet
  facet normal -0.951067 0.308986 0
    outer loop
      vertex -17 -20 2.5
      vertex -17.5729 -21.7634 -2.5
      vertex -17.5729 -21.7634 2.5
    endloop
  endfacet
  facet normal 0.951067 -0.308986 0
    outer loop
      vertex -23 -20 2.5
      vertex -22.4271 -18.2366 -2.5
      vertex -22.4271 -18.2366 2.5
    endloop
  endfacet
  facet normal 0.951067 -0.308986 0
    outer loop
      vertex -22.4271 -18.2366 -2.5
      vertex -23 -20 2.5
      vertex -23 -20 -2.5
    endloop
  endfacet
  facet normal -0.58778 0.809021 0
    outer loop
      vertex -17.5729 -21.7634 -2.5
      vertex -19.0729 -22.8532 2.5
      vertex -17.5729 -21.7634 2.5
    endloop
  endfacet
  facet normal -0.58778 0.809021 0
    outer loop
      vertex -19.0729 -22.8532 2.5
      vertex -17.5729 -21.7634 -2.5
      vertex -19.0729 -22.8532 -2.5
    endloop
  endfacet
  facet normal 0.58778 0.809021 -0
    outer loop
      vertex -20.9271 -22.8532 -2.5
      vertex -22.4271 -21.7634 2.5
      vertex -20.9271 -22.8532 2.5
    endloop
  endfacet
  facet normal 0.58778 0.809021 0
    outer loop
      vertex -22.4271 -21.7634 2.5
      vertex -20.9271 -22.8532 -2.5
      vertex -22.4271 -21.7634 -2.5
    endloop
  endfacet
  facet normal 0.951067 0.308986 0
    outer loop
      vertex -22.4271 18.2366 2.5
      vertex -23 20 -2.5
      vertex -23 20 2.5
    endloop
  endfacet
  facet normal 0.951067 0.308986 0
    outer loop
      vertex -23 20 -2.5
      vertex -22.4271 18.2366 2.5
      vertex -22.4271 18.2366 -2.5
    endloop
  endfacet
  facet normal -0.58778 -0.809021 0
    outer loop
      vertex -19.0729 22.8532 -2.5
      vertex -17.5729 21.7634 2.5
      vertex -19.0729 22.8532 2.5
    endloop
  endfacet
  facet normal -0.58778 -0.809021 -0
    outer loop
      vertex -17.5729 21.7634 2.5
      vertex -19.0729 22.8532 -2.5
      vertex -17.5729 21.7634 -2.5
    endloop
  endfacet
  facet normal -0.951067 -0.308986 0
    outer loop
      vertex -17 20 -2.5
      vertex -17.5729 21.7634 2.5
      vertex -17.5729 21.7634 -2.5
    endloop
  endfacet
  facet normal -0.951067 -0.308986 0
    outer loop
      vertex -17.5729 21.7634 2.5
      vertex -17 20 -2.5
      vertex -17 20 2.5
    endloop
  endfacet
  facet normal 0 -1 0
    outer loop
      vertex -20.9271 22.8532 -2.5
      vertex -19.0729 22.8532 2.5
      vertex -20.9271 22.8532 2.5
    endloop
  endfacet
  facet normal 0 -1 -0
    outer loop
      vertex -19.0729 22.8532 2.5
      vertex -20.9271 22.8532 -2.5
      vertex -19.0729 22.8532 -2.5
    endloop
  endfacet
  facet normal -0.951067 0.308986 0
    outer loop
      vertex -17.5729 18.2366 -2.5
      vertex -17 20 2.5
      vertex -17 20 -2.5
    endloop
  endfacet
  facet normal -0.951067 0.308986 0
    outer loop
      vertex -17 20 2.5
      vertex -17.5729 18.2366 -2.5
      vertex -17.5729 18.2366 2.5
    endloop
  endfacet
  facet normal 0.58778 -0.809021 0
    outer loop
      vertex -22.4271 21.7634 -2.5
      vertex -20.9271 22.8532 2.5
      vertex -22.4271 21.7634 2.5
    endloop
  endfacet
  facet normal 0.58778 -0.809021 0
    outer loop
      vertex -20.9271 22.8532 2.5
      vertex -22.4271 21.7634 -2.5
      vertex -20.9271 22.8532 -2.5
    endloop
  endfacet
  facet normal 0.58778 0.809021 -0
    outer loop
      vertex -20.9271 17.1468 -2.5
      vertex -22.4271 18.2366 2.5
      vertex -20.9271 17.1468 2.5
    endloop
  endfacet
  facet normal 0.58778 0.809021 0
    outer loop
      vertex -22.4271 18.2366 2.5
      vertex -20.9271 17.1468 -2.5
      vertex -22.4271 18.2366 -2.5
    endloop
  endfacet
  facet normal 0 1 -0
    outer loop
      vertex -19.0729 17.1468 -2.5
      vertex -20.9271 17.1468 2.5
      vertex -19.0729 17.1468 2.5
    endloop
  endfacet
  facet normal 0 1 0
    outer loop
      vertex -20.9271 17.1468 2.5
      vertex -19.0729 17.1468 -2.5
      vertex -20.9271 17.1468 -2.5
    endloop
  endfacet
  facet normal -0.58778 0.809021 0
    outer loop
      vertex -17.5729 18.2366 -2.5
      vertex -19.0729 17.1468 2.5
      vertex -17.5729 18.2366 2.5
    endloop
  endfacet
  facet normal -0.58778 0.809021 0
    outer loop
      vertex -19.0729 17.1468 2.5
      vertex -17.5729 18.2366 -2.5
      vertex -19.0729 17.1468 -2.5
    endloop
  endfacet
  facet normal 0.951067 -0.308986 0
    outer loop
      vertex -23 20 2.5
      vertex -22.4271 21.7634 -2.5
      vertex -22.4271 21.7634 2.5
    endloop
  endfacet
  facet normal 0.951067 -0.308986 0
    outer loop
      vertex -22.4271 21.7634 -2.5
      vertex -23 20 2.5
      vertex -23 20 -2.5
    endloop
  endfacet
  facet normal 0.951067 -0.308986 0
    outer loop
      vertex 17 -20 2.5
      vertex 17.5729 -18.2366 -2.5
      vertex 17.5729 -18.2366 2.5
    endloop
  endfacet
  facet normal 0.951067 -0.308986 0
    outer loop
      vertex 17.5729 -18.2366 -2.5
      vertex 17 -20 2.5
      vertex 17 -20 -2.5
    endloop
  endfacet
  facet normal 0.58778 0.809021 -0
    outer loop
      vertex 19.0729 -22.8532 -2.5
      vertex 17.5729 -21.7634 2.5
      vertex 19.0729 -22.8532 2.5
    endloop
  endfacet
  facet normal 0.58778 0.809021 0
    outer loop
      vertex 17.5729 -21.7634 2.5
      vertex 19.0729 -22.8532 -2.5
      vertex 17.5729 -21.7634 -2.5
    endloop
  endfacet
  facet normal -0.58778 -0.809021 0
    outer loop
      vertex 20.9271 -17.1468 -2.5
      vertex 22.4271 -18.2366 2.5
      vertex 20.9271 -17.1468 2.5
    endloop
  endfacet
  facet normal -0.58778 -0.809021 -0
    outer loop
      vertex 22.4271 -18.2366 2.5
      vertex 20.9271 -17.1468 -2.5
      vertex 22.4271 -18.2366 -2.5
    endloop
  endfacet
  facet normal -0.951067 -0.308986 0
    outer loop
      vertex 23 -20 -2.5
      vertex 22.4271 -18.2366 2.5
      vertex 22.4271 -18.2366 -2.5
    endloop
  endfacet
  facet normal -0.951067 -0.308986 0
    outer loop
      vertex 22.4271 -18.2366 2.5
      vertex 23 -20 -2.5
      vertex 23 -20 2.5
    endloop
  endfacet
  facet normal 0 -1 0
    outer loop
      vertex 19.0729 -17.1468 -2.5
      vertex 20.9271 -17.1468 2.5
      vertex 19.0729 -17.1468 2.5
    endloop
  endfacet
  facet normal 0 -1 -0
    outer loop
      vertex 20.9271 -17.1468 2.5
      vertex 19.0729 -17.1468 -2.5
      vertex 20.9271 -17.1468 -2.5
    endloop
  endfacet
  facet normal -0.58778 0.809021 0
    outer loop
      vertex 22.4271 -21.7634 -2.5
      vertex 20.9271 -22.8532 2.5
      vertex 22.4271 -21.7634 2.5
    endloop
  endfacet
  facet normal -0.58778 0.809021 0
    outer loop
      vertex 20.9271 -22.8532 2.5
      vertex 22.4271 -21.7634 -2.5
      vertex 20.9271 -22.8532 -2.5
    endloop
  endfacet
  facet normal 0 1 -0
    outer loop
      vertex 20.9271 -22.8532 -2.5
      vertex 19.0729 -22.8532 2.5
      vertex 20.9271 -22.8532 2.5
    endloop
  endfacet
  facet normal 0 1 0
    outer loop
      vertex 19.0729 -22.8532 2.5
      vertex 20.9271 -22.8532 -2.5
      vertex 19.0729 -22.8532 -2.5
    endloop
  endfacet
  facet normal 0.58778 -0.809021 0
    outer loop
      vertex 17.5729 -18.2366 -2.5
      vertex 19.0729 -17.1468 2.5
      vertex 17.5729 -18.2366 2.5
    endloop
  endfacet
  facet normal 0.58778 -0.809021 0
    outer loop
      vertex 19.0729 -17.1468 2.5
      vertex 17.5729 -18.2366 -2.5
      vertex 19.0729 -17.1468 -2.5
    endloop
  endfacet
  facet normal -0.951067 0.308986 0
    outer loop
      vertex 22.4271 -21.7634 -2.5
      vertex 23 -20 2.5
      vertex 23 -20 -2.5
    endloop
  endfacet
  facet normal -0.951067 0.308986 0
    outer loop
      vertex 23 -20 2.5
      vertex 22.4271 -21.7634 -2.5
      vertex 22.4271 -21.7634 2.5
    endloop
  endfacet
  facet normal 0.951067 0.308986 0
    outer loop
      vertex 17.5729 -21.7634 2.5
      vertex 17 -20 -2.5
      vertex 17 -20 2.5
    endloop
  endfacet
  facet normal 0.951067 0.308986 0
    outer loop
      vertex 17 -20 -2.5
      vertex 17.5729 -21.7634 2.5
      vertex 17.5729 -21.7634 -2.5
    endloop
  endfacet
  facet normal 0.951067 -0.308986 0
    outer loop
      vertex 17 20 2.5
      vertex 17.5729 21.7634 -2.5
      vertex 17.5729 21.7634 2.5
    endloop
  endfacet
  facet normal 0.951067 -0.308986 0
    outer loop
      vertex 17.5729 21.7634 -2.5
      vertex 17 20 2.5
      vertex 17 20 -2.5
    endloop
  endfacet
  facet normal 0.58778 0.809021 -0
    outer loop
      vertex 19.0729 17.1468 -2.5
      vertex 17.5729 18.2366 2.5
      vertex 19.0729 17.1468 2.5
    endloop
  endfacet
  facet normal 0.58778 0.809021 0
    outer loop
      vertex 17.5729 18.2366 2.5
      vertex 19.0729 17.1468 -2.5
      vertex 17.5729 18.2366 -2.5
    endloop
  endfacet
  facet normal -0.58778 -0.809021 0
    outer loop
      vertex 20.9271 22.8532 -2.5
      vertex 22.4271 21.7634 2.5
      vertex 20.9271 22.8532 2.5
    endloop
  endfacet
  facet normal -0.58778 -0.809021 -0
    outer loop
      vertex 22.4271 21.7634 2.5
      vertex 20.9271 22.8532 -2.5
      vertex 22.4271 21.7634 -2.5
    endloop
  endfacet
  facet normal -0.951067 -0.308986 0
    outer loop
      vertex 23 20 -2.5
      vertex 22.4271 21.7634 2.5
      vertex 22.4271 21.7634 -2.5
    endloop
  endfacet
  facet normal -0.951067 -0.308986 0
    outer loop
      vertex 22.4271 21.7634 2.5
      vertex 23 20 -2.5
      vertex 23 20 2.5
    endloop
  endfacet
  facet normal 0 -1 0
    outer loop
      vertex 19.0729 22.8532 -2.5
      vertex 20.9271 22.8532 2.5
      vertex 19.0729 22.8532 2.5
    endloop
  endfacet
  facet normal 0 -1 -0
    outer loop
      vertex 20.9271 22.8532 2.5
      vertex 19.0729 22.8532 -2.5
      vertex 20.9271 22.8532 -2.5
    endloop
  endfacet
  facet normal -0.58778 0.809021 0
    outer loop
      vertex 22.4271 18.2366 -2.5
      vertex 20.9271 17.1468 2.5
      vertex 22.4271 18.2366 2.5
    endloop
  endfacet
  facet normal -0.58778 0.809021 0
    outer loop
      vertex 20.9271 17.1468 2.5
      vertex 22.4271 18.2366 -2.5
      vertex 20.9271 17.1468 -2.5
    endloop
  endfacet
  facet normal 0 1 -0
    outer loop
      vertex 20.9271 17.1468 -2.5
      vertex 19.0729 17.1468 2.5
      vertex 20.9271 17.1468 2.5
    endloop
  endfacet
  facet normal 0 1 0
    outer loop
      vertex 19.0729 17.1468 2.5
      vertex 20.9271 17.1468 -2.5
      vertex 19.0729 17.1468 -2.5
    endloop
  endfacet
  facet normal 0.58778 -0.809021 0
    outer loop
      vertex 17.5729 21.7634 -2.5
      vertex 19.0729 22.8532 2.5
      vertex 17.5729 21.7634 2.5
    endloop
  endfacet
  facet normal 0.58778 -0.809021 0
    outer loop
      vertex 19.0729 22.8532 2.5
      vertex 17.5729 21.7634 -2.5
      vertex 19.0729 22.8532 -2.5
    endloop
  endfacet
  facet normal -0.951067 0.308986 0
    outer loop
      vertex 22.4271 18.2366 -2.5
      vertex 23 20 2.5
      vertex 23 20 -2.5
    endloop
  endfacet
  facet normal -0.951067 0.308986 0
    outer loop
      vertex 23 20 2.5
      vertex 22.4271 18.2366 -2.5
      vertex 22.4271 18.2366 2.5
    endloop
  endfacet
  facet normal 0.951067 0.308986 0
    outer loop
      vertex 17.5729 18.2366 2.5
      vertex 17 20 -2.5
      vertex 17 20 2.5
    endloop
  endfacet
  facet normal 0.951067 0.308986 0
    outer loop
      vertex 17 20 -2.5
      vertex 17.5729 18.2366 2.5
      vertex 17.5729 18.2366 -2.5
    endloop
  endfacet
  facet normal -1 0 0
    outer loop
      vertex -5 25 18.5
      vertex -5 30 21.5
      vertex -5 30 18.5
    endloop
  endfacet
  facet normal -1 -0 0
    outer loop
      vertex -5 30 21.5
      vertex -5 25 18.5
      vertex -5 25 21.5
    endloop
  endfacet
  facet normal -0 0 1
    outer loop
      vertex -30 30 18.5
      vertex -5 25 18.5
      vertex -5 30 18.5
    endloop
  endfacet
  facet normal 0 0 1
    outer loop
      vertex -5 25 18.5
      vertex -30 30 18.5
      vertex -30 25 18.5
    endloop
  endfacet
  facet normal 0 0 -1
    outer loop
      vertex -30 25 21.5
      vertex -5 30 21.5
      vertex -5 25 21.5
    endloop
  endfacet
  facet normal -0 0 -1
    outer loop
      vertex -5 30 21.5
      vertex -30 25 21.5
      vertex -30 30 21.5
    endloop
  endfacet
  facet normal 1 -0 0
    outer loop
      vertex 5 25 21.5
      vertex 5 30 18.5
      vertex 5 30 21.5
    endloop
  endfacet
  facet normal 1 0 0
    outer loop
      vertex 5 30 18.5
      vertex 5 25 21.5
      vertex 5 25 18.5
    endloop
  endfacet
  facet normal -0 0 1
    outer loop
      vertex 5 30 18.5
      vertex 30 25 18.5
      vertex 30 30 18.5
    endloop
  endfacet
  facet normal 0 0 1
    outer loop
      vertex 30 25 18.5
      vertex 5 30 18.5
      vertex 5 25 18.5
    endloop
  endfacet
  facet normal 0 0 -1
    outer loop
      vertex 5 25 21.5
      vertex 30 30 21.5
      vertex 30 25 21.5
    endloop
  endfacet
  facet normal -0 0 -1
    outer loop
      vertex 30 30 21.5
      vertex 5 25 21.5
      vertex 5 30 21.5
    endloop
  endfacet
  facet normal 0.743147 0.669129 0
    outer loop
      vertex -6.69131 -7.43145 2.5
      vertex -8.09017 -5.87785 -2.5
      vertex -8.09017 -5.87785 2.5
    endloop
  endfacet
  facet normal 0.743147 0.669129 0
    outer loop
      vertex -8.09017 -5.87785 -2.5
      vertex -6.69131 -7.43145 2.5
      vertex -6.69131 -7.43145 -2.5
    endloop
  endfacet
  facet normal -0.951055 -0.309021 0
    outer loop
      vertex 9.78148 2.07912 -2.5
      vertex 9.13545 4.06737 2.5
      vertex 9.13545 4.06737 -2.5
    endloop
  endfacet
  facet normal -0.951055 -0.309021 0
    outer loop
      vertex 9.13545 4.06737 2.5
      vertex 9.78148 2.07912 -2.5
      vertex 9.78148 2.07912 2.5
    endloop
  endfacet
  facet normal -0.994522 -0.104526 0
    outer loop
      vertex 10 0 -2.5
      vertex 9.78148 2.07912 2.5
      vertex 9.78148 2.07912 -2.5
    endloop
  endfacet
  facet normal -0.994522 -0.104526 0
    outer loop
      vertex 9.78148 2.07912 2.5
      vertex 10 0 -2.5
      vertex 10 0 2.5
    endloop
  endfacet
  facet normal -0.866026 -0.5 0
    outer loop
      vertex 9.13545 4.06737 -2.5
      vertex 8.09017 5.87785 2.5
      vertex 8.09017 5.87785 -2.5
    endloop
  endfacet
  facet normal -0.866026 -0.5 0
    outer loop
      vertex 8.09017 5.87785 2.5
      vertex 9.13545 4.06737 -2.5
      vertex 9.13545 4.06737 2.5
    endloop
  endfacet
  facet normal -0.951055 0.309021 0
    outer loop
      vertex 9.13545 -4.06737 -2.5
      vertex 9.78148 -2.07912 2.5
      vertex 9.78148 -2.07912 -2.5
    endloop
  endfacet
  facet normal -0.951055 0.309021 0
    outer loop
      vertex 9.78148 -2.07912 2.5
      vertex 9.13545 -4.06737 -2.5
      vertex 9.13545 -4.06737 2.5
    endloop
  endfacet
  facet normal -0.587783 0.809019 0
    outer loop
      vertex 6.69131 -7.43145 -2.5
      vertex 5 -8.66025 2.5
      vertex 6.69131 -7.43145 2.5
    endloop
  endfacet
  facet normal -0.587783 0.809019 0
    outer loop
      vertex 5 -8.66025 2.5
      vertex 6.69131 -7.43145 -2.5
      vertex 5 -8.66025 -2.5
    endloop
  endfacet
  facet normal -0.743147 0.669129 0
    outer loop
      vertex 6.69131 -7.43145 -2.5
      vertex 8.09017 -5.87785 2.5
      vertex 8.09017 -5.87785 -2.5
    endloop
  endfacet
  facet normal -0.743147 0.669129 0
    outer loop
      vertex 8.09017 -5.87785 2.5
      vertex 6.69131 -7.43145 -2.5
      vertex 6.69131 -7.43145 2.5
    endloop
  endfacet
  facet normal -0.994522 0.104526 0
    outer loop
      vertex 9.78148 -2.07912 -2.5
      vertex 10 0 2.5
      vertex 10 0 -2.5
    endloop
  endfacet
  facet normal -0.994522 0.104526 0
    outer loop
      vertex 10 0 2.5
      vertex 9.78148 -2.07912 -2.5
      vertex 9.78148 -2.07912 2.5
    endloop
  endfacet
  facet normal 0.406736 0.913546 -0
    outer loop
      vertex -3.09017 -9.51056 -2.5
      vertex -5 -8.66025 2.5
      vertex -3.09017 -9.51056 2.5
    endloop
  endfacet
  facet normal 0.406736 0.913546 0
    outer loop
      vertex -5 -8.66025 2.5
      vertex -3.09017 -9.51056 -2.5
      vertex -5 -8.66025 -2.5
    endloop
  endfacet
  facet normal -0.406736 -0.913546 0
    outer loop
      vertex 3.09017 9.51056 -2.5
      vertex 5 8.66025 2.5
      vertex 3.09017 9.51056 2.5
    endloop
  endfacet
  facet normal -0.406736 -0.913546 -0
    outer loop
      vertex 5 8.66025 2.5
      vertex 3.09017 9.51056 -2.5
      vertex 5 8.66025 -2.5
    endloop
  endfacet
  facet normal -0.743147 -0.669129 0
    outer loop
      vertex 8.09017 5.87785 -2.5
      vertex 6.69131 7.43145 2.5
      vertex 6.69131 7.43145 -2.5
    endloop
  endfacet
  facet normal -0.743147 -0.669129 0
    outer loop
      vertex 6.69131 7.43145 2.5
      vertex 8.09017 5.87785 -2.5
      vertex 8.09017 5.87785 2.5
    endloop
  endfacet
  facet normal 0.587783 0.809019 -0
    outer loop
      vertex -5 -8.66025 -2.5
      vertex -6.69131 -7.43145 2.5
      vertex -5 -8.66025 2.5
    endloop
  endfacet
  facet normal 0.587783 0.809019 0
    outer loop
      vertex -6.69131 -7.43145 2.5
      vertex -5 -8.66025 -2.5
      vertex -6.69131 -7.43145 -2.5
    endloop
  endfacet
  facet normal 0.743147 -0.669129 0
    outer loop
      vertex -8.09017 5.87785 2.5
      vertex -6.69131 7.43145 -2.5
      vertex -6.69131 7.43145 2.5
    endloop
  endfacet
  facet normal 0.743147 -0.669129 0
    outer loop
      vertex -6.69131 7.43145 -2.5
      vertex -8.09017 5.87785 2.5
      vertex -8.09017 5.87785 -2.5
    endloop
  endfacet
  facet normal 0 -1 0
    outer loop
      vertex -1.04528 9.94522 -2.5
      vertex 1.04528 9.94522 2.5
      vertex -1.04528 9.94522 2.5
    endloop
  endfacet
  facet normal 0 -1 -0
    outer loop
      vertex 1.04528 9.94522 2.5
      vertex -1.04528 9.94522 -2.5
      vertex 1.04528 9.94522 -2.5
    endloop
  endfacet
  facet normal -0.406736 0.913546 0
    outer loop
      vertex 5 -8.66025 -2.5
      vertex 3.09017 -9.51056 2.5
      vertex 5 -8.66025 2.5
    endloop
  endfacet
  facet normal -0.406736 0.913546 0
    outer loop
      vertex 3.09017 -9.51056 2.5
      vertex 5 -8.66025 -2.5
      vertex 3.09017 -9.51056 -2.5
    endloop
  endfacet
  facet normal -0.207914 0.978147 0
    outer loop
      vertex 3.09017 -9.51056 -2.5
      vertex 1.04528 -9.94522 2.5
      vertex 3.09017 -9.51056 2.5
    endloop
  endfacet
  facet normal -0.207914 0.978147 0
    outer loop
      vertex 1.04528 -9.94522 2.5
      vertex 3.09017 -9.51056 -2.5
      vertex 1.04528 -9.94522 -2.5
    endloop
  endfacet
  facet normal 0.951055 -0.309021 0
    outer loop
      vertex -9.78148 2.07912 2.5
      vertex -9.13545 4.06737 -2.5
      vertex -9.13545 4.06737 2.5
    endloop
  endfacet
  facet normal 0.951055 -0.309021 0
    outer loop
      vertex -9.13545 4.06737 -2.5
      vertex -9.78148 2.07912 2.5
      vertex -9.78148 2.07912 -2.5
    endloop
  endfacet
  facet normal 0.951055 0.309021 0
    outer loop
      vertex -9.13545 -4.06737 2.5
      vertex -9.78148 -2.07912 -2.5
      vertex -9.78148 -2.07912 2.5
    endloop
  endfacet
  facet normal 0.951055 0.309021 0
    outer loop
      vertex -9.78148 -2.07912 -2.5
      vertex -9.13545 -4.06737 2.5
      vertex -9.13545 -4.06737 -2.5
    endloop
  endfacet
  facet normal 0.406736 -0.913546 0
    outer loop
      vertex -5 8.66025 -2.5
      vertex -3.09017 9.51056 2.5
      vertex -5 8.66025 2.5
    endloop
  endfacet
  facet normal 0.406736 -0.913546 0
    outer loop
      vertex -3.09017 9.51056 2.5
      vertex -5 8.66025 -2.5
      vertex -3.09017 9.51056 -2.5
    endloop
  endfacet
  facet normal 0.207914 0.978147 -0
    outer loop
      vertex -1.04528 -9.94522 -2.5
      vertex -3.09017 -9.51056 2.5
      vertex -1.04528 -9.94522 2.5
    endloop
  endfacet
  facet normal 0.207914 0.978147 0
    outer loop
      vertex -3.09017 -9.51056 2.5
      vertex -1.04528 -9.94522 -2.5
      vertex -3.09017 -9.51056 -2.5
    endloop
  endfacet
  facet normal -0.207914 -0.978147 0
    outer loop
      vertex 1.04528 9.94522 -2.5
      vertex 3.09017 9.51056 2.5
      vertex 1.04528 9.94522 2.5
    endloop
  endfacet
  facet normal -0.207914 -0.978147 -0
    outer loop
      vertex 3.09017 9.51056 2.5
      vertex 1.04528 9.94522 -2.5
      vertex 3.09017 9.51056 -2.5
    endloop
  endfacet
  facet normal 0.994522 0.104526 0
    outer loop
      vertex -9.78148 -2.07912 2.5
      vertex -10 0 -2.5
      vertex -10 0 2.5
    endloop
  endfacet
  facet normal 0.994522 0.104526 0
    outer loop
      vertex -10 0 -2.5
      vertex -9.78148 -2.07912 2.5
      vertex -9.78148 -2.07912 -2.5
    endloop
  endfacet
  facet normal 0.866026 0.5 0
    outer loop
      vertex -8.09017 -5.87785 2.5
      vertex -9.13545 -4.06737 -2.5
      vertex -9.13545 -4.06737 2.5
    endloop
  endfacet
  facet normal 0.866026 0.5 0
    outer loop
      vertex -9.13545 -4.06737 -2.5
      vertex -8.09017 -5.87785 2.5
      vertex -8.09017 -5.87785 -2.5
    endloop
  endfacet
  facet normal 0.866026 -0.5 0
    outer loop
      vertex -9.13545 4.06737 2.5
      vertex -8.09017 5.87785 -2.5
      vertex -8.09017 5.87785 2.5
    endloop
  endfacet
  facet normal 0.866026 -0.5 0
    outer loop
      vertex -8.09017 5.87785 -2.5
      vertex -9.13545 4.06737 2.5
      vertex -9.13545 4.06737 -2.5
    endloop
  endfacet
  facet normal -0.866026 0.5 0
    outer loop
      vertex 8.09017 -5.87785 -2.5
      vertex 9.13545 -4.06737 2.5
      vertex 9.13545 -4.06737 -2.5
    endloop
  endfacet
  facet normal -0.866026 0.5 0
    outer loop
      vertex 9.13545 -4.06737 2.5
      vertex 8.09017 -5.87785 -2.5
      vertex 8.09017 -5.87785 2.5
    endloop
  endfacet
  facet normal -0.587783 -0.809019 0
    outer loop
      vertex 5 8.66025 -2.5
      vertex 6.69131 7.43145 2.5
      vertex 5 8.66025 2.5
    endloop
  endfacet
  facet normal -0.587783 -0.809019 -0
    outer loop
      vertex 6.69131 7.43145 2.5
      vertex 5 8.66025 -2.5
      vertex 6.69131 7.43145 -2.5
    endloop
  endfacet
  facet normal 0.587783 -0.809019 0
    outer loop
      vertex -6.69131 7.43145 -2.5
      vertex -5 8.66025 2.5
      vertex -6.69131 7.43145 2.5
    endloop
  endfacet
  facet normal 0.587783 -0.809019 0
    outer loop
      vertex -5 8.66025 2.5
      vertex -6.69131 7.43145 -2.5
      vertex -5 8.66025 -2.5
    endloop
  endfacet
  facet normal 0.207914 -0.978147 0
    outer loop
      vertex -3.09017 9.51056 -2.5
      vertex -1.04528 9.94522 2.5
      vertex -3.09017 9.51056 2.5
    endloop
  endfacet
  facet normal 0.207914 -0.978147 0
    outer loop
      vertex -1.04528 9.94522 2.5
      vertex -3.09017 9.51056 -2.5
      vertex -1.04528 9.94522 -2.5
    endloop
  endfacet
  facet normal 0 1 -0
    outer loop
      vertex 1.04528 -9.94522 -2.5
      vertex -1.04528 -9.94522 2.5
      vertex 1.04528 -9.94522 2.5
    endloop
  endfacet
  facet normal 0 1 0
    outer loop
      vertex -1.04528 -9.94522 2.5
      vertex 1.04528 -9.94522 -2.5
      vertex -1.04528 -9.94522 -2.5
    endloop
  endfacet
  facet normal 0.994522 -0.104526 0
    outer loop
      vertex -10 0 2.5
      vertex -9.78148 2.07912 -2.5
      vertex -9.78148 2.07912 2.5
    endloop
  endfacet
  facet normal 0.994522 -0.104526 0
    outer loop
      vertex -9.78148 2.07912 -2.5
      vertex -10 0 2.5
      vertex -10 0 -2.5
    endloop
  endfacet
endsolid OpenSCAD_Model
