solid OpenSCAD_Model
  facet normal 0 1 -0
    outer loop
      vertex 0.935602 -4.40166 -10
      vertex -0.935602 -4.40166 3
      vertex 0.935602 -4.40166 3
    endloop
  endfacet
  facet normal 0 1 0
    outer loop
      vertex -0.935602 -4.40166 3
      vertex 0.935602 -4.40166 -10
      vertex -0.935602 -4.40166 -10
    endloop
  endfacet
  facet normal 0.587782 -0.809019 0
    outer loop
      vertex -3.34415 3.01109 -10
      vertex -1.83031 4.11095 3
      vertex -3.34415 3.01109 3
    endloop
  endfacet
  facet normal 0.587782 -0.809019 0
    outer loop
      vertex -1.83031 4.11095 3
      vertex -3.34415 3.01109 -10
      vertex -1.83031 4.11095 -10
    endloop
  endfacet
  facet normal 0.207915 -0.978147 0
    outer loop
      vertex -1.83031 4.11095 -10
      vertex 0 4.5 3
      vertex -1.83031 4.11095 3
    endloop
  endfacet
  facet normal 0.207915 -0.978147 0
    outer loop
      vertex 0 4.5 3
      vertex -1.83031 4.11095 -10
      vertex 0 4.5 -10
    endloop
  endfacet
  facet normal -0.866026 -0.499999 0
    outer loop
      vertex 4.27975 1.39058 -10
      vertex 3.34415 3.01109 3
      vertex 3.34415 3.01109 -10
    endloop
  endfacet
  facet normal -0.866026 -0.499999 0
    outer loop
      vertex 3.34415 3.01109 3
      vertex 4.27975 1.39058 -10
      vertex 4.27975 1.39058 3
    endloop
  endfacet
  facet normal 0.743146 0.669129 0
    outer loop
      vertex -2.64503 -3.64058 3
      vertex -3.89711 -2.25 -10
      vertex -3.89711 -2.25 3
    endloop
  endfacet
  facet normal 0.743146 0.669129 0
    outer loop
      vertex -3.89711 -2.25 -10
      vertex -2.64503 -3.64058 3
      vertex -2.64503 -3.64058 -10
    endloop
  endfacet
  facet normal -0.951056 0.30902 0
    outer loop
      vertex 3.89711 -2.25 -10
      vertex 4.47535 -0.470378 3
      vertex 4.47535 -0.470378 -10
    endloop
  endfacet
  facet normal -0.951056 0.30902 0
    outer loop
      vertex 4.47535 -0.470378 3
      vertex 3.89711 -2.25 -10
      vertex 3.89711 -2.25 3
    endloop
  endfacet
  facet normal -0.587782 -0.809019 0
    outer loop
      vertex 1.83031 4.11095 -10
      vertex 3.34415 3.01109 3
      vertex 1.83031 4.11095 3
    endloop
  endfacet
  facet normal -0.587782 -0.809019 -0
    outer loop
      vertex 3.34415 3.01109 3
      vertex 1.83031 4.11095 -10
      vertex 3.34415 3.01109 -10
    endloop
  endfacet
  facet normal 0.994522 -0.104531 0
    outer loop
      vertex -4.47535 -0.470378 3
      vertex -4.27975 1.39058 -10
      vertex -4.27975 1.39058 3
    endloop
  endfacet
  facet normal 0.994522 -0.104531 0
    outer loop
      vertex -4.27975 1.39058 -10
      vertex -4.47535 -0.470378 3
      vertex -4.47535 -0.470378 -10
    endloop
  endfacet
  facet normal 0.951056 0.30902 0
    outer loop
      vertex -3.89711 -2.25 3
      vertex -4.47535 -0.470378 -10
      vertex -4.47535 -0.470378 3
    endloop
  endfacet
  facet normal 0.951056 0.30902 0
    outer loop
      vertex -4.47535 -0.470378 -10
      vertex -3.89711 -2.25 3
      vertex -3.89711 -2.25 -10
    endloop
  endfacet
  facet normal 0.866026 -0.499999 0
    outer loop
      vertex -4.27975 1.39058 3
      vertex -3.34415 3.01109 -10
      vertex -3.34415 3.01109 3
    endloop
  endfacet
  facet normal 0.866026 -0.499999 0
    outer loop
      vertex -3.34415 3.01109 -10
      vertex -4.27975 1.39058 3
      vertex -4.27975 1.39058 -10
    endloop
  endfacet
  facet normal 0.406734 0.913547 -0
    outer loop
      vertex -0.935602 -4.40166 -10
      vertex -2.64503 -3.64058 3
      vertex -0.935602 -4.40166 3
    endloop
  endfacet
  facet normal 0.406734 0.913547 0
    outer loop
      vertex -2.64503 -3.64058 3
      vertex -0.935602 -4.40166 -10
      vertex -2.64503 -3.64058 -10
    endloop
  endfacet
  facet normal 0 0 -1
    outer loop
      vertex 4.47535 -0.470378 3
      vertex 3.97083 0.482146 3
      vertex 4.27975 1.39058 3
    endloop
  endfacet
  facet normal 0 0 -1
    outer loop
      vertex 3.74006 -1.41842 3
      vertex 4.47535 -0.470378 3
      vertex 3.89711 -2.25 3
    endloop
  endfacet
  facet normal -0 0 -1
    outer loop
      vertex 4.47535 -0.470378 3
      vertex 3.74006 -1.41842 3
      vertex 3.97083 0.482146 3
    endloop
  endfacet
  facet normal -0 0 -1
    outer loop
      vertex 3.89711 -2.25 3
      vertex 2.65249 -2.99404 3
      vertex 3.74006 -1.41842 3
    endloop
  endfacet
  facet normal 0 0 -1
    outer loop
      vertex 2.64503 -3.64058 3
      vertex 2.65249 -2.99404 3
      vertex 3.89711 -2.25 3
    endloop
  endfacet
  facet normal -0 0 -1
    outer loop
      vertex 2.64503 -3.64058 3
      vertex 0.957262 -3.88377 3
      vertex 2.65249 -2.99404 3
    endloop
  endfacet
  facet normal 0 0 -1
    outer loop
      vertex 0.935602 -4.40166 3
      vertex 0.957262 -3.88377 3
      vertex 2.64503 -3.64058 3
    endloop
  endfacet
  facet normal 0 0 -1
    outer loop
      vertex -0.935602 -4.40166 3
      vertex 0.957262 -3.88377 3
      vertex 0.935602 -4.40166 3
    endloop
  endfacet
  facet normal 0 0 -1
    outer loop
      vertex -0.935602 -4.40166 3
      vertex -0.957262 -3.88377 3
      vertex 0.957262 -3.88377 3
    endloop
  endfacet
  facet normal 0 0 -1
    outer loop
      vertex -2.64503 -3.64058 3
      vertex -0.957262 -3.88377 3
      vertex -0.935602 -4.40166 3
    endloop
  endfacet
  facet normal 0 0 -1
    outer loop
      vertex -2.64503 -3.64058 3
      vertex -2.65249 -2.99404 3
      vertex -0.957262 -3.88377 3
    endloop
  endfacet
  facet normal 0 0 -1
    outer loop
      vertex -3.89711 -2.25 3
      vertex -2.65249 -2.99404 3
      vertex -2.64503 -3.64058 3
    endloop
  endfacet
  facet normal 0 0 -1
    outer loop
      vertex -2.65249 -2.99404 3
      vertex -3.89711 -2.25 3
      vertex -3.74006 -1.41842 3
    endloop
  endfacet
  facet normal 0 0 -1
    outer loop
      vertex -4.47535 -0.470378 3
      vertex -3.74006 -1.41842 3
      vertex -3.89711 -2.25 3
    endloop
  endfacet
  facet normal 0 0 -1
    outer loop
      vertex -3.74006 -1.41842 3
      vertex -4.47535 -0.470378 3
      vertex -3.97083 0.482146 3
    endloop
  endfacet
  facet normal -0 0 -1
    outer loop
      vertex -3.97083 0.482146 3
      vertex -4.47535 -0.470378 3
      vertex -4.27975 1.39058 3
    endloop
  endfacet
  facet normal 0 0 -1
    outer loop
      vertex 3.29193 2.27226 3
      vertex 4.27975 1.39058 3
      vertex 3.97083 0.482146 3
    endloop
  endfacet
  facet normal 0 0 -1
    outer loop
      vertex 4.27975 1.39058 3
      vertex 3.29193 2.27226 3
      vertex 3.34415 3.01109 3
    endloop
  endfacet
  facet normal 0 0 -1
    outer loop
      vertex 1.85889 3.54182 3
      vertex 3.34415 3.01109 3
      vertex 3.29193 2.27226 3
    endloop
  endfacet
  facet normal 0 0 -1
    outer loop
      vertex 1.85889 3.54182 3
      vertex 1.83031 4.11095 3
      vertex 3.34415 3.01109 3
    endloop
  endfacet
  facet normal 0 0 -1
    outer loop
      vertex 0 4 3
      vertex 1.83031 4.11095 3
      vertex 1.85889 3.54182 3
    endloop
  endfacet
  facet normal 0 0 -1
    outer loop
      vertex 0 4 3
      vertex 0 4.5 3
      vertex 1.83031 4.11095 3
    endloop
  endfacet
  facet normal 0 0 -1
    outer loop
      vertex 0 4 3
      vertex -1.83031 4.11095 3
      vertex 0 4.5 3
    endloop
  endfacet
  facet normal 0 0 -1
    outer loop
      vertex -1.85889 3.54182 3
      vertex -1.83031 4.11095 3
      vertex 0 4 3
    endloop
  endfacet
  facet normal 0 0 -1
    outer loop
      vertex -3.34415 3.01109 3
      vertex -1.85889 3.54182 3
      vertex -3.29193 2.27226 3
    endloop
  endfacet
  facet normal -0 0 -1
    outer loop
      vertex -1.85889 3.54182 3
      vertex -3.34415 3.01109 3
      vertex -1.83031 4.11095 3
    endloop
  endfacet
  facet normal 0 0 -1
    outer loop
      vertex -4.27975 1.39058 3
      vertex -3.29193 2.27226 3
      vertex -3.97083 0.482146 3
    endloop
  endfacet
  facet normal -0 0 -1
    outer loop
      vertex -3.29193 2.27226 3
      vertex -4.27975 1.39058 3
      vertex -3.34415 3.01109 3
    endloop
  endfacet
  facet normal -0.207915 -0.978147 0
    outer loop
      vertex 0 4.5 -10
      vertex 1.83031 4.11095 3
      vertex 0 4.5 3
    endloop
  endfacet
  facet normal -0.207915 -0.978147 -0
    outer loop
      vertex 1.83031 4.11095 3
      vertex 0 4.5 -10
      vertex 1.83031 4.11095 -10
    endloop
  endfacet
  facet normal -0.994522 -0.104531 0
    outer loop
      vertex 4.47535 -0.470378 -10
      vertex 4.27975 1.39058 3
      vertex 4.27975 1.39058 -10
    endloop
  endfacet
  facet normal -0.994522 -0.104531 0
    outer loop
      vertex 4.27975 1.39058 3
      vertex 4.47535 -0.470378 -10
      vertex 4.47535 -0.470378 3
    endloop
  endfacet
  facet normal -0.743146 0.669129 0
    outer loop
      vertex 2.64503 -3.64058 -10
      vertex 3.89711 -2.25 3
      vertex 3.89711 -2.25 -10
    endloop
  endfacet
  facet normal -0.743146 0.669129 0
    outer loop
      vertex 3.89711 -2.25 3
      vertex 2.64503 -3.64058 -10
      vertex 2.64503 -3.64058 3
    endloop
  endfacet
  facet normal -0.406734 0.913547 0
    outer loop
      vertex 2.64503 -3.64058 -10
      vertex 0.935602 -4.40166 3
      vertex 2.64503 -3.64058 3
    endloop
  endfacet
  facet normal -0.406734 0.913547 0
    outer loop
      vertex 0.935602 -4.40166 3
      vertex 2.64503 -3.64058 -10
      vertex 0.935602 -4.40166 -10
    endloop
  endfacet
  facet normal 0.822984 0.568064 0
    outer loop
      vertex -2.65249 -2.99404 6
      vertex -3.74006 -1.41842 3
      vertex -3.74006 -1.41842 6
    endloop
  endfacet
  facet normal 0.822984 0.568064 0
    outer loop
      vertex -3.74006 -1.41842 3
      vertex -2.65249 -2.99404 6
      vertex -2.65249 -2.99404 3
    endloop
  endfacet
  facet normal 0.663122 -0.748511 0
    outer loop
      vertex -3.29193 2.27226 3
      vertex -1.85889 3.54182 6
      vertex -3.29193 2.27226 6
    endloop
  endfacet
  facet normal 0.663122 -0.748511 0
    outer loop
      vertex -1.85889 3.54182 6
      vertex -3.29193 2.27226 3
      vertex -1.85889 3.54182 3
    endloop
  endfacet
  facet normal 0.239318 -0.970941 0
    outer loop
      vertex -1.85889 3.54182 3
      vertex 0 4 6
      vertex -1.85889 3.54182 6
    endloop
  endfacet
  facet normal 0.239318 -0.970941 0
    outer loop
      vertex 0 4 6
      vertex -1.85889 3.54182 3
      vertex 0 4 3
    endloop
  endfacet
  facet normal 0 1 -0
    outer loop
      vertex 0.957262 -3.88377 3
      vertex -0.957262 -3.88377 6
      vertex 0.957262 -3.88377 6
    endloop
  endfacet
  facet normal 0 1 0
    outer loop
      vertex -0.957262 -3.88377 6
      vertex 0.957262 -3.88377 3
      vertex -0.957262 -3.88377 3
    endloop
  endfacet
  facet normal 0.992709 0.120536 0
    outer loop
      vertex -3.74006 -1.41842 6
      vertex -3.97083 0.482146 3
      vertex -3.97083 0.482146 6
    endloop
  endfacet
  facet normal 0.992709 0.120536 0
    outer loop
      vertex -3.97083 0.482146 3
      vertex -3.74006 -1.41842 6
      vertex -3.74006 -1.41842 3
    endloop
  endfacet
  facet normal -0.992709 0.120536 0
    outer loop
      vertex 3.74006 -1.41842 3
      vertex 3.97083 0.482146 6
      vertex 3.97083 0.482146 3
    endloop
  endfacet
  facet normal -0.992709 0.120536 0
    outer loop
      vertex 3.97083 0.482146 6
      vertex 3.74006 -1.41842 3
      vertex 3.74006 -1.41842 6
    endloop
  endfacet
  facet normal -0.663122 -0.748511 0
    outer loop
      vertex 1.85889 3.54182 3
      vertex 3.29193 2.27226 6
      vertex 1.85889 3.54182 6
    endloop
  endfacet
  facet normal -0.663122 -0.748511 -0
    outer loop
      vertex 3.29193 2.27226 6
      vertex 1.85889 3.54182 3
      vertex 3.29193 2.27226 3
    endloop
  endfacet
  facet normal 0.464726 0.885455 -0
    outer loop
      vertex -0.957262 -3.88377 3
      vertex -2.65249 -2.99404 6
      vertex -0.957262 -3.88377 6
    endloop
  endfacet
  facet normal 0.464726 0.885455 0
    outer loop
      vertex -2.65249 -2.99404 6
      vertex -0.957262 -3.88377 3
      vertex -2.65249 -2.99404 3
    endloop
  endfacet
  facet normal 0 0 -1
    outer loop
      vertex 2.64512 -2.29201 6
      vertex 3.74006 -1.41842 6
      vertex 2.65249 -2.99404 6
    endloop
  endfacet
  facet normal -0 0 -1
    outer loop
      vertex 3.74006 -1.41842 6
      vertex 2.64512 -2.29201 6
      vertex 3.46437 -0.498101 6
    endloop
  endfacet
  facet normal -0 0 -1
    outer loop
      vertex 2.65249 -2.99404 6
      vertex 0.986063 -3.35822 6
      vertex 2.64512 -2.29201 6
    endloop
  endfacet
  facet normal 0 0 -1
    outer loop
      vertex 0.957262 -3.88377 6
      vertex 0.986063 -3.35822 6
      vertex 2.65249 -2.99404 6
    endloop
  endfacet
  facet normal 0 0 -1
    outer loop
      vertex -0.957262 -3.88377 6
      vertex 0.986063 -3.35822 6
      vertex 0.957262 -3.88377 6
    endloop
  endfacet
  facet normal 0 0 -1
    outer loop
      vertex -0.957262 -3.88377 6
      vertex -0.986063 -3.35822 6
      vertex 0.986063 -3.35822 6
    endloop
  endfacet
  facet normal 0 0 -1
    outer loop
      vertex -2.65249 -2.99404 6
      vertex -0.986063 -3.35822 6
      vertex -0.957262 -3.88377 6
    endloop
  endfacet
  facet normal 0 0 -1
    outer loop
      vertex -0.986063 -3.35822 6
      vertex -2.65249 -2.99404 6
      vertex -2.64512 -2.29201 6
    endloop
  endfacet
  facet normal 0 0 -1
    outer loop
      vertex -3.74006 -1.41842 6
      vertex -2.64512 -2.29201 6
      vertex -2.65249 -2.99404 6
    endloop
  endfacet
  facet normal 0 0 -1
    outer loop
      vertex -2.64512 -2.29201 6
      vertex -3.74006 -1.41842 6
      vertex -3.46437 -0.498101 6
    endloop
  endfacet
  facet normal 0 0 -1
    outer loop
      vertex 3.46437 -0.498101 6
      vertex 3.97083 0.482146 6
      vertex 3.74006 -1.41842 6
    endloop
  endfacet
  facet normal 0 0 -1
    outer loop
      vertex 3.18371 1.45395 6
      vertex 3.97083 0.482146 6
      vertex 3.46437 -0.498101 6
    endloop
  endfacet
  facet normal 0 0 -1
    outer loop
      vertex 3.97083 0.482146 6
      vertex 3.18371 1.45395 6
      vertex 3.29193 2.27226 6
    endloop
  endfacet
  facet normal 0 0 -1
    outer loop
      vertex 1.89224 2.94439 6
      vertex 3.29193 2.27226 6
      vertex 3.18371 1.45395 6
    endloop
  endfacet
  facet normal 0 0 -1
    outer loop
      vertex 1.89224 2.94439 6
      vertex 1.85889 3.54182 6
      vertex 3.29193 2.27226 6
    endloop
  endfacet
  facet normal 0 0 -1
    outer loop
      vertex 0 3.5 6
      vertex 1.85889 3.54182 6
      vertex 1.89224 2.94439 6
    endloop
  endfacet
  facet normal 0 0 -1
    outer loop
      vertex 0 3.5 6
      vertex 0 4 6
      vertex 1.85889 3.54182 6
    endloop
  endfacet
  facet normal 0 0 -1
    outer loop
      vertex 0 3.5 6
      vertex -1.85889 3.54182 6
      vertex 0 4 6
    endloop
  endfacet
  facet normal 0 0 -1
    outer loop
      vertex -1.89224 2.94439 6
      vertex -1.85889 3.54182 6
      vertex 0 3.5 6
    endloop
  endfacet
  facet normal 0 0 -1
    outer loop
      vertex -3.29193 2.27226 6
      vertex -1.89224 2.94439 6
      vertex -3.18371 1.45395 6
    endloop
  endfacet
  facet normal -0 0 -1
    outer loop
      vertex -1.89224 2.94439 6
      vertex -3.29193 2.27226 6
      vertex -1.85889 3.54182 6
    endloop
  endfacet
  facet normal 0 0 -1
    outer loop
      vertex -3.97083 0.482146 6
      vertex -3.18371 1.45395 6
      vertex -3.46437 -0.498101 6
    endloop
  endfacet
  facet normal 0 0 -1
    outer loop
      vertex -3.97083 0.482146 6
      vertex -3.46437 -0.498101 6
      vertex -3.74006 -1.41842 6
    endloop
  endfacet
  facet normal -0 0 -1
    outer loop
      vertex -3.18371 1.45395 6
      vertex -3.97083 0.482146 6
      vertex -3.29193 2.27226 6
    endloop
  endfacet
  facet normal -0.935016 -0.354605 0
    outer loop
      vertex 3.97083 0.482146 3
      vertex 3.29193 2.27226 6
      vertex 3.29193 2.27226 3
    endloop
  endfacet
  facet normal -0.935016 -0.354605 0
    outer loop
      vertex 3.29193 2.27226 6
      vertex 3.97083 0.482146 3
      vertex 3.97083 0.482146 6
    endloop
  endfacet
  facet normal -0.239318 -0.970941 0
    outer loop
      vertex 0 4 3
      vertex 1.85889 3.54182 6
      vertex 0 4 6
    endloop
  endfacet
  facet normal -0.239318 -0.970941 -0
    outer loop
      vertex 1.85889 3.54182 6
      vertex 0 4 3
      vertex 1.85889 3.54182 3
    endloop
  endfacet
  facet normal 0.935016 -0.354605 0
    outer loop
      vertex -3.97083 0.482146 6
      vertex -3.29193 2.27226 3
      vertex -3.29193 2.27226 6
    endloop
  endfacet
  facet normal 0.935016 -0.354605 0
    outer loop
      vertex -3.29193 2.27226 3
      vertex -3.97083 0.482146 6
      vertex -3.97083 0.482146 3
    endloop
  endfacet
  facet normal -0.822984 0.568064 0
    outer loop
      vertex 2.65249 -2.99404 3
      vertex 3.74006 -1.41842 6
      vertex 3.74006 -1.41842 3
    endloop
  endfacet
  facet normal -0.822984 0.568064 0
    outer loop
      vertex 3.74006 -1.41842 6
      vertex 2.65249 -2.99404 3
      vertex 2.65249 -2.99404 6
    endloop
  endfacet
  facet normal -0.464726 0.885455 0
    outer loop
      vertex 2.65249 -2.99404 3
      vertex 0.957262 -3.88377 6
      vertex 2.65249 -2.99404 6
    endloop
  endfacet
  facet normal -0.464726 0.885455 0
    outer loop
      vertex 0.957262 -3.88377 6
      vertex 2.65249 -2.99404 3
      vertex 0.957262 -3.88377 3
    endloop
  endfacet
  facet normal 0.75575 -0.65486 0
    outer loop
      vertex -3.18371 1.45395 10
      vertex -1.89224 2.94439 6
      vertex -1.89224 2.94439 10
    endloop
  endfacet
  facet normal 0.75575 -0.65486 0
    outer loop
      vertex -1.89224 2.94439 6
      vertex -3.18371 1.45395 10
      vertex -3.18371 1.45395 6
    endloop
  endfacet
  facet normal 0.281732 -0.959493 0
    outer loop
      vertex -1.89224 2.94439 6
      vertex 0 3.5 10
      vertex -1.89224 2.94439 10
    endloop
  endfacet
  facet normal 0.281732 -0.959493 0
    outer loop
      vertex 0 3.5 10
      vertex -1.89224 2.94439 6
      vertex 0 3.5 6
    endloop
  endfacet
  facet normal 0.989821 -0.142317 0
    outer loop
      vertex -3.39276 0 8.1072
      vertex -3.18371 1.45395 10
      vertex -3.39276 0 10
    endloop
  endfacet
  facet normal 0.989821 -0.142317 0
    outer loop
      vertex -3.18371 1.45395 10
      vertex -3.39276 0 8.1072
      vertex -3.18371 1.45395 6
    endloop
  endfacet
  facet normal 0.989823 -0.142303 0
    outer loop
      vertex -3.46437 -0.498101 6
      vertex -3.39276 0 8.1072
      vertex -3.46437 -0.498101 8.24365
    endloop
  endfacet
  facet normal 0.989822 -0.142314 2.56386e-06
    outer loop
      vertex -3.39276 0 8.1072
      vertex -3.46437 -0.498101 6
      vertex -3.18371 1.45395 6
    endloop
  endfacet
  facet normal 0.909628 0.415424 0
    outer loop
      vertex -2.77848 -2 10
      vertex -2.64512 -2.29201 10
      vertex -2.77848 -2 7.19872
    endloop
  endfacet
  facet normal 0.909634 0.415412 0
    outer loop
      vertex -2.99404 -1.52799 7.34751
      vertex -3.46437 -0.498101 6
      vertex -3.46437 -0.498101 8.24365
    endloop
  endfacet
  facet normal 0.909632 0.415415 2.74791e-06
    outer loop
      vertex -2.64512 -2.29201 6
      vertex -2.99404 -1.52799 7.34751
      vertex -2.77848 -2 7.19872
    endloop
  endfacet
  facet normal 0.909632 0.415415 2.76327e-06
    outer loop
      vertex -2.99404 -1.52799 7.34751
      vertex -2.64512 -2.29201 6
      vertex -3.46437 -0.498101 6
    endloop
  endfacet
  facet normal 0.909628 0.415424 -0
    outer loop
      vertex -2.64512 -2.29201 6
      vertex -2.77848 -2 7.19872
      vertex -2.64512 -2.29201 10
    endloop
  endfacet
  facet normal 0 1 -0
    outer loop
      vertex 0.986063 -3.35822 6
      vertex -0.986063 -3.35822 10
      vertex 0.986063 -3.35822 10
    endloop
  endfacet
  facet normal 0 1 0
    outer loop
      vertex -0.986063 -3.35822 10
      vertex 0.986063 -3.35822 6
      vertex -0.986063 -3.35822 6
    endloop
  endfacet
  facet normal -0.989821 -0.142317 0
    outer loop
      vertex 3.18371 1.45395 6
      vertex 3.39276 0 7.97285
      vertex 3.18371 1.45395 10
    endloop
  endfacet
  facet normal -0.989822 -0.142314 2.73846e-06
    outer loop
      vertex 3.46437 -0.498101 6
      vertex 3.39276 0 7.97285
      vertex 3.18371 1.45395 6
    endloop
  endfacet
  facet normal -0.989823 -0.142303 0
    outer loop
      vertex 3.39276 0 7.97285
      vertex 3.46437 -0.498101 6
      vertex 3.46437 -0.498101 8.05369
    endloop
  endfacet
  facet normal -0.989821 -0.142317 0
    outer loop
      vertex 3.18371 1.45395 10
      vertex 3.39276 0 7.97285
      vertex 3.39276 0 10
    endloop
  endfacet
  facet normal -0.54064 0.841254 0
    outer loop
      vertex 2.64512 -2.29201 6
      vertex 0.986063 -3.35822 10
      vertex 2.64512 -2.29201 10
    endloop
  endfacet
  facet normal -0.54064 0.841254 0
    outer loop
      vertex 0.986063 -3.35822 10
      vertex 2.64512 -2.29201 6
      vertex 0.986063 -3.35822 6
    endloop
  endfacet
  facet normal 0.54064 0.841254 -0
    outer loop
      vertex -0.986063 -3.35822 6
      vertex -2.64512 -2.29201 10
      vertex -0.986063 -3.35822 10
    endloop
  endfacet
  facet normal 0.54064 0.841254 0
    outer loop
      vertex -2.64512 -2.29201 10
      vertex -0.986063 -3.35822 6
      vertex -2.64512 -2.29201 6
    endloop
  endfacet
  facet normal -0.281732 -0.959493 0
    outer loop
      vertex 0 3.5 6
      vertex 1.89224 2.94439 10
      vertex 0 3.5 10
    endloop
  endfacet
  facet normal -0.281732 -0.959493 -0
    outer loop
      vertex 1.89224 2.94439 10
      vertex 0 3.5 6
      vertex 1.89224 2.94439 6
    endloop
  endfacet
  facet normal -0.75575 -0.65486 0
    outer loop
      vertex 3.18371 1.45395 6
      vertex 1.89224 2.94439 10
      vertex 1.89224 2.94439 6
    endloop
  endfacet
  facet normal -0.75575 -0.65486 0
    outer loop
      vertex 1.89224 2.94439 10
      vertex 3.18371 1.45395 6
      vertex 3.18371 1.45395 10
    endloop
  endfacet
  facet normal -0.909633 0.415413 0
    outer loop
      vertex 3.46437 -0.498101 6
      vertex 2.77848 -2 7.27947
      vertex 3.46437 -0.498101 8.05369
    endloop
  endfacet
  facet normal -0.909632 0.415415 2.58067e-06
    outer loop
      vertex 2.64512 -2.29201 6
      vertex 2.77848 -2 7.27947
      vertex 3.46437 -0.498101 6
    endloop
  endfacet
  facet normal -0.909628 0.415424 0
    outer loop
      vertex 2.64512 -2.29201 10
      vertex 2.77848 -2 7.27947
      vertex 2.64512 -2.29201 6
    endloop
  endfacet
  facet normal -0.909628 0.415424 0
    outer loop
      vertex 2.77848 -2 7.27947
      vertex 2.64512 -2.29201 10
      vertex 2.77848 -2 10
    endloop
  endfacet
  facet normal -0.555574 0.831467 0
    outer loop
      vertex -1.91342 4.6194 -10
      vertex -3.53553 3.53553 10
      vertex -1.91342 4.6194 10
    endloop
  endfacet
  facet normal -0.555574 0.831467 0
    outer loop
      vertex -3.53553 3.53553 10
      vertex -1.91342 4.6194 -10
      vertex -3.53553 3.53553 -10
    endloop
  endfacet
  facet normal 0.831467 0.555574 0
    outer loop
      vertex 4.6194 1.91342 10
      vertex 3.53553 3.53553 -10
      vertex 3.53553 3.53553 10
    endloop
  endfacet
  facet normal 0.831467 0.555574 0
    outer loop
      vertex 3.53553 3.53553 -10
      vertex 4.6194 1.91342 10
      vertex 4.6194 1.91342 -10
    endloop
  endfacet
  facet normal 0.980786 0.195089 0
    outer loop
      vertex 5 0 10
      vertex 4.6194 1.91342 -10
      vertex 4.6194 1.91342 10
    endloop
  endfacet
  facet normal 0.980786 0.195089 0
    outer loop
      vertex 4.6194 1.91342 -10
      vertex 5 0 10
      vertex 5 0 -10
    endloop
  endfacet
  facet normal -0.831467 0.555574 0
    outer loop
      vertex -4.6194 1.91342 -10
      vertex -3.53553 3.53553 10
      vertex -3.53553 3.53553 -10
    endloop
  endfacet
  facet normal -0.831467 0.555574 0
    outer loop
      vertex -3.53553 3.53553 10
      vertex -4.6194 1.91342 -10
      vertex -4.6194 1.91342 10
    endloop
  endfacet
  facet normal -0.195089 -0.980786 0
    outer loop
      vertex -1.91342 -4.6194 -10
      vertex 0 -5 10
      vertex -1.91342 -4.6194 10
    endloop
  endfacet
  facet normal -0.195089 -0.980786 -0
    outer loop
      vertex 0 -5 10
      vertex -1.91342 -4.6194 -10
      vertex 0 -5 -10
    endloop
  endfacet
  facet normal 0.195089 -0.980786 0
    outer loop
      vertex 0 -5 -10
      vertex 1.91342 -4.6194 10
      vertex 0 -5 10
    endloop
  endfacet
  facet normal 0.195089 -0.980786 0
    outer loop
      vertex 1.91342 -4.6194 10
      vertex 0 -5 -10
      vertex 1.91342 -4.6194 -10
    endloop
  endfacet
  facet normal 0.555574 -0.831467 0
    outer loop
      vertex 1.91342 -4.6194 -10
      vertex 3.53553 -3.53553 10
      vertex 1.91342 -4.6194 10
    endloop
  endfacet
  facet normal 0.555574 -0.831467 0
    outer loop
      vertex 3.53553 -3.53553 10
      vertex 1.91342 -4.6194 -10
      vertex 3.53553 -3.53553 -10
    endloop
  endfacet
  facet normal 0.831467 -0.555574 0
    outer loop
      vertex 3.53553 -3.53553 10
      vertex 4.6194 -1.91342 -10
      vertex 4.6194 -1.91342 10
    endloop
  endfacet
  facet normal 0.831467 -0.555574 0
    outer loop
      vertex 4.6194 -1.91342 -10
      vertex 3.53553 -3.53553 10
      vertex 3.53553 -3.53553 -10
    endloop
  endfacet
  facet normal -0.980786 0.195089 0
    outer loop
      vertex -5 0 -10
      vertex -4.6194 1.91342 10
      vertex -4.6194 1.91342 -10
    endloop
  endfacet
  facet normal -0.980786 0.195089 0
    outer loop
      vertex -4.6194 1.91342 10
      vertex -5 0 -10
      vertex -5 0 10
    endloop
  endfacet
  facet normal 0.980786 -0.195089 0
    outer loop
      vertex 4.6194 -1.91342 10
      vertex 5 0 -10
      vertex 5 0 10
    endloop
  endfacet
  facet normal 0.980786 -0.195089 0
    outer loop
      vertex 5 0 -10
      vertex 4.6194 -1.91342 10
      vertex 4.6194 -1.91342 -10
    endloop
  endfacet
  facet normal 0 0 -1
    outer loop
      vertex 4.47535 -0.470378 -10
      vertex 5 0 -10
      vertex 4.6194 -1.91342 -10
    endloop
  endfacet
  facet normal 0 0 -1
    outer loop
      vertex 4.27975 1.39058 -10
      vertex 5 0 -10
      vertex 4.47535 -0.470378 -10
    endloop
  endfacet
  facet normal -0 0 -1
    outer loop
      vertex 4.6194 -1.91342 -10
      vertex 3.89711 -2.25 -10
      vertex 4.47535 -0.470378 -10
    endloop
  endfacet
  facet normal 0 0 -1
    outer loop
      vertex 3.53553 -3.53553 -10
      vertex 3.89711 -2.25 -10
      vertex 4.6194 -1.91342 -10
    endloop
  endfacet
  facet normal -0 0 -1
    outer loop
      vertex 3.53553 -3.53553 -10
      vertex 2.64503 -3.64058 -10
      vertex 3.89711 -2.25 -10
    endloop
  endfacet
  facet normal 0 0 -1
    outer loop
      vertex 1.91342 -4.6194 -10
      vertex 2.64503 -3.64058 -10
      vertex 3.53553 -3.53553 -10
    endloop
  endfacet
  facet normal 0 0 -1
    outer loop
      vertex 1.91342 -4.6194 -10
      vertex 0.935602 -4.40166 -10
      vertex 2.64503 -3.64058 -10
    endloop
  endfacet
  facet normal 0 0 -1
    outer loop
      vertex 0 -5 -10
      vertex 0.935602 -4.40166 -10
      vertex 1.91342 -4.6194 -10
    endloop
  endfacet
  facet normal 0 0 -1
    outer loop
      vertex 0 -5 -10
      vertex -0.935602 -4.40166 -10
      vertex 0.935602 -4.40166 -10
    endloop
  endfacet
  facet normal 0 0 -1
    outer loop
      vertex -1.91342 -4.6194 -10
      vertex -0.935602 -4.40166 -10
      vertex 0 -5 -10
    endloop
  endfacet
  facet normal 0 0 -1
    outer loop
      vertex -1.91342 -4.6194 -10
      vertex -2.64503 -3.64058 -10
      vertex -0.935602 -4.40166 -10
    endloop
  endfacet
  facet normal 0 0 -1
    outer loop
      vertex -3.53553 -3.53553 -10
      vertex -2.64503 -3.64058 -10
      vertex -1.91342 -4.6194 -10
    endloop
  endfacet
  facet normal 0 0 -1
    outer loop
      vertex -3.53553 -3.53553 -10
      vertex -3.89711 -2.25 -10
      vertex -2.64503 -3.64058 -10
    endloop
  endfacet
  facet normal 0 0 -1
    outer loop
      vertex -4.6194 -1.91342 -10
      vertex -3.89711 -2.25 -10
      vertex -3.53553 -3.53553 -10
    endloop
  endfacet
  facet normal 0 0 -1
    outer loop
      vertex -3.89711 -2.25 -10
      vertex -4.6194 -1.91342 -10
      vertex -4.47535 -0.470378 -10
    endloop
  endfacet
  facet normal 0 0 -1
    outer loop
      vertex 5 0 -10
      vertex 4.27975 1.39058 -10
      vertex 4.6194 1.91342 -10
    endloop
  endfacet
  facet normal 0 0 -1
    outer loop
      vertex 3.34415 3.01109 -10
      vertex 4.6194 1.91342 -10
      vertex 4.27975 1.39058 -10
    endloop
  endfacet
  facet normal 0 0 -1
    outer loop
      vertex 4.6194 1.91342 -10
      vertex 3.34415 3.01109 -10
      vertex 3.53553 3.53553 -10
    endloop
  endfacet
  facet normal 0 0 -1
    outer loop
      vertex 1.83031 4.11095 -10
      vertex 3.53553 3.53553 -10
      vertex 3.34415 3.01109 -10
    endloop
  endfacet
  facet normal 0 0 -1
    outer loop
      vertex 3.53553 3.53553 -10
      vertex 1.83031 4.11095 -10
      vertex 1.91342 4.6194 -10
    endloop
  endfacet
  facet normal 0 0 -1
    outer loop
      vertex 0 4.5 -10
      vertex 1.91342 4.6194 -10
      vertex 1.83031 4.11095 -10
    endloop
  endfacet
  facet normal 0 0 -1
    outer loop
      vertex 0 4.5 -10
      vertex 0 5 -10
      vertex 1.91342 4.6194 -10
    endloop
  endfacet
  facet normal 0 0 -1
    outer loop
      vertex -1.91342 4.6194 -10
      vertex 0 4.5 -10
      vertex -1.83031 4.11095 -10
    endloop
  endfacet
  facet normal 0 0 -1
    outer loop
      vertex 0 4.5 -10
      vertex -1.91342 4.6194 -10
      vertex 0 5 -10
    endloop
  endfacet
  facet normal 0 0 -1
    outer loop
      vertex -3.53553 3.53553 -10
      vertex -1.83031 4.11095 -10
      vertex -3.34415 3.01109 -10
    endloop
  endfacet
  facet normal -0 0 -1
    outer loop
      vertex -1.83031 4.11095 -10
      vertex -3.53553 3.53553 -10
      vertex -1.91342 4.6194 -10
    endloop
  endfacet
  facet normal 0 0 -1
    outer loop
      vertex -4.6194 1.91342 -10
      vertex -3.34415 3.01109 -10
      vertex -4.27975 1.39058 -10
    endloop
  endfacet
  facet normal -0 0 -1
    outer loop
      vertex -3.34415 3.01109 -10
      vertex -4.6194 1.91342 -10
      vertex -3.53553 3.53553 -10
    endloop
  endfacet
  facet normal 0 0 -1
    outer loop
      vertex -5 0 -10
      vertex -4.27975 1.39058 -10
      vertex -4.47535 -0.470378 -10
    endloop
  endfacet
  facet normal 0 0 -1
    outer loop
      vertex -5 0 -10
      vertex -4.47535 -0.470378 -10
      vertex -4.6194 -1.91342 -10
    endloop
  endfacet
  facet normal -0 0 -1
    outer loop
      vertex -4.27975 1.39058 -10
      vertex -5 0 -10
      vertex -4.6194 1.91342 -10
    endloop
  endfacet
  facet normal -0.195089 0.980786 0
    outer loop
      vertex 0 5 -10
      vertex -1.91342 4.6194 10
      vertex 0 5 10
    endloop
  endfacet
  facet normal -0.195089 0.980786 0
    outer loop
      vertex -1.91342 4.6194 10
      vertex 0 5 -10
      vertex -1.91342 4.6194 -10
    endloop
  endfacet
  facet normal 0.195089 0.980786 -0
    outer loop
      vertex 1.91342 4.6194 -10
      vertex 0 5 10
      vertex 1.91342 4.6194 10
    endloop
  endfacet
  facet normal 0.195089 0.980786 0
    outer loop
      vertex 0 5 10
      vertex 1.91342 4.6194 -10
      vertex 0 5 -10
    endloop
  endfacet
  facet normal 0.555574 0.831467 -0
    outer loop
      vertex 3.53553 3.53553 -10
      vertex 1.91342 4.6194 10
      vertex 3.53553 3.53553 10
    endloop
  endfacet
  facet normal 0.555574 0.831467 0
    outer loop
      vertex 1.91342 4.6194 10
      vertex 3.53553 3.53553 -10
      vertex 1.91342 4.6194 -10
    endloop
  endfacet
  facet normal -0.831467 -0.555574 0
    outer loop
      vertex -3.53553 -3.53553 -10
      vertex -4.6194 -1.91342 10
      vertex -4.6194 -1.91342 -10
    endloop
  endfacet
  facet normal -0.831467 -0.555574 0
    outer loop
      vertex -4.6194 -1.91342 10
      vertex -3.53553 -3.53553 -10
      vertex -3.53553 -3.53553 10
    endloop
  endfacet
  facet normal 0 0 1
    outer loop
      vertex 4 0 10
      vertex 5 0 10
      vertex 4.6194 1.91342 10
    endloop
  endfacet
  facet normal 0 0 1
    outer loop
      vertex 5 0 10
      vertex 4 0 10
      vertex 4.6194 -1.91342 10
    endloop
  endfacet
  facet normal 0 0 1
    outer loop
      vertex 3.18371 1.45395 10
      vertex 4.6194 1.91342 10
      vertex 3.53553 3.53553 10
    endloop
  endfacet
  facet normal 0 0 1
    outer loop
      vertex 4.6194 1.91342 10
      vertex 3.18371 1.45395 10
      vertex 4 0 10
    endloop
  endfacet
  facet normal 0 0 1
    outer loop
      vertex 4 0 10
      vertex 3.18371 1.45395 10
      vertex 3.39276 0 10
    endloop
  endfacet
  facet normal 0 0 1
    outer loop
      vertex 1.89224 2.94439 10
      vertex 3.53553 3.53553 10
      vertex 1.91342 4.6194 10
    endloop
  endfacet
  facet normal 0 0 1
    outer loop
      vertex 3.53553 3.53553 10
      vertex 1.89224 2.94439 10
      vertex 3.18371 1.45395 10
    endloop
  endfacet
  facet normal 0 0 1
    outer loop
      vertex 0 3.5 10
      vertex 1.91342 4.6194 10
      vertex 0 5 10
    endloop
  endfacet
  facet normal 0 0 1
    outer loop
      vertex 1.91342 4.6194 10
      vertex 0 3.5 10
      vertex 1.89224 2.94439 10
    endloop
  endfacet
  facet normal -0 0 1
    outer loop
      vertex -1.91342 4.6194 10
      vertex 0 3.5 10
      vertex 0 5 10
    endloop
  endfacet
  facet normal 0 0 1
    outer loop
      vertex 0 3.5 10
      vertex -1.91342 4.6194 10
      vertex -1.89224 2.94439 10
    endloop
  endfacet
  facet normal -0 0 1
    outer loop
      vertex -3.53553 3.53553 10
      vertex -1.89224 2.94439 10
      vertex -1.91342 4.6194 10
    endloop
  endfacet
  facet normal 0 0 1
    outer loop
      vertex -1.89224 2.94439 10
      vertex -3.53553 3.53553 10
      vertex -3.18371 1.45395 10
    endloop
  endfacet
  facet normal -0 0 1
    outer loop
      vertex -4.6194 1.91342 10
      vertex -3.18371 1.45395 10
      vertex -3.53553 3.53553 10
    endloop
  endfacet
  facet normal 0 -0 1
    outer loop
      vertex -3.88377 0 10
      vertex -3.18371 1.45395 10
      vertex -4.6194 1.91342 10
    endloop
  endfacet
  facet normal 0 0 1
    outer loop
      vertex -5 0 10
      vertex -3.88377 0 10
      vertex -4.6194 1.91342 10
    endloop
  endfacet
  facet normal 0 0 1
    outer loop
      vertex -3.18371 1.45395 10
      vertex -3.88377 0 10
      vertex -3.39276 0 10
    endloop
  endfacet
  facet normal 0 0 1
    outer loop
      vertex 4 -2 10
      vertex 4.6194 -1.91342 10
      vertex 4 0 10
    endloop
  endfacet
  facet normal -0 0 1
    outer loop
      vertex 4 -2 10
      vertex 3.53553 -3.53553 10
      vertex 4.6194 -1.91342 10
    endloop
  endfacet
  facet normal 0 0 1
    outer loop
      vertex 2.64512 -2.29201 10
      vertex 4 -2 10
      vertex 2.77848 -2 10
    endloop
  endfacet
  facet normal 0 0 1
    outer loop
      vertex 4 -2 10
      vertex 2.64512 -2.29201 10
      vertex 3.53553 -3.53553 10
    endloop
  endfacet
  facet normal 0 0 1
    outer loop
      vertex 2.64512 -2.29201 10
      vertex 1.91342 -4.6194 10
      vertex 3.53553 -3.53553 10
    endloop
  endfacet
  facet normal -0 0 1
    outer loop
      vertex 0.986063 -3.35822 10
      vertex 1.91342 -4.6194 10
      vertex 2.64512 -2.29201 10
    endloop
  endfacet
  facet normal 0 0 1
    outer loop
      vertex 0.986063 -3.35822 10
      vertex 0 -5 10
      vertex 1.91342 -4.6194 10
    endloop
  endfacet
  facet normal -0 0 1
    outer loop
      vertex -0.986063 -3.35822 10
      vertex 0 -5 10
      vertex 0.986063 -3.35822 10
    endloop
  endfacet
  facet normal 0 0 1
    outer loop
      vertex -0.986063 -3.35822 10
      vertex -1.91342 -4.6194 10
      vertex 0 -5 10
    endloop
  endfacet
  facet normal 0 0 1
    outer loop
      vertex -2.64512 -2.29201 10
      vertex -1.91342 -4.6194 10
      vertex -0.986063 -3.35822 10
    endloop
  endfacet
  facet normal -0 0 1
    outer loop
      vertex -3.88377 -2 10
      vertex -2.64512 -2.29201 10
      vertex -2.77848 -2 10
    endloop
  endfacet
  facet normal 0 0 1
    outer loop
      vertex -2.64512 -2.29201 10
      vertex -3.53553 -3.53553 10
      vertex -1.91342 -4.6194 10
    endloop
  endfacet
  facet normal 0 0 1
    outer loop
      vertex -2.64512 -2.29201 10
      vertex -3.88377 -2 10
      vertex -3.53553 -3.53553 10
    endloop
  endfacet
  facet normal 0 0 1
    outer loop
      vertex -3.88377 -2 10
      vertex -4.6194 -1.91342 10
      vertex -3.53553 -3.53553 10
    endloop
  endfacet
  facet normal 0 -0 1
    outer loop
      vertex -4.6194 -1.91342 10
      vertex -3.88377 0 10
      vertex -5 0 10
    endloop
  endfacet
  facet normal 0 0 1
    outer loop
      vertex -3.88377 0 10
      vertex -4.6194 -1.91342 10
      vertex -3.88377 -2 10
    endloop
  endfacet
  facet normal -0.980786 -0.195089 0
    outer loop
      vertex -4.6194 -1.91342 -10
      vertex -5 0 10
      vertex -5 0 -10
    endloop
  endfacet
  facet normal -0.980786 -0.195089 0
    outer loop
      vertex -5 0 10
      vertex -4.6194 -1.91342 -10
      vertex -4.6194 -1.91342 10
    endloop
  endfacet
  facet normal -0.555574 -0.831467 0
    outer loop
      vertex -3.53553 -3.53553 -10
      vertex -1.91342 -4.6194 10
      vertex -3.53553 -3.53553 10
    endloop
  endfacet
  facet normal -0.555574 -0.831467 -0
    outer loop
      vertex -1.91342 -4.6194 10
      vertex -3.53553 -3.53553 -10
      vertex -1.91342 -4.6194 -10
    endloop
  endfacet
  facet normal 1 -0 0
    outer loop
      vertex -3.88377 -2 10
      vertex -3.88377 0 9.04274
      vertex -3.88377 0 10
    endloop
  endfacet
  facet normal 1 0 0
    outer loop
      vertex -3.88377 0 9.04274
      vertex -3.88377 -2 10
      vertex -3.88377 -2 9.04274
    endloop
  endfacet
  facet normal 0 1 -0
    outer loop
      vertex 3.54182 -2 8.14111
      vertex 2.77848 -2 10
      vertex 4 -2 10
    endloop
  endfacet
  facet normal 0 1 0
    outer loop
      vertex 2.77848 -2 10
      vertex 3.54182 -2 8.14111
      vertex 2.77848 -2 7.27947
    endloop
  endfacet
  facet normal 0 1 0
    outer loop
      vertex -2.77848 -2 10
      vertex -3.88377 -2 9.04274
      vertex -3.88377 -2 10
    endloop
  endfacet
  facet normal 0 1 0
    outer loop
      vertex -2.77848 -2 10
      vertex -2.99404 -2 7.34751
      vertex -3.88377 -2 9.04274
    endloop
  endfacet
  facet normal -0 1 0
    outer loop
      vertex -2.99404 -2 7.34751
      vertex -2.77848 -2 10
      vertex -2.77848 -2 7.19872
    endloop
  endfacet
  facet normal 0.885456 8.16132e-06 0.464724
    outer loop
      vertex -3.88377 0 9.04274
      vertex -3.46437 -0.498101 8.24365
      vertex -3.39276 0 8.1072
    endloop
  endfacet
  facet normal 0.885454 -0 0.464728
    outer loop
      vertex -3.88377 -2 9.04274
      vertex -3.46437 -0.498101 8.24365
      vertex -3.88377 0 9.04274
    endloop
  endfacet
  facet normal 0.885455 -2.08875e-06 0.464725
    outer loop
      vertex -3.46437 -0.498101 8.24365
      vertex -3.88377 -2 9.04274
      vertex -2.99404 -1.52799 7.34751
    endloop
  endfacet
  facet normal 0.885455 0 0.464725
    outer loop
      vertex -2.99404 -1.52799 7.34751
      vertex -3.88377 -2 9.04274
      vertex -2.99404 -2 7.34751
    endloop
  endfacet
  facet normal -0.748523 8.14341e-06 0.663109
    outer loop
      vertex 3.46437 -0.498101 8.05369
      vertex 3.54182 0 8.14111
      vertex 3.39276 0 7.97285
    endloop
  endfacet
  facet normal -0.7485 0 0.663135
    outer loop
      vertex 3.46437 -0.498101 8.05369
      vertex 3.54182 -2 8.14111
      vertex 3.54182 0 8.14111
    endloop
  endfacet
  facet normal -0.748514 -1.6399e-06 0.66312
    outer loop
      vertex 3.54182 -2 8.14111
      vertex 3.46437 -0.498101 8.05369
      vertex 2.77848 -2 7.27947
    endloop
  endfacet
  facet normal -0.970941 0 0.239318
    outer loop
      vertex 3.54182 -2 8.14111
      vertex 4 0 10
      vertex 3.54182 0 8.14111
    endloop
  endfacet
  facet normal -0.970941 0 0.239318
    outer loop
      vertex 4 0 10
      vertex 3.54182 -2 8.14111
      vertex 4 -2 10
    endloop
  endfacet
  facet normal 0.568064 0 0.822984
    outer loop
      vertex -2.77848 -2 7.19872
      vertex -2.99404 -1.52799 7.34751
      vertex -2.99404 -2 7.34751
    endloop
  endfacet
  facet normal 0 -1 0
    outer loop
      vertex -3.88377 0 9.04274
      vertex -3.39276 0 10
      vertex -3.88377 0 10
    endloop
  endfacet
  facet normal 0 -1 -0
    outer loop
      vertex -3.39276 0 10
      vertex -3.88377 0 9.04274
      vertex -3.39276 0 8.1072
    endloop
  endfacet
  facet normal 0 -1 0
    outer loop
      vertex 3.39276 0 10
      vertex 3.54182 0 8.14111
      vertex 4 0 10
    endloop
  endfacet
  facet normal -0 -1 0
    outer loop
      vertex 3.54182 0 8.14111
      vertex 3.39276 0 10
      vertex 3.39276 0 7.97285
    endloop
  endfacet
endsolid OpenSCAD_Model
