solid OpenSCAD_Model
  facet normal 0 -1 0
    outer loop
      vertex -0.941857 -14.9704 0
      vertex 0.941857 -14.9704 20
      vertex -0.941857 -14.9704 20
    endloop
  endfacet
  facet normal 0 -1 -0
    outer loop
      vertex 0.941857 -14.9704 20
      vertex -0.941857 -14.9704 0
      vertex 0.941857 -14.9704 0
    endloop
  endfacet
  facet normal 0.982285 0.187395 0
    outer loop
      vertex 14.8817 1.88 20
      vertex 14.5287 3.73035 0
      vertex 14.5287 3.73035 20
    endloop
  endfacet
  facet normal 0.982285 0.187395 0
    outer loop
      vertex 14.5287 3.73035 0
      vertex 14.8817 1.88 20
      vertex 14.8817 1.88 0
    endloop
  endfacet
  facet normal 0.998026 0.0628013 0
    outer loop
      vertex 15 0 20
      vertex 14.8817 1.88 0
      vertex 14.8817 1.88 20
    endloop
  endfacet
  facet normal 0.998026 0.0628013 0
    outer loop
      vertex 14.8817 1.88 0
      vertex 15 0 20
      vertex 15 0 0
    endloop
  endfacet
  facet normal 0.951057 0.309017 0
    outer loop
      vertex 14.5287 3.73035 20
      vertex 13.9466 5.52187 0
      vertex 13.9466 5.52187 20
    endloop
  endfacet
  facet normal 0.951057 0.309017 0
    outer loop
      vertex 13.9466 5.52187 0
      vertex 14.5287 3.73035 20
      vertex 14.5287 3.73035 0
    endloop
  endfacet
  facet normal 0.904837 -0.425758 0
    outer loop
      vertex 13.1446 -7.22631 20
      vertex 13.9466 -5.52187 0
      vertex 13.9466 -5.52187 20
    endloop
  endfacet
  facet normal 0.904837 -0.425758 0
    outer loop
      vertex 13.9466 -5.52187 0
      vertex 13.1446 -7.22631 20
      vertex 13.1446 -7.22631 0
    endloop
  endfacet
  facet normal 0.844338 0.535811 0
    outer loop
      vertex 13.1446 7.22631 20
      vertex 12.1353 8.81678 0
      vertex 12.1353 8.81678 20
    endloop
  endfacet
  facet normal 0.844338 0.535811 0
    outer loop
      vertex 12.1353 8.81678 0
      vertex 13.1446 7.22631 20
      vertex 13.1446 7.22631 0
    endloop
  endfacet
  facet normal 0.951057 -0.309017 0
    outer loop
      vertex 13.9466 -5.52187 20
      vertex 14.5287 -3.73035 0
      vertex 14.5287 -3.73035 20
    endloop
  endfacet
  facet normal 0.951057 -0.309017 0
    outer loop
      vertex 14.5287 -3.73035 0
      vertex 13.9466 -5.52187 20
      vertex 13.9466 -5.52187 0
    endloop
  endfacet
  facet normal 0.368104 0.929785 -0
    outer loop
      vertex 6.38669 13.5724 0
      vertex 4.63525 14.2658 20
      vertex 6.38669 13.5724 20
    endloop
  endfacet
  facet normal 0.368104 0.929785 0
    outer loop
      vertex 4.63525 14.2658 20
      vertex 6.38669 13.5724 0
      vertex 4.63525 14.2658 0
    endloop
  endfacet
  facet normal 0.998026 -0.0628013 0
    outer loop
      vertex 14.8817 -1.88 20
      vertex 15 0 0
      vertex 15 0 20
    endloop
  endfacet
  facet normal 0.998026 -0.0628013 0
    outer loop
      vertex 15 0 0
      vertex 14.8817 -1.88 20
      vertex 14.8817 -1.88 0
    endloop
  endfacet
  facet normal 0.368104 -0.929785 0
    outer loop
      vertex 4.63525 -14.2658 0
      vertex 6.38669 -13.5724 20
      vertex 4.63525 -14.2658 20
    endloop
  endfacet
  facet normal 0.368104 -0.929785 0
    outer loop
      vertex 6.38669 -13.5724 20
      vertex 4.63525 -14.2658 0
      vertex 6.38669 -13.5724 0
    endloop
  endfacet
  facet normal 0.770492 0.63745 0
    outer loop
      vertex 12.1353 8.81678 20
      vertex 10.9345 10.2682 0
      vertex 10.9345 10.2682 20
    endloop
  endfacet
  facet normal 0.770492 0.63745 0
    outer loop
      vertex 10.9345 10.2682 0
      vertex 12.1353 8.81678 20
      vertex 12.1353 8.81678 0
    endloop
  endfacet
  facet normal 0.904837 0.425758 0
    outer loop
      vertex 13.9466 5.52187 20
      vertex 13.1446 7.22631 0
      vertex 13.1446 7.22631 20
    endloop
  endfacet
  facet normal 0.904837 0.425758 0
    outer loop
      vertex 13.1446 7.22631 0
      vertex 13.9466 5.52187 20
      vertex 13.9466 5.52187 0
    endloop
  endfacet
  facet normal -0.684557 -0.728959 0
    outer loop
      vertex -10.9345 -10.2682 0
      vertex -9.56136 -11.5577 20
      vertex -10.9345 -10.2682 20
    endloop
  endfacet
  facet normal -0.684557 -0.728959 -0
    outer loop
      vertex -9.56136 -11.5577 20
      vertex -10.9345 -10.2682 0
      vertex -9.56136 -11.5577 0
    endloop
  endfacet
  facet normal -0.904837 -0.425758 0
    outer loop
      vertex -13.1446 -7.22631 0
      vertex -13.9466 -5.52187 20
      vertex -13.9466 -5.52187 0
    endloop
  endfacet
  facet normal -0.904837 -0.425758 0
    outer loop
      vertex -13.9466 -5.52187 20
      vertex -13.1446 -7.22631 0
      vertex -13.1446 -7.22631 20
    endloop
  endfacet
  facet normal -0.48176 -0.876303 0
    outer loop
      vertex -8.0374 -12.6649 0
      vertex -6.38669 -13.5724 20
      vertex -8.0374 -12.6649 20
    endloop
  endfacet
  facet normal -0.48176 -0.876303 -0
    outer loop
      vertex -6.38669 -13.5724 20
      vertex -8.0374 -12.6649 0
      vertex -6.38669 -13.5724 0
    endloop
  endfacet
  facet normal -0.844338 -0.535811 0
    outer loop
      vertex -12.1353 -8.81678 0
      vertex -13.1446 -7.22631 20
      vertex -13.1446 -7.22631 0
    endloop
  endfacet
  facet normal -0.844338 -0.535811 0
    outer loop
      vertex -13.1446 -7.22631 20
      vertex -12.1353 -8.81678 0
      vertex -12.1353 -8.81678 20
    endloop
  endfacet
  facet normal -0.684557 0.728959 0
    outer loop
      vertex -9.56136 11.5577 0
      vertex -10.9345 10.2682 20
      vertex -9.56136 11.5577 20
    endloop
  endfacet
  facet normal -0.684557 0.728959 0
    outer loop
      vertex -10.9345 10.2682 20
      vertex -9.56136 11.5577 0
      vertex -10.9345 10.2682 0
    endloop
  endfacet
  facet normal -0.48176 0.876303 0
    outer loop
      vertex -6.38669 13.5724 0
      vertex -8.0374 12.6649 20
      vertex -6.38669 13.5724 20
    endloop
  endfacet
  facet normal -0.48176 0.876303 0
    outer loop
      vertex -8.0374 12.6649 20
      vertex -6.38669 13.5724 0
      vertex -8.0374 12.6649 0
    endloop
  endfacet
  facet normal 0.48176 -0.876303 0
    outer loop
      vertex 6.38669 -13.5724 0
      vertex 8.0374 -12.6649 20
      vertex 6.38669 -13.5724 20
    endloop
  endfacet
  facet normal 0.48176 -0.876303 0
    outer loop
      vertex 8.0374 -12.6649 20
      vertex 6.38669 -13.5724 0
      vertex 8.0374 -12.6649 0
    endloop
  endfacet
  facet normal 0 1 -0
    outer loop
      vertex 0.941857 14.9704 0
      vertex -0.941857 14.9704 20
      vertex 0.941857 14.9704 20
    endloop
  endfacet
  facet normal 0 1 0
    outer loop
      vertex -0.941857 14.9704 20
      vertex 0.941857 14.9704 0
      vertex -0.941857 14.9704 0
    endloop
  endfacet
  facet normal -0.368104 0.929785 0
    outer loop
      vertex -4.63525 14.2658 0
      vertex -6.38669 13.5724 20
      vertex -4.63525 14.2658 20
    endloop
  endfacet
  facet normal -0.368104 0.929785 0
    outer loop
      vertex -6.38669 13.5724 20
      vertex -4.63525 14.2658 0
      vertex -6.38669 13.5724 0
    endloop
  endfacet
  facet normal 0.125337 -0.992114 0
    outer loop
      vertex 0.941857 -14.9704 0
      vertex 2.81072 -14.7343 20
      vertex 0.941857 -14.9704 20
    endloop
  endfacet
  facet normal 0.125337 -0.992114 0
    outer loop
      vertex 2.81072 -14.7343 20
      vertex 0.941857 -14.9704 0
      vertex 2.81072 -14.7343 0
    endloop
  endfacet
  facet normal 0.24871 0.968578 -0
    outer loop
      vertex 4.63525 14.2658 0
      vertex 2.81072 14.7343 20
      vertex 4.63525 14.2658 20
    endloop
  endfacet
  facet normal 0.24871 0.968578 0
    outer loop
      vertex 2.81072 14.7343 20
      vertex 4.63525 14.2658 0
      vertex 2.81072 14.7343 0
    endloop
  endfacet
  facet normal -0.587778 -0.809022 0
    outer loop
      vertex -9.56136 -11.5577 0
      vertex -8.0374 -12.6649 20
      vertex -9.56136 -11.5577 20
    endloop
  endfacet
  facet normal -0.587778 -0.809022 -0
    outer loop
      vertex -8.0374 -12.6649 20
      vertex -9.56136 -11.5577 0
      vertex -8.0374 -12.6649 0
    endloop
  endfacet
  facet normal -0.982285 0.187395 0
    outer loop
      vertex -14.8817 1.88 0
      vertex -14.5287 3.73035 20
      vertex -14.5287 3.73035 0
    endloop
  endfacet
  facet normal -0.982285 0.187395 0
    outer loop
      vertex -14.5287 3.73035 20
      vertex -14.8817 1.88 0
      vertex -14.8817 1.88 20
    endloop
  endfacet
  facet normal 0.587778 0.809022 -0
    outer loop
      vertex 9.56136 11.5577 0
      vertex 8.0374 12.6649 20
      vertex 9.56136 11.5577 20
    endloop
  endfacet
  facet normal 0.587778 0.809022 0
    outer loop
      vertex 8.0374 12.6649 20
      vertex 9.56136 11.5577 0
      vertex 8.0374 12.6649 0
    endloop
  endfacet
  facet normal -0.951057 0.309017 0
    outer loop
      vertex -14.5287 3.73035 0
      vertex -13.9466 5.52187 20
      vertex -13.9466 5.52187 0
    endloop
  endfacet
  facet normal -0.951057 0.309017 0
    outer loop
      vertex -13.9466 5.52187 20
      vertex -14.5287 3.73035 0
      vertex -14.5287 3.73035 20
    endloop
  endfacet
  facet normal 0.125337 0.992114 -0
    outer loop
      vertex 2.81072 14.7343 0
      vertex 0.941857 14.9704 20
      vertex 2.81072 14.7343 20
    endloop
  endfacet
  facet normal 0.125337 0.992114 0
    outer loop
      vertex 0.941857 14.9704 20
      vertex 2.81072 14.7343 0
      vertex 0.941857 14.9704 0
    endloop
  endfacet
  facet normal -0.951057 -0.309017 0
    outer loop
      vertex -13.9466 -5.52187 0
      vertex -14.5287 -3.73035 20
      vertex -14.5287 -3.73035 0
    endloop
  endfacet
  facet normal -0.951057 -0.309017 0
    outer loop
      vertex -14.5287 -3.73035 20
      vertex -13.9466 -5.52187 0
      vertex -13.9466 -5.52187 20
    endloop
  endfacet
  facet normal 0 0 -1
    outer loop
      vertex 7.5 0 0
      vertex 15 0 0
      vertex 14.8817 -1.88 0
    endloop
  endfacet
  facet normal 0 0 -1
    outer loop
      vertex 7.44086 -0.939999 0
      vertex 14.8817 -1.88 0
      vertex 14.5287 -3.73035 0
    endloop
  endfacet
  facet normal 0 0 -1
    outer loop
      vertex 15 0 0
      vertex 7.5 0 0
      vertex 14.8817 1.88 0
    endloop
  endfacet
  facet normal 0 0 -1
    outer loop
      vertex 7.26437 -1.86517 0
      vertex 14.5287 -3.73035 0
      vertex 13.9466 -5.52187 0
    endloop
  endfacet
  facet normal 0 0 -1
    outer loop
      vertex 7.44086 0.939999 0
      vertex 14.8817 1.88 0
      vertex 7.5 0 0
    endloop
  endfacet
  facet normal 0 0 -1
    outer loop
      vertex 6.97332 -2.76093 0
      vertex 13.9466 -5.52187 0
      vertex 13.1446 -7.22631 0
    endloop
  endfacet
  facet normal -0 0 -1
    outer loop
      vertex 14.8817 1.88 0
      vertex 7.44086 0.939999 0
      vertex 14.5287 3.73035 0
    endloop
  endfacet
  facet normal 0 0 -1
    outer loop
      vertex 6.5723 -3.61315 0
      vertex 13.1446 -7.22631 0
      vertex 12.1353 -8.81678 0
    endloop
  endfacet
  facet normal 0 0 -1
    outer loop
      vertex 7.26437 1.86517 0
      vertex 14.5287 3.73035 0
      vertex 7.44086 0.939999 0
    endloop
  endfacet
  facet normal 0 0 -1
    outer loop
      vertex 6.06763 -4.40839 0
      vertex 12.1353 -8.81678 0
      vertex 10.9345 -10.2682 0
    endloop
  endfacet
  facet normal -0 0 -1
    outer loop
      vertex 14.5287 3.73035 0
      vertex 7.26437 1.86517 0
      vertex 13.9466 5.52187 0
    endloop
  endfacet
  facet normal 0 0 -1
    outer loop
      vertex 5.46726 -5.1341 0
      vertex 10.9345 -10.2682 0
      vertex 9.56136 -11.5577 0
    endloop
  endfacet
  facet normal 0 0 -1
    outer loop
      vertex 6.97332 2.76093 0
      vertex 13.9466 5.52187 0
      vertex 7.26437 1.86517 0
    endloop
  endfacet
  facet normal 0 0 -1
    outer loop
      vertex 4.78068 -5.77885 0
      vertex 9.56136 -11.5577 0
      vertex 8.0374 -12.6649 0
    endloop
  endfacet
  facet normal -0 0 -1
    outer loop
      vertex 13.9466 5.52187 0
      vertex 6.97332 2.76093 0
      vertex 13.1446 7.22631 0
    endloop
  endfacet
  facet normal 0 0 -1
    outer loop
      vertex 6.5723 3.61315 0
      vertex 13.1446 7.22631 0
      vertex 6.97332 2.76093 0
    endloop
  endfacet
  facet normal 0 0 -1
    outer loop
      vertex 14.8817 -1.88 0
      vertex 7.44086 -0.939999 0
      vertex 7.5 0 0
    endloop
  endfacet
  facet normal 0 0 -1
    outer loop
      vertex 14.5287 -3.73035 0
      vertex 7.26437 -1.86517 0
      vertex 7.44086 -0.939999 0
    endloop
  endfacet
  facet normal 0 0 -1
    outer loop
      vertex 13.9466 -5.52187 0
      vertex 6.97332 -2.76093 0
      vertex 7.26437 -1.86517 0
    endloop
  endfacet
  facet normal 0 0 -1
    outer loop
      vertex 13.1446 -7.22631 0
      vertex 6.5723 -3.61315 0
      vertex 6.97332 -2.76093 0
    endloop
  endfacet
  facet normal 0 0 -1
    outer loop
      vertex 4.0187 -6.33246 0
      vertex 8.0374 -12.6649 0
      vertex 6.38669 -13.5724 0
    endloop
  endfacet
  facet normal 0 0 -1
    outer loop
      vertex 12.1353 -8.81678 0
      vertex 6.06763 -4.40839 0
      vertex 6.5723 -3.61315 0
    endloop
  endfacet
  facet normal 0 0 -1
    outer loop
      vertex 10.9345 -10.2682 0
      vertex 5.46726 -5.1341 0
      vertex 6.06763 -4.40839 0
    endloop
  endfacet
  facet normal 0 0 -1
    outer loop
      vertex 9.56136 -11.5577 0
      vertex 4.78068 -5.77885 0
      vertex 5.46726 -5.1341 0
    endloop
  endfacet
  facet normal 0 0 -1
    outer loop
      vertex 3.19334 -6.7862 0
      vertex 6.38669 -13.5724 0
      vertex 4.63525 -14.2658 0
    endloop
  endfacet
  facet normal 0 0 -1
    outer loop
      vertex 8.0374 -12.6649 0
      vertex 4.0187 -6.33246 0
      vertex 4.78068 -5.77885 0
    endloop
  endfacet
  facet normal 0 0 -1
    outer loop
      vertex 6.38669 -13.5724 0
      vertex 3.19334 -6.7862 0
      vertex 4.0187 -6.33246 0
    endloop
  endfacet
  facet normal 0 0 -1
    outer loop
      vertex 2.31763 -7.13292 0
      vertex 4.63525 -14.2658 0
      vertex 2.81072 -14.7343 0
    endloop
  endfacet
  facet normal 0 0 -1
    outer loop
      vertex 4.63525 -14.2658 0
      vertex 2.31763 -7.13292 0
      vertex 3.19334 -6.7862 0
    endloop
  endfacet
  facet normal 0 0 -1
    outer loop
      vertex 2.81072 -14.7343 0
      vertex 1.40536 -7.36715 0
      vertex 2.31763 -7.13292 0
    endloop
  endfacet
  facet normal 0 0 -1
    outer loop
      vertex 0.941857 -14.9704 0
      vertex 1.40536 -7.36715 0
      vertex 2.81072 -14.7343 0
    endloop
  endfacet
  facet normal 0 0 -1
    outer loop
      vertex 0.941857 -14.9704 0
      vertex 0.470928 -7.4852 0
      vertex 1.40536 -7.36715 0
    endloop
  endfacet
  facet normal 0 0 -1
    outer loop
      vertex 0.941857 -14.9704 0
      vertex -0.470928 -7.4852 0
      vertex 0.470928 -7.4852 0
    endloop
  endfacet
  facet normal 0 0 -1
    outer loop
      vertex -0.941857 -14.9704 0
      vertex -0.470928 -7.4852 0
      vertex 0.941857 -14.9704 0
    endloop
  endfacet
  facet normal 0 0 -1
    outer loop
      vertex -0.941857 -14.9704 0
      vertex -1.40536 -7.36715 0
      vertex -0.470928 -7.4852 0
    endloop
  endfacet
  facet normal 0 0 -1
    outer loop
      vertex -2.81072 -14.7343 0
      vertex -1.40536 -7.36715 0
      vertex -0.941857 -14.9704 0
    endloop
  endfacet
  facet normal -0 0 -1
    outer loop
      vertex -1.40536 -7.36715 0
      vertex -2.81072 -14.7343 0
      vertex -2.31763 -7.13292 0
    endloop
  endfacet
  facet normal 0 0 -1
    outer loop
      vertex -4.63525 -14.2658 0
      vertex -2.31763 -7.13292 0
      vertex -2.81072 -14.7343 0
    endloop
  endfacet
  facet normal -0 0 -1
    outer loop
      vertex -2.31763 -7.13292 0
      vertex -4.63525 -14.2658 0
      vertex -3.19334 -6.7862 0
    endloop
  endfacet
  facet normal 0 0 -1
    outer loop
      vertex -6.38669 -13.5724 0
      vertex -3.19334 -6.7862 0
      vertex -4.63525 -14.2658 0
    endloop
  endfacet
  facet normal -0 0 -1
    outer loop
      vertex -3.19334 -6.7862 0
      vertex -6.38669 -13.5724 0
      vertex -4.0187 -6.33246 0
    endloop
  endfacet
  facet normal 0 0 -1
    outer loop
      vertex -8.0374 -12.6649 0
      vertex -4.0187 -6.33246 0
      vertex -6.38669 -13.5724 0
    endloop
  endfacet
  facet normal -0 0 -1
    outer loop
      vertex -4.0187 -6.33246 0
      vertex -8.0374 -12.6649 0
      vertex -4.78068 -5.77885 0
    endloop
  endfacet
  facet normal 0 0 -1
    outer loop
      vertex -9.56136 -11.5577 0
      vertex -4.78068 -5.77885 0
      vertex -8.0374 -12.6649 0
    endloop
  endfacet
  facet normal -0 0 -1
    outer loop
      vertex -4.78068 -5.77885 0
      vertex -9.56136 -11.5577 0
      vertex -5.46726 -5.1341 0
    endloop
  endfacet
  facet normal 0 0 -1
    outer loop
      vertex -10.9345 -10.2682 0
      vertex -5.46726 -5.1341 0
      vertex -9.56136 -11.5577 0
    endloop
  endfacet
  facet normal -0 0 -1
    outer loop
      vertex -5.46726 -5.1341 0
      vertex -10.9345 -10.2682 0
      vertex -6.06763 -4.40839 0
    endloop
  endfacet
  facet normal 0 0 -1
    outer loop
      vertex -12.1353 -8.81678 0
      vertex -6.06763 -4.40839 0
      vertex -10.9345 -10.2682 0
    endloop
  endfacet
  facet normal 0 0 -1
    outer loop
      vertex -13.1446 -7.22631 0
      vertex -6.5723 -3.61315 0
      vertex -12.1353 -8.81678 0
    endloop
  endfacet
  facet normal -0 0 -1
    outer loop
      vertex -6.06763 -4.40839 0
      vertex -12.1353 -8.81678 0
      vertex -6.5723 -3.61315 0
    endloop
  endfacet
  facet normal -0 0 -1
    outer loop
      vertex 13.1446 7.22631 0
      vertex 6.5723 3.61315 0
      vertex 12.1353 8.81678 0
    endloop
  endfacet
  facet normal 0 0 -1
    outer loop
      vertex 6.06763 4.40839 0
      vertex 12.1353 8.81678 0
      vertex 6.5723 3.61315 0
    endloop
  endfacet
  facet normal -0 0 -1
    outer loop
      vertex 12.1353 8.81678 0
      vertex 6.06763 4.40839 0
      vertex 10.9345 10.2682 0
    endloop
  endfacet
  facet normal 0 0 -1
    outer loop
      vertex 5.46726 5.1341 0
      vertex 10.9345 10.2682 0
      vertex 6.06763 4.40839 0
    endloop
  endfacet
  facet normal -0 0 -1
    outer loop
      vertex 10.9345 10.2682 0
      vertex 5.46726 5.1341 0
      vertex 9.56136 11.5577 0
    endloop
  endfacet
  facet normal 0 0 -1
    outer loop
      vertex 4.78068 5.77885 0
      vertex 9.56136 11.5577 0
      vertex 5.46726 5.1341 0
    endloop
  endfacet
  facet normal -0 0 -1
    outer loop
      vertex 9.56136 11.5577 0
      vertex 4.78068 5.77885 0
      vertex 8.0374 12.6649 0
    endloop
  endfacet
  facet normal 0 0 -1
    outer loop
      vertex 4.0187 6.33246 0
      vertex 8.0374 12.6649 0
      vertex 4.78068 5.77885 0
    endloop
  endfacet
  facet normal -0 0 -1
    outer loop
      vertex 8.0374 12.6649 0
      vertex 4.0187 6.33246 0
      vertex 6.38669 13.5724 0
    endloop
  endfacet
  facet normal 0 0 -1
    outer loop
      vertex 3.19334 6.7862 0
      vertex 6.38669 13.5724 0
      vertex 4.0187 6.33246 0
    endloop
  endfacet
  facet normal -0 0 -1
    outer loop
      vertex 6.38669 13.5724 0
      vertex 3.19334 6.7862 0
      vertex 4.63525 14.2658 0
    endloop
  endfacet
  facet normal 0 0 -1
    outer loop
      vertex 2.31763 7.13292 0
      vertex 4.63525 14.2658 0
      vertex 3.19334 6.7862 0
    endloop
  endfacet
  facet normal -0 0 -1
    outer loop
      vertex 4.63525 14.2658 0
      vertex 2.31763 7.13292 0
      vertex 2.81072 14.7343 0
    endloop
  endfacet
  facet normal 0 0 -1
    outer loop
      vertex 1.40536 7.36715 0
      vertex 2.81072 14.7343 0
      vertex 2.31763 7.13292 0
    endloop
  endfacet
  facet normal 0 0 -1
    outer loop
      vertex 1.40536 7.36715 0
      vertex 0.941857 14.9704 0
      vertex 2.81072 14.7343 0
    endloop
  endfacet
  facet normal 0 0 -1
    outer loop
      vertex 0.470928 7.4852 0
      vertex 0.941857 14.9704 0
      vertex 1.40536 7.36715 0
    endloop
  endfacet
  facet normal 0 0 -1
    outer loop
      vertex -0.470928 7.4852 0
      vertex 0.941857 14.9704 0
      vertex 0.470928 7.4852 0
    endloop
  endfacet
  facet normal 0 0 -1
    outer loop
      vertex -0.470928 7.4852 0
      vertex -0.941857 14.9704 0
      vertex 0.941857 14.9704 0
    endloop
  endfacet
  facet normal 0 0 -1
    outer loop
      vertex -1.40536 7.36715 0
      vertex -0.941857 14.9704 0
      vertex -0.470928 7.4852 0
    endloop
  endfacet
  facet normal 0 0 -1
    outer loop
      vertex -2.81072 14.7343 0
      vertex -1.40536 7.36715 0
      vertex -2.31763 7.13292 0
    endloop
  endfacet
  facet normal 0 0 -1
    outer loop
      vertex -1.40536 7.36715 0
      vertex -2.81072 14.7343 0
      vertex -0.941857 14.9704 0
    endloop
  endfacet
  facet normal 0 0 -1
    outer loop
      vertex -4.63525 14.2658 0
      vertex -2.31763 7.13292 0
      vertex -3.19334 6.7862 0
    endloop
  endfacet
  facet normal 0 0 -1
    outer loop
      vertex -6.38669 13.5724 0
      vertex -3.19334 6.7862 0
      vertex -4.0187 6.33246 0
    endloop
  endfacet
  facet normal 0 0 -1
    outer loop
      vertex -2.31763 7.13292 0
      vertex -4.63525 14.2658 0
      vertex -2.81072 14.7343 0
    endloop
  endfacet
  facet normal 0 0 -1
    outer loop
      vertex -8.0374 12.6649 0
      vertex -4.0187 6.33246 0
      vertex -4.78068 5.77885 0
    endloop
  endfacet
  facet normal 0 0 -1
    outer loop
      vertex -9.56136 11.5577 0
      vertex -4.78068 5.77885 0
      vertex -5.46726 5.1341 0
    endloop
  endfacet
  facet normal 0 0 -1
    outer loop
      vertex -10.9345 10.2682 0
      vertex -5.46726 5.1341 0
      vertex -6.06763 4.40839 0
    endloop
  endfacet
  facet normal 0 0 -1
    outer loop
      vertex -3.19334 6.7862 0
      vertex -6.38669 13.5724 0
      vertex -4.63525 14.2658 0
    endloop
  endfacet
  facet normal 0 0 -1
    outer loop
      vertex -12.1353 8.81678 0
      vertex -6.06763 4.40839 0
      vertex -6.5723 3.61315 0
    endloop
  endfacet
  facet normal 0 0 -1
    outer loop
      vertex -13.1446 7.22631 0
      vertex -6.5723 3.61315 0
      vertex -6.97332 2.76093 0
    endloop
  endfacet
  facet normal 0 0 -1
    outer loop
      vertex -13.9466 5.52187 0
      vertex -6.97332 2.76093 0
      vertex -7.26437 1.86517 0
    endloop
  endfacet
  facet normal 0 0 -1
    outer loop
      vertex -14.5287 3.73035 0
      vertex -7.26437 1.86517 0
      vertex -7.44086 0.939999 0
    endloop
  endfacet
  facet normal 0 0 -1
    outer loop
      vertex -4.0187 6.33246 0
      vertex -8.0374 12.6649 0
      vertex -6.38669 13.5724 0
    endloop
  endfacet
  facet normal 0 0 -1
    outer loop
      vertex -14.8817 1.88 0
      vertex -7.44086 0.939999 0
      vertex -7.5 0 0
    endloop
  endfacet
  facet normal -0 0 -1
    outer loop
      vertex -6.5723 -3.61315 0
      vertex -13.1446 -7.22631 0
      vertex -6.97332 -2.76093 0
    endloop
  endfacet
  facet normal 0 0 -1
    outer loop
      vertex -13.9466 -5.52187 0
      vertex -6.97332 -2.76093 0
      vertex -13.1446 -7.22631 0
    endloop
  endfacet
  facet normal 0 0 -1
    outer loop
      vertex -4.78068 5.77885 0
      vertex -9.56136 11.5577 0
      vertex -8.0374 12.6649 0
    endloop
  endfacet
  facet normal -0 0 -1
    outer loop
      vertex -6.97332 -2.76093 0
      vertex -13.9466 -5.52187 0
      vertex -7.26437 -1.86517 0
    endloop
  endfacet
  facet normal 0 0 -1
    outer loop
      vertex -5.46726 5.1341 0
      vertex -10.9345 10.2682 0
      vertex -9.56136 11.5577 0
    endloop
  endfacet
  facet normal 0 0 -1
    outer loop
      vertex -14.5287 -3.73035 0
      vertex -7.26437 -1.86517 0
      vertex -13.9466 -5.52187 0
    endloop
  endfacet
  facet normal 0 0 -1
    outer loop
      vertex -6.06763 4.40839 0
      vertex -12.1353 8.81678 0
      vertex -10.9345 10.2682 0
    endloop
  endfacet
  facet normal -0 0 -1
    outer loop
      vertex -7.26437 -1.86517 0
      vertex -14.5287 -3.73035 0
      vertex -7.44086 -0.939999 0
    endloop
  endfacet
  facet normal 0 0 -1
    outer loop
      vertex -6.5723 3.61315 0
      vertex -13.1446 7.22631 0
      vertex -12.1353 8.81678 0
    endloop
  endfacet
  facet normal 0 0 -1
    outer loop
      vertex -14.8817 -1.88 0
      vertex -7.44086 -0.939999 0
      vertex -14.5287 -3.73035 0
    endloop
  endfacet
  facet normal 0 0 -1
    outer loop
      vertex -6.97332 2.76093 0
      vertex -13.9466 5.52187 0
      vertex -13.1446 7.22631 0
    endloop
  endfacet
  facet normal -0 0 -1
    outer loop
      vertex -7.44086 -0.939999 0
      vertex -14.8817 -1.88 0
      vertex -7.5 0 0
    endloop
  endfacet
  facet normal 0 0 -1
    outer loop
      vertex -7.26437 1.86517 0
      vertex -14.5287 3.73035 0
      vertex -13.9466 5.52187 0
    endloop
  endfacet
  facet normal 0 0 -1
    outer loop
      vertex -15 0 0
      vertex -7.5 0 0
      vertex -14.8817 -1.88 0
    endloop
  endfacet
  facet normal 0 0 -1
    outer loop
      vertex -7.44086 0.939999 0
      vertex -14.8817 1.88 0
      vertex -14.5287 3.73035 0
    endloop
  endfacet
  facet normal 0 0 -1
    outer loop
      vertex -7.5 0 0
      vertex -15 0 0
      vertex -14.8817 1.88 0
    endloop
  endfacet
  facet normal 0.24871 -0.968578 0
    outer loop
      vertex 2.81072 -14.7343 0
      vertex 4.63525 -14.2658 20
      vertex 2.81072 -14.7343 20
    endloop
  endfacet
  facet normal 0.24871 -0.968578 0
    outer loop
      vertex 4.63525 -14.2658 20
      vertex 2.81072 -14.7343 0
      vertex 4.63525 -14.2658 0
    endloop
  endfacet
  facet normal -0.982285 -0.187395 0
    outer loop
      vertex -14.5287 -3.73035 0
      vertex -14.8817 -1.88 20
      vertex -14.8817 -1.88 0
    endloop
  endfacet
  facet normal -0.982285 -0.187395 0
    outer loop
      vertex -14.8817 -1.88 20
      vertex -14.5287 -3.73035 0
      vertex -14.5287 -3.73035 20
    endloop
  endfacet
  facet normal -0.368104 -0.929785 0
    outer loop
      vertex -6.38669 -13.5724 0
      vertex -4.63525 -14.2658 20
      vertex -6.38669 -13.5724 20
    endloop
  endfacet
  facet normal -0.368104 -0.929785 -0
    outer loop
      vertex -4.63525 -14.2658 20
      vertex -6.38669 -13.5724 0
      vertex -4.63525 -14.2658 0
    endloop
  endfacet
  facet normal 0.982285 -0.187395 0
    outer loop
      vertex 14.5287 -3.73035 20
      vertex 14.8817 -1.88 0
      vertex 14.8817 -1.88 20
    endloop
  endfacet
  facet normal 0.982285 -0.187395 0
    outer loop
      vertex 14.8817 -1.88 0
      vertex 14.5287 -3.73035 20
      vertex 14.5287 -3.73035 0
    endloop
  endfacet
  facet normal -0.904837 0.425758 0
    outer loop
      vertex -13.9466 5.52187 0
      vertex -13.1446 7.22631 20
      vertex -13.1446 7.22631 0
    endloop
  endfacet
  facet normal -0.904837 0.425758 0
    outer loop
      vertex -13.1446 7.22631 20
      vertex -13.9466 5.52187 0
      vertex -13.9466 5.52187 20
    endloop
  endfacet
  facet normal -0.998026 0.0628013 0
    outer loop
      vertex -15 0 0
      vertex -14.8817 1.88 20
      vertex -14.8817 1.88 0
    endloop
  endfacet
  facet normal -0.998026 0.0628013 0
    outer loop
      vertex -14.8817 1.88 20
      vertex -15 0 0
      vertex -15 0 20
    endloop
  endfacet
  facet normal 0.844338 -0.535811 0
    outer loop
      vertex 12.1353 -8.81678 20
      vertex 13.1446 -7.22631 0
      vertex 13.1446 -7.22631 20
    endloop
  endfacet
  facet normal 0.844338 -0.535811 0
    outer loop
      vertex 13.1446 -7.22631 0
      vertex 12.1353 -8.81678 20
      vertex 12.1353 -8.81678 0
    endloop
  endfacet
  facet normal -0.24871 -0.968578 0
    outer loop
      vertex -4.63525 -14.2658 0
      vertex -2.81072 -14.7343 20
      vertex -4.63525 -14.2658 20
    endloop
  endfacet
  facet normal -0.24871 -0.968578 -0
    outer loop
      vertex -2.81072 -14.7343 20
      vertex -4.63525 -14.2658 0
      vertex -2.81072 -14.7343 0
    endloop
  endfacet
  facet normal 0.587778 -0.809022 0
    outer loop
      vertex 8.0374 -12.6649 0
      vertex 9.56136 -11.5577 20
      vertex 8.0374 -12.6649 20
    endloop
  endfacet
  facet normal 0.587778 -0.809022 0
    outer loop
      vertex 9.56136 -11.5577 20
      vertex 8.0374 -12.6649 0
      vertex 9.56136 -11.5577 0
    endloop
  endfacet
  facet normal 0.48176 0.876303 -0
    outer loop
      vertex 8.0374 12.6649 0
      vertex 6.38669 13.5724 20
      vertex 8.0374 12.6649 20
    endloop
  endfacet
  facet normal 0.48176 0.876303 0
    outer loop
      vertex 6.38669 13.5724 20
      vertex 8.0374 12.6649 0
      vertex 6.38669 13.5724 0
    endloop
  endfacet
  facet normal -0.998026 -0.0628013 0
    outer loop
      vertex -14.8817 -1.88 0
      vertex -15 0 20
      vertex -15 0 0
    endloop
  endfacet
  facet normal -0.998026 -0.0628013 0
    outer loop
      vertex -15 0 20
      vertex -14.8817 -1.88 0
      vertex -14.8817 -1.88 20
    endloop
  endfacet
  facet normal -0.24871 0.968578 0
    outer loop
      vertex -2.81072 14.7343 0
      vertex -4.63525 14.2658 20
      vertex -2.81072 14.7343 20
    endloop
  endfacet
  facet normal -0.24871 0.968578 0
    outer loop
      vertex -4.63525 14.2658 20
      vertex -2.81072 14.7343 0
      vertex -4.63525 14.2658 0
    endloop
  endfacet
  facet normal -0.125337 -0.992114 0
    outer loop
      vertex -2.81072 -14.7343 0
      vertex -0.941857 -14.9704 20
      vertex -2.81072 -14.7343 20
    endloop
  endfacet
  facet normal -0.125337 -0.992114 -0
    outer loop
      vertex -0.941857 -14.9704 20
      vertex -2.81072 -14.7343 0
      vertex -0.941857 -14.9704 0
    endloop
  endfacet
  facet normal -0.125337 0.992114 0
    outer loop
      vertex -0.941857 14.9704 0
      vertex -2.81072 14.7343 20
      vertex -0.941857 14.9704 20
    endloop
  endfacet
  facet normal -0.125337 0.992114 0
    outer loop
      vertex -2.81072 14.7343 20
      vertex -0.941857 14.9704 0
      vertex -2.81072 14.7343 0
    endloop
  endfacet
  facet normal 0 0 1
    outer loop
      vertex 14.8817 1.88 20
      vertex 14.8817 -1.88 20
      vertex 15 0 20
    endloop
  endfacet
  facet normal 0 0 1
    outer loop
      vertex 14.5287 3.73035 20
      vertex 14.8817 -1.88 20
      vertex 14.8817 1.88 20
    endloop
  endfacet
  facet normal 0 0 1
    outer loop
      vertex 14.5287 3.73035 20
      vertex 14.5287 -3.73035 20
      vertex 14.8817 -1.88 20
    endloop
  endfacet
  facet normal 0 0 1
    outer loop
      vertex 13.9466 5.52187 20
      vertex 14.5287 -3.73035 20
      vertex 14.5287 3.73035 20
    endloop
  endfacet
  facet normal 0 0 1
    outer loop
      vertex 13.9466 5.52187 20
      vertex 13.9466 -5.52187 20
      vertex 14.5287 -3.73035 20
    endloop
  endfacet
  facet normal 0 0 1
    outer loop
      vertex 13.1446 7.22631 20
      vertex 13.9466 -5.52187 20
      vertex 13.9466 5.52187 20
    endloop
  endfacet
  facet normal 0 0 1
    outer loop
      vertex 13.1446 7.22631 20
      vertex 13.1446 -7.22631 20
      vertex 13.9466 -5.52187 20
    endloop
  endfacet
  facet normal 0 0 1
    outer loop
      vertex 12.1353 8.81678 20
      vertex 13.1446 -7.22631 20
      vertex 13.1446 7.22631 20
    endloop
  endfacet
  facet normal 0 0 1
    outer loop
      vertex 12.1353 8.81678 20
      vertex 12.1353 -8.81678 20
      vertex 13.1446 -7.22631 20
    endloop
  endfacet
  facet normal 0 0 1
    outer loop
      vertex 10.9345 10.2682 20
      vertex 12.1353 -8.81678 20
      vertex 12.1353 8.81678 20
    endloop
  endfacet
  facet normal 0 0 1
    outer loop
      vertex 10.9345 10.2682 20
      vertex 10.9345 -10.2682 20
      vertex 12.1353 -8.81678 20
    endloop
  endfacet
  facet normal 0 0 1
    outer loop
      vertex 9.56136 11.5577 20
      vertex 10.9345 -10.2682 20
      vertex 10.9345 10.2682 20
    endloop
  endfacet
  facet normal 0 0 1
    outer loop
      vertex 9.56136 11.5577 20
      vertex 9.56136 -11.5577 20
      vertex 10.9345 -10.2682 20
    endloop
  endfacet
  facet normal 0 0 1
    outer loop
      vertex 8.0374 12.6649 20
      vertex 9.56136 -11.5577 20
      vertex 9.56136 11.5577 20
    endloop
  endfacet
  facet normal 0 0 1
    outer loop
      vertex 8.0374 12.6649 20
      vertex 8.0374 -12.6649 20
      vertex 9.56136 -11.5577 20
    endloop
  endfacet
  facet normal 0 0 1
    outer loop
      vertex 6.38669 13.5724 20
      vertex 8.0374 -12.6649 20
      vertex 8.0374 12.6649 20
    endloop
  endfacet
  facet normal 0 0 1
    outer loop
      vertex 6.38669 13.5724 20
      vertex 6.38669 -13.5724 20
      vertex 8.0374 -12.6649 20
    endloop
  endfacet
  facet normal 0 0 1
    outer loop
      vertex 4.63525 14.2658 20
      vertex 6.38669 -13.5724 20
      vertex 6.38669 13.5724 20
    endloop
  endfacet
  facet normal 0 0 1
    outer loop
      vertex 4.63525 14.2658 20
      vertex 4.63525 -14.2658 20
      vertex 6.38669 -13.5724 20
    endloop
  endfacet
  facet normal 0 0 1
    outer loop
      vertex 2.81072 14.7343 20
      vertex 4.63525 -14.2658 20
      vertex 4.63525 14.2658 20
    endloop
  endfacet
  facet normal 0 0 1
    outer loop
      vertex 2.81072 14.7343 20
      vertex 2.81072 -14.7343 20
      vertex 4.63525 -14.2658 20
    endloop
  endfacet
  facet normal 0 0 1
    outer loop
      vertex 0.941857 14.9704 20
      vertex 2.81072 -14.7343 20
      vertex 2.81072 14.7343 20
    endloop
  endfacet
  facet normal 0 0 1
    outer loop
      vertex 0.941857 14.9704 20
      vertex 0.941857 -14.9704 20
      vertex 2.81072 -14.7343 20
    endloop
  endfacet
  facet normal -0 0 1
    outer loop
      vertex -0.941857 14.9704 20
      vertex 0.941857 -14.9704 20
      vertex 0.941857 14.9704 20
    endloop
  endfacet
  facet normal 0 0 1
    outer loop
      vertex -0.941857 14.9704 20
      vertex -0.941857 -14.9704 20
      vertex 0.941857 -14.9704 20
    endloop
  endfacet
  facet normal -0 0 1
    outer loop
      vertex -2.81072 14.7343 20
      vertex -0.941857 -14.9704 20
      vertex -0.941857 14.9704 20
    endloop
  endfacet
  facet normal 0 0 1
    outer loop
      vertex -2.81072 14.7343 20
      vertex -2.81072 -14.7343 20
      vertex -0.941857 -14.9704 20
    endloop
  endfacet
  facet normal -0 0 1
    outer loop
      vertex -4.63525 14.2658 20
      vertex -2.81072 -14.7343 20
      vertex -2.81072 14.7343 20
    endloop
  endfacet
  facet normal 0 0 1
    outer loop
      vertex -4.63525 14.2658 20
      vertex -4.63525 -14.2658 20
      vertex -2.81072 -14.7343 20
    endloop
  endfacet
  facet normal -0 0 1
    outer loop
      vertex -6.38669 13.5724 20
      vertex -4.63525 -14.2658 20
      vertex -4.63525 14.2658 20
    endloop
  endfacet
  facet normal 0 0 1
    outer loop
      vertex -6.38669 13.5724 20
      vertex -6.38669 -13.5724 20
      vertex -4.63525 -14.2658 20
    endloop
  endfacet
  facet normal -0 0 1
    outer loop
      vertex -8.0374 12.6649 20
      vertex -6.38669 -13.5724 20
      vertex -6.38669 13.5724 20
    endloop
  endfacet
  facet normal 0 0 1
    outer loop
      vertex -8.0374 12.6649 20
      vertex -8.0374 -12.6649 20
      vertex -6.38669 -13.5724 20
    endloop
  endfacet
  facet normal -0 0 1
    outer loop
      vertex -9.56136 11.5577 20
      vertex -8.0374 -12.6649 20
      vertex -8.0374 12.6649 20
    endloop
  endfacet
  facet normal 0 0 1
    outer loop
      vertex -9.56136 11.5577 20
      vertex -9.56136 -11.5577 20
      vertex -8.0374 -12.6649 20
    endloop
  endfacet
  facet normal -0 0 1
    outer loop
      vertex -10.9345 10.2682 20
      vertex -9.56136 -11.5577 20
      vertex -9.56136 11.5577 20
    endloop
  endfacet
  facet normal 0 0 1
    outer loop
      vertex -10.9345 10.2682 20
      vertex -10.9345 -10.2682 20
      vertex -9.56136 -11.5577 20
    endloop
  endfacet
  facet normal -0 0 1
    outer loop
      vertex -12.1353 8.81678 20
      vertex -10.9345 -10.2682 20
      vertex -10.9345 10.2682 20
    endloop
  endfacet
  facet normal 0 0 1
    outer loop
      vertex -12.1353 8.81678 20
      vertex -12.1353 -8.81678 20
      vertex -10.9345 -10.2682 20
    endloop
  endfacet
  facet normal -0 0 1
    outer loop
      vertex -13.1446 7.22631 20
      vertex -12.1353 -8.81678 20
      vertex -12.1353 8.81678 20
    endloop
  endfacet
  facet normal 0 0 1
    outer loop
      vertex -13.1446 7.22631 20
      vertex -13.1446 -7.22631 20
      vertex -12.1353 -8.81678 20
    endloop
  endfacet
  facet normal -0 0 1
    outer loop
      vertex -13.9466 5.52187 20
      vertex -13.1446 -7.22631 20
      vertex -13.1446 7.22631 20
    endloop
  endfacet
  facet normal 0 0 1
    outer loop
      vertex -13.9466 5.52187 20
      vertex -13.9466 -5.52187 20
      vertex -13.1446 -7.22631 20
    endloop
  endfacet
  facet normal -0 0 1
    outer loop
      vertex -14.5287 3.73035 20
      vertex -13.9466 -5.52187 20
      vertex -13.9466 5.52187 20
    endloop
  endfacet
  facet normal 0 0 1
    outer loop
      vertex -14.5287 3.73035 20
      vertex -14.5287 -3.73035 20
      vertex -13.9466 -5.52187 20
    endloop
  endfacet
  facet normal -0 0 1
    outer loop
      vertex -14.8817 1.88 20
      vertex -14.5287 -3.73035 20
      vertex -14.5287 3.73035 20
    endloop
  endfacet
  facet normal 0 0 1
    outer loop
      vertex -14.8817 1.88 20
      vertex -14.8817 -1.88 20
      vertex -14.5287 -3.73035 20
    endloop
  endfacet
  facet normal 0 -0 1
    outer loop
      vertex -14.8817 -1.88 20
      vertex -14.8817 1.88 20
      vertex -15 0 20
    endloop
  endfacet
  facet normal 0.684557 0.728959 -0
    outer loop
      vertex 10.9345 10.2682 0
      vertex 9.56136 11.5577 20
      vertex 10.9345 10.2682 20
    endloop
  endfacet
  facet normal 0.684557 0.728959 0
    outer loop
      vertex 9.56136 11.5577 20
      vertex 10.9345 10.2682 0
      vertex 9.56136 11.5577 0
    endloop
  endfacet
  facet normal -0.770492 -0.63745 0
    outer loop
      vertex -10.9345 -10.2682 0
      vertex -12.1353 -8.81678 20
      vertex -12.1353 -8.81678 0
    endloop
  endfacet
  facet normal -0.770492 -0.63745 0
    outer loop
      vertex -12.1353 -8.81678 20
      vertex -10.9345 -10.2682 0
      vertex -10.9345 -10.2682 20
    endloop
  endfacet
  facet normal -0.770492 0.63745 0
    outer loop
      vertex -12.1353 8.81678 0
      vertex -10.9345 10.2682 20
      vertex -10.9345 10.2682 0
    endloop
  endfacet
  facet normal -0.770492 0.63745 0
    outer loop
      vertex -10.9345 10.2682 20
      vertex -12.1353 8.81678 0
      vertex -12.1353 8.81678 20
    endloop
  endfacet
  facet normal 0.684557 -0.728959 0
    outer loop
      vertex 9.56136 -11.5577 0
      vertex 10.9345 -10.2682 20
      vertex 9.56136 -11.5577 20
    endloop
  endfacet
  facet normal 0.684557 -0.728959 0
    outer loop
      vertex 10.9345 -10.2682 20
      vertex 9.56136 -11.5577 0
      vertex 10.9345 -10.2682 0
    endloop
  endfacet
  facet normal 0.770492 -0.63745 0
    outer loop
      vertex 10.9345 -10.2682 20
      vertex 12.1353 -8.81678 0
      vertex 12.1353 -8.81678 20
    endloop
  endfacet
  facet normal 0.770492 -0.63745 0
    outer loop
      vertex 12.1353 -8.81678 0
      vertex 10.9345 -10.2682 20
      vertex 10.9345 -10.2682 0
    endloop
  endfacet
  facet normal -0.587778 0.809022 0
    outer loop
      vertex -8.0374 12.6649 0
      vertex -9.56136 11.5577 20
      vertex -8.0374 12.6649 20
    endloop
  endfacet
  facet normal -0.587778 0.809022 0
    outer loop
      vertex -9.56136 11.5577 20
      vertex -8.0374 12.6649 0
      vertex -9.56136 11.5577 0
    endloop
  endfacet
  facet normal -0.844338 0.535811 0
    outer loop
      vertex -13.1446 7.22631 0
      vertex -12.1353 8.81678 20
      vertex -12.1353 8.81678 0
    endloop
  endfacet
  facet normal -0.844338 0.535811 0
    outer loop
      vertex -12.1353 8.81678 20
      vertex -13.1446 7.22631 0
      vertex -13.1446 7.22631 20
    endloop
  endfacet
  facet normal 0.248689 -0.968583 0
    outer loop
      vertex 1.40536 -7.36715 -5
      vertex 2.31763 -7.13292 0
      vertex 1.40536 -7.36715 0
    endloop
  endfacet
  facet normal 0.248689 -0.968583 0
    outer loop
      vertex 2.31763 -7.13292 0
      vertex 1.40536 -7.36715 -5
      vertex 2.31763 -7.13292 -5
    endloop
  endfacet
  facet normal 0.982286 0.187386 0
    outer loop
      vertex 7.44086 0.939999 0
      vertex 7.26437 1.86517 -5
      vertex 7.26437 1.86517 0
    endloop
  endfacet
  facet normal 0.982286 0.187386 0
    outer loop
      vertex 7.26437 1.86517 -5
      vertex 7.44086 0.939999 0
      vertex 7.44086 0.939999 -5
    endloop
  endfacet
  facet normal 0.998027 0.0627908 0
    outer loop
      vertex 7.5 0 0
      vertex 7.44086 0.939999 -5
      vertex 7.44086 0.939999 0
    endloop
  endfacet
  facet normal 0.998027 0.0627908 0
    outer loop
      vertex 7.44086 0.939999 -5
      vertex 7.5 0 0
      vertex 7.5 0 -5
    endloop
  endfacet
  facet normal 0.951057 0.309017 0
    outer loop
      vertex 7.26437 1.86517 0
      vertex 6.97332 2.76093 -5
      vertex 6.97332 2.76093 0
    endloop
  endfacet
  facet normal 0.951057 0.309017 0
    outer loop
      vertex 6.97332 2.76093 -5
      vertex 7.26437 1.86517 0
      vertex 7.26437 1.86517 -5
    endloop
  endfacet
  facet normal -0.982286 -0.187386 0
    outer loop
      vertex -7.26437 -1.86517 -5
      vertex -7.44086 -0.939999 0
      vertex -7.44086 -0.939999 -5
    endloop
  endfacet
  facet normal -0.982286 -0.187386 0
    outer loop
      vertex -7.44086 -0.939999 0
      vertex -7.26437 -1.86517 -5
      vertex -7.26437 -1.86517 0
    endloop
  endfacet
  facet normal -0.481749 0.876309 0
    outer loop
      vertex -3.19334 6.7862 -5
      vertex -4.0187 6.33246 0
      vertex -3.19334 6.7862 0
    endloop
  endfacet
  facet normal -0.481749 0.876309 0
    outer loop
      vertex -4.0187 6.33246 0
      vertex -3.19334 6.7862 -5
      vertex -4.0187 6.33246 -5
    endloop
  endfacet
  facet normal 0.368126 0.929776 -0
    outer loop
      vertex 3.19334 6.7862 -5
      vertex 2.31763 7.13292 0
      vertex 3.19334 6.7862 0
    endloop
  endfacet
  facet normal 0.368126 0.929776 0
    outer loop
      vertex 2.31763 7.13292 0
      vertex 3.19334 6.7862 -5
      vertex 2.31763 7.13292 -5
    endloop
  endfacet
  facet normal -0.248689 -0.968583 0
    outer loop
      vertex -2.31763 -7.13292 -5
      vertex -1.40536 -7.36715 0
      vertex -2.31763 -7.13292 0
    endloop
  endfacet
  facet normal -0.248689 -0.968583 -0
    outer loop
      vertex -1.40536 -7.36715 0
      vertex -2.31763 -7.13292 -5
      vertex -1.40536 -7.36715 -5
    endloop
  endfacet
  facet normal -0.951057 0.309017 0
    outer loop
      vertex -7.26437 1.86517 -5
      vertex -6.97332 2.76093 0
      vertex -6.97332 2.76093 -5
    endloop
  endfacet
  facet normal -0.951057 0.309017 0
    outer loop
      vertex -6.97332 2.76093 0
      vertex -7.26437 1.86517 -5
      vertex -7.26437 1.86517 0
    endloop
  endfacet
  facet normal -0.125337 -0.992114 0
    outer loop
      vertex -1.40536 -7.36715 -5
      vertex -0.470928 -7.4852 0
      vertex -1.40536 -7.36715 0
    endloop
  endfacet
  facet normal -0.125337 -0.992114 -0
    outer loop
      vertex -0.470928 -7.4852 0
      vertex -1.40536 -7.36715 -5
      vertex -0.470928 -7.4852 -5
    endloop
  endfacet
  facet normal 0.125337 -0.992114 0
    outer loop
      vertex 0.470928 -7.4852 -5
      vertex 1.40536 -7.36715 0
      vertex 0.470928 -7.4852 0
    endloop
  endfacet
  facet normal 0.125337 -0.992114 0
    outer loop
      vertex 1.40536 -7.36715 0
      vertex 0.470928 -7.4852 -5
      vertex 1.40536 -7.36715 -5
    endloop
  endfacet
  facet normal -0.481749 -0.876309 0
    outer loop
      vertex -4.0187 -6.33246 -5
      vertex -3.19334 -6.7862 0
      vertex -4.0187 -6.33246 0
    endloop
  endfacet
  facet normal -0.481749 -0.876309 -0
    outer loop
      vertex -3.19334 -6.7862 0
      vertex -4.0187 -6.33246 -5
      vertex -3.19334 -6.7862 -5
    endloop
  endfacet
  facet normal 0.904829 0.425776 0
    outer loop
      vertex 6.97332 2.76093 0
      vertex 6.5723 3.61315 -5
      vertex 6.5723 3.61315 0
    endloop
  endfacet
  facet normal 0.904829 0.425776 0
    outer loop
      vertex 6.5723 3.61315 -5
      vertex 6.97332 2.76093 0
      vertex 6.97332 2.76093 -5
    endloop
  endfacet
  facet normal -0.125337 0.992114 0
    outer loop
      vertex -0.470928 7.4852 -5
      vertex -1.40536 7.36715 0
      vertex -0.470928 7.4852 0
    endloop
  endfacet
  facet normal -0.125337 0.992114 0
    outer loop
      vertex -1.40536 7.36715 0
      vertex -0.470928 7.4852 -5
      vertex -1.40536 7.36715 -5
    endloop
  endfacet
  facet normal -0.998027 0.0627908 0
    outer loop
      vertex -7.5 0 -5
      vertex -7.44086 0.939999 0
      vertex -7.44086 0.939999 -5
    endloop
  endfacet
  facet normal -0.998027 0.0627908 0
    outer loop
      vertex -7.44086 0.939999 0
      vertex -7.5 0 -5
      vertex -7.5 0 0
    endloop
  endfacet
  facet normal 0 0 -1
    outer loop
      vertex 7.44086 -0.939999 -5
      vertex 7.44086 0.939999 -5
      vertex 7.5 0 -5
    endloop
  endfacet
  facet normal 0 0 -1
    outer loop
      vertex 7.26437 -1.86517 -5
      vertex 7.44086 0.939999 -5
      vertex 7.44086 -0.939999 -5
    endloop
  endfacet
  facet normal 0 0 -1
    outer loop
      vertex 7.26437 -1.86517 -5
      vertex 7.26437 1.86517 -5
      vertex 7.44086 0.939999 -5
    endloop
  endfacet
  facet normal 0 0 -1
    outer loop
      vertex 6.97332 -2.76093 -5
      vertex 7.26437 1.86517 -5
      vertex 7.26437 -1.86517 -5
    endloop
  endfacet
  facet normal 0 0 -1
    outer loop
      vertex 6.97332 -2.76093 -5
      vertex 6.97332 2.76093 -5
      vertex 7.26437 1.86517 -5
    endloop
  endfacet
  facet normal 0 0 -1
    outer loop
      vertex 6.5723 -3.61315 -5
      vertex 6.97332 2.76093 -5
      vertex 6.97332 -2.76093 -5
    endloop
  endfacet
  facet normal 0 0 -1
    outer loop
      vertex 6.5723 -3.61315 -5
      vertex 6.5723 3.61315 -5
      vertex 6.97332 2.76093 -5
    endloop
  endfacet
  facet normal 0 0 -1
    outer loop
      vertex 6.06763 -4.40839 -5
      vertex 6.5723 3.61315 -5
      vertex 6.5723 -3.61315 -5
    endloop
  endfacet
  facet normal 0 0 -1
    outer loop
      vertex 6.06763 -4.40839 -5
      vertex 6.06763 4.40839 -5
      vertex 6.5723 3.61315 -5
    endloop
  endfacet
  facet normal 0 0 -1
    outer loop
      vertex 5.46726 -5.1341 -5
      vertex 6.06763 4.40839 -5
      vertex 6.06763 -4.40839 -5
    endloop
  endfacet
  facet normal 0 0 -1
    outer loop
      vertex 5.46726 -5.1341 -5
      vertex 5.46726 5.1341 -5
      vertex 6.06763 4.40839 -5
    endloop
  endfacet
  facet normal 0 0 -1
    outer loop
      vertex 4.78068 -5.77885 -5
      vertex 5.46726 5.1341 -5
      vertex 5.46726 -5.1341 -5
    endloop
  endfacet
  facet normal 0 0 -1
    outer loop
      vertex 4.78068 -5.77885 -5
      vertex 4.78068 5.77885 -5
      vertex 5.46726 5.1341 -5
    endloop
  endfacet
  facet normal 0 0 -1
    outer loop
      vertex 4.0187 -6.33246 -5
      vertex 4.78068 5.77885 -5
      vertex 4.78068 -5.77885 -5
    endloop
  endfacet
  facet normal 0 0 -1
    outer loop
      vertex 4.0187 -6.33246 -5
      vertex 4.0187 6.33246 -5
      vertex 4.78068 5.77885 -5
    endloop
  endfacet
  facet normal 0 0 -1
    outer loop
      vertex 3.19334 -6.7862 -5
      vertex 4.0187 6.33246 -5
      vertex 4.0187 -6.33246 -5
    endloop
  endfacet
  facet normal 0 0 -1
    outer loop
      vertex 3.19334 -6.7862 -5
      vertex 3.19334 6.7862 -5
      vertex 4.0187 6.33246 -5
    endloop
  endfacet
  facet normal 0 0 -1
    outer loop
      vertex 2.31763 -7.13292 -5
      vertex 3.19334 6.7862 -5
      vertex 3.19334 -6.7862 -5
    endloop
  endfacet
  facet normal 0 0 -1
    outer loop
      vertex 2.31763 -7.13292 -5
      vertex 2.31763 7.13292 -5
      vertex 3.19334 6.7862 -5
    endloop
  endfacet
  facet normal 0 0 -1
    outer loop
      vertex 1.40536 -7.36715 -5
      vertex 2.31763 7.13292 -5
      vertex 2.31763 -7.13292 -5
    endloop
  endfacet
  facet normal 0 0 -1
    outer loop
      vertex 1.40536 -7.36715 -5
      vertex 1.40536 7.36715 -5
      vertex 2.31763 7.13292 -5
    endloop
  endfacet
  facet normal 0 0 -1
    outer loop
      vertex 0.470928 -7.4852 -5
      vertex 1.40536 7.36715 -5
      vertex 1.40536 -7.36715 -5
    endloop
  endfacet
  facet normal 0 0 -1
    outer loop
      vertex 0.470928 -7.4852 -5
      vertex 0.470928 7.4852 -5
      vertex 1.40536 7.36715 -5
    endloop
  endfacet
  facet normal 0 0 -1
    outer loop
      vertex -0.470928 -7.4852 -5
      vertex 0.470928 7.4852 -5
      vertex 0.470928 -7.4852 -5
    endloop
  endfacet
  facet normal 0 0 -1
    outer loop
      vertex -0.470928 -7.4852 -5
      vertex -0.470928 7.4852 -5
      vertex 0.470928 7.4852 -5
    endloop
  endfacet
  facet normal 0 0 -1
    outer loop
      vertex -1.40536 -7.36715 -5
      vertex -0.470928 7.4852 -5
      vertex -0.470928 -7.4852 -5
    endloop
  endfacet
  facet normal 0 0 -1
    outer loop
      vertex -1.40536 -7.36715 -5
      vertex -1.40536 7.36715 -5
      vertex -0.470928 7.4852 -5
    endloop
  endfacet
  facet normal 0 0 -1
    outer loop
      vertex -2.31763 -7.13292 -5
      vertex -1.40536 7.36715 -5
      vertex -1.40536 -7.36715 -5
    endloop
  endfacet
  facet normal 0 0 -1
    outer loop
      vertex -2.31763 -7.13292 -5
      vertex -2.31763 7.13292 -5
      vertex -1.40536 7.36715 -5
    endloop
  endfacet
  facet normal 0 0 -1
    outer loop
      vertex -3.19334 -6.7862 -5
      vertex -2.31763 7.13292 -5
      vertex -2.31763 -7.13292 -5
    endloop
  endfacet
  facet normal 0 0 -1
    outer loop
      vertex -3.19334 -6.7862 -5
      vertex -3.19334 6.7862 -5
      vertex -2.31763 7.13292 -5
    endloop
  endfacet
  facet normal 0 0 -1
    outer loop
      vertex -4.0187 -6.33246 -5
      vertex -3.19334 6.7862 -5
      vertex -3.19334 -6.7862 -5
    endloop
  endfacet
  facet normal 0 0 -1
    outer loop
      vertex -4.0187 -6.33246 -5
      vertex -4.0187 6.33246 -5
      vertex -3.19334 6.7862 -5
    endloop
  endfacet
  facet normal 0 0 -1
    outer loop
      vertex -4.78068 -5.77885 -5
      vertex -4.0187 6.33246 -5
      vertex -4.0187 -6.33246 -5
    endloop
  endfacet
  facet normal 0 0 -1
    outer loop
      vertex -4.78068 -5.77885 -5
      vertex -4.78068 5.77885 -5
      vertex -4.0187 6.33246 -5
    endloop
  endfacet
  facet normal 0 0 -1
    outer loop
      vertex -5.46726 -5.1341 -5
      vertex -4.78068 5.77885 -5
      vertex -4.78068 -5.77885 -5
    endloop
  endfacet
  facet normal 0 0 -1
    outer loop
      vertex -5.46726 -5.1341 -5
      vertex -5.46726 5.1341 -5
      vertex -4.78068 5.77885 -5
    endloop
  endfacet
  facet normal 0 0 -1
    outer loop
      vertex -6.06763 -4.40839 -5
      vertex -5.46726 5.1341 -5
      vertex -5.46726 -5.1341 -5
    endloop
  endfacet
  facet normal 0 0 -1
    outer loop
      vertex -6.06763 -4.40839 -5
      vertex -6.06763 4.40839 -5
      vertex -5.46726 5.1341 -5
    endloop
  endfacet
  facet normal 0 0 -1
    outer loop
      vertex -6.5723 -3.61315 -5
      vertex -6.06763 4.40839 -5
      vertex -6.06763 -4.40839 -5
    endloop
  endfacet
  facet normal 0 0 -1
    outer loop
      vertex -6.5723 -3.61315 -5
      vertex -6.5723 3.61315 -5
      vertex -6.06763 4.40839 -5
    endloop
  endfacet
  facet normal 0 0 -1
    outer loop
      vertex -6.97332 -2.76093 -5
      vertex -6.5723 3.61315 -5
      vertex -6.5723 -3.61315 -5
    endloop
  endfacet
  facet normal 0 0 -1
    outer loop
      vertex -6.97332 -2.76093 -5
      vertex -6.97332 2.76093 -5
      vertex -6.5723 3.61315 -5
    endloop
  endfacet
  facet normal 0 0 -1
    outer loop
      vertex -7.26437 -1.86517 -5
      vertex -6.97332 2.76093 -5
      vertex -6.97332 -2.76093 -5
    endloop
  endfacet
  facet normal 0 0 -1
    outer loop
      vertex -7.26437 -1.86517 -5
      vertex -7.26437 1.86517 -5
      vertex -6.97332 2.76093 -5
    endloop
  endfacet
  facet normal 0 0 -1
    outer loop
      vertex -7.44086 -0.939999 -5
      vertex -7.26437 1.86517 -5
      vertex -7.26437 -1.86517 -5
    endloop
  endfacet
  facet normal 0 0 -1
    outer loop
      vertex -7.44086 -0.939999 -5
      vertex -7.44086 0.939999 -5
      vertex -7.26437 1.86517 -5
    endloop
  endfacet
  facet normal 0 -0 -1
    outer loop
      vertex -7.44086 0.939999 -5
      vertex -7.44086 -0.939999 -5
      vertex -7.5 0 -5
    endloop
  endfacet
  facet normal -0.368126 0.929776 0
    outer loop
      vertex -2.31763 7.13292 -5
      vertex -3.19334 6.7862 0
      vertex -2.31763 7.13292 0
    endloop
  endfacet
  facet normal -0.368126 0.929776 0
    outer loop
      vertex -3.19334 6.7862 0
      vertex -2.31763 7.13292 -5
      vertex -3.19334 6.7862 -5
    endloop
  endfacet
  facet normal 0.84433 0.535823 0
    outer loop
      vertex 6.5723 3.61315 0
      vertex 6.06763 4.40839 -5
      vertex 6.06763 4.40839 0
    endloop
  endfacet
  facet normal 0.84433 0.535823 0
    outer loop
      vertex 6.06763 4.40839 -5
      vertex 6.5723 3.61315 0
      vertex 6.5723 3.61315 -5
    endloop
  endfacet
  facet normal -0.684552 0.728964 0
    outer loop
      vertex -4.78068 5.77885 -5
      vertex -5.46726 5.1341 0
      vertex -4.78068 5.77885 0
    endloop
  endfacet
  facet normal -0.684552 0.728964 0
    outer loop
      vertex -5.46726 5.1341 0
      vertex -4.78068 5.77885 -5
      vertex -5.46726 5.1341 -5
    endloop
  endfacet
  facet normal 0.84433 -0.535823 0
    outer loop
      vertex 6.06763 -4.40839 0
      vertex 6.5723 -3.61315 -5
      vertex 6.5723 -3.61315 0
    endloop
  endfacet
  facet normal 0.84433 -0.535823 0
    outer loop
      vertex 6.5723 -3.61315 -5
      vertex 6.06763 -4.40839 0
      vertex 6.06763 -4.40839 -5
    endloop
  endfacet
  facet normal -0.248689 0.968583 0
    outer loop
      vertex -1.40536 7.36715 -5
      vertex -2.31763 7.13292 0
      vertex -1.40536 7.36715 0
    endloop
  endfacet
  facet normal -0.248689 0.968583 0
    outer loop
      vertex -2.31763 7.13292 0
      vertex -1.40536 7.36715 -5
      vertex -2.31763 7.13292 -5
    endloop
  endfacet
  facet normal 0.368126 -0.929776 0
    outer loop
      vertex 2.31763 -7.13292 -5
      vertex 3.19334 -6.7862 0
      vertex 2.31763 -7.13292 0
    endloop
  endfacet
  facet normal 0.368126 -0.929776 0
    outer loop
      vertex 3.19334 -6.7862 0
      vertex 2.31763 -7.13292 -5
      vertex 3.19334 -6.7862 -5
    endloop
  endfacet
  facet normal -0.587785 0.809017 0
    outer loop
      vertex -4.0187 6.33246 -5
      vertex -4.78068 5.77885 0
      vertex -4.0187 6.33246 0
    endloop
  endfacet
  facet normal -0.587785 0.809017 0
    outer loop
      vertex -4.78068 5.77885 0
      vertex -4.0187 6.33246 -5
      vertex -4.78068 5.77885 -5
    endloop
  endfacet
  facet normal 0.770508 0.637431 0
    outer loop
      vertex 6.06763 4.40839 0
      vertex 5.46726 5.1341 -5
      vertex 5.46726 5.1341 0
    endloop
  endfacet
  facet normal 0.770508 0.637431 0
    outer loop
      vertex 5.46726 5.1341 -5
      vertex 6.06763 4.40839 0
      vertex 6.06763 4.40839 -5
    endloop
  endfacet
  facet normal 0.481749 0.876309 -0
    outer loop
      vertex 4.0187 6.33246 -5
      vertex 3.19334 6.7862 0
      vertex 4.0187 6.33246 0
    endloop
  endfacet
  facet normal 0.481749 0.876309 0
    outer loop
      vertex 3.19334 6.7862 0
      vertex 4.0187 6.33246 -5
      vertex 3.19334 6.7862 -5
    endloop
  endfacet
  facet normal 0.998027 -0.0627908 0
    outer loop
      vertex 7.44086 -0.939999 0
      vertex 7.5 0 -5
      vertex 7.5 0 0
    endloop
  endfacet
  facet normal 0.998027 -0.0627908 0
    outer loop
      vertex 7.5 0 -5
      vertex 7.44086 -0.939999 0
      vertex 7.44086 -0.939999 -5
    endloop
  endfacet
  facet normal -0.368126 -0.929776 0
    outer loop
      vertex -3.19334 -6.7862 -5
      vertex -2.31763 -7.13292 0
      vertex -3.19334 -6.7862 0
    endloop
  endfacet
  facet normal -0.368126 -0.929776 -0
    outer loop
      vertex -2.31763 -7.13292 0
      vertex -3.19334 -6.7862 -5
      vertex -2.31763 -7.13292 -5
    endloop
  endfacet
  facet normal 0.684552 0.728964 -0
    outer loop
      vertex 5.46726 5.1341 -5
      vertex 4.78068 5.77885 0
      vertex 5.46726 5.1341 0
    endloop
  endfacet
  facet normal 0.684552 0.728964 0
    outer loop
      vertex 4.78068 5.77885 0
      vertex 5.46726 5.1341 -5
      vertex 4.78068 5.77885 -5
    endloop
  endfacet
  facet normal 0 1 -0
    outer loop
      vertex 0.470928 7.4852 -5
      vertex -0.470928 7.4852 0
      vertex 0.470928 7.4852 0
    endloop
  endfacet
  facet normal 0 1 0
    outer loop
      vertex -0.470928 7.4852 0
      vertex 0.470928 7.4852 -5
      vertex -0.470928 7.4852 -5
    endloop
  endfacet
  facet normal 0.125337 0.992114 -0
    outer loop
      vertex 1.40536 7.36715 -5
      vertex 0.470928 7.4852 0
      vertex 1.40536 7.36715 0
    endloop
  endfacet
  facet normal 0.125337 0.992114 0
    outer loop
      vertex 0.470928 7.4852 0
      vertex 1.40536 7.36715 -5
      vertex 0.470928 7.4852 -5
    endloop
  endfacet
  facet normal -0.684552 -0.728964 0
    outer loop
      vertex -5.46726 -5.1341 -5
      vertex -4.78068 -5.77885 0
      vertex -5.46726 -5.1341 0
    endloop
  endfacet
  facet normal -0.684552 -0.728964 -0
    outer loop
      vertex -4.78068 -5.77885 0
      vertex -5.46726 -5.1341 -5
      vertex -4.78068 -5.77885 -5
    endloop
  endfacet
  facet normal 0.904829 -0.425776 0
    outer loop
      vertex 6.5723 -3.61315 0
      vertex 6.97332 -2.76093 -5
      vertex 6.97332 -2.76093 0
    endloop
  endfacet
  facet normal 0.904829 -0.425776 0
    outer loop
      vertex 6.97332 -2.76093 -5
      vertex 6.5723 -3.61315 0
      vertex 6.5723 -3.61315 -5
    endloop
  endfacet
  facet normal 0.951057 -0.309017 0
    outer loop
      vertex 6.97332 -2.76093 0
      vertex 7.26437 -1.86517 -5
      vertex 7.26437 -1.86517 0
    endloop
  endfacet
  facet normal 0.951057 -0.309017 0
    outer loop
      vertex 7.26437 -1.86517 -5
      vertex 6.97332 -2.76093 0
      vertex 6.97332 -2.76093 -5
    endloop
  endfacet
  facet normal 0 -1 0
    outer loop
      vertex -0.470928 -7.4852 -5
      vertex 0.470928 -7.4852 0
      vertex -0.470928 -7.4852 0
    endloop
  endfacet
  facet normal 0 -1 -0
    outer loop
      vertex 0.470928 -7.4852 0
      vertex -0.470928 -7.4852 -5
      vertex 0.470928 -7.4852 -5
    endloop
  endfacet
  facet normal 0.982286 -0.187386 0
    outer loop
      vertex 7.26437 -1.86517 0
      vertex 7.44086 -0.939999 -5
      vertex 7.44086 -0.939999 0
    endloop
  endfacet
  facet normal 0.982286 -0.187386 0
    outer loop
      vertex 7.44086 -0.939999 -5
      vertex 7.26437 -1.86517 0
      vertex 7.26437 -1.86517 -5
    endloop
  endfacet
  facet normal -0.770508 -0.637431 0
    outer loop
      vertex -5.46726 -5.1341 -5
      vertex -6.06763 -4.40839 0
      vertex -6.06763 -4.40839 -5
    endloop
  endfacet
  facet normal -0.770508 -0.637431 0
    outer loop
      vertex -6.06763 -4.40839 0
      vertex -5.46726 -5.1341 -5
      vertex -5.46726 -5.1341 0
    endloop
  endfacet
  facet normal 0.481749 -0.876309 0
    outer loop
      vertex 3.19334 -6.7862 -5
      vertex 4.0187 -6.33246 0
      vertex 3.19334 -6.7862 0
    endloop
  endfacet
  facet normal 0.481749 -0.876309 0
    outer loop
      vertex 4.0187 -6.33246 0
      vertex 3.19334 -6.7862 -5
      vertex 4.0187 -6.33246 -5
    endloop
  endfacet
  facet normal -0.904829 0.425776 0
    outer loop
      vertex -6.97332 2.76093 -5
      vertex -6.5723 3.61315 0
      vertex -6.5723 3.61315 -5
    endloop
  endfacet
  facet normal -0.904829 0.425776 0
    outer loop
      vertex -6.5723 3.61315 0
      vertex -6.97332 2.76093 -5
      vertex -6.97332 2.76093 0
    endloop
  endfacet
  facet normal 0.684552 -0.728964 0
    outer loop
      vertex 4.78068 -5.77885 -5
      vertex 5.46726 -5.1341 0
      vertex 4.78068 -5.77885 0
    endloop
  endfacet
  facet normal 0.684552 -0.728964 0
    outer loop
      vertex 5.46726 -5.1341 0
      vertex 4.78068 -5.77885 -5
      vertex 5.46726 -5.1341 -5
    endloop
  endfacet
  facet normal 0.587785 -0.809017 0
    outer loop
      vertex 4.0187 -6.33246 -5
      vertex 4.78068 -5.77885 0
      vertex 4.0187 -6.33246 0
    endloop
  endfacet
  facet normal 0.587785 -0.809017 0
    outer loop
      vertex 4.78068 -5.77885 0
      vertex 4.0187 -6.33246 -5
      vertex 4.78068 -5.77885 -5
    endloop
  endfacet
  facet normal 0.587785 0.809017 -0
    outer loop
      vertex 4.78068 5.77885 -5
      vertex 4.0187 6.33246 0
      vertex 4.78068 5.77885 0
    endloop
  endfacet
  facet normal 0.587785 0.809017 0
    outer loop
      vertex 4.0187 6.33246 0
      vertex 4.78068 5.77885 -5
      vertex 4.0187 6.33246 -5
    endloop
  endfacet
  facet normal -0.951057 -0.309017 0
    outer loop
      vertex -6.97332 -2.76093 -5
      vertex -7.26437 -1.86517 0
      vertex -7.26437 -1.86517 -5
    endloop
  endfacet
  facet normal -0.951057 -0.309017 0
    outer loop
      vertex -7.26437 -1.86517 0
      vertex -6.97332 -2.76093 -5
      vertex -6.97332 -2.76093 0
    endloop
  endfacet
  facet normal 0.248689 0.968583 -0
    outer loop
      vertex 2.31763 7.13292 -5
      vertex 1.40536 7.36715 0
      vertex 2.31763 7.13292 0
    endloop
  endfacet
  facet normal 0.248689 0.968583 0
    outer loop
      vertex 1.40536 7.36715 0
      vertex 2.31763 7.13292 -5
      vertex 1.40536 7.36715 -5
    endloop
  endfacet
  facet normal -0.982286 0.187386 0
    outer loop
      vertex -7.44086 0.939999 -5
      vertex -7.26437 1.86517 0
      vertex -7.26437 1.86517 -5
    endloop
  endfacet
  facet normal -0.982286 0.187386 0
    outer loop
      vertex -7.26437 1.86517 0
      vertex -7.44086 0.939999 -5
      vertex -7.44086 0.939999 0
    endloop
  endfacet
  facet normal -0.84433 0.535823 0
    outer loop
      vertex -6.5723 3.61315 -5
      vertex -6.06763 4.40839 0
      vertex -6.06763 4.40839 -5
    endloop
  endfacet
  facet normal -0.84433 0.535823 0
    outer loop
      vertex -6.06763 4.40839 0
      vertex -6.5723 3.61315 -5
      vertex -6.5723 3.61315 0
    endloop
  endfacet
  facet normal -0.587785 -0.809017 0
    outer loop
      vertex -4.78068 -5.77885 -5
      vertex -4.0187 -6.33246 0
      vertex -4.78068 -5.77885 0
    endloop
  endfacet
  facet normal -0.587785 -0.809017 -0
    outer loop
      vertex -4.0187 -6.33246 0
      vertex -4.78068 -5.77885 -5
      vertex -4.0187 -6.33246 -5
    endloop
  endfacet
  facet normal -0.904829 -0.425776 0
    outer loop
      vertex -6.5723 -3.61315 -5
      vertex -6.97332 -2.76093 0
      vertex -6.97332 -2.76093 -5
    endloop
  endfacet
  facet normal -0.904829 -0.425776 0
    outer loop
      vertex -6.97332 -2.76093 0
      vertex -6.5723 -3.61315 -5
      vertex -6.5723 -3.61315 0
    endloop
  endfacet
  facet normal 0.770508 -0.637431 0
    outer loop
      vertex 5.46726 -5.1341 0
      vertex 6.06763 -4.40839 -5
      vertex 6.06763 -4.40839 0
    endloop
  endfacet
  facet normal 0.770508 -0.637431 0
    outer loop
      vertex 6.06763 -4.40839 -5
      vertex 5.46726 -5.1341 0
      vertex 5.46726 -5.1341 -5
    endloop
  endfacet
  facet normal -0.770508 0.637431 0
    outer loop
      vertex -6.06763 4.40839 -5
      vertex -5.46726 5.1341 0
      vertex -5.46726 5.1341 -5
    endloop
  endfacet
  facet normal -0.770508 0.637431 0
    outer loop
      vertex -5.46726 5.1341 0
      vertex -6.06763 4.40839 -5
      vertex -6.06763 4.40839 0
    endloop
  endfacet
  facet normal -0.84433 -0.535823 0
    outer loop
      vertex -6.06763 -4.40839 -5
      vertex -6.5723 -3.61315 0
      vertex -6.5723 -3.61315 -5
    endloop
  endfacet
  facet normal -0.84433 -0.535823 0
    outer loop
      vertex -6.5723 -3.61315 0
      vertex -6.06763 -4.40839 -5
      vertex -6.06763 -4.40839 0
    endloop
  endfacet
  facet normal -0.998027 -0.0627908 0
    outer loop
      vertex -7.44086 -0.939999 -5
      vertex -7.5 0 0
      vertex -7.5 0 -5
    endloop
  endfacet
  facet normal -0.998027 -0.0627908 0
    outer loop
      vertex -7.5 0 0
      vertex -7.44086 -0.939999 -5
      vertex -7.44086 -0.939999 0
    endloop
  endfacet
endsolid OpenSCAD_Model
