solid OpenSCAD_Model
  facet normal 0 -1 0
    outer loop
      vertex -6.5 0 7.5
      vertex 6.69098 0 15
      vertex -6.5 0 15
    endloop
  endfacet
  facet normal 0 -1 -0
    outer loop
      vertex 6.69098 0 15
      vertex -6.5 0 7.5
      vertex 6.69098 0 7.5
    endloop
  endfacet
  facet normal 0 -1 0
    outer loop
      vertex -7.5 0 27.5
      vertex -7.01296 0 30
      vertex -7.24444 0 29.4411
    endloop
  endfacet
  facet normal 0 -1 0
    outer loop
      vertex -7.01296 0 30
      vertex -7.01296 0 25
      vertex 7.01296 0 30
    endloop
  endfacet
  facet normal 0 -1 -0
    outer loop
      vertex -7.01296 0 30
      vertex -7.5 0 27.5
      vertex -7.01296 0 25
    endloop
  endfacet
  facet normal 0 -1 0
    outer loop
      vertex 7.01296 0 25
      vertex 7.01296 0 30
      vertex -7.01296 0 25
    endloop
  endfacet
  facet normal 0 -1 0
    outer loop
      vertex -7.01296 0 25
      vertex -7.5 0 27.5
      vertex -7.24444 0 25.5589
    endloop
  endfacet
  facet normal -0 -1 0
    outer loop
      vertex 7.5 0 27.5
      vertex 7.01296 0 30
      vertex 7.01296 0 25
    endloop
  endfacet
  facet normal 0 -1 0
    outer loop
      vertex 7.01296 0 30
      vertex 7.5 0 27.5
      vertex 7.24444 0 29.4411
    endloop
  endfacet
  facet normal 0 -1 0
    outer loop
      vertex 7.5 0 27.5
      vertex 7.01296 0 25
      vertex 7.24444 0 25.5589
    endloop
  endfacet
  facet normal 0 -1 0
    outer loop
      vertex -7.5 0 22.5
      vertex -7.01296 0 25
      vertex -7.24444 0 24.4411
    endloop
  endfacet
  facet normal 0 -1 0
    outer loop
      vertex -7.01296 0 25
      vertex -7.01296 0 20
      vertex 7.01296 0 25
    endloop
  endfacet
  facet normal 0 -1 -0
    outer loop
      vertex -7.01296 0 25
      vertex -7.5 0 22.5
      vertex -7.01296 0 20
    endloop
  endfacet
  facet normal 0 -1 0
    outer loop
      vertex 7.01296 0 20
      vertex 7.01296 0 25
      vertex -7.01296 0 20
    endloop
  endfacet
  facet normal 0 -1 0
    outer loop
      vertex -7.01296 0 20
      vertex -7.5 0 22.5
      vertex -7.24444 0 20.5589
    endloop
  endfacet
  facet normal -0 -1 0
    outer loop
      vertex 7.5 0 22.5
      vertex 7.01296 0 25
      vertex 7.01296 0 20
    endloop
  endfacet
  facet normal 0 -1 0
    outer loop
      vertex 7.01296 0 25
      vertex 7.5 0 22.5
      vertex 7.24444 0 24.4411
    endloop
  endfacet
  facet normal 0 -1 0
    outer loop
      vertex 7.5 0 22.5
      vertex 7.01296 0 20
      vertex 7.24444 0 20.5589
    endloop
  endfacet
  facet normal 0 -1 0
    outer loop
      vertex -6.5 0 15
      vertex -7.01296 0 20
      vertex -7.24444 0 19.4411
    endloop
  endfacet
  facet normal 0 -1 0
    outer loop
      vertex -7.01296 0 20
      vertex -6.5 0 15
      vertex 7.01296 0 20
    endloop
  endfacet
  facet normal 0 -1 0
    outer loop
      vertex -6.5 0 15
      vertex -7.24444 0 19.4411
      vertex -7.5 0 17.5
    endloop
  endfacet
  facet normal 0 -1 0
    outer loop
      vertex 6.69098 0 15
      vertex 7.01296 0 20
      vertex -6.5 0 15
    endloop
  endfacet
  facet normal 0 -1 0
    outer loop
      vertex -6.5 0 15
      vertex -7.5 0 17.5
      vertex -7.24444 0 15.5589
    endloop
  endfacet
  facet normal -0 -1 0
    outer loop
      vertex 7.5 0 17.5
      vertex 7.01296 0 20
      vertex 6.69098 0 15
    endloop
  endfacet
  facet normal 0 -1 0
    outer loop
      vertex -6.5 0 15
      vertex -7.24444 0 15.5589
      vertex -7.01296 0 15
    endloop
  endfacet
  facet normal 0 -1 0
    outer loop
      vertex 7.01296 0 20
      vertex 7.5 0 17.5
      vertex 7.24444 0 19.4411
    endloop
  endfacet
  facet normal 0 -1 0
    outer loop
      vertex 7.5 0 17.5
      vertex 6.69098 0 15
      vertex 7.24444 0 15.5589
    endloop
  endfacet
  facet normal 0 -1 0
    outer loop
      vertex 7.24444 0 15.5589
      vertex 6.69098 0 15
      vertex 7.01296 0 15
    endloop
  endfacet
  facet normal -0.941369 0.31379 -0.123933
    outer loop
      vertex 6.06168 -4.31496 7.5
      vertex 7.02428 -0.696078 9.35106
      vertex 7.24416 -0.767523 7.5
    endloop
  endfacet
  facet normal -0.94137 0.313789 -0.123931
    outer loop
      vertex 7.02428 -0.696078 9.35106
      vertex 6.06168 -4.31496 7.5
      vertex 5.75198 -4.71858 8.83051
    endloop
  endfacet
  facet normal 0.941369 0.31379 -0.123936
    outer loop
      vertex -7.01865 -0.713862 9.34876
      vertex -6.06168 -4.31496 7.5
      vertex -7.1855 -0.943507 7.5
    endloop
  endfacet
  facet normal 0.94137 0.313788 -0.123931
    outer loop
      vertex -6.06168 -4.31496 7.5
      vertex -7.01865 -0.713862 9.34876
      vertex -5.75198 -4.71858 8.83051
    endloop
  endfacet
  facet normal 0.877214 0.313789 -0.363363
    outer loop
      vertex -6.84372 -0.473097 10
      vertex -5.56339 -4.96435 9.2124
      vertex -7.00778 -0.698897 9.40894
    endloop
  endfacet
  facet normal 0.877215 0.313789 -0.36336
    outer loop
      vertex -5.04501 -5.50149 10
      vertex -5.56339 -4.96435 9.2124
      vertex -6.84372 -0.473097 10
    endloop
  endfacet
  facet normal 0.877216 0.31377 -0.363373
    outer loop
      vertex -5.56339 -4.96435 9.2124
      vertex -5.04501 -5.50149 10
      vertex -5.3033 -5.3033 9.5476
    endloop
  endfacet
  facet normal 0.877245 0.313794 -0.363284
    outer loop
      vertex -7.00778 -0.698897 9.40894
      vertex -5.7058 -4.77875 9.02886
      vertex -7.01584 -0.709996 9.37989
    endloop
  endfacet
  facet normal 0.877226 0.313792 -0.363332
    outer loop
      vertex -5.7058 -4.77875 9.02886
      vertex -7.00778 -0.698897 9.40894
      vertex -5.56339 -4.96435 9.2124
    endloop
  endfacet
  facet normal 0.941368 0.313791 -0.123943
    outer loop
      vertex -5.7058 -4.77875 9.02886
      vertex -7.01865 -0.713862 9.34876
      vertex -7.01584 -0.709996 9.37989
    endloop
  endfacet
  facet normal 0.941363 0.313792 -0.123979
    outer loop
      vertex -7.01865 -0.713862 9.34876
      vertex -5.7058 -4.77875 9.02886
      vertex -5.75198 -4.71858 8.83051
    endloop
  endfacet
  facet normal -0.87722 0.31379 -0.363347
    outer loop
      vertex 5.56339 -4.96435 9.2124
      vertex 6.79107 -0.620304 10
      vertex 7.01027 -0.691529 9.40928
    endloop
  endfacet
  facet normal -0.877216 0.31377 -0.363373
    outer loop
      vertex 5.04501 -5.50149 10
      vertex 5.56339 -4.96435 9.2124
      vertex 5.3033 -5.3033 9.5476
    endloop
  endfacet
  facet normal -0.877215 0.313791 -0.363359
    outer loop
      vertex 5.56339 -4.96435 9.2124
      vertex 5.04501 -5.50149 10
      vertex 6.79107 -0.620304 10
    endloop
  endfacet
  facet normal -0.877148 0.313784 -0.363526
    outer loop
      vertex 5.7058 -4.77875 9.02886
      vertex 7.01027 -0.691529 9.40928
      vertex 7.0207 -0.694916 9.38119
    endloop
  endfacet
  facet normal -0.877226 0.313791 -0.363333
    outer loop
      vertex 7.01027 -0.691529 9.40928
      vertex 5.7058 -4.77875 9.02886
      vertex 5.56339 -4.96435 9.2124
    endloop
  endfacet
  facet normal -0.941366 0.313791 -0.123953
    outer loop
      vertex 5.75198 -4.71858 8.83051
      vertex 7.0207 -0.694916 9.38119
      vertex 7.02428 -0.696078 9.35106
    endloop
  endfacet
  facet normal -0.941362 0.313793 -0.123979
    outer loop
      vertex 7.0207 -0.694916 9.38119
      vertex 5.75198 -4.71858 8.83051
      vertex 5.7058 -4.77875 9.02886
    endloop
  endfacet
  facet normal -0.94137 0.31379 -0.12393
    outer loop
      vertex 6.06168 -4.31496 12.5
      vertex 7.02428 -0.696078 14.3511
      vertex 7.24416 -0.767523 12.5
    endloop
  endfacet
  facet normal -0.94137 0.31379 -0.123931
    outer loop
      vertex 7.02428 -0.696078 14.3511
      vertex 6.06168 -4.31496 12.5
      vertex 5.75198 -4.71858 13.8305
    endloop
  endfacet
  facet normal -0.941347 0.313802 -0.124075
    outer loop
      vertex 5.75198 -4.71858 13.8305
      vertex 7.0207 -0.694916 14.3812
      vertex 7.02428 -0.696078 14.3511
    endloop
  endfacet
  facet normal -0.941367 0.313791 -0.123949
    outer loop
      vertex 7.0207 -0.694916 14.3812
      vertex 5.75198 -4.71858 13.8305
      vertex 5.7058 -4.77875 14.0289
    endloop
  endfacet
  facet normal 0.941369 0.31379 0.123933
    outer loop
      vertex -6.06168 -4.31496 12.5
      vertex -7.01865 -0.713862 10.6512
      vertex -7.1855 -0.943507 12.5
    endloop
  endfacet
  facet normal 0.94137 0.31379 0.123931
    outer loop
      vertex -7.01865 -0.713862 10.6512
      vertex -6.06168 -4.31496 12.5
      vertex -5.75198 -4.71858 11.1695
    endloop
  endfacet
  facet normal 0.877223 0.313788 -0.363341
    outer loop
      vertex -6.84372 -0.473097 15
      vertex -5.56339 -4.96435 14.2124
      vertex -7.00778 -0.698897 14.4089
    endloop
  endfacet
  facet normal 0.877215 0.313789 -0.36336
    outer loop
      vertex -5.04501 -5.50149 15
      vertex -5.56339 -4.96435 14.2124
      vertex -6.84372 -0.473097 15
    endloop
  endfacet
  facet normal 0.877216 0.31377 -0.363373
    outer loop
      vertex -5.56339 -4.96435 14.2124
      vertex -5.04501 -5.50149 15
      vertex -5.3033 -5.3033 14.5476
    endloop
  endfacet
  facet normal -0.94137 0.31379 0.12393
    outer loop
      vertex 7.02428 -0.696078 10.6489
      vertex 6.06168 -4.31496 12.5
      vertex 7.24416 -0.767523 12.5
    endloop
  endfacet
  facet normal -0.94137 0.31379 0.123931
    outer loop
      vertex 6.06168 -4.31496 12.5
      vertex 7.02428 -0.696078 10.6489
      vertex 5.75198 -4.71858 11.1695
    endloop
  endfacet
  facet normal 0.877024 0.313768 -0.363839
    outer loop
      vertex -7.00778 -0.698897 14.4089
      vertex -5.7058 -4.77875 14.0289
      vertex -7.01584 -0.709996 14.3799
    endloop
  endfacet
  facet normal 0.8772 0.313783 -0.3634
    outer loop
      vertex -5.7058 -4.77875 14.0289
      vertex -7.00778 -0.698897 14.4089
      vertex -5.56339 -4.96435 14.2124
    endloop
  endfacet
  facet normal -0.877194 0.313787 -0.363414
    outer loop
      vertex 5.7058 -4.77875 14.0289
      vertex 7.01027 -0.691529 14.4093
      vertex 7.0207 -0.694916 14.3812
    endloop
  endfacet
  facet normal -0.877201 0.313787 -0.363396
    outer loop
      vertex 7.01027 -0.691529 14.4093
      vertex 5.7058 -4.77875 14.0289
      vertex 5.56339 -4.96435 14.2124
    endloop
  endfacet
  facet normal 0.941367 0.313791 0.123949
    outer loop
      vertex -5.7058 -4.77875 10.9711
      vertex -7.01865 -0.713862 10.6512
      vertex -5.75198 -4.71858 11.1695
    endloop
  endfacet
  facet normal 0.941351 0.313795 0.124062
    outer loop
      vertex -7.01865 -0.713862 10.6512
      vertex -5.7058 -4.77875 10.9711
      vertex -7.01584 -0.709996 10.6201
    endloop
  endfacet
  facet normal -0.941347 0.313802 0.124075
    outer loop
      vertex 7.0207 -0.694916 10.6188
      vertex 5.75198 -4.71858 11.1695
      vertex 7.02428 -0.696078 10.6489
    endloop
  endfacet
  facet normal -0.941367 0.313791 0.123949
    outer loop
      vertex 5.75198 -4.71858 11.1695
      vertex 7.0207 -0.694916 10.6188
      vertex 5.7058 -4.77875 10.9711
    endloop
  endfacet
  facet normal -0.877215 0.31379 -0.363358
    outer loop
      vertex 5.56339 -4.96435 14.2124
      vertex 6.79107 -0.620304 15
      vertex 7.01027 -0.691529 14.4093
    endloop
  endfacet
  facet normal -0.877216 0.31377 -0.363373
    outer loop
      vertex 5.04501 -5.50149 15
      vertex 5.56339 -4.96435 14.2124
      vertex 5.3033 -5.3033 14.5476
    endloop
  endfacet
  facet normal -0.877215 0.313791 -0.363359
    outer loop
      vertex 5.56339 -4.96435 14.2124
      vertex 5.04501 -5.50149 15
      vertex 6.79107 -0.620304 15
    endloop
  endfacet
  facet normal 0.941369 0.31379 -0.123933
    outer loop
      vertex -7.01865 -0.713862 14.3488
      vertex -6.06168 -4.31496 12.5
      vertex -7.1855 -0.943507 12.5
    endloop
  endfacet
  facet normal 0.94137 0.31379 -0.123931
    outer loop
      vertex -6.06168 -4.31496 12.5
      vertex -7.01865 -0.713862 14.3488
      vertex -5.75198 -4.71858 13.8305
    endloop
  endfacet
  facet normal -0.877215 0.313789 0.36336
    outer loop
      vertex 6.79107 -0.620304 10
      vertex 5.7058 -4.77875 10.9711
      vertex 7.0207 -0.694916 10.6188
    endloop
  endfacet
  facet normal -0.877212 0.31379 0.363366
    outer loop
      vertex 5.04501 -5.50149 10
      vertex 5.7058 -4.77875 10.9711
      vertex 6.79107 -0.620304 10
    endloop
  endfacet
  facet normal -0.877212 0.313801 0.363357
    outer loop
      vertex 5.7058 -4.77875 10.9711
      vertex 5.04501 -5.50149 10
      vertex 5.3033 -5.3033 10.4524
    endloop
  endfacet
  facet normal 0.941351 0.313795 -0.124062
    outer loop
      vertex -5.7058 -4.77875 14.0289
      vertex -7.01865 -0.713862 14.3488
      vertex -7.01584 -0.709996 14.3799
    endloop
  endfacet
  facet normal 0.941367 0.313791 -0.123949
    outer loop
      vertex -7.01865 -0.713862 14.3488
      vertex -5.7058 -4.77875 14.0289
      vertex -5.75198 -4.71858 13.8305
    endloop
  endfacet
  facet normal 0.877214 0.313788 0.363364
    outer loop
      vertex -5.7058 -4.77875 10.9711
      vertex -6.84372 -0.473097 10
      vertex -7.01584 -0.709996 10.6201
    endloop
  endfacet
  facet normal 0.877212 0.313801 0.363357
    outer loop
      vertex -5.04501 -5.50149 10
      vertex -5.7058 -4.77875 10.9711
      vertex -5.3033 -5.3033 10.4524
    endloop
  endfacet
  facet normal 0.877212 0.313788 0.363367
    outer loop
      vertex -5.7058 -4.77875 10.9711
      vertex -5.04501 -5.50149 10
      vertex -6.84372 -0.473097 10
    endloop
  endfacet
  facet normal -0.941369 0.31379 -0.123938
    outer loop
      vertex 6.06168 -4.31496 17.5
      vertex 7.24444 0 19.4411
      vertex 7.5 0 17.5
    endloop
  endfacet
  facet normal -0.94137 0.313787 -0.123932
    outer loop
      vertex 7.24444 0 19.4411
      vertex 6.06168 -4.31496 17.5
      vertex 5.75198 -4.71858 18.8305
    endloop
  endfacet
  facet normal -0.941368 0.313789 -0.12395
    outer loop
      vertex 7.24444 0 19.4411
      vertex 5.75198 -4.71858 18.8305
      vertex 5.7058 -4.77875 19.0289
    endloop
  endfacet
  facet normal 0.941369 0.31379 0.123938
    outer loop
      vertex -6.06168 -4.31496 17.5
      vertex -7.24444 0 15.5589
      vertex -7.5 0 17.5
    endloop
  endfacet
  facet normal 0.94137 0.313787 0.123932
    outer loop
      vertex -7.24444 0 15.5589
      vertex -6.06168 -4.31496 17.5
      vertex -5.75198 -4.71858 16.1695
    endloop
  endfacet
  facet normal 0.87723 0.313789 -0.363323
    outer loop
      vertex -7.01296 0 20
      vertex -5.56339 -4.96435 19.2124
      vertex -7.24444 0 19.4411
    endloop
  endfacet
  facet normal 0.877215 0.31379 -0.363359
    outer loop
      vertex -5.04501 -5.50149 20
      vertex -5.56339 -4.96435 19.2124
      vertex -7.01296 0 20
    endloop
  endfacet
  facet normal 0.877216 0.31377 -0.363373
    outer loop
      vertex -5.56339 -4.96435 19.2124
      vertex -5.04501 -5.50149 20
      vertex -5.3033 -5.3033 19.5476
    endloop
  endfacet
  facet normal -0.941369 0.31379 0.123938
    outer loop
      vertex 7.24444 0 15.5589
      vertex 6.06168 -4.31496 17.5
      vertex 7.5 0 17.5
    endloop
  endfacet
  facet normal -0.94137 0.313787 0.123932
    outer loop
      vertex 6.06168 -4.31496 17.5
      vertex 7.24444 0 15.5589
      vertex 5.75198 -4.71858 16.1695
    endloop
  endfacet
  facet normal 0.8772 0.313783 -0.363401
    outer loop
      vertex -5.56339 -4.96435 19.2124
      vertex -5.7058 -4.77875 19.0289
      vertex -7.24444 0 19.4411
    endloop
  endfacet
  facet normal -0.8772 0.313783 -0.363401
    outer loop
      vertex 7.24444 0 19.4411
      vertex 5.7058 -4.77875 19.0289
      vertex 5.56339 -4.96435 19.2124
    endloop
  endfacet
  facet normal 0.941368 0.313789 0.12395
    outer loop
      vertex -5.75198 -4.71858 16.1695
      vertex -5.7058 -4.77875 15.9711
      vertex -7.24444 0 15.5589
    endloop
  endfacet
  facet normal -0.941368 0.313789 0.12395
    outer loop
      vertex 5.75198 -4.71858 16.1695
      vertex 7.24444 0 15.5589
      vertex 5.7058 -4.77875 15.9711
    endloop
  endfacet
  facet normal -0.87723 0.313789 -0.363323
    outer loop
      vertex 5.56339 -4.96435 19.2124
      vertex 7.01296 0 20
      vertex 7.24444 0 19.4411
    endloop
  endfacet
  facet normal -0.877216 0.31377 -0.363373
    outer loop
      vertex 5.04501 -5.50149 20
      vertex 5.56339 -4.96435 19.2124
      vertex 5.3033 -5.3033 19.5476
    endloop
  endfacet
  facet normal -0.877215 0.31379 -0.363359
    outer loop
      vertex 5.56339 -4.96435 19.2124
      vertex 5.04501 -5.50149 20
      vertex 7.01296 0 20
    endloop
  endfacet
  facet normal 0.941369 0.31379 -0.123938
    outer loop
      vertex -7.24444 0 19.4411
      vertex -6.06168 -4.31496 17.5
      vertex -7.5 0 17.5
    endloop
  endfacet
  facet normal 0.94137 0.313787 -0.123932
    outer loop
      vertex -6.06168 -4.31496 17.5
      vertex -7.24444 0 19.4411
      vertex -5.75198 -4.71858 18.8305
    endloop
  endfacet
  facet normal -0.877228 0.313795 0.363322
    outer loop
      vertex 6.79107 -0.620304 15
      vertex 7.24444 0 15.5589
      vertex 7.01296 0 15
    endloop
  endfacet
  facet normal -0.877228 0.313786 0.363332
    outer loop
      vertex 6.79107 -0.620304 15
      vertex 5.7058 -4.77875 15.9711
      vertex 7.24444 0 15.5589
    endloop
  endfacet
  facet normal -0.877212 0.31379 0.363366
    outer loop
      vertex 5.04501 -5.50149 15
      vertex 5.7058 -4.77875 15.9711
      vertex 6.79107 -0.620304 15
    endloop
  endfacet
  facet normal -0.877212 0.313801 0.363357
    outer loop
      vertex 5.7058 -4.77875 15.9711
      vertex 5.04501 -5.50149 15
      vertex 5.3033 -5.3033 15.4524
    endloop
  endfacet
  facet normal 0.941368 0.313789 -0.12395
    outer loop
      vertex -5.7058 -4.77875 19.0289
      vertex -5.75198 -4.71858 18.8305
      vertex -7.24444 0 19.4411
    endloop
  endfacet
  facet normal 0.877224 0.313808 0.363321
    outer loop
      vertex -7.24444 0 15.5589
      vertex -6.84372 -0.473097 15
      vertex -7.01296 0 15
    endloop
  endfacet
  facet normal 0.877225 0.313785 0.36334
    outer loop
      vertex -5.7058 -4.77875 15.9711
      vertex -6.84372 -0.473097 15
      vertex -7.24444 0 15.5589
    endloop
  endfacet
  facet normal 0.877212 0.313801 0.363357
    outer loop
      vertex -5.04501 -5.50149 15
      vertex -5.7058 -4.77875 15.9711
      vertex -5.3033 -5.3033 15.4524
    endloop
  endfacet
  facet normal 0.877212 0.313788 0.363367
    outer loop
      vertex -5.7058 -4.77875 15.9711
      vertex -5.04501 -5.50149 15
      vertex -6.84372 -0.473097 15
    endloop
  endfacet
  facet normal -0.941369 0.31379 -0.123938
    outer loop
      vertex 6.06168 -4.31496 22.5
      vertex 7.24444 0 24.4411
      vertex 7.5 0 22.5
    endloop
  endfacet
  facet normal -0.94137 0.313787 -0.123932
    outer loop
      vertex 7.24444 0 24.4411
      vertex 6.06168 -4.31496 22.5
      vertex 5.75198 -4.71858 23.8305
    endloop
  endfacet
  facet normal -0.941369 0.31379 0.123938
    outer loop
      vertex 7.24444 0 20.5589
      vertex 6.06168 -4.31496 22.5
      vertex 7.5 0 22.5
    endloop
  endfacet
  facet normal -0.94137 0.313787 0.123932
    outer loop
      vertex 6.06168 -4.31496 22.5
      vertex 7.24444 0 20.5589
      vertex 5.75198 -4.71858 21.1695
    endloop
  endfacet
  facet normal 0.941369 0.31379 -0.123938
    outer loop
      vertex -7.24444 0 24.4411
      vertex -6.06168 -4.31496 22.5
      vertex -7.5 0 22.5
    endloop
  endfacet
  facet normal 0.94137 0.313787 -0.123932
    outer loop
      vertex -6.06168 -4.31496 22.5
      vertex -7.24444 0 24.4411
      vertex -5.75198 -4.71858 23.8305
    endloop
  endfacet
  facet normal 0.87723 0.313789 -0.363323
    outer loop
      vertex -7.01296 0 25
      vertex -5.56339 -4.96435 24.2124
      vertex -7.24444 0 24.4411
    endloop
  endfacet
  facet normal 0.877215 0.31379 -0.363359
    outer loop
      vertex -5.04501 -5.50149 25
      vertex -5.56339 -4.96435 24.2124
      vertex -7.01296 0 25
    endloop
  endfacet
  facet normal 0.877216 0.31377 -0.363373
    outer loop
      vertex -5.56339 -4.96435 24.2124
      vertex -5.04501 -5.50149 25
      vertex -5.3033 -5.3033 24.5476
    endloop
  endfacet
  facet normal 0.941369 0.31379 0.123938
    outer loop
      vertex -6.06168 -4.31496 22.5
      vertex -7.24444 0 20.5589
      vertex -7.5 0 22.5
    endloop
  endfacet
  facet normal 0.94137 0.313787 0.123932
    outer loop
      vertex -7.24444 0 20.5589
      vertex -6.06168 -4.31496 22.5
      vertex -5.75198 -4.71858 21.1695
    endloop
  endfacet
  facet normal 0.941368 0.313789 0.12395
    outer loop
      vertex -5.75198 -4.71858 21.1695
      vertex -5.7058 -4.77875 20.9711
      vertex -7.24444 0 20.5589
    endloop
  endfacet
  facet normal 0.8772 0.313783 -0.363401
    outer loop
      vertex -5.56339 -4.96435 24.2124
      vertex -5.7058 -4.77875 24.0289
      vertex -7.24444 0 24.4411
    endloop
  endfacet
  facet normal 0.941368 0.313789 -0.12395
    outer loop
      vertex -5.7058 -4.77875 24.0289
      vertex -5.75198 -4.71858 23.8305
      vertex -7.24444 0 24.4411
    endloop
  endfacet
  facet normal 0.877231 0.313786 0.363323
    outer loop
      vertex -5.7058 -4.77875 20.9711
      vertex -7.01296 0 20
      vertex -7.24444 0 20.5589
    endloop
  endfacet
  facet normal 0.877212 0.313801 0.363357
    outer loop
      vertex -5.04501 -5.50149 20
      vertex -5.7058 -4.77875 20.9711
      vertex -5.3033 -5.3033 20.4524
    endloop
  endfacet
  facet normal 0.877212 0.313789 0.363366
    outer loop
      vertex -5.7058 -4.77875 20.9711
      vertex -5.04501 -5.50149 20
      vertex -7.01296 0 20
    endloop
  endfacet
  facet normal -0.87723 0.313789 -0.363323
    outer loop
      vertex 5.56339 -4.96435 24.2124
      vertex 7.01296 0 25
      vertex 7.24444 0 24.4411
    endloop
  endfacet
  facet normal -0.877216 0.31377 -0.363373
    outer loop
      vertex 5.04501 -5.50149 25
      vertex 5.56339 -4.96435 24.2124
      vertex 5.3033 -5.3033 24.5476
    endloop
  endfacet
  facet normal -0.877215 0.31379 -0.363359
    outer loop
      vertex 5.56339 -4.96435 24.2124
      vertex 5.04501 -5.50149 25
      vertex 7.01296 0 25
    endloop
  endfacet
  facet normal -0.877231 0.313786 0.363323
    outer loop
      vertex 7.01296 0 20
      vertex 5.7058 -4.77875 20.9711
      vertex 7.24444 0 20.5589
    endloop
  endfacet
  facet normal -0.877212 0.313789 0.363366
    outer loop
      vertex 5.04501 -5.50149 20
      vertex 5.7058 -4.77875 20.9711
      vertex 7.01296 0 20
    endloop
  endfacet
  facet normal -0.877212 0.313801 0.363357
    outer loop
      vertex 5.7058 -4.77875 20.9711
      vertex 5.04501 -5.50149 20
      vertex 5.3033 -5.3033 20.4524
    endloop
  endfacet
  facet normal -0.941368 0.313789 0.12395
    outer loop
      vertex 5.75198 -4.71858 21.1695
      vertex 7.24444 0 20.5589
      vertex 5.7058 -4.77875 20.9711
    endloop
  endfacet
  facet normal -0.8772 0.313783 -0.363401
    outer loop
      vertex 7.24444 0 24.4411
      vertex 5.7058 -4.77875 24.0289
      vertex 5.56339 -4.96435 24.2124
    endloop
  endfacet
  facet normal -0.941368 0.313789 -0.12395
    outer loop
      vertex 7.24444 0 24.4411
      vertex 5.75198 -4.71858 23.8305
      vertex 5.7058 -4.77875 24.0289
    endloop
  endfacet
  facet normal -0.941369 0.31379 -0.123938
    outer loop
      vertex 6.06168 -4.31496 27.5
      vertex 7.24444 0 29.4411
      vertex 7.5 0 27.5
    endloop
  endfacet
  facet normal -0.94137 0.313787 -0.123932
    outer loop
      vertex 7.24444 0 29.4411
      vertex 6.06168 -4.31496 27.5
      vertex 5.75198 -4.71858 28.8305
    endloop
  endfacet
  facet normal -0.941369 0.31379 0.123938
    outer loop
      vertex 7.24444 0 25.5589
      vertex 6.06168 -4.31496 27.5
      vertex 7.5 0 27.5
    endloop
  endfacet
  facet normal -0.94137 0.313787 0.123932
    outer loop
      vertex 6.06168 -4.31496 27.5
      vertex 7.24444 0 25.5589
      vertex 5.75198 -4.71858 26.1695
    endloop
  endfacet
  facet normal 0.941369 0.31379 -0.123938
    outer loop
      vertex -7.24444 0 29.4411
      vertex -6.06168 -4.31496 27.5
      vertex -7.5 0 27.5
    endloop
  endfacet
  facet normal 0.94137 0.313787 -0.123932
    outer loop
      vertex -6.06168 -4.31496 27.5
      vertex -7.24444 0 29.4411
      vertex -5.75198 -4.71858 28.8305
    endloop
  endfacet
  facet normal 0.87723 0.313789 -0.363323
    outer loop
      vertex -7.01296 0 30
      vertex -5.56339 -4.96435 29.2124
      vertex -7.24444 0 29.4411
    endloop
  endfacet
  facet normal 0.877215 0.31379 -0.363359
    outer loop
      vertex -5.04501 -5.50149 30
      vertex -5.56339 -4.96435 29.2124
      vertex -7.01296 0 30
    endloop
  endfacet
  facet normal 0.877216 0.31377 -0.363373
    outer loop
      vertex -5.56339 -4.96435 29.2124
      vertex -5.04501 -5.50149 30
      vertex -5.3033 -5.3033 29.5476
    endloop
  endfacet
  facet normal 0.941369 0.31379 0.123938
    outer loop
      vertex -6.06168 -4.31496 27.5
      vertex -7.24444 0 25.5589
      vertex -7.5 0 27.5
    endloop
  endfacet
  facet normal 0.94137 0.313787 0.123932
    outer loop
      vertex -7.24444 0 25.5589
      vertex -6.06168 -4.31496 27.5
      vertex -5.75198 -4.71858 26.1695
    endloop
  endfacet
  facet normal 0.941368 0.313789 0.12395
    outer loop
      vertex -5.75198 -4.71858 26.1695
      vertex -5.7058 -4.77875 25.9711
      vertex -7.24444 0 25.5589
    endloop
  endfacet
  facet normal 0.8772 0.313783 -0.363401
    outer loop
      vertex -5.56339 -4.96435 29.2124
      vertex -5.7058 -4.77875 29.0289
      vertex -7.24444 0 29.4411
    endloop
  endfacet
  facet normal 0.941368 0.313789 -0.12395
    outer loop
      vertex -5.7058 -4.77875 29.0289
      vertex -5.75198 -4.71858 28.8305
      vertex -7.24444 0 29.4411
    endloop
  endfacet
  facet normal 0.877231 0.313786 0.363323
    outer loop
      vertex -5.7058 -4.77875 25.9711
      vertex -7.01296 0 25
      vertex -7.24444 0 25.5589
    endloop
  endfacet
  facet normal 0.877212 0.313801 0.363357
    outer loop
      vertex -5.04501 -5.50149 25
      vertex -5.7058 -4.77875 25.9711
      vertex -5.3033 -5.3033 25.4524
    endloop
  endfacet
  facet normal 0.877212 0.313789 0.363366
    outer loop
      vertex -5.7058 -4.77875 25.9711
      vertex -5.04501 -5.50149 25
      vertex -7.01296 0 25
    endloop
  endfacet
  facet normal -0.87723 0.313789 -0.363323
    outer loop
      vertex 5.56339 -4.96435 29.2124
      vertex 7.01296 0 30
      vertex 7.24444 0 29.4411
    endloop
  endfacet
  facet normal -0.877216 0.31377 -0.363373
    outer loop
      vertex 5.04501 -5.50149 30
      vertex 5.56339 -4.96435 29.2124
      vertex 5.3033 -5.3033 29.5476
    endloop
  endfacet
  facet normal -0.877215 0.31379 -0.363359
    outer loop
      vertex 5.56339 -4.96435 29.2124
      vertex 5.04501 -5.50149 30
      vertex 7.01296 0 30
    endloop
  endfacet
  facet normal -0.877231 0.313786 0.363323
    outer loop
      vertex 7.01296 0 25
      vertex 5.7058 -4.77875 25.9711
      vertex 7.24444 0 25.5589
    endloop
  endfacet
  facet normal -0.877212 0.313789 0.363366
    outer loop
      vertex 5.04501 -5.50149 25
      vertex 5.7058 -4.77875 25.9711
      vertex 7.01296 0 25
    endloop
  endfacet
  facet normal -0.877212 0.313801 0.363357
    outer loop
      vertex 5.7058 -4.77875 25.9711
      vertex 5.04501 -5.50149 25
      vertex 5.3033 -5.3033 25.4524
    endloop
  endfacet
  facet normal -0.941368 0.313789 0.12395
    outer loop
      vertex 5.75198 -4.71858 26.1695
      vertex 7.24444 0 25.5589
      vertex 5.7058 -4.77875 25.9711
    endloop
  endfacet
  facet normal -0.8772 0.313783 -0.363401
    outer loop
      vertex 7.24444 0 29.4411
      vertex 5.7058 -4.77875 29.0289
      vertex 5.56339 -4.96435 29.2124
    endloop
  endfacet
  facet normal -0.941368 0.313789 -0.12395
    outer loop
      vertex 7.24444 0 29.4411
      vertex 5.75198 -4.71858 28.8305
      vertex 5.7058 -4.77875 29.0289
    endloop
  endfacet
  facet normal 0.309017 0.951057 -0
    outer loop
      vertex -7.19098 -0.951056 7.5
      vertex -7.383 -0.888665 15
      vertex -7.19098 -0.951056 15
    endloop
  endfacet
  facet normal 0.309017 0.951057 0
    outer loop
      vertex -7.383 -0.888665 15
      vertex -7.19098 -0.951056 7.5
      vertex -7.383 -0.888665 7.5
    endloop
  endfacet
  facet normal 0 0 -1
    outer loop
      vertex -7.383 -0.888665 15
      vertex -6.84372 -0.473097 15
      vertex -7.19098 -0.951056 15
    endloop
  endfacet
  facet normal 0 0 -1
    outer loop
      vertex -7.01296 0 15
      vertex -7.19098 0.951056 15
      vertex -6.5 0 15
    endloop
  endfacet
  facet normal 0 0 -1
    outer loop
      vertex -7.5 0 15
      vertex -6.84372 -0.473097 15
      vertex -7.383 -0.888665 15
    endloop
  endfacet
  facet normal 0 0 -1
    outer loop
      vertex -6.84372 -0.473097 15
      vertex -7.5 0 15
      vertex -7.01296 0 15
    endloop
  endfacet
  facet normal 0 -0 -1
    outer loop
      vertex -7.383 0.888665 15
      vertex -7.01296 0 15
      vertex -7.5 0 15
    endloop
  endfacet
  facet normal 0 0 -1
    outer loop
      vertex -7.01296 0 15
      vertex -7.383 0.888665 15
      vertex -7.19098 0.951056 15
    endloop
  endfacet
  facet normal 0.309017 -0.951057 0
    outer loop
      vertex -7.383 0.888665 7.5
      vertex -7.19098 0.951056 15
      vertex -7.383 0.888665 15
    endloop
  endfacet
  facet normal 0.309017 -0.951057 0
    outer loop
      vertex -7.19098 0.951056 15
      vertex -7.383 0.888665 7.5
      vertex -7.19098 0.951056 7.5
    endloop
  endfacet
  facet normal -0.809018 -0.587784 0
    outer loop
      vertex -6.5 0 7.5
      vertex -7.19098 0.951056 15
      vertex -7.19098 0.951056 7.5
    endloop
  endfacet
  facet normal -0.809018 -0.587784 0
    outer loop
      vertex -7.19098 0.951056 15
      vertex -6.5 0 7.5
      vertex -6.5 0 15
    endloop
  endfacet
  facet normal -0.809152 0.587599 0
    outer loop
      vertex -7.01584 -0.709996 10.6201
      vertex -7.00778 -0.698897 9.40894
      vertex -7.01584 -0.709996 9.37989
    endloop
  endfacet
  facet normal -0.809009 0.587796 2.75584e-06
    outer loop
      vertex -7.00778 -0.698897 9.40894
      vertex -7.01584 -0.709996 10.6201
      vertex -6.84372 -0.473097 10
    endloop
  endfacet
  facet normal -0.808899 0.587948 0
    outer loop
      vertex -7.01865 -0.713862 9.34876
      vertex -7.01584 -0.709996 10.6201
      vertex -7.01584 -0.709996 9.37989
    endloop
  endfacet
  facet normal -0.808899 0.587948 0
    outer loop
      vertex -7.01865 -0.713862 9.34876
      vertex -7.01865 -0.713862 10.6512
      vertex -7.01584 -0.709996 10.6201
    endloop
  endfacet
  facet normal -0.809255 0.587458 6.35544e-05
    outer loop
      vertex -7.19098 -0.951056 7.5
      vertex -7.01865 -0.713862 9.34876
      vertex -7.1855 -0.943507 7.5
    endloop
  endfacet
  facet normal -0.809019 0.587782 0
    outer loop
      vertex -7.01865 -0.713862 9.34876
      vertex -7.19098 -0.951056 7.5
      vertex -7.01865 -0.713862 10.6512
    endloop
  endfacet
  facet normal -0.809015 0.587788 -7.62979e-07
    outer loop
      vertex -7.01865 -0.713862 10.6512
      vertex -7.19098 -0.951056 7.5
      vertex -7.1855 -0.943507 12.5
    endloop
  endfacet
  facet normal -0.809084 0.587693 -5.45442e-05
    outer loop
      vertex -7.19098 -0.951056 15
      vertex -7.00778 -0.698897 14.4089
      vertex -7.01584 -0.709996 14.3799
    endloop
  endfacet
  facet normal -0.809015 0.587788 7.57564e-06
    outer loop
      vertex -7.00778 -0.698897 14.4089
      vertex -7.19098 -0.951056 15
      vertex -6.84372 -0.473097 15
    endloop
  endfacet
  facet normal -0.808989 0.587824 2.34955e-05
    outer loop
      vertex -7.01865 -0.713862 14.3488
      vertex -7.19098 -0.951056 15
      vertex -7.01584 -0.709996 14.3799
    endloop
  endfacet
  facet normal -0.809018 0.587785 1.50786e-06
    outer loop
      vertex -7.1855 -0.943507 12.5
      vertex -7.19098 -0.951056 15
      vertex -7.01865 -0.713862 14.3488
    endloop
  endfacet
  facet normal -0.809255 0.587458 0
    outer loop
      vertex -7.19098 -0.951056 15
      vertex -7.1855 -0.943507 12.5
      vertex -7.19098 -0.951056 7.5
    endloop
  endfacet
  facet normal 0.30902 0.951056 -2.98453e-06
    outer loop
      vertex 7.3926 -0.815755 15
      vertex 7.01027 -0.691529 14.4093
      vertex 6.79107 -0.620304 15
    endloop
  endfacet
  facet normal 0.308959 0.951075 4.08162e-05
    outer loop
      vertex 7.3926 -0.815755 15
      vertex 7.0207 -0.694916 14.3812
      vertex 7.01027 -0.691529 14.4093
    endloop
  endfacet
  facet normal 0.308971 0.951071 3.23291e-05
    outer loop
      vertex 7.3926 -0.815755 15
      vertex 7.02428 -0.696078 14.3511
      vertex 7.0207 -0.694916 14.3812
    endloop
  endfacet
  facet normal 0.309023 0.951055 -5.03398e-08
    outer loop
      vertex 7.3926 -0.815755 15
      vertex 7.24416 -0.767523 12.5
      vertex 7.02428 -0.696078 14.3511
    endloop
  endfacet
  facet normal 0.309023 0.951054 3.02028e-08
    outer loop
      vertex 7.3926 -0.815755 7.5
      vertex 7.02428 -0.696078 10.6489
      vertex 7.24416 -0.767523 12.5
    endloop
  endfacet
  facet normal 0.309023 0.951054 -1.56477e-06
    outer loop
      vertex 7.0207 -0.694916 10.6188
      vertex 7.01027 -0.691529 9.40928
      vertex 6.79107 -0.620304 10
    endloop
  endfacet
  facet normal 0.309023 0.951055 -0
    outer loop
      vertex 7.02428 -0.696078 9.35106
      vertex 7.02428 -0.696078 10.6489
      vertex 7.3926 -0.815755 7.5
    endloop
  endfacet
  facet normal 0.308859 0.951108 0
    outer loop
      vertex 7.0207 -0.694916 10.6188
      vertex 7.0207 -0.694916 9.38119
      vertex 7.01027 -0.691529 9.40928
    endloop
  endfacet
  facet normal 0.308726 0.951151 0
    outer loop
      vertex 7.0207 -0.694916 10.6188
      vertex 7.02428 -0.696078 9.35106
      vertex 7.0207 -0.694916 9.38119
    endloop
  endfacet
  facet normal 0.309022 0.951055 -0
    outer loop
      vertex 7.3926 -0.815755 7.5
      vertex 7.24416 -0.767523 12.5
      vertex 7.3926 -0.815755 15
    endloop
  endfacet
  facet normal 0.308726 0.951151 0
    outer loop
      vertex 7.02428 -0.696078 10.6489
      vertex 7.02428 -0.696078 9.35106
      vertex 7.0207 -0.694916 10.6188
    endloop
  endfacet
  facet normal 0.309022 0.951055 -1.51049e-07
    outer loop
      vertex 7.02428 -0.696078 9.35106
      vertex 7.3926 -0.815755 7.5
      vertex 7.24416 -0.767523 7.5
    endloop
  endfacet
  facet normal 0.309017 -0.951057 0
    outer loop
      vertex 6.69098 0.587785 7.5
      vertex 7.3926 0.815755 15
      vertex 6.69098 0.587785 15
    endloop
  endfacet
  facet normal 0.309017 -0.951057 0
    outer loop
      vertex 7.3926 0.815755 15
      vertex 6.69098 0.587785 7.5
      vertex 7.3926 0.815755 7.5
    endloop
  endfacet
  facet normal 1 -0 0
    outer loop
      vertex 6.69098 0 15
      vertex 6.69098 0.587785 7.5
      vertex 6.69098 0.587785 15
    endloop
  endfacet
  facet normal 1 0 0
    outer loop
      vertex 6.69098 0.587785 7.5
      vertex 6.69098 0 15
      vertex 6.69098 0 7.5
    endloop
  endfacet
  facet normal 0 0 -1
    outer loop
      vertex 7.01296 0 15
      vertex 7.5 0 15
      vertex 7.3926 -0.815755 15
    endloop
  endfacet
  facet normal 0 0 -1
    outer loop
      vertex 7.5 0 15
      vertex 7.01296 0 15
      vertex 7.3926 0.815755 15
    endloop
  endfacet
  facet normal 0 -0 -1
    outer loop
      vertex 7.01296 0 15
      vertex 7.3926 -0.815755 15
      vertex 6.79107 -0.620304 15
    endloop
  endfacet
  facet normal 0 0 -1
    outer loop
      vertex 6.69098 0.587785 15
      vertex 7.01296 0 15
      vertex 6.69098 0 15
    endloop
  endfacet
  facet normal 0 0 -1
    outer loop
      vertex 7.01296 0 15
      vertex 6.69098 0.587785 15
      vertex 7.3926 0.815755 15
    endloop
  endfacet
  facet normal -0.382682 0.92388 0
    outer loop
      vertex -1.94114 7.24444 0
      vertex -3.75 6.49519 30
      vertex -1.94114 7.24444 30
    endloop
  endfacet
  facet normal -0.382682 0.92388 0
    outer loop
      vertex -3.75 6.49519 30
      vertex -1.94114 7.24444 0
      vertex -3.75 6.49519 0
    endloop
  endfacet
  facet normal 0.991445 0.130526 0
    outer loop
      vertex 7.24444 1.94114 30
      vertex 7.3926 0.815755 15
      vertex 7.24444 1.94114 7.5
    endloop
  endfacet
  facet normal 0.991445 0.130528 -0
    outer loop
      vertex 7.5 0 27.5
      vertex 7.24444 1.94114 30
      vertex 7.5 0 30
    endloop
  endfacet
  facet normal 0.991445 0.130528 -0
    outer loop
      vertex 7.5 0 22.5
      vertex 7.24444 1.94114 30
      vertex 7.5 0 27.5
    endloop
  endfacet
  facet normal 0.991444 0.130529 -1.96028e-07
    outer loop
      vertex 7.24444 1.94114 30
      vertex 7.5 0 22.5
      vertex 7.3926 0.815755 15
    endloop
  endfacet
  facet normal 0.991444 0.130531 -0
    outer loop
      vertex 7.5 0 17.5
      vertex 7.3926 0.815755 15
      vertex 7.5 0 22.5
    endloop
  endfacet
  facet normal 0.991444 0.130531 0
    outer loop
      vertex 7.3926 0.815755 15
      vertex 7.5 0 17.5
      vertex 7.5 0 15
    endloop
  endfacet
  facet normal 0.991445 0.130526 0
    outer loop
      vertex 7.24444 1.94114 7.5
      vertex 7.3926 0.815755 15
      vertex 7.3926 0.815755 7.5
    endloop
  endfacet
  facet normal 0.608756 -0.793358 0
    outer loop
      vertex 5.3033 -5.3033 30
      vertex 5.04501 -5.50149 30
      vertex 5.3033 -5.3033 29.5476
    endloop
  endfacet
  facet normal 0.608756 -0.793358 0
    outer loop
      vertex 5.3033 -5.3033 10.4524
      vertex 5.04501 -5.50149 10
      vertex 5.3033 -5.3033 9.5476
    endloop
  endfacet
  facet normal 0.608756 -0.793358 0
    outer loop
      vertex 5.3033 -5.3033 15.4524
      vertex 5.04501 -5.50149 15
      vertex 5.3033 -5.3033 14.5476
    endloop
  endfacet
  facet normal 0.608756 -0.793358 0
    outer loop
      vertex 5.3033 -5.3033 20.4524
      vertex 5.04501 -5.50149 20
      vertex 5.3033 -5.3033 19.5476
    endloop
  endfacet
  facet normal 0.608756 -0.793358 0
    outer loop
      vertex 5.3033 -5.3033 25.4524
      vertex 5.04501 -5.50149 25
      vertex 5.3033 -5.3033 24.5476
    endloop
  endfacet
  facet normal 0.991445 -0.130528 0
    outer loop
      vertex 7.24444 -1.94114 30
      vertex 7.5 0 27.5
      vertex 7.5 0 30
    endloop
  endfacet
  facet normal 0.991445 -0.130528 0
    outer loop
      vertex 7.5 0 27.5
      vertex 7.24444 -1.94114 30
      vertex 7.5 0 22.5
    endloop
  endfacet
  facet normal 0.991444 -0.130529 -1.96028e-07
    outer loop
      vertex 7.3926 -0.815755 15
      vertex 7.5 0 22.5
      vertex 7.24444 -1.94114 30
    endloop
  endfacet
  facet normal 0.991444 -0.130531 0
    outer loop
      vertex 7.5 0 17.5
      vertex 7.3926 -0.815755 15
      vertex 7.5 0 15
    endloop
  endfacet
  facet normal 0.991444 -0.130531 0
    outer loop
      vertex 7.5 0 22.5
      vertex 7.3926 -0.815755 15
      vertex 7.5 0 17.5
    endloop
  endfacet
  facet normal 0.991445 -0.130526 0
    outer loop
      vertex 7.24444 -1.94114 7.5
      vertex 7.3926 -0.815755 15
      vertex 7.24444 -1.94114 30
    endloop
  endfacet
  facet normal 0.991445 -0.130526 0
    outer loop
      vertex 7.3926 -0.815755 15
      vertex 7.24444 -1.94114 7.5
      vertex 7.3926 -0.815755 7.5
    endloop
  endfacet
  facet normal 0.793361 -0.608751 0
    outer loop
      vertex 5.75198 -4.71858 16.1695
      vertex 6.06168 -4.31496 12.5
      vertex 6.06168 -4.31496 17.5
    endloop
  endfacet
  facet normal 0.793361 -0.608751 0
    outer loop
      vertex 5.75198 -4.71858 16.1695
      vertex 5.75198 -4.71858 13.8305
      vertex 6.06168 -4.31496 12.5
    endloop
  endfacet
  facet normal 0.79329 -0.608844 0
    outer loop
      vertex 5.7058 -4.77875 15.9711
      vertex 5.75198 -4.71858 13.8305
      vertex 5.75198 -4.71858 16.1695
    endloop
  endfacet
  facet normal 0.79329 -0.608844 0
    outer loop
      vertex 5.7058 -4.77875 15.9711
      vertex 5.7058 -4.77875 14.0289
      vertex 5.75198 -4.71858 13.8305
    endloop
  endfacet
  facet normal 0.793365 -0.608746 0
    outer loop
      vertex 5.7058 -4.77875 15.9711
      vertex 5.56339 -4.96435 14.2124
      vertex 5.7058 -4.77875 14.0289
    endloop
  endfacet
  facet normal 0.793353 -0.608762 2.72163e-06
    outer loop
      vertex 5.3033 -5.3033 15.4524
      vertex 5.56339 -4.96435 14.2124
      vertex 5.7058 -4.77875 15.9711
    endloop
  endfacet
  facet normal 0.793348 -0.608768 0
    outer loop
      vertex 5.56339 -4.96435 14.2124
      vertex 5.3033 -5.3033 15.4524
      vertex 5.3033 -5.3033 14.5476
    endloop
  endfacet
  facet normal 0.793361 -0.608751 0
    outer loop
      vertex 5.75198 -4.71858 21.1695
      vertex 6.06168 -4.31496 17.5
      vertex 6.06168 -4.31496 22.5
    endloop
  endfacet
  facet normal 0.793361 -0.608751 0
    outer loop
      vertex 5.75198 -4.71858 21.1695
      vertex 5.75198 -4.71858 18.8305
      vertex 6.06168 -4.31496 17.5
    endloop
  endfacet
  facet normal 0.79329 -0.608844 0
    outer loop
      vertex 5.7058 -4.77875 20.9711
      vertex 5.75198 -4.71858 18.8305
      vertex 5.75198 -4.71858 21.1695
    endloop
  endfacet
  facet normal 0.79329 -0.608844 0
    outer loop
      vertex 5.7058 -4.77875 20.9711
      vertex 5.7058 -4.77875 19.0289
      vertex 5.75198 -4.71858 18.8305
    endloop
  endfacet
  facet normal 0.793365 -0.608746 0
    outer loop
      vertex 5.7058 -4.77875 20.9711
      vertex 5.56339 -4.96435 19.2124
      vertex 5.7058 -4.77875 19.0289
    endloop
  endfacet
  facet normal 0.793353 -0.608762 2.72163e-06
    outer loop
      vertex 5.3033 -5.3033 20.4524
      vertex 5.56339 -4.96435 19.2124
      vertex 5.7058 -4.77875 20.9711
    endloop
  endfacet
  facet normal 0.793348 -0.608768 0
    outer loop
      vertex 5.56339 -4.96435 19.2124
      vertex 5.3033 -5.3033 20.4524
      vertex 5.3033 -5.3033 19.5476
    endloop
  endfacet
  facet normal 0.793361 -0.608751 0
    outer loop
      vertex 5.75198 -4.71858 26.1695
      vertex 6.06168 -4.31496 22.5
      vertex 6.06168 -4.31496 27.5
    endloop
  endfacet
  facet normal 0.793361 -0.608751 0
    outer loop
      vertex 5.75198 -4.71858 26.1695
      vertex 5.75198 -4.71858 23.8305
      vertex 6.06168 -4.31496 22.5
    endloop
  endfacet
  facet normal 0.79329 -0.608844 0
    outer loop
      vertex 5.7058 -4.77875 25.9711
      vertex 5.75198 -4.71858 23.8305
      vertex 5.75198 -4.71858 26.1695
    endloop
  endfacet
  facet normal 0.79329 -0.608844 0
    outer loop
      vertex 5.7058 -4.77875 25.9711
      vertex 5.7058 -4.77875 24.0289
      vertex 5.75198 -4.71858 23.8305
    endloop
  endfacet
  facet normal 0.793365 -0.608746 0
    outer loop
      vertex 5.7058 -4.77875 25.9711
      vertex 5.56339 -4.96435 24.2124
      vertex 5.7058 -4.77875 24.0289
    endloop
  endfacet
  facet normal 0.793353 -0.608762 2.72163e-06
    outer loop
      vertex 5.3033 -5.3033 25.4524
      vertex 5.56339 -4.96435 24.2124
      vertex 5.7058 -4.77875 25.9711
    endloop
  endfacet
  facet normal 0.793348 -0.608768 0
    outer loop
      vertex 5.56339 -4.96435 24.2124
      vertex 5.3033 -5.3033 25.4524
      vertex 5.3033 -5.3033 24.5476
    endloop
  endfacet
  facet normal 0.793353 -0.608762 0
    outer loop
      vertex 6.06168 -4.31496 22.5
      vertex 6.49519 -3.75 30
      vertex 6.06168 -4.31496 27.5
    endloop
  endfacet
  facet normal 0.793358 -0.608756 -2.34043e-06
    outer loop
      vertex 6.49519 -3.75 30
      vertex 5.75198 -4.71858 28.8305
      vertex 6.06168 -4.31496 27.5
    endloop
  endfacet
  facet normal 0.793339 -0.608781 3.04562e-05
    outer loop
      vertex 6.49519 -3.75 30
      vertex 5.7058 -4.77875 29.0289
      vertex 5.75198 -4.71858 28.8305
    endloop
  endfacet
  facet normal 0.793359 -0.608754 -1.39672e-05
    outer loop
      vertex 6.49519 -3.75 30
      vertex 5.56339 -4.96435 29.2124
      vertex 5.7058 -4.77875 29.0289
    endloop
  endfacet
  facet normal 0.793353 -0.608762 4.33291e-06
    outer loop
      vertex 5.3033 -5.3033 30
      vertex 5.56339 -4.96435 29.2124
      vertex 6.49519 -3.75 30
    endloop
  endfacet
  facet normal 0.793348 -0.608768 0
    outer loop
      vertex 5.56339 -4.96435 29.2124
      vertex 5.3033 -5.3033 30
      vertex 5.3033 -5.3033 29.5476
    endloop
  endfacet
  facet normal 0.793353 -0.608762 0
    outer loop
      vertex 6.06168 -4.31496 17.5
      vertex 6.49519 -3.75 30
      vertex 6.06168 -4.31496 22.5
    endloop
  endfacet
  facet normal 0.793353 -0.608762 0
    outer loop
      vertex 6.49519 -3.75 30
      vertex 6.06168 -4.31496 17.5
      vertex 6.49519 -3.75 7.5
    endloop
  endfacet
  facet normal 0.793353 -0.608762 0
    outer loop
      vertex 6.06168 -4.31496 12.5
      vertex 6.49519 -3.75 7.5
      vertex 6.06168 -4.31496 17.5
    endloop
  endfacet
  facet normal 0.793359 -0.608754 1.4878e-06
    outer loop
      vertex 5.75198 -4.71858 11.1695
      vertex 6.49519 -3.75 7.5
      vertex 6.06168 -4.31496 12.5
    endloop
  endfacet
  facet normal 0.793321 -0.608804 -1.93618e-05
    outer loop
      vertex 5.7058 -4.77875 10.9711
      vertex 6.49519 -3.75 7.5
      vertex 5.75198 -4.71858 11.1695
    endloop
  endfacet
  facet normal 0.793353 -0.608762 -5.48213e-06
    outer loop
      vertex 6.49519 -3.75 7.5
      vertex 5.75198 -4.71858 8.83051
      vertex 6.06168 -4.31496 7.5
    endloop
  endfacet
  facet normal 0.793352 -0.608763 0
    outer loop
      vertex 5.7058 -4.77875 9.02886
      vertex 6.49519 -3.75 7.5
      vertex 5.7058 -4.77875 10.9711
    endloop
  endfacet
  facet normal 0.793404 -0.608696 7.13582e-05
    outer loop
      vertex 6.49519 -3.75 7.5
      vertex 5.7058 -4.77875 9.02886
      vertex 5.75198 -4.71858 8.83051
    endloop
  endfacet
  facet normal 0.793365 -0.608746 0
    outer loop
      vertex 5.7058 -4.77875 10.9711
      vertex 5.56339 -4.96435 9.2124
      vertex 5.7058 -4.77875 9.02886
    endloop
  endfacet
  facet normal 0.793353 -0.608762 2.72163e-06
    outer loop
      vertex 5.3033 -5.3033 10.4524
      vertex 5.56339 -4.96435 9.2124
      vertex 5.7058 -4.77875 10.9711
    endloop
  endfacet
  facet normal 0.793348 -0.608768 0
    outer loop
      vertex 5.56339 -4.96435 9.2124
      vertex 5.3033 -5.3033 10.4524
      vertex 5.3033 -5.3033 9.5476
    endloop
  endfacet
  facet normal 0.923879 0.382685 0
    outer loop
      vertex 6.49519 3.75 30
      vertex 7.01296 2.5 7.5
      vertex 6.49519 3.75 0
    endloop
  endfacet
  facet normal 0.92388 0.382682 2.48389e-07
    outer loop
      vertex 7.24444 1.94114 30
      vertex 7.01296 2.5 7.5
      vertex 6.49519 3.75 30
    endloop
  endfacet
  facet normal 0.923884 0.382673 0
    outer loop
      vertex 7.01296 2.5 7.5
      vertex 7.24444 1.94114 30
      vertex 7.24444 1.94114 7.5
    endloop
  endfacet
  facet normal 0.923879 0.382685 0
    outer loop
      vertex 6.49519 3.75 0
      vertex 7.01296 2.5 7.5
      vertex 7.01296 2.5 0
    endloop
  endfacet
  facet normal 0.793353 0.608762 0
    outer loop
      vertex 6.49519 3.75 30
      vertex 5.3033 5.3033 0
      vertex 5.3033 5.3033 30
    endloop
  endfacet
  facet normal 0.793353 0.608762 0
    outer loop
      vertex 5.3033 5.3033 0
      vertex 6.49519 3.75 30
      vertex 6.49519 3.75 0
    endloop
  endfacet
  facet normal -0.130528 0.991445 0
    outer loop
      vertex 0 7.5 0
      vertex -1.94114 7.24444 30
      vertex 0 7.5 30
    endloop
  endfacet
  facet normal -0.130528 0.991445 0
    outer loop
      vertex -1.94114 7.24444 30
      vertex 0 7.5 0
      vertex -1.94114 7.24444 0
    endloop
  endfacet
  facet normal 0 0 -1
    outer loop
      vertex 7.01296 2.5 0
      vertex 5.3033 5.3033 0
      vertex 6.49519 3.75 0
    endloop
  endfacet
  facet normal 0 0 -1
    outer loop
      vertex 7.01296 2.5 0
      vertex 3.75 6.49519 0
      vertex 5.3033 5.3033 0
    endloop
  endfacet
  facet normal 0 0 -1
    outer loop
      vertex 7.01296 2.5 0
      vertex 1.94114 7.24444 0
      vertex 3.75 6.49519 0
    endloop
  endfacet
  facet normal 0 0 -1
    outer loop
      vertex 7.01296 2.5 0
      vertex 0 7.5 0
      vertex 1.94114 7.24444 0
    endloop
  endfacet
  facet normal 0 0 -1
    outer loop
      vertex 7.01296 2.5 0
      vertex -1.94114 7.24444 0
      vertex 0 7.5 0
    endloop
  endfacet
  facet normal 0 0 -1
    outer loop
      vertex 7.01296 2.5 0
      vertex -3.75 6.49519 0
      vertex -1.94114 7.24444 0
    endloop
  endfacet
  facet normal 0 0 -1
    outer loop
      vertex -7.01296 2.5 0
      vertex -3.75 6.49519 0
      vertex 7.01296 2.5 0
    endloop
  endfacet
  facet normal 0 0 -1
    outer loop
      vertex -3.75 6.49519 0
      vertex -7.01296 2.5 0
      vertex -5.3033 5.3033 0
    endloop
  endfacet
  facet normal 0 0 -1
    outer loop
      vertex -5.3033 5.3033 0
      vertex -7.01296 2.5 0
      vertex -6.49519 3.75 0
    endloop
  endfacet
  facet normal -0.991445 -0.130525 0
    outer loop
      vertex -7.383 -0.888665 7.5
      vertex -7.24444 -1.94114 7.5
      vertex -7.383 -0.888665 15
    endloop
  endfacet
  facet normal -0.991444 -0.130532 0
    outer loop
      vertex -7.383 -0.888665 15
      vertex -7.5 0 17.5
      vertex -7.5 0 15
    endloop
  endfacet
  facet normal -0.991444 -0.130532 0
    outer loop
      vertex -7.5 0 17.5
      vertex -7.383 -0.888665 15
      vertex -7.5 0 22.5
    endloop
  endfacet
  facet normal -0.991444 -0.130529 -2.87415e-07
    outer loop
      vertex -7.24444 -1.94114 30
      vertex -7.5 0 22.5
      vertex -7.383 -0.888665 15
    endloop
  endfacet
  facet normal -0.991445 -0.130528 0
    outer loop
      vertex -7.5 0 22.5
      vertex -7.24444 -1.94114 30
      vertex -7.5 0 27.5
    endloop
  endfacet
  facet normal -0.991445 -0.130525 -0
    outer loop
      vertex -7.24444 -1.94114 30
      vertex -7.383 -0.888665 15
      vertex -7.24444 -1.94114 7.5
    endloop
  endfacet
  facet normal -0.991445 -0.130528 0
    outer loop
      vertex -7.5 0 27.5
      vertex -7.24444 -1.94114 30
      vertex -7.5 0 30
    endloop
  endfacet
  facet normal 0.130528 0.991445 -0
    outer loop
      vertex 1.94114 7.24444 0
      vertex 0 7.5 30
      vertex 1.94114 7.24444 30
    endloop
  endfacet
  facet normal 0.130528 0.991445 0
    outer loop
      vertex 0 7.5 30
      vertex 1.94114 7.24444 0
      vertex 0 7.5 0
    endloop
  endfacet
  facet normal -0.608756 -0.793358 -0
    outer loop
      vertex -5.3033 -5.3033 30
      vertex -5.3033 -5.3033 29.5476
      vertex -5.04501 -5.50149 30
    endloop
  endfacet
  facet normal -0.608756 -0.793358 -0
    outer loop
      vertex -5.3033 -5.3033 10.4524
      vertex -5.3033 -5.3033 9.5476
      vertex -5.04501 -5.50149 10
    endloop
  endfacet
  facet normal -0.608756 -0.793358 -0
    outer loop
      vertex -5.3033 -5.3033 15.4524
      vertex -5.3033 -5.3033 14.5476
      vertex -5.04501 -5.50149 15
    endloop
  endfacet
  facet normal -0.608756 -0.793358 -0
    outer loop
      vertex -5.3033 -5.3033 20.4524
      vertex -5.3033 -5.3033 19.5476
      vertex -5.04501 -5.50149 20
    endloop
  endfacet
  facet normal -0.608756 -0.793358 -0
    outer loop
      vertex -5.3033 -5.3033 25.4524
      vertex -5.3033 -5.3033 24.5476
      vertex -5.04501 -5.50149 25
    endloop
  endfacet
  facet normal 0.608762 0.793353 -0
    outer loop
      vertex 5.3033 5.3033 0
      vertex 3.75 6.49519 30
      vertex 5.3033 5.3033 30
    endloop
  endfacet
  facet normal 0.608762 0.793353 0
    outer loop
      vertex 3.75 6.49519 30
      vertex 5.3033 5.3033 0
      vertex 3.75 6.49519 0
    endloop
  endfacet
  facet normal 0.382682 0.92388 -0
    outer loop
      vertex 3.75 6.49519 0
      vertex 1.94114 7.24444 30
      vertex 3.75 6.49519 30
    endloop
  endfacet
  facet normal 0.382682 0.92388 0
    outer loop
      vertex 1.94114 7.24444 30
      vertex 3.75 6.49519 0
      vertex 1.94114 7.24444 0
    endloop
  endfacet
  facet normal 0 0 1
    outer loop
      vertex 7.01296 0 30
      vertex 7.5 0 30
      vertex 7.24444 1.94114 30
    endloop
  endfacet
  facet normal 0 0 1
    outer loop
      vertex 7.5 0 30
      vertex 7.01296 0 30
      vertex 7.24444 -1.94114 30
    endloop
  endfacet
  facet normal 0 0 1
    outer loop
      vertex 6.49519 3.75 30
      vertex 7.01296 0 30
      vertex 7.24444 1.94114 30
    endloop
  endfacet
  facet normal 0 0 1
    outer loop
      vertex 5.3033 5.3033 30
      vertex 7.01296 0 30
      vertex 6.49519 3.75 30
    endloop
  endfacet
  facet normal 0 0 1
    outer loop
      vertex 3.75 6.49519 30
      vertex 7.01296 0 30
      vertex 5.3033 5.3033 30
    endloop
  endfacet
  facet normal 0 0 1
    outer loop
      vertex 1.94114 7.24444 30
      vertex 7.01296 0 30
      vertex 3.75 6.49519 30
    endloop
  endfacet
  facet normal 0 0 1
    outer loop
      vertex 0 7.5 30
      vertex 7.01296 0 30
      vertex 1.94114 7.24444 30
    endloop
  endfacet
  facet normal 0 0 1
    outer loop
      vertex -7.01296 0 30
      vertex 0 7.5 30
      vertex -1.94114 7.24444 30
    endloop
  endfacet
  facet normal 0 0 1
    outer loop
      vertex -7.01296 0 30
      vertex -1.94114 7.24444 30
      vertex -3.75 6.49519 30
    endloop
  endfacet
  facet normal 0 0 1
    outer loop
      vertex -7.01296 0 30
      vertex -3.75 6.49519 30
      vertex -5.3033 5.3033 30
    endloop
  endfacet
  facet normal 0 0 1
    outer loop
      vertex -7.01296 0 30
      vertex -5.3033 5.3033 30
      vertex -6.49519 3.75 30
    endloop
  endfacet
  facet normal 0 0 1
    outer loop
      vertex 0 7.5 30
      vertex -7.01296 0 30
      vertex 7.01296 0 30
    endloop
  endfacet
  facet normal 0 -0 1
    outer loop
      vertex -7.01296 0 30
      vertex -6.49519 3.75 30
      vertex -7.24444 1.94114 30
    endloop
  endfacet
  facet normal 0 0 1
    outer loop
      vertex 7.01296 0 30
      vertex 6.49519 -3.75 30
      vertex 7.24444 -1.94114 30
    endloop
  endfacet
  facet normal 0 0 1
    outer loop
      vertex 5.04501 -5.50149 30
      vertex 6.49519 -3.75 30
      vertex 7.01296 0 30
    endloop
  endfacet
  facet normal 0 0 1
    outer loop
      vertex 6.49519 -3.75 30
      vertex 5.04501 -5.50149 30
      vertex 5.3033 -5.3033 30
    endloop
  endfacet
  facet normal 0 0 1
    outer loop
      vertex -5.04501 -5.50149 30
      vertex -6.49519 -3.75 30
      vertex -5.3033 -5.3033 30
    endloop
  endfacet
  facet normal 0 0 1
    outer loop
      vertex -7.01296 0 30
      vertex -6.49519 -3.75 30
      vertex -5.04501 -5.50149 30
    endloop
  endfacet
  facet normal 0 0 1
    outer loop
      vertex -7.01296 0 30
      vertex -7.24444 -1.94114 30
      vertex -6.49519 -3.75 30
    endloop
  endfacet
  facet normal 0 0 1
    outer loop
      vertex -7.5 0 30
      vertex -7.01296 0 30
      vertex -7.24444 1.94114 30
    endloop
  endfacet
  facet normal 0 0 1
    outer loop
      vertex -7.01296 0 30
      vertex -7.5 0 30
      vertex -7.24444 -1.94114 30
    endloop
  endfacet
  facet normal -0.608762 0.793353 0
    outer loop
      vertex -3.75 6.49519 0
      vertex -5.3033 5.3033 30
      vertex -3.75 6.49519 30
    endloop
  endfacet
  facet normal -0.608762 0.793353 0
    outer loop
      vertex -5.3033 5.3033 30
      vertex -3.75 6.49519 0
      vertex -5.3033 5.3033 0
    endloop
  endfacet
  facet normal -0.793361 -0.608751 0
    outer loop
      vertex -5.75198 -4.71858 23.8305
      vertex -6.06168 -4.31496 27.5
      vertex -6.06168 -4.31496 22.5
    endloop
  endfacet
  facet normal -0.793361 -0.608751 0
    outer loop
      vertex -5.75198 -4.71858 23.8305
      vertex -5.75198 -4.71858 26.1695
      vertex -6.06168 -4.31496 27.5
    endloop
  endfacet
  facet normal -0.79329 -0.608844 0
    outer loop
      vertex -5.7058 -4.77875 24.0289
      vertex -5.75198 -4.71858 26.1695
      vertex -5.75198 -4.71858 23.8305
    endloop
  endfacet
  facet normal -0.79329 -0.608844 0
    outer loop
      vertex -5.7058 -4.77875 24.0289
      vertex -5.7058 -4.77875 25.9711
      vertex -5.75198 -4.71858 26.1695
    endloop
  endfacet
  facet normal -0.793365 -0.608746 0
    outer loop
      vertex -5.56339 -4.96435 24.2124
      vertex -5.7058 -4.77875 25.9711
      vertex -5.7058 -4.77875 24.0289
    endloop
  endfacet
  facet normal -0.793348 -0.608768 -0
    outer loop
      vertex -5.3033 -5.3033 25.4524
      vertex -5.56339 -4.96435 24.2124
      vertex -5.3033 -5.3033 24.5476
    endloop
  endfacet
  facet normal -0.793353 -0.608762 2.72163e-06
    outer loop
      vertex -5.56339 -4.96435 24.2124
      vertex -5.3033 -5.3033 25.4524
      vertex -5.7058 -4.77875 25.9711
    endloop
  endfacet
  facet normal -0.793361 -0.608751 0
    outer loop
      vertex -5.75198 -4.71858 18.8305
      vertex -6.06168 -4.31496 22.5
      vertex -6.06168 -4.31496 17.5
    endloop
  endfacet
  facet normal -0.793361 -0.608751 0
    outer loop
      vertex -5.75198 -4.71858 18.8305
      vertex -5.75198 -4.71858 21.1695
      vertex -6.06168 -4.31496 22.5
    endloop
  endfacet
  facet normal -0.79329 -0.608844 0
    outer loop
      vertex -5.7058 -4.77875 19.0289
      vertex -5.75198 -4.71858 21.1695
      vertex -5.75198 -4.71858 18.8305
    endloop
  endfacet
  facet normal -0.79329 -0.608844 0
    outer loop
      vertex -5.7058 -4.77875 19.0289
      vertex -5.7058 -4.77875 20.9711
      vertex -5.75198 -4.71858 21.1695
    endloop
  endfacet
  facet normal -0.793365 -0.608746 0
    outer loop
      vertex -5.56339 -4.96435 19.2124
      vertex -5.7058 -4.77875 20.9711
      vertex -5.7058 -4.77875 19.0289
    endloop
  endfacet
  facet normal -0.793348 -0.608768 -0
    outer loop
      vertex -5.3033 -5.3033 20.4524
      vertex -5.56339 -4.96435 19.2124
      vertex -5.3033 -5.3033 19.5476
    endloop
  endfacet
  facet normal -0.793353 -0.608762 2.72163e-06
    outer loop
      vertex -5.56339 -4.96435 19.2124
      vertex -5.3033 -5.3033 20.4524
      vertex -5.7058 -4.77875 20.9711
    endloop
  endfacet
  facet normal -0.793361 -0.608751 0
    outer loop
      vertex -5.75198 -4.71858 13.8305
      vertex -6.06168 -4.31496 17.5
      vertex -6.06168 -4.31496 12.5
    endloop
  endfacet
  facet normal -0.793361 -0.608751 0
    outer loop
      vertex -5.75198 -4.71858 13.8305
      vertex -5.75198 -4.71858 16.1695
      vertex -6.06168 -4.31496 17.5
    endloop
  endfacet
  facet normal -0.79329 -0.608844 0
    outer loop
      vertex -5.7058 -4.77875 14.0289
      vertex -5.75198 -4.71858 16.1695
      vertex -5.75198 -4.71858 13.8305
    endloop
  endfacet
  facet normal -0.79329 -0.608844 0
    outer loop
      vertex -5.7058 -4.77875 14.0289
      vertex -5.7058 -4.77875 15.9711
      vertex -5.75198 -4.71858 16.1695
    endloop
  endfacet
  facet normal -0.793365 -0.608746 0
    outer loop
      vertex -5.56339 -4.96435 14.2124
      vertex -5.7058 -4.77875 15.9711
      vertex -5.7058 -4.77875 14.0289
    endloop
  endfacet
  facet normal -0.793348 -0.608768 -0
    outer loop
      vertex -5.3033 -5.3033 15.4524
      vertex -5.56339 -4.96435 14.2124
      vertex -5.3033 -5.3033 14.5476
    endloop
  endfacet
  facet normal -0.793353 -0.608762 2.72163e-06
    outer loop
      vertex -5.56339 -4.96435 14.2124
      vertex -5.3033 -5.3033 15.4524
      vertex -5.7058 -4.77875 15.9711
    endloop
  endfacet
  facet normal -0.793404 -0.608696 7.13582e-05
    outer loop
      vertex -5.7058 -4.77875 9.02886
      vertex -6.49519 -3.75 7.5
      vertex -5.75198 -4.71858 8.83051
    endloop
  endfacet
  facet normal -0.793359 -0.608754 1.4878e-06
    outer loop
      vertex -6.49519 -3.75 7.5
      vertex -5.75198 -4.71858 11.1695
      vertex -6.06168 -4.31496 12.5
    endloop
  endfacet
  facet normal -0.793352 -0.608763 -0
    outer loop
      vertex -5.7058 -4.77875 10.9711
      vertex -6.49519 -3.75 7.5
      vertex -5.7058 -4.77875 9.02886
    endloop
  endfacet
  facet normal -0.793321 -0.608804 -1.93618e-05
    outer loop
      vertex -6.49519 -3.75 7.5
      vertex -5.7058 -4.77875 10.9711
      vertex -5.75198 -4.71858 11.1695
    endloop
  endfacet
  facet normal -0.793365 -0.608746 0
    outer loop
      vertex -5.56339 -4.96435 9.2124
      vertex -5.7058 -4.77875 10.9711
      vertex -5.7058 -4.77875 9.02886
    endloop
  endfacet
  facet normal -0.793348 -0.608768 -0
    outer loop
      vertex -5.3033 -5.3033 10.4524
      vertex -5.56339 -4.96435 9.2124
      vertex -5.3033 -5.3033 9.5476
    endloop
  endfacet
  facet normal -0.793353 -0.608762 2.72163e-06
    outer loop
      vertex -5.56339 -4.96435 9.2124
      vertex -5.3033 -5.3033 10.4524
      vertex -5.7058 -4.77875 10.9711
    endloop
  endfacet
  facet normal -0.793353 -0.608762 -5.48213e-06
    outer loop
      vertex -5.75198 -4.71858 8.83051
      vertex -6.49519 -3.75 7.5
      vertex -6.06168 -4.31496 7.5
    endloop
  endfacet
  facet normal -0.793353 -0.608762 -0
    outer loop
      vertex -6.06168 -4.31496 17.5
      vertex -6.49519 -3.75 7.5
      vertex -6.06168 -4.31496 12.5
    endloop
  endfacet
  facet normal -0.793353 -0.608762 0
    outer loop
      vertex -6.49519 -3.75 7.5
      vertex -6.06168 -4.31496 17.5
      vertex -6.49519 -3.75 30
    endloop
  endfacet
  facet normal -0.793353 -0.608762 -0
    outer loop
      vertex -6.06168 -4.31496 22.5
      vertex -6.49519 -3.75 30
      vertex -6.06168 -4.31496 17.5
    endloop
  endfacet
  facet normal -0.793353 -0.608762 -0
    outer loop
      vertex -6.06168 -4.31496 27.5
      vertex -6.49519 -3.75 30
      vertex -6.06168 -4.31496 22.5
    endloop
  endfacet
  facet normal -0.793358 -0.608756 -2.34043e-06
    outer loop
      vertex -5.75198 -4.71858 28.8305
      vertex -6.49519 -3.75 30
      vertex -6.06168 -4.31496 27.5
    endloop
  endfacet
  facet normal -0.793339 -0.608781 3.04562e-05
    outer loop
      vertex -5.7058 -4.77875 29.0289
      vertex -6.49519 -3.75 30
      vertex -5.75198 -4.71858 28.8305
    endloop
  endfacet
  facet normal -0.793359 -0.608754 -1.39672e-05
    outer loop
      vertex -5.56339 -4.96435 29.2124
      vertex -6.49519 -3.75 30
      vertex -5.7058 -4.77875 29.0289
    endloop
  endfacet
  facet normal -0.793348 -0.608768 -0
    outer loop
      vertex -5.3033 -5.3033 30
      vertex -5.56339 -4.96435 29.2124
      vertex -5.3033 -5.3033 29.5476
    endloop
  endfacet
  facet normal -0.793353 -0.608762 4.33291e-06
    outer loop
      vertex -5.56339 -4.96435 29.2124
      vertex -5.3033 -5.3033 30
      vertex -6.49519 -3.75 30
    endloop
  endfacet
  facet normal -0.793353 0.608762 0
    outer loop
      vertex -6.49519 3.75 0
      vertex -5.3033 5.3033 30
      vertex -5.3033 5.3033 0
    endloop
  endfacet
  facet normal -0.793353 0.608762 0
    outer loop
      vertex -5.3033 5.3033 30
      vertex -6.49519 3.75 0
      vertex -6.49519 3.75 30
    endloop
  endfacet
  facet normal 0.92388 -0.382682 0
    outer loop
      vertex 6.49519 -3.75 30
      vertex 7.24444 -1.94114 7.5
      vertex 7.24444 -1.94114 30
    endloop
  endfacet
  facet normal 0.92388 -0.382682 0
    outer loop
      vertex 7.24444 -1.94114 7.5
      vertex 6.49519 -3.75 30
      vertex 6.49519 -3.75 7.5
    endloop
  endfacet
  facet normal -0.92388 -0.382682 0
    outer loop
      vertex -6.49519 -3.75 7.5
      vertex -7.24444 -1.94114 30
      vertex -7.24444 -1.94114 7.5
    endloop
  endfacet
  facet normal -0.92388 -0.382682 0
    outer loop
      vertex -7.24444 -1.94114 30
      vertex -6.49519 -3.75 7.5
      vertex -6.49519 -3.75 30
    endloop
  endfacet
  facet normal -0.923879 0.382685 0
    outer loop
      vertex -7.01296 2.5 7.5
      vertex -6.49519 3.75 0
      vertex -7.01296 2.5 0
    endloop
  endfacet
  facet normal -0.923879 0.382685 0
    outer loop
      vertex -6.49519 3.75 0
      vertex -7.01296 2.5 7.5
      vertex -6.49519 3.75 30
    endloop
  endfacet
  facet normal -0.923884 0.382673 0
    outer loop
      vertex -7.24444 1.94114 30
      vertex -7.01296 2.5 7.5
      vertex -7.24444 1.94114 7.5
    endloop
  endfacet
  facet normal -0.92388 0.382682 2.48389e-07
    outer loop
      vertex -7.01296 2.5 7.5
      vertex -7.24444 1.94114 30
      vertex -6.49519 3.75 30
    endloop
  endfacet
  facet normal -0.991445 0.130525 0
    outer loop
      vertex -7.383 0.888665 15
      vertex -7.24444 1.94114 7.5
      vertex -7.383 0.888665 7.5
    endloop
  endfacet
  facet normal -0.991445 0.130525 0
    outer loop
      vertex -7.24444 1.94114 7.5
      vertex -7.383 0.888665 15
      vertex -7.24444 1.94114 30
    endloop
  endfacet
  facet normal -0.991444 0.130532 0
    outer loop
      vertex -7.5 0 17.5
      vertex -7.383 0.888665 15
      vertex -7.5 0 15
    endloop
  endfacet
  facet normal -0.991444 0.130532 0
    outer loop
      vertex -7.5 0 22.5
      vertex -7.383 0.888665 15
      vertex -7.5 0 17.5
    endloop
  endfacet
  facet normal -0.991444 0.130529 -2.87415e-07
    outer loop
      vertex -7.383 0.888665 15
      vertex -7.5 0 22.5
      vertex -7.24444 1.94114 30
    endloop
  endfacet
  facet normal -0.991445 0.130528 0
    outer loop
      vertex -7.5 0 27.5
      vertex -7.24444 1.94114 30
      vertex -7.5 0 22.5
    endloop
  endfacet
  facet normal -0.991445 0.130528 0
    outer loop
      vertex -7.24444 1.94114 30
      vertex -7.5 0 27.5
      vertex -7.5 0 30
    endloop
  endfacet
  facet normal 0 -1 0
    outer loop
      vertex -7.01296 2.5 0
      vertex 7.01296 2.5 7.5
      vertex -7.01296 2.5 7.5
    endloop
  endfacet
  facet normal 0 -1 -0
    outer loop
      vertex 7.01296 2.5 7.5
      vertex -7.01296 2.5 0
      vertex 7.01296 2.5 0
    endloop
  endfacet
  facet normal 0 0 -1
    outer loop
      vertex -6.49519 -3.75 7.5
      vertex -7.1855 -0.943507 7.5
      vertex -6.06168 -4.31496 7.5
    endloop
  endfacet
  facet normal 0 0 -1
    outer loop
      vertex -7.24444 -1.94114 7.5
      vertex -7.1855 -0.943507 7.5
      vertex -6.49519 -3.75 7.5
    endloop
  endfacet
  facet normal 0 0 -1
    outer loop
      vertex -7.1855 -0.943507 7.5
      vertex -7.24444 -1.94114 7.5
      vertex -7.19098 -0.951056 7.5
    endloop
  endfacet
  facet normal -0 0 -1
    outer loop
      vertex -7.19098 -0.951056 7.5
      vertex -7.24444 -1.94114 7.5
      vertex -7.383 -0.888665 7.5
    endloop
  endfacet
  facet normal 0 0 -1
    outer loop
      vertex 7.24444 -1.94114 7.5
      vertex 7.24416 -0.767523 7.5
      vertex 7.3926 -0.815755 7.5
    endloop
  endfacet
  facet normal 0 0 -1
    outer loop
      vertex 6.49519 -3.75 7.5
      vertex 7.24416 -0.767523 7.5
      vertex 7.24444 -1.94114 7.5
    endloop
  endfacet
  facet normal 0 0 -1
    outer loop
      vertex 7.24416 -0.767523 7.5
      vertex 6.49519 -3.75 7.5
      vertex 6.06168 -4.31496 7.5
    endloop
  endfacet
  facet normal 0 0 -1
    outer loop
      vertex 6.69098 0 7.5
      vertex -6.5 0 7.5
      vertex 6.69098 0.587785 7.5
    endloop
  endfacet
  facet normal 0 0 -1
    outer loop
      vertex 6.69098 0.587785 7.5
      vertex 7.24444 1.94114 7.5
      vertex 7.3926 0.815755 7.5
    endloop
  endfacet
  facet normal -0 0 -1
    outer loop
      vertex 7.24444 1.94114 7.5
      vertex 6.69098 0.587785 7.5
      vertex 7.01296 2.5 7.5
    endloop
  endfacet
  facet normal 0 0 -1
    outer loop
      vertex -6.5 0 7.5
      vertex 7.01296 2.5 7.5
      vertex 6.69098 0.587785 7.5
    endloop
  endfacet
  facet normal 0 0 -1
    outer loop
      vertex -6.5 0 7.5
      vertex -7.01296 2.5 7.5
      vertex 7.01296 2.5 7.5
    endloop
  endfacet
  facet normal 0 0 -1
    outer loop
      vertex -7.19098 0.951056 7.5
      vertex -7.01296 2.5 7.5
      vertex -6.5 0 7.5
    endloop
  endfacet
  facet normal 0 0 -1
    outer loop
      vertex -7.19098 0.951056 7.5
      vertex -7.24444 1.94114 7.5
      vertex -7.01296 2.5 7.5
    endloop
  endfacet
  facet normal 0 -0 -1
    outer loop
      vertex -7.24444 1.94114 7.5
      vertex -7.19098 0.951056 7.5
      vertex -7.383 0.888665 7.5
    endloop
  endfacet
endsolid OpenSCAD_Model
