solid OpenSCAD_Model
  facet normal 0.951059 0.309008 0
    outer loop
      vertex 14.6722 3.11868 -10
      vertex 13.7032 6.10105 -20
      vertex 13.7032 6.10105 -10
    endloop
  endfacet
  facet normal 0.951059 0.309008 0
    outer loop
      vertex 13.7032 6.10105 -20
      vertex 14.6722 3.11868 -10
      vertex 14.6722 3.11868 -20
    endloop
  endfacet
  facet normal 0.951059 0.309008 0
    outer loop
      vertex 14.6722 3.11868 20
      vertex 13.7032 6.10105 10
      vertex 13.7032 6.10105 20
    endloop
  endfacet
  facet normal 0.951059 0.309008 0
    outer loop
      vertex 13.7032 6.10105 10
      vertex 14.6722 3.11868 20
      vertex 14.6722 3.11868 10
    endloop
  endfacet
  facet normal 0.994526 0.104487 0
    outer loop
      vertex 14.6722 3.11868 20
      vertex 14.7372 2.5 10
      vertex 14.6722 3.11868 10
    endloop
  endfacet
  facet normal 0.99452 0.104544 0
    outer loop
      vertex 14.7372 2.5 10
      vertex 15 0 20
      vertex 14.7372 2.5 -10
    endloop
  endfacet
  facet normal 0.994521 0.104533 -2.84145e-06
    outer loop
      vertex 15 0 20
      vertex 14.7372 2.5 10
      vertex 14.6722 3.11868 20
    endloop
  endfacet
  facet normal 0.994526 0.104487 0
    outer loop
      vertex 14.7372 2.5 -10
      vertex 14.6722 3.11868 -20
      vertex 14.6722 3.11868 -10
    endloop
  endfacet
  facet normal 0.99452 0.104544 -0
    outer loop
      vertex 15 0 -20
      vertex 14.7372 2.5 -10
      vertex 15 0 20
    endloop
  endfacet
  facet normal 0.994521 0.104533 2.84145e-06
    outer loop
      vertex 14.7372 2.5 -10
      vertex 15 0 -20
      vertex 14.6722 3.11868 -20
    endloop
  endfacet
  facet normal 0.866029 0.499993 0
    outer loop
      vertex 13.7032 6.10105 -10
      vertex 12.1353 8.81678 -20
      vertex 12.1353 8.81678 -10
    endloop
  endfacet
  facet normal 0.866029 0.499993 0
    outer loop
      vertex 12.1353 8.81678 -20
      vertex 13.7032 6.10105 -10
      vertex 13.7032 6.10105 -20
    endloop
  endfacet
  facet normal 0.866029 0.499993 0
    outer loop
      vertex 13.7032 6.10105 20
      vertex 12.1353 8.81678 10
      vertex 12.1353 8.81678 20
    endloop
  endfacet
  facet normal 0.866029 0.499993 0
    outer loop
      vertex 12.1353 8.81678 10
      vertex 13.7032 6.10105 20
      vertex 13.7032 6.10105 10
    endloop
  endfacet
  facet normal 0.587777 0.809023 -0
    outer loop
      vertex 10.037 11.1472 10
      vertex 7.5 12.9904 20
      vertex 10.037 11.1472 20
    endloop
  endfacet
  facet normal 0.587777 0.809023 0
    outer loop
      vertex 7.5 12.9904 20
      vertex 10.037 11.1472 10
      vertex 7.5 12.9904 10
    endloop
  endfacet
  facet normal 0.587777 0.809023 -0
    outer loop
      vertex 10.037 11.1472 -20
      vertex 7.5 12.9904 -10
      vertex 10.037 11.1472 -10
    endloop
  endfacet
  facet normal 0.587777 0.809023 0
    outer loop
      vertex 7.5 12.9904 -10
      vertex 10.037 11.1472 -20
      vertex 7.5 12.9904 -20
    endloop
  endfacet
  facet normal 0.951059 -0.309008 0
    outer loop
      vertex 13.7032 -6.10105 20
      vertex 14.6722 -3.11868 10
      vertex 14.6722 -3.11868 20
    endloop
  endfacet
  facet normal 0.951059 -0.309008 0
    outer loop
      vertex 14.6722 -3.11868 10
      vertex 13.7032 -6.10105 20
      vertex 13.7032 -6.10105 10
    endloop
  endfacet
  facet normal 0.951059 -0.309008 0
    outer loop
      vertex 13.7032 -6.10105 -10
      vertex 14.6722 -3.11868 -20
      vertex 14.6722 -3.11868 -10
    endloop
  endfacet
  facet normal 0.951059 -0.309008 0
    outer loop
      vertex 14.6722 -3.11868 -20
      vertex 13.7032 -6.10105 -10
      vertex 13.7032 -6.10105 -20
    endloop
  endfacet
  facet normal 0.99452 -0.104544 0
    outer loop
      vertex 15 0 20
      vertex 14.7372 -2.5 10
      vertex 15 0 -20
    endloop
  endfacet
  facet normal 0.994521 -0.104533 -2.84145e-06
    outer loop
      vertex 14.6722 -3.11868 20
      vertex 14.7372 -2.5 10
      vertex 15 0 20
    endloop
  endfacet
  facet normal 0.994526 -0.104487 0
    outer loop
      vertex 14.7372 -2.5 10
      vertex 14.6722 -3.11868 20
      vertex 14.6722 -3.11868 10
    endloop
  endfacet
  facet normal 0.99452 -0.104544 0
    outer loop
      vertex 14.7372 -2.5 -10
      vertex 15 0 -20
      vertex 14.7372 -2.5 10
    endloop
  endfacet
  facet normal 0.994526 -0.104487 0
    outer loop
      vertex 14.6722 -3.11868 -20
      vertex 14.7372 -2.5 -10
      vertex 14.6722 -3.11868 -10
    endloop
  endfacet
  facet normal 0.994521 -0.104533 2.84145e-06
    outer loop
      vertex 14.7372 -2.5 -10
      vertex 14.6722 -3.11868 -20
      vertex 15 0 -20
    endloop
  endfacet
  facet normal 0.743148 0.669127 0
    outer loop
      vertex 12.1353 8.81678 -10
      vertex 10.037 11.1472 -20
      vertex 10.037 11.1472 -10
    endloop
  endfacet
  facet normal 0.743148 0.669127 0
    outer loop
      vertex 10.037 11.1472 -20
      vertex 12.1353 8.81678 -10
      vertex 12.1353 8.81678 -20
    endloop
  endfacet
  facet normal 0.743148 0.669127 0
    outer loop
      vertex 12.1353 8.81678 20
      vertex 10.037 11.1472 10
      vertex 10.037 11.1472 20
    endloop
  endfacet
  facet normal 0.743148 0.669127 0
    outer loop
      vertex 10.037 11.1472 10
      vertex 12.1353 8.81678 20
      vertex 12.1353 8.81678 10
    endloop
  endfacet
  facet normal -0.951059 -0.309008 0
    outer loop
      vertex -13.7032 -6.10105 -20
      vertex -14.6722 -3.11868 -10
      vertex -14.6722 -3.11868 -20
    endloop
  endfacet
  facet normal -0.951059 -0.309008 0
    outer loop
      vertex -14.6722 -3.11868 -10
      vertex -13.7032 -6.10105 -20
      vertex -13.7032 -6.10105 -10
    endloop
  endfacet
  facet normal -0.951059 -0.309008 0
    outer loop
      vertex -13.7032 -6.10105 10
      vertex -14.6722 -3.11868 20
      vertex -14.6722 -3.11868 10
    endloop
  endfacet
  facet normal -0.951059 -0.309008 0
    outer loop
      vertex -14.6722 -3.11868 20
      vertex -13.7032 -6.10105 10
      vertex -13.7032 -6.10105 20
    endloop
  endfacet
  facet normal -0.743148 0.669127 0
    outer loop
      vertex -12.1353 8.81678 10
      vertex -10.037 11.1472 20
      vertex -10.037 11.1472 10
    endloop
  endfacet
  facet normal -0.743148 0.669127 0
    outer loop
      vertex -10.037 11.1472 20
      vertex -12.1353 8.81678 10
      vertex -12.1353 8.81678 20
    endloop
  endfacet
  facet normal -0.743148 0.669127 0
    outer loop
      vertex -12.1353 8.81678 -20
      vertex -10.037 11.1472 -10
      vertex -10.037 11.1472 -20
    endloop
  endfacet
  facet normal -0.743148 0.669127 0
    outer loop
      vertex -10.037 11.1472 -10
      vertex -12.1353 8.81678 -20
      vertex -12.1353 8.81678 -10
    endloop
  endfacet
  facet normal -0.951059 0.309008 0
    outer loop
      vertex -14.6722 3.11868 -20
      vertex -13.7032 6.10105 -10
      vertex -13.7032 6.10105 -20
    endloop
  endfacet
  facet normal -0.951059 0.309008 0
    outer loop
      vertex -13.7032 6.10105 -10
      vertex -14.6722 3.11868 -20
      vertex -14.6722 3.11868 -10
    endloop
  endfacet
  facet normal -0.951059 0.309008 0
    outer loop
      vertex -14.6722 3.11868 10
      vertex -13.7032 6.10105 20
      vertex -13.7032 6.10105 10
    endloop
  endfacet
  facet normal -0.951059 0.309008 0
    outer loop
      vertex -13.7032 6.10105 20
      vertex -14.6722 3.11868 10
      vertex -14.6722 3.11868 20
    endloop
  endfacet
  facet normal 0.587777 -0.809023 0
    outer loop
      vertex 7.5 -12.9904 -20
      vertex 10.037 -11.1472 -10
      vertex 7.5 -12.9904 -10
    endloop
  endfacet
  facet normal 0.587777 -0.809023 0
    outer loop
      vertex 10.037 -11.1472 -10
      vertex 7.5 -12.9904 -20
      vertex 10.037 -11.1472 -20
    endloop
  endfacet
  facet normal 0.587777 -0.809023 0
    outer loop
      vertex 7.5 -12.9904 10
      vertex 10.037 -11.1472 20
      vertex 7.5 -12.9904 20
    endloop
  endfacet
  facet normal 0.587777 -0.809023 0
    outer loop
      vertex 10.037 -11.1472 20
      vertex 7.5 -12.9904 10
      vertex 10.037 -11.1472 10
    endloop
  endfacet
  facet normal -0.587777 0.809023 0
    outer loop
      vertex -7.5 12.9904 -20
      vertex -10.037 11.1472 -10
      vertex -7.5 12.9904 -10
    endloop
  endfacet
  facet normal -0.587777 0.809023 0
    outer loop
      vertex -10.037 11.1472 -10
      vertex -7.5 12.9904 -20
      vertex -10.037 11.1472 -20
    endloop
  endfacet
  facet normal -0.587777 0.809023 0
    outer loop
      vertex -7.5 12.9904 10
      vertex -10.037 11.1472 20
      vertex -7.5 12.9904 20
    endloop
  endfacet
  facet normal -0.587777 0.809023 0
    outer loop
      vertex -10.037 11.1472 20
      vertex -7.5 12.9904 10
      vertex -10.037 11.1472 10
    endloop
  endfacet
  facet normal 0 0 1
    outer loop
      vertex 14.6722 3.11868 20
      vertex 14.6722 -3.11868 20
      vertex 15 0 20
    endloop
  endfacet
  facet normal 0 0 1
    outer loop
      vertex 13.7032 6.10105 20
      vertex 14.6722 -3.11868 20
      vertex 14.6722 3.11868 20
    endloop
  endfacet
  facet normal 0 0 1
    outer loop
      vertex 13.7032 6.10105 20
      vertex 13.7032 -6.10105 20
      vertex 14.6722 -3.11868 20
    endloop
  endfacet
  facet normal 0 0 1
    outer loop
      vertex 12.1353 8.81678 20
      vertex 13.7032 -6.10105 20
      vertex 13.7032 6.10105 20
    endloop
  endfacet
  facet normal 0 0 1
    outer loop
      vertex 12.1353 8.81678 20
      vertex 12.1353 -8.81678 20
      vertex 13.7032 -6.10105 20
    endloop
  endfacet
  facet normal 0 0 1
    outer loop
      vertex 10.037 11.1472 20
      vertex 12.1353 -8.81678 20
      vertex 12.1353 8.81678 20
    endloop
  endfacet
  facet normal 0 0 1
    outer loop
      vertex 10.037 11.1472 20
      vertex 10.037 -11.1472 20
      vertex 12.1353 -8.81678 20
    endloop
  endfacet
  facet normal 0 0 1
    outer loop
      vertex 7.5 12.9904 20
      vertex 10.037 -11.1472 20
      vertex 10.037 11.1472 20
    endloop
  endfacet
  facet normal 0 0 1
    outer loop
      vertex 7.5 12.9904 20
      vertex 7.5 -12.9904 20
      vertex 10.037 -11.1472 20
    endloop
  endfacet
  facet normal 0 0 1
    outer loop
      vertex 4.63525 14.2658 20
      vertex 7.5 -12.9904 20
      vertex 7.5 12.9904 20
    endloop
  endfacet
  facet normal 0 0 1
    outer loop
      vertex 4.63525 14.2658 20
      vertex 4.63525 -14.2658 20
      vertex 7.5 -12.9904 20
    endloop
  endfacet
  facet normal 0 0 1
    outer loop
      vertex 1.56793 14.9178 20
      vertex 4.63525 -14.2658 20
      vertex 4.63525 14.2658 20
    endloop
  endfacet
  facet normal 0 0 1
    outer loop
      vertex 1.56793 14.9178 20
      vertex 1.56793 -14.9178 20
      vertex 4.63525 -14.2658 20
    endloop
  endfacet
  facet normal -0 0 1
    outer loop
      vertex -1.56793 14.9178 20
      vertex 1.56793 -14.9178 20
      vertex 1.56793 14.9178 20
    endloop
  endfacet
  facet normal 0 0 1
    outer loop
      vertex -1.56793 14.9178 20
      vertex -1.56793 -14.9178 20
      vertex 1.56793 -14.9178 20
    endloop
  endfacet
  facet normal -0 0 1
    outer loop
      vertex -4.63525 14.2658 20
      vertex -1.56793 -14.9178 20
      vertex -1.56793 14.9178 20
    endloop
  endfacet
  facet normal 0 0 1
    outer loop
      vertex -4.63525 14.2658 20
      vertex -4.63525 -14.2658 20
      vertex -1.56793 -14.9178 20
    endloop
  endfacet
  facet normal -0 0 1
    outer loop
      vertex -7.5 12.9904 20
      vertex -4.63525 -14.2658 20
      vertex -4.63525 14.2658 20
    endloop
  endfacet
  facet normal 0 0 1
    outer loop
      vertex -7.5 12.9904 20
      vertex -7.5 -12.9904 20
      vertex -4.63525 -14.2658 20
    endloop
  endfacet
  facet normal -0 0 1
    outer loop
      vertex -10.037 11.1472 20
      vertex -7.5 -12.9904 20
      vertex -7.5 12.9904 20
    endloop
  endfacet
  facet normal 0 0 1
    outer loop
      vertex -10.037 11.1472 20
      vertex -10.037 -11.1472 20
      vertex -7.5 -12.9904 20
    endloop
  endfacet
  facet normal -0 0 1
    outer loop
      vertex -12.1353 8.81678 20
      vertex -10.037 -11.1472 20
      vertex -10.037 11.1472 20
    endloop
  endfacet
  facet normal 0 0 1
    outer loop
      vertex -12.1353 8.81678 20
      vertex -12.1353 -8.81678 20
      vertex -10.037 -11.1472 20
    endloop
  endfacet
  facet normal -0 0 1
    outer loop
      vertex -13.7032 6.10105 20
      vertex -12.1353 -8.81678 20
      vertex -12.1353 8.81678 20
    endloop
  endfacet
  facet normal 0 0 1
    outer loop
      vertex -13.7032 6.10105 20
      vertex -13.7032 -6.10105 20
      vertex -12.1353 -8.81678 20
    endloop
  endfacet
  facet normal -0 0 1
    outer loop
      vertex -14.6722 3.11868 20
      vertex -13.7032 -6.10105 20
      vertex -13.7032 6.10105 20
    endloop
  endfacet
  facet normal 0 0 1
    outer loop
      vertex -14.6722 3.11868 20
      vertex -14.6722 -3.11868 20
      vertex -13.7032 -6.10105 20
    endloop
  endfacet
  facet normal 0 -0 1
    outer loop
      vertex -14.6722 -3.11868 20
      vertex -14.6722 3.11868 20
      vertex -15 0 20
    endloop
  endfacet
  facet normal -0.866029 0.499993 0
    outer loop
      vertex -13.7032 6.10105 10
      vertex -12.1353 8.81678 20
      vertex -12.1353 8.81678 10
    endloop
  endfacet
  facet normal -0.866029 0.499993 0
    outer loop
      vertex -12.1353 8.81678 20
      vertex -13.7032 6.10105 10
      vertex -13.7032 6.10105 20
    endloop
  endfacet
  facet normal -0.866029 0.499993 0
    outer loop
      vertex -13.7032 6.10105 -20
      vertex -12.1353 8.81678 -10
      vertex -12.1353 8.81678 -20
    endloop
  endfacet
  facet normal -0.866029 0.499993 0
    outer loop
      vertex -12.1353 8.81678 -10
      vertex -13.7032 6.10105 -20
      vertex -13.7032 6.10105 -10
    endloop
  endfacet
  facet normal 0.866029 -0.499993 0
    outer loop
      vertex 12.1353 -8.81678 20
      vertex 13.7032 -6.10105 10
      vertex 13.7032 -6.10105 20
    endloop
  endfacet
  facet normal 0.866029 -0.499993 0
    outer loop
      vertex 13.7032 -6.10105 10
      vertex 12.1353 -8.81678 20
      vertex 12.1353 -8.81678 10
    endloop
  endfacet
  facet normal 0.866029 -0.499993 0
    outer loop
      vertex 12.1353 -8.81678 -10
      vertex 13.7032 -6.10105 -20
      vertex 13.7032 -6.10105 -10
    endloop
  endfacet
  facet normal 0.866029 -0.499993 0
    outer loop
      vertex 13.7032 -6.10105 -20
      vertex 12.1353 -8.81678 -10
      vertex 12.1353 -8.81678 -20
    endloop
  endfacet
  facet normal 0 1 -0
    outer loop
      vertex 1.56793 14.9178 -20
      vertex -1.56793 14.9178 -10
      vertex 1.56793 14.9178 -10
    endloop
  endfacet
  facet normal 0 1 0
    outer loop
      vertex -1.56793 14.9178 -10
      vertex 1.56793 14.9178 -20
      vertex -1.56793 14.9178 -20
    endloop
  endfacet
  facet normal 0 1 -0
    outer loop
      vertex 1.56793 14.9178 10
      vertex -1.56793 14.9178 20
      vertex 1.56793 14.9178 20
    endloop
  endfacet
  facet normal 0 1 0
    outer loop
      vertex -1.56793 14.9178 20
      vertex 1.56793 14.9178 10
      vertex -1.56793 14.9178 10
    endloop
  endfacet
  facet normal -0.406718 0.913554 0
    outer loop
      vertex -4.63525 14.2658 -20
      vertex -7.5 12.9904 -10
      vertex -4.63525 14.2658 -10
    endloop
  endfacet
  facet normal -0.406718 0.913554 0
    outer loop
      vertex -7.5 12.9904 -10
      vertex -4.63525 14.2658 -20
      vertex -7.5 12.9904 -20
    endloop
  endfacet
  facet normal -0.406718 0.913554 0
    outer loop
      vertex -4.63525 14.2658 10
      vertex -7.5 12.9904 20
      vertex -4.63525 14.2658 20
    endloop
  endfacet
  facet normal -0.406718 0.913554 0
    outer loop
      vertex -7.5 12.9904 20
      vertex -4.63525 14.2658 10
      vertex -7.5 12.9904 10
    endloop
  endfacet
  facet normal -0.207918 -0.978146 0
    outer loop
      vertex -4.63525 -14.2658 -20
      vertex -1.56793 -14.9178 -10
      vertex -4.63525 -14.2658 -10
    endloop
  endfacet
  facet normal -0.207918 -0.978146 -0
    outer loop
      vertex -1.56793 -14.9178 -10
      vertex -4.63525 -14.2658 -20
      vertex -1.56793 -14.9178 -20
    endloop
  endfacet
  facet normal -0.207918 -0.978146 0
    outer loop
      vertex -4.63525 -14.2658 10
      vertex -1.56793 -14.9178 20
      vertex -4.63525 -14.2658 20
    endloop
  endfacet
  facet normal -0.207918 -0.978146 -0
    outer loop
      vertex -1.56793 -14.9178 20
      vertex -4.63525 -14.2658 10
      vertex -1.56793 -14.9178 10
    endloop
  endfacet
  facet normal 0 -1 0
    outer loop
      vertex -1.56793 -14.9178 10
      vertex 1.56793 -14.9178 20
      vertex -1.56793 -14.9178 20
    endloop
  endfacet
  facet normal 0 -1 -0
    outer loop
      vertex 1.56793 -14.9178 20
      vertex -1.56793 -14.9178 10
      vertex 1.56793 -14.9178 10
    endloop
  endfacet
  facet normal 0 -1 0
    outer loop
      vertex -1.56793 -14.9178 -20
      vertex 1.56793 -14.9178 -10
      vertex -1.56793 -14.9178 -10
    endloop
  endfacet
  facet normal 0 -1 -0
    outer loop
      vertex 1.56793 -14.9178 -10
      vertex -1.56793 -14.9178 -20
      vertex 1.56793 -14.9178 -20
    endloop
  endfacet
  facet normal -0.207918 0.978146 0
    outer loop
      vertex -1.56793 14.9178 -20
      vertex -4.63525 14.2658 -10
      vertex -1.56793 14.9178 -10
    endloop
  endfacet
  facet normal -0.207918 0.978146 0
    outer loop
      vertex -4.63525 14.2658 -10
      vertex -1.56793 14.9178 -20
      vertex -4.63525 14.2658 -20
    endloop
  endfacet
  facet normal -0.207918 0.978146 0
    outer loop
      vertex -1.56793 14.9178 10
      vertex -4.63525 14.2658 20
      vertex -1.56793 14.9178 20
    endloop
  endfacet
  facet normal -0.207918 0.978146 0
    outer loop
      vertex -4.63525 14.2658 20
      vertex -1.56793 14.9178 10
      vertex -4.63525 14.2658 10
    endloop
  endfacet
  facet normal 0.207918 -0.978146 0
    outer loop
      vertex 1.56793 -14.9178 10
      vertex 4.63525 -14.2658 20
      vertex 1.56793 -14.9178 20
    endloop
  endfacet
  facet normal 0.207918 -0.978146 0
    outer loop
      vertex 4.63525 -14.2658 20
      vertex 1.56793 -14.9178 10
      vertex 4.63525 -14.2658 10
    endloop
  endfacet
  facet normal 0.207918 -0.978146 0
    outer loop
      vertex 1.56793 -14.9178 -20
      vertex 4.63525 -14.2658 -10
      vertex 1.56793 -14.9178 -10
    endloop
  endfacet
  facet normal 0.207918 -0.978146 0
    outer loop
      vertex 4.63525 -14.2658 -10
      vertex 1.56793 -14.9178 -20
      vertex 4.63525 -14.2658 -20
    endloop
  endfacet
  facet normal 0.743148 -0.669127 0
    outer loop
      vertex 10.037 -11.1472 -10
      vertex 12.1353 -8.81678 -20
      vertex 12.1353 -8.81678 -10
    endloop
  endfacet
  facet normal 0.743148 -0.669127 0
    outer loop
      vertex 12.1353 -8.81678 -20
      vertex 10.037 -11.1472 -10
      vertex 10.037 -11.1472 -20
    endloop
  endfacet
  facet normal 0.743148 -0.669127 0
    outer loop
      vertex 10.037 -11.1472 20
      vertex 12.1353 -8.81678 10
      vertex 12.1353 -8.81678 20
    endloop
  endfacet
  facet normal 0.743148 -0.669127 0
    outer loop
      vertex 12.1353 -8.81678 10
      vertex 10.037 -11.1472 20
      vertex 10.037 -11.1472 10
    endloop
  endfacet
  facet normal 0.406718 -0.913554 0
    outer loop
      vertex 4.63525 -14.2658 10
      vertex 7.5 -12.9904 20
      vertex 4.63525 -14.2658 20
    endloop
  endfacet
  facet normal 0.406718 -0.913554 0
    outer loop
      vertex 7.5 -12.9904 20
      vertex 4.63525 -14.2658 10
      vertex 7.5 -12.9904 10
    endloop
  endfacet
  facet normal 0.406718 -0.913554 0
    outer loop
      vertex 4.63525 -14.2658 -20
      vertex 7.5 -12.9904 -10
      vertex 4.63525 -14.2658 -10
    endloop
  endfacet
  facet normal 0.406718 -0.913554 0
    outer loop
      vertex 7.5 -12.9904 -10
      vertex 4.63525 -14.2658 -20
      vertex 7.5 -12.9904 -20
    endloop
  endfacet
  facet normal -0.587777 -0.809023 0
    outer loop
      vertex -10.037 -11.1472 -20
      vertex -7.5 -12.9904 -10
      vertex -10.037 -11.1472 -10
    endloop
  endfacet
  facet normal -0.587777 -0.809023 -0
    outer loop
      vertex -7.5 -12.9904 -10
      vertex -10.037 -11.1472 -20
      vertex -7.5 -12.9904 -20
    endloop
  endfacet
  facet normal -0.587777 -0.809023 0
    outer loop
      vertex -10.037 -11.1472 10
      vertex -7.5 -12.9904 20
      vertex -10.037 -11.1472 20
    endloop
  endfacet
  facet normal -0.587777 -0.809023 -0
    outer loop
      vertex -7.5 -12.9904 20
      vertex -10.037 -11.1472 10
      vertex -7.5 -12.9904 10
    endloop
  endfacet
  facet normal -0.994526 0.104487 0
    outer loop
      vertex -14.6722 3.11868 -20
      vertex -14.7372 2.5 -10
      vertex -14.6722 3.11868 -10
    endloop
  endfacet
  facet normal -0.99452 0.104544 0
    outer loop
      vertex -14.7372 2.5 -10
      vertex -15 0 -20
      vertex -14.7372 2.5 10
    endloop
  endfacet
  facet normal -0.994521 0.104533 2.84145e-06
    outer loop
      vertex -15 0 -20
      vertex -14.7372 2.5 -10
      vertex -14.6722 3.11868 -20
    endloop
  endfacet
  facet normal -0.994526 0.104487 0
    outer loop
      vertex -14.7372 2.5 10
      vertex -14.6722 3.11868 20
      vertex -14.6722 3.11868 10
    endloop
  endfacet
  facet normal -0.99452 0.104544 0
    outer loop
      vertex -15 0 20
      vertex -14.7372 2.5 10
      vertex -15 0 -20
    endloop
  endfacet
  facet normal -0.994521 0.104533 -2.84145e-06
    outer loop
      vertex -14.7372 2.5 10
      vertex -15 0 20
      vertex -14.6722 3.11868 20
    endloop
  endfacet
  facet normal 0.207918 0.978146 -0
    outer loop
      vertex 4.63525 14.2658 10
      vertex 1.56793 14.9178 20
      vertex 4.63525 14.2658 20
    endloop
  endfacet
  facet normal 0.207918 0.978146 0
    outer loop
      vertex 1.56793 14.9178 20
      vertex 4.63525 14.2658 10
      vertex 1.56793 14.9178 10
    endloop
  endfacet
  facet normal 0.207918 0.978146 -0
    outer loop
      vertex 4.63525 14.2658 -20
      vertex 1.56793 14.9178 -10
      vertex 4.63525 14.2658 -10
    endloop
  endfacet
  facet normal 0.207918 0.978146 0
    outer loop
      vertex 1.56793 14.9178 -10
      vertex 4.63525 14.2658 -20
      vertex 1.56793 14.9178 -20
    endloop
  endfacet
  facet normal -0.866029 -0.499993 0
    outer loop
      vertex -12.1353 -8.81678 -20
      vertex -13.7032 -6.10105 -10
      vertex -13.7032 -6.10105 -20
    endloop
  endfacet
  facet normal -0.866029 -0.499993 0
    outer loop
      vertex -13.7032 -6.10105 -10
      vertex -12.1353 -8.81678 -20
      vertex -12.1353 -8.81678 -10
    endloop
  endfacet
  facet normal -0.866029 -0.499993 0
    outer loop
      vertex -12.1353 -8.81678 10
      vertex -13.7032 -6.10105 20
      vertex -13.7032 -6.10105 10
    endloop
  endfacet
  facet normal -0.866029 -0.499993 0
    outer loop
      vertex -13.7032 -6.10105 20
      vertex -12.1353 -8.81678 10
      vertex -12.1353 -8.81678 20
    endloop
  endfacet
  facet normal 0.406718 0.913554 -0
    outer loop
      vertex 7.5 12.9904 10
      vertex 4.63525 14.2658 20
      vertex 7.5 12.9904 20
    endloop
  endfacet
  facet normal 0.406718 0.913554 0
    outer loop
      vertex 4.63525 14.2658 20
      vertex 7.5 12.9904 10
      vertex 4.63525 14.2658 10
    endloop
  endfacet
  facet normal 0.406718 0.913554 -0
    outer loop
      vertex 7.5 12.9904 -20
      vertex 4.63525 14.2658 -10
      vertex 7.5 12.9904 -10
    endloop
  endfacet
  facet normal 0.406718 0.913554 0
    outer loop
      vertex 4.63525 14.2658 -10
      vertex 7.5 12.9904 -20
      vertex 4.63525 14.2658 -20
    endloop
  endfacet
  facet normal -0.99452 -0.104544 0
    outer loop
      vertex -15 0 -20
      vertex -14.7372 -2.5 -10
      vertex -15 0 20
    endloop
  endfacet
  facet normal -0.994521 -0.104533 2.84145e-06
    outer loop
      vertex -14.6722 -3.11868 -20
      vertex -14.7372 -2.5 -10
      vertex -15 0 -20
    endloop
  endfacet
  facet normal -0.994526 -0.104487 0
    outer loop
      vertex -14.7372 -2.5 -10
      vertex -14.6722 -3.11868 -20
      vertex -14.6722 -3.11868 -10
    endloop
  endfacet
  facet normal -0.99452 -0.104544 -0
    outer loop
      vertex -14.7372 -2.5 10
      vertex -15 0 20
      vertex -14.7372 -2.5 -10
    endloop
  endfacet
  facet normal -0.994526 -0.104487 -0
    outer loop
      vertex -14.6722 -3.11868 20
      vertex -14.7372 -2.5 10
      vertex -14.6722 -3.11868 10
    endloop
  endfacet
  facet normal -0.994521 -0.104533 -2.84145e-06
    outer loop
      vertex -14.7372 -2.5 10
      vertex -14.6722 -3.11868 20
      vertex -15 0 20
    endloop
  endfacet
  facet normal -0.743148 -0.669127 0
    outer loop
      vertex -10.037 -11.1472 -20
      vertex -12.1353 -8.81678 -10
      vertex -12.1353 -8.81678 -20
    endloop
  endfacet
  facet normal -0.743148 -0.669127 0
    outer loop
      vertex -12.1353 -8.81678 -10
      vertex -10.037 -11.1472 -20
      vertex -10.037 -11.1472 -10
    endloop
  endfacet
  facet normal -0.743148 -0.669127 0
    outer loop
      vertex -10.037 -11.1472 10
      vertex -12.1353 -8.81678 20
      vertex -12.1353 -8.81678 10
    endloop
  endfacet
  facet normal -0.743148 -0.669127 0
    outer loop
      vertex -12.1353 -8.81678 20
      vertex -10.037 -11.1472 10
      vertex -10.037 -11.1472 20
    endloop
  endfacet
  facet normal 0 0 -1
    outer loop
      vertex 5 0 -20
      vertex 15 0 -20
      vertex 14.6722 -3.11868 -20
    endloop
  endfacet
  facet normal 0 0 -1
    outer loop
      vertex 4.6194 -1.91342 -20
      vertex 14.6722 -3.11868 -20
      vertex 13.7032 -6.10105 -20
    endloop
  endfacet
  facet normal 0 0 -1
    outer loop
      vertex 15 0 -20
      vertex 5 0 -20
      vertex 14.6722 3.11868 -20
    endloop
  endfacet
  facet normal 0 0 -1
    outer loop
      vertex 4.6194 -1.91342 -20
      vertex 13.7032 -6.10105 -20
      vertex 12.1353 -8.81678 -20
    endloop
  endfacet
  facet normal 0 0 -1
    outer loop
      vertex 4.6194 1.91342 -20
      vertex 14.6722 3.11868 -20
      vertex 5 0 -20
    endloop
  endfacet
  facet normal 0 0 -1
    outer loop
      vertex 3.53553 -3.53553 -20
      vertex 12.1353 -8.81678 -20
      vertex 10.037 -11.1472 -20
    endloop
  endfacet
  facet normal -0 0 -1
    outer loop
      vertex 14.6722 3.11868 -20
      vertex 4.6194 1.91342 -20
      vertex 13.7032 6.10105 -20
    endloop
  endfacet
  facet normal 0 0 -1
    outer loop
      vertex 3.53553 -3.53553 -20
      vertex 10.037 -11.1472 -20
      vertex 7.5 -12.9904 -20
    endloop
  endfacet
  facet normal -0 0 -1
    outer loop
      vertex 13.7032 6.10105 -20
      vertex 4.6194 1.91342 -20
      vertex 12.1353 8.81678 -20
    endloop
  endfacet
  facet normal 0 0 -1
    outer loop
      vertex 3.53553 3.53553 -20
      vertex 12.1353 8.81678 -20
      vertex 4.6194 1.91342 -20
    endloop
  endfacet
  facet normal 0 0 -1
    outer loop
      vertex 1.91342 -4.6194 -20
      vertex 7.5 -12.9904 -20
      vertex 4.63525 -14.2658 -20
    endloop
  endfacet
  facet normal 0 0 -1
    outer loop
      vertex 14.6722 -3.11868 -20
      vertex 4.6194 -1.91342 -20
      vertex 5 0 -20
    endloop
  endfacet
  facet normal 0 0 -1
    outer loop
      vertex 12.1353 -8.81678 -20
      vertex 3.53553 -3.53553 -20
      vertex 4.6194 -1.91342 -20
    endloop
  endfacet
  facet normal 0 0 -1
    outer loop
      vertex 7.5 -12.9904 -20
      vertex 1.91342 -4.6194 -20
      vertex 3.53553 -3.53553 -20
    endloop
  endfacet
  facet normal 0 0 -1
    outer loop
      vertex 1.56793 -14.9178 -20
      vertex 1.91342 -4.6194 -20
      vertex 4.63525 -14.2658 -20
    endloop
  endfacet
  facet normal 0 0 -1
    outer loop
      vertex 1.56793 -14.9178 -20
      vertex 0 -5 -20
      vertex 1.91342 -4.6194 -20
    endloop
  endfacet
  facet normal 0 0 -1
    outer loop
      vertex -1.56793 -14.9178 -20
      vertex 0 -5 -20
      vertex 1.56793 -14.9178 -20
    endloop
  endfacet
  facet normal 0 0 -1
    outer loop
      vertex -1.56793 -14.9178 -20
      vertex -1.91342 -4.6194 -20
      vertex 0 -5 -20
    endloop
  endfacet
  facet normal 0 0 -1
    outer loop
      vertex -4.63525 -14.2658 -20
      vertex -1.91342 -4.6194 -20
      vertex -1.56793 -14.9178 -20
    endloop
  endfacet
  facet normal 0 0 -1
    outer loop
      vertex -7.5 -12.9904 -20
      vertex -1.91342 -4.6194 -20
      vertex -4.63525 -14.2658 -20
    endloop
  endfacet
  facet normal -0 0 -1
    outer loop
      vertex -1.91342 -4.6194 -20
      vertex -7.5 -12.9904 -20
      vertex -3.53553 -3.53553 -20
    endloop
  endfacet
  facet normal 0 0 -1
    outer loop
      vertex -10.037 -11.1472 -20
      vertex -3.53553 -3.53553 -20
      vertex -7.5 -12.9904 -20
    endloop
  endfacet
  facet normal 0 0 -1
    outer loop
      vertex -12.1353 -8.81678 -20
      vertex -3.53553 -3.53553 -20
      vertex -10.037 -11.1472 -20
    endloop
  endfacet
  facet normal -0 0 -1
    outer loop
      vertex 12.1353 8.81678 -20
      vertex 3.53553 3.53553 -20
      vertex 10.037 11.1472 -20
    endloop
  endfacet
  facet normal -0 0 -1
    outer loop
      vertex 10.037 11.1472 -20
      vertex 3.53553 3.53553 -20
      vertex 7.5 12.9904 -20
    endloop
  endfacet
  facet normal 0 0 -1
    outer loop
      vertex 1.91342 4.6194 -20
      vertex 7.5 12.9904 -20
      vertex 3.53553 3.53553 -20
    endloop
  endfacet
  facet normal -0 0 -1
    outer loop
      vertex 7.5 12.9904 -20
      vertex 1.91342 4.6194 -20
      vertex 4.63525 14.2658 -20
    endloop
  endfacet
  facet normal 0 0 -1
    outer loop
      vertex 1.91342 4.6194 -20
      vertex 1.56793 14.9178 -20
      vertex 4.63525 14.2658 -20
    endloop
  endfacet
  facet normal 0 0 -1
    outer loop
      vertex 0 5 -20
      vertex 1.56793 14.9178 -20
      vertex 1.91342 4.6194 -20
    endloop
  endfacet
  facet normal 0 0 -1
    outer loop
      vertex 0 5 -20
      vertex -1.56793 14.9178 -20
      vertex 1.56793 14.9178 -20
    endloop
  endfacet
  facet normal 0 0 -1
    outer loop
      vertex -1.91342 4.6194 -20
      vertex -1.56793 14.9178 -20
      vertex 0 5 -20
    endloop
  endfacet
  facet normal 0 0 -1
    outer loop
      vertex -7.5 12.9904 -20
      vertex -1.91342 4.6194 -20
      vertex -3.53553 3.53553 -20
    endloop
  endfacet
  facet normal 0 0 -1
    outer loop
      vertex -12.1353 8.81678 -20
      vertex -3.53553 3.53553 -20
      vertex -4.6194 1.91342 -20
    endloop
  endfacet
  facet normal 0 0 -1
    outer loop
      vertex -1.91342 4.6194 -20
      vertex -4.63525 14.2658 -20
      vertex -1.56793 14.9178 -20
    endloop
  endfacet
  facet normal 0 0 -1
    outer loop
      vertex -14.6722 3.11868 -20
      vertex -4.6194 1.91342 -20
      vertex -5 0 -20
    endloop
  endfacet
  facet normal -0 0 -1
    outer loop
      vertex -3.53553 -3.53553 -20
      vertex -12.1353 -8.81678 -20
      vertex -4.6194 -1.91342 -20
    endloop
  endfacet
  facet normal 0 0 -1
    outer loop
      vertex -1.91342 4.6194 -20
      vertex -7.5 12.9904 -20
      vertex -4.63525 14.2658 -20
    endloop
  endfacet
  facet normal 0 0 -1
    outer loop
      vertex -13.7032 -6.10105 -20
      vertex -4.6194 -1.91342 -20
      vertex -12.1353 -8.81678 -20
    endloop
  endfacet
  facet normal 0 0 -1
    outer loop
      vertex -3.53553 3.53553 -20
      vertex -10.037 11.1472 -20
      vertex -7.5 12.9904 -20
    endloop
  endfacet
  facet normal 0 0 -1
    outer loop
      vertex -14.6722 -3.11868 -20
      vertex -4.6194 -1.91342 -20
      vertex -13.7032 -6.10105 -20
    endloop
  endfacet
  facet normal 0 0 -1
    outer loop
      vertex -3.53553 3.53553 -20
      vertex -12.1353 8.81678 -20
      vertex -10.037 11.1472 -20
    endloop
  endfacet
  facet normal -0 0 -1
    outer loop
      vertex -4.6194 -1.91342 -20
      vertex -14.6722 -3.11868 -20
      vertex -5 0 -20
    endloop
  endfacet
  facet normal 0 0 -1
    outer loop
      vertex -4.6194 1.91342 -20
      vertex -13.7032 6.10105 -20
      vertex -12.1353 8.81678 -20
    endloop
  endfacet
  facet normal 0 0 -1
    outer loop
      vertex -15 0 -20
      vertex -5 0 -20
      vertex -14.6722 -3.11868 -20
    endloop
  endfacet
  facet normal 0 0 -1
    outer loop
      vertex -4.6194 1.91342 -20
      vertex -14.6722 3.11868 -20
      vertex -13.7032 6.10105 -20
    endloop
  endfacet
  facet normal 0 0 -1
    outer loop
      vertex -5 0 -20
      vertex -15 0 -20
      vertex -14.6722 3.11868 -20
    endloop
  endfacet
  facet normal -0.406718 -0.913554 0
    outer loop
      vertex -7.5 -12.9904 -20
      vertex -4.63525 -14.2658 -10
      vertex -7.5 -12.9904 -10
    endloop
  endfacet
  facet normal -0.406718 -0.913554 -0
    outer loop
      vertex -4.63525 -14.2658 -10
      vertex -7.5 -12.9904 -20
      vertex -4.63525 -14.2658 -20
    endloop
  endfacet
  facet normal -0.406718 -0.913554 0
    outer loop
      vertex -7.5 -12.9904 10
      vertex -4.63525 -14.2658 20
      vertex -7.5 -12.9904 20
    endloop
  endfacet
  facet normal -0.406718 -0.913554 -0
    outer loop
      vertex -4.63525 -14.2658 20
      vertex -7.5 -12.9904 10
      vertex -4.63525 -14.2658 10
    endloop
  endfacet
  facet normal 0.555574 -0.831467 0
    outer loop
      vertex -3.53553 3.53553 -20
      vertex -1.91342 4.6194 -10
      vertex -3.53553 3.53553 -10
    endloop
  endfacet
  facet normal 0.555574 -0.831467 0
    outer loop
      vertex -1.91342 4.6194 -10
      vertex -3.53553 3.53553 -20
      vertex -1.91342 4.6194 -20
    endloop
  endfacet
  facet normal -0.831466 -0.555576 0
    outer loop
      vertex 3.53553 3.53553 -20
      vertex 4.22746 2.5 -10
      vertex 3.53553 3.53553 -10
    endloop
  endfacet
  facet normal -0.831467 -0.555574 3.41955e-07
    outer loop
      vertex 4.6194 1.91342 -20
      vertex 4.22746 2.5 -10
      vertex 3.53553 3.53553 -20
    endloop
  endfacet
  facet normal -0.83147 -0.55557 -0
    outer loop
      vertex 4.6194 1.91342 10
      vertex 4.22746 2.5 -10
      vertex 4.6194 1.91342 -20
    endloop
  endfacet
  facet normal -0.83147 -0.55557 0
    outer loop
      vertex 4.22746 2.5 -10
      vertex 4.6194 1.91342 10
      vertex 4.22746 2.5 10
    endloop
  endfacet
  facet normal -0.980786 -0.195089 0
    outer loop
      vertex 5 0 -20
      vertex 4.6194 1.91342 10
      vertex 4.6194 1.91342 -20
    endloop
  endfacet
  facet normal -0.980786 -0.195089 0
    outer loop
      vertex 4.6194 1.91342 10
      vertex 5 0 -20
      vertex 5 0 10
    endloop
  endfacet
  facet normal 0.83147 -0.55557 0
    outer loop
      vertex -4.22746 2.5 10
      vertex -4.6194 1.91342 10
      vertex -4.22746 2.5 -10
    endloop
  endfacet
  facet normal 0.831466 -0.555576 0
    outer loop
      vertex -4.22746 2.5 -10
      vertex -3.53553 3.53553 -20
      vertex -3.53553 3.53553 -10
    endloop
  endfacet
  facet normal 0.831467 -0.555574 3.41955e-07
    outer loop
      vertex -4.22746 2.5 -10
      vertex -4.6194 1.91342 -20
      vertex -3.53553 3.53553 -20
    endloop
  endfacet
  facet normal 0.83147 -0.55557 0
    outer loop
      vertex -4.6194 1.91342 -20
      vertex -4.22746 2.5 -10
      vertex -4.6194 1.91342 10
    endloop
  endfacet
  facet normal 0.195089 0.980786 -0
    outer loop
      vertex 0 -5 -20
      vertex -1.91342 -4.6194 -10
      vertex 0 -5 -10
    endloop
  endfacet
  facet normal 0.195089 0.980786 0
    outer loop
      vertex -1.91342 -4.6194 -10
      vertex 0 -5 -20
      vertex -1.91342 -4.6194 -20
    endloop
  endfacet
  facet normal -0.195089 0.980786 0
    outer loop
      vertex 1.91342 -4.6194 -20
      vertex 0 -5 -10
      vertex 1.91342 -4.6194 -10
    endloop
  endfacet
  facet normal -0.195089 0.980786 0
    outer loop
      vertex 0 -5 -10
      vertex 1.91342 -4.6194 -20
      vertex 0 -5 -20
    endloop
  endfacet
  facet normal -0.555574 0.831467 0
    outer loop
      vertex 3.53553 -3.53553 -20
      vertex 1.91342 -4.6194 -10
      vertex 3.53553 -3.53553 -10
    endloop
  endfacet
  facet normal -0.555574 0.831467 0
    outer loop
      vertex 1.91342 -4.6194 -10
      vertex 3.53553 -3.53553 -20
      vertex 1.91342 -4.6194 -20
    endloop
  endfacet
  facet normal -0.83147 0.55557 0
    outer loop
      vertex 4.6194 -1.91342 -20
      vertex 4.22746 -2.5 -10
      vertex 4.6194 -1.91342 10
    endloop
  endfacet
  facet normal -0.831467 0.555574 3.41955e-07
    outer loop
      vertex 3.53553 -3.53553 -20
      vertex 4.22746 -2.5 -10
      vertex 4.6194 -1.91342 -20
    endloop
  endfacet
  facet normal -0.831466 0.555576 0
    outer loop
      vertex 4.22746 -2.5 -10
      vertex 3.53553 -3.53553 -20
      vertex 3.53553 -3.53553 -10
    endloop
  endfacet
  facet normal -0.83147 0.55557 0
    outer loop
      vertex 4.6194 -1.91342 10
      vertex 4.22746 -2.5 -10
      vertex 4.22746 -2.5 10
    endloop
  endfacet
  facet normal 0.980786 -0.195089 0
    outer loop
      vertex -5 0 10
      vertex -4.6194 1.91342 -20
      vertex -4.6194 1.91342 10
    endloop
  endfacet
  facet normal 0.980786 -0.195089 0
    outer loop
      vertex -4.6194 1.91342 -20
      vertex -5 0 10
      vertex -5 0 -20
    endloop
  endfacet
  facet normal -0.980786 0.195089 0
    outer loop
      vertex 4.6194 -1.91342 -20
      vertex 5 0 10
      vertex 5 0 -20
    endloop
  endfacet
  facet normal -0.980786 0.195089 0
    outer loop
      vertex 5 0 10
      vertex 4.6194 -1.91342 -20
      vertex 4.6194 -1.91342 10
    endloop
  endfacet
  facet normal 0.195089 -0.980786 0
    outer loop
      vertex -1.91342 4.6194 -20
      vertex 0 5 -10
      vertex -1.91342 4.6194 -10
    endloop
  endfacet
  facet normal 0.195089 -0.980786 0
    outer loop
      vertex 0 5 -10
      vertex -1.91342 4.6194 -20
      vertex 0 5 -20
    endloop
  endfacet
  facet normal -0.195089 -0.980786 0
    outer loop
      vertex 0 5 -20
      vertex 1.91342 4.6194 -10
      vertex 0 5 -10
    endloop
  endfacet
  facet normal -0.195089 -0.980786 -0
    outer loop
      vertex 1.91342 4.6194 -10
      vertex 0 5 -20
      vertex 1.91342 4.6194 -20
    endloop
  endfacet
  facet normal -0.555574 -0.831467 0
    outer loop
      vertex 1.91342 4.6194 -20
      vertex 3.53553 3.53553 -10
      vertex 1.91342 4.6194 -10
    endloop
  endfacet
  facet normal -0.555574 -0.831467 -0
    outer loop
      vertex 3.53553 3.53553 -10
      vertex 1.91342 4.6194 -20
      vertex 3.53553 3.53553 -20
    endloop
  endfacet
  facet normal 0.83147 0.55557 -0
    outer loop
      vertex -4.22746 -2.5 -10
      vertex -4.6194 -1.91342 10
      vertex -4.22746 -2.5 10
    endloop
  endfacet
  facet normal 0.83147 0.55557 0
    outer loop
      vertex -4.6194 -1.91342 10
      vertex -4.22746 -2.5 -10
      vertex -4.6194 -1.91342 -20
    endloop
  endfacet
  facet normal 0.831466 0.555576 -0
    outer loop
      vertex -3.53553 -3.53553 -20
      vertex -4.22746 -2.5 -10
      vertex -3.53553 -3.53553 -10
    endloop
  endfacet
  facet normal 0.831467 0.555574 3.41955e-07
    outer loop
      vertex -4.22746 -2.5 -10
      vertex -3.53553 -3.53553 -20
      vertex -4.6194 -1.91342 -20
    endloop
  endfacet
  facet normal 0 0 -1
    outer loop
      vertex 4.22746 -2.5 10
      vertex 14.6722 -3.11868 10
      vertex 13.7032 -6.10105 10
    endloop
  endfacet
  facet normal 0 0 -1
    outer loop
      vertex 4.22746 -2.5 10
      vertex 13.7032 -6.10105 10
      vertex 12.1353 -8.81678 10
    endloop
  endfacet
  facet normal 0 0 -1
    outer loop
      vertex 4.22746 -2.5 10
      vertex 12.1353 -8.81678 10
      vertex 10.037 -11.1472 10
    endloop
  endfacet
  facet normal 0 0 -1
    outer loop
      vertex 4.22746 -2.5 10
      vertex 10.037 -11.1472 10
      vertex 7.5 -12.9904 10
    endloop
  endfacet
  facet normal 0 0 -1
    outer loop
      vertex 4.22746 -2.5 10
      vertex 7.5 -12.9904 10
      vertex 4.63525 -14.2658 10
    endloop
  endfacet
  facet normal 0 0 -1
    outer loop
      vertex 14.6722 -3.11868 10
      vertex 4.22746 -2.5 10
      vertex 14.7372 -2.5 10
    endloop
  endfacet
  facet normal 0 0 -1
    outer loop
      vertex -4.22746 -2.5 10
      vertex 4.22746 -2.5 10
      vertex 1.56793 -14.9178 10
    endloop
  endfacet
  facet normal 0 0 -1
    outer loop
      vertex 1.56793 -14.9178 10
      vertex 4.22746 -2.5 10
      vertex 4.63525 -14.2658 10
    endloop
  endfacet
  facet normal 0 0 -1
    outer loop
      vertex 4.22746 -2.5 10
      vertex 5 0 10
      vertex 4.6194 -1.91342 10
    endloop
  endfacet
  facet normal 0 0 -1
    outer loop
      vertex 4.22746 2.5 10
      vertex 5 0 10
      vertex 4.22746 -2.5 10
    endloop
  endfacet
  facet normal 0 0 -1
    outer loop
      vertex 5 0 10
      vertex 4.22746 2.5 10
      vertex 4.6194 1.91342 10
    endloop
  endfacet
  facet normal 0 0 -1
    outer loop
      vertex 4.22746 2.5 10
      vertex 14.6722 3.11868 10
      vertex 14.7372 2.5 10
    endloop
  endfacet
  facet normal -0 0 -1
    outer loop
      vertex 14.6722 3.11868 10
      vertex 4.22746 2.5 10
      vertex 13.7032 6.10105 10
    endloop
  endfacet
  facet normal -0 0 -1
    outer loop
      vertex 13.7032 6.10105 10
      vertex 4.22746 2.5 10
      vertex 12.1353 8.81678 10
    endloop
  endfacet
  facet normal -0 0 -1
    outer loop
      vertex 12.1353 8.81678 10
      vertex 4.22746 2.5 10
      vertex 10.037 11.1472 10
    endloop
  endfacet
  facet normal -0 0 -1
    outer loop
      vertex 10.037 11.1472 10
      vertex 4.22746 2.5 10
      vertex 7.5 12.9904 10
    endloop
  endfacet
  facet normal -0 0 -1
    outer loop
      vertex 7.5 12.9904 10
      vertex 4.22746 2.5 10
      vertex 4.63525 14.2658 10
    endloop
  endfacet
  facet normal 0 0 -1
    outer loop
      vertex 4.22746 -2.5 10
      vertex -4.22746 -2.5 10
      vertex 4.22746 2.5 10
    endloop
  endfacet
  facet normal 0 0 -1
    outer loop
      vertex -4.22746 2.5 10
      vertex 4.22746 2.5 10
      vertex -4.22746 -2.5 10
    endloop
  endfacet
  facet normal 0 0 -1
    outer loop
      vertex -4.22746 -2.5 10
      vertex 1.56793 -14.9178 10
      vertex -1.56793 -14.9178 10
    endloop
  endfacet
  facet normal 0 -0 -1
    outer loop
      vertex 1.56793 14.9178 10
      vertex 4.22746 2.5 10
      vertex -4.22746 2.5 10
    endloop
  endfacet
  facet normal 0 0 -1
    outer loop
      vertex 4.22746 2.5 10
      vertex 1.56793 14.9178 10
      vertex 4.63525 14.2658 10
    endloop
  endfacet
  facet normal 0 0 -1
    outer loop
      vertex -4.63525 -14.2658 10
      vertex -4.22746 -2.5 10
      vertex -1.56793 -14.9178 10
    endloop
  endfacet
  facet normal 0 0 -1
    outer loop
      vertex -7.5 -12.9904 10
      vertex -4.22746 -2.5 10
      vertex -4.63525 -14.2658 10
    endloop
  endfacet
  facet normal 0 0 -1
    outer loop
      vertex -10.037 -11.1472 10
      vertex -4.22746 -2.5 10
      vertex -7.5 -12.9904 10
    endloop
  endfacet
  facet normal 0 0 -1
    outer loop
      vertex -12.1353 -8.81678 10
      vertex -4.22746 -2.5 10
      vertex -10.037 -11.1472 10
    endloop
  endfacet
  facet normal 0 0 -1
    outer loop
      vertex -13.7032 -6.10105 10
      vertex -4.22746 -2.5 10
      vertex -12.1353 -8.81678 10
    endloop
  endfacet
  facet normal 0 0 -1
    outer loop
      vertex -14.6722 -3.11868 10
      vertex -4.22746 -2.5 10
      vertex -13.7032 -6.10105 10
    endloop
  endfacet
  facet normal -0 0 -1
    outer loop
      vertex -4.22746 -2.5 10
      vertex -14.6722 -3.11868 10
      vertex -14.7372 -2.5 10
    endloop
  endfacet
  facet normal 0 0 -1
    outer loop
      vertex -5 0 10
      vertex -4.22746 -2.5 10
      vertex -4.6194 -1.91342 10
    endloop
  endfacet
  facet normal 0 0 -1
    outer loop
      vertex -4.22746 -2.5 10
      vertex -5 0 10
      vertex -4.22746 2.5 10
    endloop
  endfacet
  facet normal 0 0 -1
    outer loop
      vertex -4.22746 2.5 10
      vertex -5 0 10
      vertex -4.6194 1.91342 10
    endloop
  endfacet
  facet normal -0 0 -1
    outer loop
      vertex 1.56793 14.9178 10
      vertex -4.22746 2.5 10
      vertex -1.56793 14.9178 10
    endloop
  endfacet
  facet normal 0 0 -1
    outer loop
      vertex -4.22746 2.5 10
      vertex -4.63525 14.2658 10
      vertex -1.56793 14.9178 10
    endloop
  endfacet
  facet normal 0 0 -1
    outer loop
      vertex -4.22746 2.5 10
      vertex -7.5 12.9904 10
      vertex -4.63525 14.2658 10
    endloop
  endfacet
  facet normal 0 0 -1
    outer loop
      vertex -4.22746 2.5 10
      vertex -10.037 11.1472 10
      vertex -7.5 12.9904 10
    endloop
  endfacet
  facet normal 0 0 -1
    outer loop
      vertex -4.22746 2.5 10
      vertex -12.1353 8.81678 10
      vertex -10.037 11.1472 10
    endloop
  endfacet
  facet normal 0 0 -1
    outer loop
      vertex -4.22746 2.5 10
      vertex -13.7032 6.10105 10
      vertex -12.1353 8.81678 10
    endloop
  endfacet
  facet normal 0 0 -1
    outer loop
      vertex -4.22746 2.5 10
      vertex -14.6722 3.11868 10
      vertex -13.7032 6.10105 10
    endloop
  endfacet
  facet normal 0 -0 -1
    outer loop
      vertex -14.6722 3.11868 10
      vertex -4.22746 2.5 10
      vertex -14.7372 2.5 10
    endloop
  endfacet
  facet normal 0.980786 0.195089 0
    outer loop
      vertex -4.6194 -1.91342 10
      vertex -5 0 -20
      vertex -5 0 10
    endloop
  endfacet
  facet normal 0.980786 0.195089 0
    outer loop
      vertex -5 0 -20
      vertex -4.6194 -1.91342 10
      vertex -4.6194 -1.91342 -20
    endloop
  endfacet
  facet normal 0.555574 0.831467 -0
    outer loop
      vertex -1.91342 -4.6194 -20
      vertex -3.53553 -3.53553 -10
      vertex -1.91342 -4.6194 -10
    endloop
  endfacet
  facet normal 0.555574 0.831467 0
    outer loop
      vertex -3.53553 -3.53553 -10
      vertex -1.91342 -4.6194 -20
      vertex -3.53553 -3.53553 -20
    endloop
  endfacet
  facet normal 0 1 -0
    outer loop
      vertex -4.22746 2.5 -10
      vertex -14.7372 2.5 10
      vertex -4.22746 2.5 10
    endloop
  endfacet
  facet normal 0 1 0
    outer loop
      vertex -14.7372 2.5 10
      vertex -4.22746 2.5 -10
      vertex -14.7372 2.5 -10
    endloop
  endfacet
  facet normal 0 1 -0
    outer loop
      vertex 14.7372 2.5 -10
      vertex 4.22746 2.5 10
      vertex 14.7372 2.5 10
    endloop
  endfacet
  facet normal 0 1 0
    outer loop
      vertex 4.22746 2.5 10
      vertex 14.7372 2.5 -10
      vertex 4.22746 2.5 -10
    endloop
  endfacet
  facet normal 0 0 1
    outer loop
      vertex 4.22746 2.5 -10
      vertex 14.6722 3.11868 -10
      vertex 13.7032 6.10105 -10
    endloop
  endfacet
  facet normal 0 0 1
    outer loop
      vertex 4.22746 2.5 -10
      vertex 13.7032 6.10105 -10
      vertex 12.1353 8.81678 -10
    endloop
  endfacet
  facet normal 0 0 1
    outer loop
      vertex 3.53553 3.53553 -10
      vertex 12.1353 8.81678 -10
      vertex 10.037 11.1472 -10
    endloop
  endfacet
  facet normal 0 0 1
    outer loop
      vertex 3.53553 3.53553 -10
      vertex 10.037 11.1472 -10
      vertex 7.5 12.9904 -10
    endloop
  endfacet
  facet normal 0 0 1
    outer loop
      vertex 1.91342 4.6194 -10
      vertex 7.5 12.9904 -10
      vertex 4.63525 14.2658 -10
    endloop
  endfacet
  facet normal 0 0 1
    outer loop
      vertex 12.1353 8.81678 -10
      vertex 3.53553 3.53553 -10
      vertex 4.22746 2.5 -10
    endloop
  endfacet
  facet normal 0 0 1
    outer loop
      vertex 14.6722 3.11868 -10
      vertex 4.22746 2.5 -10
      vertex 14.7372 2.5 -10
    endloop
  endfacet
  facet normal 0 0 1
    outer loop
      vertex 7.5 12.9904 -10
      vertex 1.91342 4.6194 -10
      vertex 3.53553 3.53553 -10
    endloop
  endfacet
  facet normal 0 0 1
    outer loop
      vertex 1.56793 14.9178 -10
      vertex 1.91342 4.6194 -10
      vertex 4.63525 14.2658 -10
    endloop
  endfacet
  facet normal 0 0 1
    outer loop
      vertex 1.56793 14.9178 -10
      vertex 0 5 -10
      vertex 1.91342 4.6194 -10
    endloop
  endfacet
  facet normal -0 0 1
    outer loop
      vertex -1.56793 14.9178 -10
      vertex 0 5 -10
      vertex 1.56793 14.9178 -10
    endloop
  endfacet
  facet normal 0 0 1
    outer loop
      vertex -1.56793 14.9178 -10
      vertex -1.91342 4.6194 -10
      vertex 0 5 -10
    endloop
  endfacet
  facet normal -0 0 1
    outer loop
      vertex -4.63525 14.2658 -10
      vertex -1.91342 4.6194 -10
      vertex -1.56793 14.9178 -10
    endloop
  endfacet
  facet normal -0 0 1
    outer loop
      vertex -7.5 12.9904 -10
      vertex -1.91342 4.6194 -10
      vertex -4.63525 14.2658 -10
    endloop
  endfacet
  facet normal 0 0 1
    outer loop
      vertex -1.91342 4.6194 -10
      vertex -7.5 12.9904 -10
      vertex -3.53553 3.53553 -10
    endloop
  endfacet
  facet normal -0 0 1
    outer loop
      vertex -10.037 11.1472 -10
      vertex -3.53553 3.53553 -10
      vertex -7.5 12.9904 -10
    endloop
  endfacet
  facet normal -0 0 1
    outer loop
      vertex -12.1353 8.81678 -10
      vertex -3.53553 3.53553 -10
      vertex -10.037 11.1472 -10
    endloop
  endfacet
  facet normal 0 0 1
    outer loop
      vertex -3.53553 3.53553 -10
      vertex -12.1353 8.81678 -10
      vertex -4.22746 2.5 -10
    endloop
  endfacet
  facet normal -0 0 1
    outer loop
      vertex -13.7032 6.10105 -10
      vertex -4.22746 2.5 -10
      vertex -12.1353 8.81678 -10
    endloop
  endfacet
  facet normal -0 0 1
    outer loop
      vertex -14.6722 3.11868 -10
      vertex -4.22746 2.5 -10
      vertex -13.7032 6.10105 -10
    endloop
  endfacet
  facet normal 0 0 1
    outer loop
      vertex -4.22746 2.5 -10
      vertex -14.6722 3.11868 -10
      vertex -14.7372 2.5 -10
    endloop
  endfacet
  facet normal 0 -1 0
    outer loop
      vertex -14.7372 -2.5 -10
      vertex -4.22746 -2.5 10
      vertex -14.7372 -2.5 10
    endloop
  endfacet
  facet normal 0 -1 -0
    outer loop
      vertex -4.22746 -2.5 10
      vertex -14.7372 -2.5 -10
      vertex -4.22746 -2.5 -10
    endloop
  endfacet
  facet normal 0 -1 0
    outer loop
      vertex 4.22746 -2.5 -10
      vertex 14.7372 -2.5 10
      vertex 4.22746 -2.5 10
    endloop
  endfacet
  facet normal 0 -1 -0
    outer loop
      vertex 14.7372 -2.5 10
      vertex 4.22746 -2.5 -10
      vertex 14.7372 -2.5 -10
    endloop
  endfacet
  facet normal -0 0 1
    outer loop
      vertex 4.22746 -2.5 -10
      vertex 14.6722 -3.11868 -10
      vertex 14.7372 -2.5 -10
    endloop
  endfacet
  facet normal 0 0 1
    outer loop
      vertex 14.6722 -3.11868 -10
      vertex 4.22746 -2.5 -10
      vertex 13.7032 -6.10105 -10
    endloop
  endfacet
  facet normal 0 0 1
    outer loop
      vertex 13.7032 -6.10105 -10
      vertex 4.22746 -2.5 -10
      vertex 12.1353 -8.81678 -10
    endloop
  endfacet
  facet normal -0 0 1
    outer loop
      vertex 3.53553 -3.53553 -10
      vertex 12.1353 -8.81678 -10
      vertex 4.22746 -2.5 -10
    endloop
  endfacet
  facet normal 0 0 1
    outer loop
      vertex 12.1353 -8.81678 -10
      vertex 3.53553 -3.53553 -10
      vertex 10.037 -11.1472 -10
    endloop
  endfacet
  facet normal 0 0 1
    outer loop
      vertex 10.037 -11.1472 -10
      vertex 3.53553 -3.53553 -10
      vertex 7.5 -12.9904 -10
    endloop
  endfacet
  facet normal -0 0 1
    outer loop
      vertex 1.91342 -4.6194 -10
      vertex 7.5 -12.9904 -10
      vertex 3.53553 -3.53553 -10
    endloop
  endfacet
  facet normal 0 0 1
    outer loop
      vertex 7.5 -12.9904 -10
      vertex 1.91342 -4.6194 -10
      vertex 4.63525 -14.2658 -10
    endloop
  endfacet
  facet normal 0 0 1
    outer loop
      vertex 1.91342 -4.6194 -10
      vertex 1.56793 -14.9178 -10
      vertex 4.63525 -14.2658 -10
    endloop
  endfacet
  facet normal -0 0 1
    outer loop
      vertex 0 -5 -10
      vertex 1.56793 -14.9178 -10
      vertex 1.91342 -4.6194 -10
    endloop
  endfacet
  facet normal 0 0 1
    outer loop
      vertex 0 -5 -10
      vertex -1.56793 -14.9178 -10
      vertex 1.56793 -14.9178 -10
    endloop
  endfacet
  facet normal 0 0 1
    outer loop
      vertex -1.91342 -4.6194 -10
      vertex -1.56793 -14.9178 -10
      vertex 0 -5 -10
    endloop
  endfacet
  facet normal 0 0 1
    outer loop
      vertex -7.5 -12.9904 -10
      vertex -1.91342 -4.6194 -10
      vertex -3.53553 -3.53553 -10
    endloop
  endfacet
  facet normal 0 0 1
    outer loop
      vertex -12.1353 -8.81678 -10
      vertex -3.53553 -3.53553 -10
      vertex -4.22746 -2.5 -10
    endloop
  endfacet
  facet normal 0 0 1
    outer loop
      vertex -1.91342 -4.6194 -10
      vertex -4.63525 -14.2658 -10
      vertex -1.56793 -14.9178 -10
    endloop
  endfacet
  facet normal 0 0 1
    outer loop
      vertex -1.91342 -4.6194 -10
      vertex -7.5 -12.9904 -10
      vertex -4.63525 -14.2658 -10
    endloop
  endfacet
  facet normal 0 0 1
    outer loop
      vertex -3.53553 -3.53553 -10
      vertex -10.037 -11.1472 -10
      vertex -7.5 -12.9904 -10
    endloop
  endfacet
  facet normal 0 0 1
    outer loop
      vertex -3.53553 -3.53553 -10
      vertex -12.1353 -8.81678 -10
      vertex -10.037 -11.1472 -10
    endloop
  endfacet
  facet normal 0 0 1
    outer loop
      vertex -4.22746 -2.5 -10
      vertex -13.7032 -6.10105 -10
      vertex -12.1353 -8.81678 -10
    endloop
  endfacet
  facet normal 0 0 1
    outer loop
      vertex -4.22746 -2.5 -10
      vertex -14.6722 -3.11868 -10
      vertex -13.7032 -6.10105 -10
    endloop
  endfacet
  facet normal 0 -0 1
    outer loop
      vertex -14.6722 -3.11868 -10
      vertex -4.22746 -2.5 -10
      vertex -14.7372 -2.5 -10
    endloop
  endfacet
endsolid OpenSCAD_Model
