solid OpenSCAD_Model
  facet normal 1 -0 0
    outer loop
      vertex 30 -10 5
      vertex 30 10 -5
      vertex 30 10 5
    endloop
  endfacet
  facet normal 1 0 0
    outer loop
      vertex 30 10 -5
      vertex 30 -10 5
      vertex 30 -10 -5
    endloop
  endfacet
  facet normal 0 0 1
    outer loop
      vertex 30 10 5
      vertex 22 0 5
      vertex 30 -10 5
    endloop
  endfacet
  facet normal 0 0 1
    outer loop
      vertex 30 10 5
      vertex 21.247 1.56366 5
      vertex 22 0 5
    endloop
  endfacet
  facet normal 0 0 1
    outer loop
      vertex 30 10 5
      vertex 19.555 1.94986 5
      vertex 21.247 1.56366 5
    endloop
  endfacet
  facet normal 0 0 1
    outer loop
      vertex 18.1981 0.867767 5
      vertex -18 0 5
      vertex 18.1981 -0.867767 5
    endloop
  endfacet
  facet normal -0 0 1
    outer loop
      vertex -18.753 1.56366 5
      vertex 18.1981 0.867767 5
      vertex 19.555 1.94986 5
    endloop
  endfacet
  facet normal 0 0 1
    outer loop
      vertex -18.753 1.56366 5
      vertex 19.555 1.94986 5
      vertex 30 10 5
    endloop
  endfacet
  facet normal 0 0 1
    outer loop
      vertex 18.1981 0.867767 5
      vertex -18.753 1.56366 5
      vertex -18 0 5
    endloop
  endfacet
  facet normal -0 0 1
    outer loop
      vertex -30 10 5
      vertex -18.753 1.56366 5
      vertex 30 10 5
    endloop
  endfacet
  facet normal 0 0 1
    outer loop
      vertex -21.8019 0.867767 5
      vertex -30 10 5
      vertex -21.8019 -0.867767 5
    endloop
  endfacet
  facet normal 0 0 1
    outer loop
      vertex -20.445 1.94986 5
      vertex -30 10 5
      vertex -21.8019 0.867767 5
    endloop
  endfacet
  facet normal 0 0 1
    outer loop
      vertex -18.753 1.56366 5
      vertex -30 10 5
      vertex -20.445 1.94986 5
    endloop
  endfacet
  facet normal -0 0 1
    outer loop
      vertex 21.247 -1.56366 5
      vertex 30 -10 5
      vertex 22 0 5
    endloop
  endfacet
  facet normal -0 0 1
    outer loop
      vertex 19.555 -1.94986 5
      vertex 30 -10 5
      vertex 21.247 -1.56366 5
    endloop
  endfacet
  facet normal 0 0 1
    outer loop
      vertex -18.753 -1.56366 5
      vertex 18.1981 -0.867767 5
      vertex -18 0 5
    endloop
  endfacet
  facet normal 0 0 1
    outer loop
      vertex 18.1981 -0.867767 5
      vertex -18.753 -1.56366 5
      vertex 19.555 -1.94986 5
    endloop
  endfacet
  facet normal 0 0 1
    outer loop
      vertex 19.555 -1.94986 5
      vertex -18.753 -1.56366 5
      vertex 30 -10 5
    endloop
  endfacet
  facet normal 0 0 1
    outer loop
      vertex -30 -10 5
      vertex -18.753 -1.56366 5
      vertex -20.445 -1.94986 5
    endloop
  endfacet
  facet normal 0 0 1
    outer loop
      vertex -18.753 -1.56366 5
      vertex -30 -10 5
      vertex 30 -10 5
    endloop
  endfacet
  facet normal 0 0 1
    outer loop
      vertex -21.8019 -0.867767 5
      vertex -30 -10 5
      vertex -20.445 -1.94986 5
    endloop
  endfacet
  facet normal 0 0 1
    outer loop
      vertex -30 -10 5
      vertex -21.8019 -0.867767 5
      vertex -30 10 5
    endloop
  endfacet
  facet normal 0 0 -1
    outer loop
      vertex 30 -10 -5
      vertex 22 0 -5
      vertex 30 10 -5
    endloop
  endfacet
  facet normal 0 0 -1
    outer loop
      vertex 30 -10 -5
      vertex 21.247 -1.56366 -5
      vertex 22 0 -5
    endloop
  endfacet
  facet normal 0 0 -1
    outer loop
      vertex 30 -10 -5
      vertex 19.555 -1.94986 -5
      vertex 21.247 -1.56366 -5
    endloop
  endfacet
  facet normal 0 0 -1
    outer loop
      vertex 18.1981 -0.867767 -5
      vertex -18 0 -5
      vertex 18.1981 0.867767 -5
    endloop
  endfacet
  facet normal 0 0 -1
    outer loop
      vertex -18.753 -1.56366 -5
      vertex 18.1981 -0.867767 -5
      vertex 19.555 -1.94986 -5
    endloop
  endfacet
  facet normal 0 0 -1
    outer loop
      vertex -18.753 -1.56366 -5
      vertex 19.555 -1.94986 -5
      vertex 30 -10 -5
    endloop
  endfacet
  facet normal -0 0 -1
    outer loop
      vertex 18.1981 -0.867767 -5
      vertex -18.753 -1.56366 -5
      vertex -18 0 -5
    endloop
  endfacet
  facet normal 0 0 -1
    outer loop
      vertex -30 -10 -5
      vertex -18.753 -1.56366 -5
      vertex 30 -10 -5
    endloop
  endfacet
  facet normal -0 0 -1
    outer loop
      vertex -21.8019 -0.867767 -5
      vertex -30 -10 -5
      vertex -21.8019 0.867767 -5
    endloop
  endfacet
  facet normal -0 0 -1
    outer loop
      vertex -20.445 -1.94986 -5
      vertex -30 -10 -5
      vertex -21.8019 -0.867767 -5
    endloop
  endfacet
  facet normal 0 0 -1
    outer loop
      vertex -18.753 -1.56366 -5
      vertex -30 -10 -5
      vertex -20.445 -1.94986 -5
    endloop
  endfacet
  facet normal 0 0 -1
    outer loop
      vertex 21.247 1.56366 -5
      vertex 30 10 -5
      vertex 22 0 -5
    endloop
  endfacet
  facet normal 0 0 -1
    outer loop
      vertex 19.555 1.94986 -5
      vertex 30 10 -5
      vertex 21.247 1.56366 -5
    endloop
  endfacet
  facet normal 0 0 -1
    outer loop
      vertex -18.753 1.56366 -5
      vertex 18.1981 0.867767 -5
      vertex -18 0 -5
    endloop
  endfacet
  facet normal 0 0 -1
    outer loop
      vertex 18.1981 0.867767 -5
      vertex -18.753 1.56366 -5
      vertex 19.555 1.94986 -5
    endloop
  endfacet
  facet normal -0 0 -1
    outer loop
      vertex 19.555 1.94986 -5
      vertex -18.753 1.56366 -5
      vertex 30 10 -5
    endloop
  endfacet
  facet normal 0 0 -1
    outer loop
      vertex -30 10 -5
      vertex -18.753 1.56366 -5
      vertex -20.445 1.94986 -5
    endloop
  endfacet
  facet normal 0 0 -1
    outer loop
      vertex -18.753 1.56366 -5
      vertex -30 10 -5
      vertex 30 10 -5
    endloop
  endfacet
  facet normal 0 0 -1
    outer loop
      vertex -21.8019 0.867767 -5
      vertex -30 10 -5
      vertex -20.445 1.94986 -5
    endloop
  endfacet
  facet normal 0 0 -1
    outer loop
      vertex -30 10 -5
      vertex -21.8019 0.867767 -5
      vertex -30 -10 -5
    endloop
  endfacet
  facet normal -1 0 0
    outer loop
      vertex -30 -10 -5
      vertex -30 10 5
      vertex -30 10 -5
    endloop
  endfacet
  facet normal -1 -0 0
    outer loop
      vertex -30 10 5
      vertex -30 -10 -5
      vertex -30 -10 5
    endloop
  endfacet
  facet normal 0 1 -0
    outer loop
      vertex 30 10 -5
      vertex -30 10 5
      vertex 30 10 5
    endloop
  endfacet
  facet normal 0 1 0
    outer loop
      vertex -30 10 5
      vertex 30 10 -5
      vertex -30 10 -5
    endloop
  endfacet
  facet normal 0 -1 0
    outer loop
      vertex -30 -10 -5
      vertex 30 -10 5
      vertex -30 -10 5
    endloop
  endfacet
  facet normal 0 -1 -0
    outer loop
      vertex 30 -10 5
      vertex -30 -10 -5
      vertex 30 -10 -5
    endloop
  endfacet
  facet normal -0.222528 -0.974926 0
    outer loop
      vertex -20.445 1.94986 -5
      vertex -18.753 1.56366 5
      vertex -20.445 1.94986 5
    endloop
  endfacet
  facet normal -0.222528 -0.974926 -0
    outer loop
      vertex -18.753 1.56366 5
      vertex -20.445 1.94986 -5
      vertex -18.753 1.56366 -5
    endloop
  endfacet
  facet normal -0.900973 -0.433875 0
    outer loop
      vertex -18 0 -5
      vertex -18.753 1.56366 5
      vertex -18.753 1.56366 -5
    endloop
  endfacet
  facet normal -0.900973 -0.433875 0
    outer loop
      vertex -18.753 1.56366 5
      vertex -18 0 -5
      vertex -18 0 5
    endloop
  endfacet
  facet normal -0.900973 0.433875 0
    outer loop
      vertex -18.753 -1.56366 -5
      vertex -18 0 5
      vertex -18 0 -5
    endloop
  endfacet
  facet normal -0.900973 0.433875 0
    outer loop
      vertex -18 0 5
      vertex -18.753 -1.56366 -5
      vertex -18.753 -1.56366 5
    endloop
  endfacet
  facet normal 0.62349 0.781831 -0
    outer loop
      vertex -20.445 -1.94986 -5
      vertex -21.8019 -0.867767 5
      vertex -20.445 -1.94986 5
    endloop
  endfacet
  facet normal 0.62349 0.781831 0
    outer loop
      vertex -21.8019 -0.867767 5
      vertex -20.445 -1.94986 -5
      vertex -21.8019 -0.867767 -5
    endloop
  endfacet
  facet normal -0.222528 0.974926 0
    outer loop
      vertex -18.753 -1.56366 -5
      vertex -20.445 -1.94986 5
      vertex -18.753 -1.56366 5
    endloop
  endfacet
  facet normal -0.222528 0.974926 0
    outer loop
      vertex -20.445 -1.94986 5
      vertex -18.753 -1.56366 -5
      vertex -20.445 -1.94986 -5
    endloop
  endfacet
  facet normal 1 -0 0
    outer loop
      vertex -21.8019 -0.867767 5
      vertex -21.8019 0.867767 -5
      vertex -21.8019 0.867767 5
    endloop
  endfacet
  facet normal 1 0 0
    outer loop
      vertex -21.8019 0.867767 -5
      vertex -21.8019 -0.867767 5
      vertex -21.8019 -0.867767 -5
    endloop
  endfacet
  facet normal 0.62349 -0.781831 0
    outer loop
      vertex -21.8019 0.867767 -5
      vertex -20.445 1.94986 5
      vertex -21.8019 0.867767 5
    endloop
  endfacet
  facet normal 0.62349 -0.781831 0
    outer loop
      vertex -20.445 1.94986 5
      vertex -21.8019 0.867767 -5
      vertex -20.445 1.94986 -5
    endloop
  endfacet
  facet normal -0.222528 -0.974926 0
    outer loop
      vertex 19.555 1.94986 -5
      vertex 21.247 1.56366 5
      vertex 19.555 1.94986 5
    endloop
  endfacet
  facet normal -0.222528 -0.974926 -0
    outer loop
      vertex 21.247 1.56366 5
      vertex 19.555 1.94986 -5
      vertex 21.247 1.56366 -5
    endloop
  endfacet
  facet normal -0.900973 -0.433875 0
    outer loop
      vertex 22 0 -5
      vertex 21.247 1.56366 5
      vertex 21.247 1.56366 -5
    endloop
  endfacet
  facet normal -0.900973 -0.433875 0
    outer loop
      vertex 21.247 1.56366 5
      vertex 22 0 -5
      vertex 22 0 5
    endloop
  endfacet
  facet normal -0.900973 0.433875 0
    outer loop
      vertex 21.247 -1.56366 -5
      vertex 22 0 5
      vertex 22 0 -5
    endloop
  endfacet
  facet normal -0.900973 0.433875 0
    outer loop
      vertex 22 0 5
      vertex 21.247 -1.56366 -5
      vertex 21.247 -1.56366 5
    endloop
  endfacet
  facet normal 0.62349 0.781831 -0
    outer loop
      vertex 19.555 -1.94986 -5
      vertex 18.1981 -0.867767 5
      vertex 19.555 -1.94986 5
    endloop
  endfacet
  facet normal 0.62349 0.781831 0
    outer loop
      vertex 18.1981 -0.867767 5
      vertex 19.555 -1.94986 -5
      vertex 18.1981 -0.867767 -5
    endloop
  endfacet
  facet normal -0.222528 0.974926 0
    outer loop
      vertex 21.247 -1.56366 -5
      vertex 19.555 -1.94986 5
      vertex 21.247 -1.56366 5
    endloop
  endfacet
  facet normal -0.222528 0.974926 0
    outer loop
      vertex 19.555 -1.94986 5
      vertex 21.247 -1.56366 -5
      vertex 19.555 -1.94986 -5
    endloop
  endfacet
  facet normal 1 -0 0
    outer loop
      vertex 18.1981 -0.867767 5
      vertex 18.1981 0.867767 -5
      vertex 18.1981 0.867767 5
    endloop
  endfacet
  facet normal 1 0 0
    outer loop
      vertex 18.1981 0.867767 -5
      vertex 18.1981 -0.867767 5
      vertex 18.1981 -0.867767 -5
    endloop
  endfacet
  facet normal 0.62349 -0.781831 0
    outer loop
      vertex 18.1981 0.867767 -5
      vertex 19.555 1.94986 5
      vertex 18.1981 0.867767 5
    endloop
  endfacet
  facet normal 0.62349 -0.781831 0
    outer loop
      vertex 19.555 1.94986 5
      vertex 18.1981 0.867767 -5
      vertex 19.555 1.94986 -5
    endloop
  endfacet
endsolid OpenSCAD_Model
